G04 #@! TF.GenerationSoftware,KiCad,Pcbnew,(5.1.5-1-g2528d3844)*
G04 #@! TF.CreationDate,2019-12-26T13:43:01-05:00*
G04 #@! TF.ProjectId,diode-or,64696f64-652d-46f7-922e-6b696361645f,rev?*
G04 #@! TF.SameCoordinates,Original*
G04 #@! TF.FileFunction,Legend,Top*
G04 #@! TF.FilePolarity,Positive*
%FSLAX46Y46*%
G04 Gerber Fmt 4.6, Leading zero omitted, Abs format (unit mm)*
G04 Created by KiCad (PCBNEW (5.1.5-1-g2528d3844)) date 2019-12-26 13:43:01*
%MOMM*%
%LPD*%
G04 APERTURE LIST*
%ADD10C,0.150000*%
%ADD11C,0.120000*%
%ADD12O,1.801600X2.101600*%
%ADD13R,1.801600X2.101600*%
%ADD14C,5.101600*%
%ADD15C,0.100000*%
%ADD16R,1.101600X1.101600*%
%ADD17R,5.101600X5.101600*%
%ADD18C,0.901600*%
%ADD19C,6.501600*%
%ADD20C,2.351600*%
%ADD21O,2.601600X4.601600*%
%ADD22R,2.601600X4.601600*%
%ADD23O,1.801600X1.801600*%
%ADD24R,1.801600X1.801600*%
%ADD25C,1.117600*%
G04 APERTURE END LIST*
D10*
X123569047Y-91400000D02*
X123569047Y-91876190D01*
X123450000Y-92114285D01*
X123211904Y-92352380D01*
X122735714Y-92471428D01*
X121902380Y-92471428D01*
X121426190Y-92352380D01*
X121188095Y-92114285D01*
X121069047Y-91876190D01*
X121069047Y-91400000D01*
X121188095Y-91161904D01*
X121426190Y-90923809D01*
X121902380Y-90804761D01*
X122735714Y-90804761D01*
X123211904Y-90923809D01*
X123450000Y-91161904D01*
X123569047Y-91400000D01*
X123569047Y-93542857D02*
X121545238Y-93542857D01*
X121307142Y-93661904D01*
X121188095Y-93780952D01*
X121069047Y-94019047D01*
X121069047Y-94495238D01*
X121188095Y-94733333D01*
X121307142Y-94852380D01*
X121545238Y-94971428D01*
X123569047Y-94971428D01*
X123569047Y-95804761D02*
X123569047Y-97233333D01*
X121069047Y-96519047D02*
X123569047Y-96519047D01*
X199030952Y-95709523D02*
X196530952Y-95709523D01*
X199030952Y-94519047D02*
X196530952Y-94519047D01*
X199030952Y-93090476D01*
X196530952Y-93090476D01*
X179890000Y-105500000D02*
X170390000Y-105500000D01*
X179890000Y-110500000D02*
X179890000Y-105500000D01*
X170390000Y-110500000D02*
X179890000Y-110500000D01*
X170390000Y-105500000D02*
X170390000Y-110500000D01*
X165451109Y-104950000D02*
X138451109Y-104950000D01*
X165451109Y-83650000D02*
X138451109Y-83650000D01*
X138451109Y-66350000D02*
X138451109Y-122250000D01*
X165451109Y-66350000D02*
X138451109Y-66350000D01*
X165451109Y-122250000D02*
X165451109Y-66350000D01*
X138451109Y-122250000D02*
X165451109Y-122250000D01*
D11*
X150146109Y-104751000D02*
X150146109Y-99480000D01*
X153755109Y-104751000D02*
X153755109Y-99480000D01*
X143881109Y-104751000D02*
X143881109Y-99480000D01*
X160021109Y-104751000D02*
X160021109Y-99480000D01*
X160021109Y-99480000D02*
X143881109Y-99480000D01*
X160021109Y-104751000D02*
X143881109Y-104751000D01*
X153756109Y-83849000D02*
X153756109Y-89120000D01*
X150147109Y-83849000D02*
X150147109Y-89120000D01*
X160021109Y-83849000D02*
X160021109Y-89120000D01*
X143881109Y-83849000D02*
X143881109Y-89120000D01*
X143881109Y-89120000D02*
X160021109Y-89120000D01*
X143881109Y-83849000D02*
X160021109Y-83849000D01*
D10*
X171266666Y-111704761D02*
X171409523Y-111752380D01*
X171647619Y-111752380D01*
X171742857Y-111704761D01*
X171790476Y-111657142D01*
X171838095Y-111561904D01*
X171838095Y-111466666D01*
X171790476Y-111371428D01*
X171742857Y-111323809D01*
X171647619Y-111276190D01*
X171457142Y-111228571D01*
X171361904Y-111180952D01*
X171314285Y-111133333D01*
X171266666Y-111038095D01*
X171266666Y-110942857D01*
X171314285Y-110847619D01*
X171361904Y-110800000D01*
X171457142Y-110752380D01*
X171695238Y-110752380D01*
X171838095Y-110800000D01*
X172171428Y-110752380D02*
X172409523Y-111752380D01*
X172600000Y-111038095D01*
X172790476Y-111752380D01*
X173028571Y-110752380D01*
X173933333Y-111752380D02*
X173361904Y-111752380D01*
X173647619Y-111752380D02*
X173647619Y-110752380D01*
X173552380Y-110895238D01*
X173457142Y-110990476D01*
X173361904Y-111038095D01*
X150713013Y-94752380D02*
X150713013Y-93752380D01*
X150713013Y-94228571D02*
X151284442Y-94228571D01*
X151284442Y-94752380D02*
X151284442Y-93752380D01*
X151713013Y-94704761D02*
X151855870Y-94752380D01*
X152093966Y-94752380D01*
X152189204Y-94704761D01*
X152236823Y-94657142D01*
X152284442Y-94561904D01*
X152284442Y-94466666D01*
X152236823Y-94371428D01*
X152189204Y-94323809D01*
X152093966Y-94276190D01*
X151903489Y-94228571D01*
X151808251Y-94180952D01*
X151760632Y-94133333D01*
X151713013Y-94038095D01*
X151713013Y-93942857D01*
X151760632Y-93847619D01*
X151808251Y-93800000D01*
X151903489Y-93752380D01*
X152141585Y-93752380D01*
X152284442Y-93800000D01*
X153236823Y-94752380D02*
X152665394Y-94752380D01*
X152951109Y-94752380D02*
X152951109Y-93752380D01*
X152855870Y-93895238D01*
X152760632Y-93990476D01*
X152665394Y-94038095D01*
X122607585Y-109337515D02*
X121988995Y-109694658D01*
X121841468Y-109724847D01*
X121711370Y-109689987D01*
X121598702Y-109590079D01*
X121551083Y-109507600D01*
X123083775Y-110162301D02*
X122845680Y-109749908D01*
X122409478Y-109946764D01*
X122474526Y-109964194D01*
X122563385Y-110022863D01*
X122682432Y-110229059D01*
X122688812Y-110335347D01*
X122671382Y-110400396D01*
X122612713Y-110489255D01*
X122406517Y-110608302D01*
X122300229Y-110614682D01*
X122235180Y-110597252D01*
X122146321Y-110538583D01*
X122027274Y-110332387D01*
X122020894Y-110226098D01*
X122038324Y-110161050D01*
X197066236Y-110303345D02*
X197613411Y-110762479D01*
X197692237Y-110890784D01*
X197703976Y-111024959D01*
X197648627Y-111165002D01*
X197587409Y-111237959D01*
X197903154Y-109824520D02*
X198413851Y-110253045D01*
X197458283Y-109762040D02*
X197852413Y-110403565D01*
X198250329Y-109929347D01*
X174568882Y-84752380D02*
X174568882Y-85466666D01*
X174521263Y-85609523D01*
X174426025Y-85704761D01*
X174283168Y-85752380D01*
X174187930Y-85752380D01*
X174949835Y-84752380D02*
X175568882Y-84752380D01*
X175235549Y-85133333D01*
X175378406Y-85133333D01*
X175473644Y-85180952D01*
X175521263Y-85228571D01*
X175568882Y-85323809D01*
X175568882Y-85561904D01*
X175521263Y-85657142D01*
X175473644Y-85704761D01*
X175378406Y-85752380D01*
X175092692Y-85752380D01*
X174997454Y-85704761D01*
X174949835Y-85657142D01*
X121877072Y-78148478D02*
X122382148Y-78653554D01*
X122449492Y-78788241D01*
X122449492Y-78922928D01*
X122382148Y-79057615D01*
X122314805Y-79124958D01*
X122247461Y-77912775D02*
X122247461Y-77845432D01*
X122281133Y-77744417D01*
X122449492Y-77576058D01*
X122550507Y-77542386D01*
X122617851Y-77542386D01*
X122718866Y-77576058D01*
X122786209Y-77643401D01*
X122853553Y-77778088D01*
X122853553Y-78586210D01*
X123291286Y-78148478D01*
X197651521Y-77577072D02*
X197146445Y-78082148D01*
X197011758Y-78149492D01*
X196877071Y-78149492D01*
X196742384Y-78082148D01*
X196675041Y-78014805D01*
X197651521Y-78991286D02*
X197247460Y-78587225D01*
X197449491Y-78789255D02*
X198156598Y-78082148D01*
X197988239Y-78115820D01*
X197853552Y-78115820D01*
X197752537Y-78082148D01*
X151804761Y-99147619D02*
X151709523Y-99100000D01*
X151614285Y-99004761D01*
X151471428Y-98861904D01*
X151376190Y-98814285D01*
X151280952Y-98814285D01*
X151328571Y-99052380D02*
X151233333Y-99004761D01*
X151138095Y-98909523D01*
X151090476Y-98719047D01*
X151090476Y-98385714D01*
X151138095Y-98195238D01*
X151233333Y-98100000D01*
X151328571Y-98052380D01*
X151519047Y-98052380D01*
X151614285Y-98100000D01*
X151709523Y-98195238D01*
X151757142Y-98385714D01*
X151757142Y-98719047D01*
X151709523Y-98909523D01*
X151614285Y-99004761D01*
X151519047Y-99052380D01*
X151328571Y-99052380D01*
X152709523Y-99052380D02*
X152138095Y-99052380D01*
X152423809Y-99052380D02*
X152423809Y-98052380D01*
X152328571Y-98195238D01*
X152233333Y-98290476D01*
X152138095Y-98338095D01*
X151213013Y-90452380D02*
X151213013Y-89452380D01*
X151451109Y-89452380D01*
X151593966Y-89500000D01*
X151689204Y-89595238D01*
X151736823Y-89690476D01*
X151784442Y-89880952D01*
X151784442Y-90023809D01*
X151736823Y-90214285D01*
X151689204Y-90309523D01*
X151593966Y-90404761D01*
X151451109Y-90452380D01*
X151213013Y-90452380D01*
X152736823Y-90452380D02*
X152165394Y-90452380D01*
X152451109Y-90452380D02*
X152451109Y-89452380D01*
X152355870Y-89595238D01*
X152260632Y-89690476D01*
X152165394Y-89738095D01*
%LPC*%
D12*
X177680000Y-108000000D03*
X175140000Y-108000000D03*
D13*
X172600000Y-108000000D03*
D14*
X140501109Y-107500000D03*
X163401109Y-107500000D03*
X163401109Y-81100000D03*
X140501109Y-81100000D03*
D15*
G36*
X133212536Y-116712222D02*
G01*
X132177371Y-117088991D01*
X131800602Y-116053826D01*
X132835767Y-115677057D01*
X133212536Y-116712222D01*
G37*
G36*
X134152229Y-116370202D02*
G01*
X133117064Y-116746971D01*
X132740295Y-115711806D01*
X133775460Y-115335037D01*
X134152229Y-116370202D01*
G37*
G36*
X135091921Y-116028182D02*
G01*
X134056756Y-116404951D01*
X133679987Y-115369786D01*
X134715152Y-114993017D01*
X135091921Y-116028182D01*
G37*
G36*
X136031614Y-115686162D02*
G01*
X134996449Y-116062931D01*
X134619680Y-115027766D01*
X135654845Y-114650997D01*
X136031614Y-115686162D01*
G37*
G36*
X135689594Y-114746469D02*
G01*
X134654429Y-115123238D01*
X134277660Y-114088073D01*
X135312825Y-113711304D01*
X135689594Y-114746469D01*
G37*
G36*
X135347574Y-113806777D02*
G01*
X134312409Y-114183546D01*
X133935640Y-113148381D01*
X134970805Y-112771612D01*
X135347574Y-113806777D01*
G37*
G36*
X135005554Y-112867084D02*
G01*
X133970389Y-113243853D01*
X133593620Y-112208688D01*
X134628785Y-111831919D01*
X135005554Y-112867084D01*
G37*
G36*
X134663534Y-111927391D02*
G01*
X133628369Y-112304160D01*
X133251600Y-111268995D01*
X134286765Y-110892226D01*
X134663534Y-111927391D01*
G37*
G36*
X133723841Y-112269411D02*
G01*
X132688676Y-112646180D01*
X132311907Y-111611015D01*
X133347072Y-111234246D01*
X133723841Y-112269411D01*
G37*
G36*
X132784148Y-112611432D02*
G01*
X131748983Y-112988201D01*
X131372214Y-111953036D01*
X132407379Y-111576267D01*
X132784148Y-112611432D01*
G37*
G36*
X131844456Y-112953452D02*
G01*
X130809291Y-113330221D01*
X130432522Y-112295056D01*
X131467687Y-111918287D01*
X131844456Y-112953452D01*
G37*
G36*
X130904763Y-113295472D02*
G01*
X129869598Y-113672241D01*
X129492829Y-112637076D01*
X130527994Y-112260307D01*
X130904763Y-113295472D01*
G37*
G36*
X131246783Y-114235164D02*
G01*
X130211618Y-114611933D01*
X129834849Y-113576768D01*
X130870014Y-113199999D01*
X131246783Y-114235164D01*
G37*
G36*
X131588803Y-115174857D02*
G01*
X130553638Y-115551626D01*
X130176869Y-114516461D01*
X131212034Y-114139692D01*
X131588803Y-115174857D01*
G37*
G36*
X131930823Y-116114550D02*
G01*
X130895658Y-116491319D01*
X130518889Y-115456154D01*
X131554054Y-115079385D01*
X131930823Y-116114550D01*
G37*
G36*
X132272844Y-117054242D02*
G01*
X131237679Y-117431011D01*
X130860910Y-116395846D01*
X131896075Y-116019077D01*
X132272844Y-117054242D01*
G37*
G36*
X136031615Y-115686162D02*
G01*
X131237679Y-117431012D01*
X129492829Y-112637076D01*
X134286765Y-110892226D01*
X136031615Y-115686162D01*
G37*
G36*
X186343244Y-116404951D02*
G01*
X185308079Y-116028182D01*
X185684848Y-114993017D01*
X186720013Y-115369786D01*
X186343244Y-116404951D01*
G37*
G36*
X187282936Y-116746971D02*
G01*
X186247771Y-116370202D01*
X186624540Y-115335037D01*
X187659705Y-115711806D01*
X187282936Y-116746971D01*
G37*
G36*
X188222629Y-117088991D02*
G01*
X187187464Y-116712222D01*
X187564233Y-115677057D01*
X188599398Y-116053826D01*
X188222629Y-117088991D01*
G37*
G36*
X189162321Y-117431011D02*
G01*
X188127156Y-117054242D01*
X188503925Y-116019077D01*
X189539090Y-116395846D01*
X189162321Y-117431011D01*
G37*
G36*
X189504342Y-116491319D02*
G01*
X188469177Y-116114550D01*
X188845946Y-115079385D01*
X189881111Y-115456154D01*
X189504342Y-116491319D01*
G37*
G36*
X189846362Y-115551626D02*
G01*
X188811197Y-115174857D01*
X189187966Y-114139692D01*
X190223131Y-114516461D01*
X189846362Y-115551626D01*
G37*
G36*
X190188382Y-114611933D02*
G01*
X189153217Y-114235164D01*
X189529986Y-113199999D01*
X190565151Y-113576768D01*
X190188382Y-114611933D01*
G37*
G36*
X190530402Y-113672241D02*
G01*
X189495237Y-113295472D01*
X189872006Y-112260307D01*
X190907171Y-112637076D01*
X190530402Y-113672241D01*
G37*
G36*
X189590709Y-113330221D02*
G01*
X188555544Y-112953452D01*
X188932313Y-111918287D01*
X189967478Y-112295056D01*
X189590709Y-113330221D01*
G37*
G36*
X188651017Y-112988201D02*
G01*
X187615852Y-112611432D01*
X187992621Y-111576267D01*
X189027786Y-111953036D01*
X188651017Y-112988201D01*
G37*
G36*
X187711324Y-112646180D02*
G01*
X186676159Y-112269411D01*
X187052928Y-111234246D01*
X188088093Y-111611015D01*
X187711324Y-112646180D01*
G37*
G36*
X186771631Y-112304160D02*
G01*
X185736466Y-111927391D01*
X186113235Y-110892226D01*
X187148400Y-111268995D01*
X186771631Y-112304160D01*
G37*
G36*
X186429611Y-113243853D02*
G01*
X185394446Y-112867084D01*
X185771215Y-111831919D01*
X186806380Y-112208688D01*
X186429611Y-113243853D01*
G37*
G36*
X186087591Y-114183546D02*
G01*
X185052426Y-113806777D01*
X185429195Y-112771612D01*
X186464360Y-113148381D01*
X186087591Y-114183546D01*
G37*
G36*
X185745571Y-115123238D02*
G01*
X184710406Y-114746469D01*
X185087175Y-113711304D01*
X186122340Y-114088073D01*
X185745571Y-115123238D01*
G37*
G36*
X185403551Y-116062931D02*
G01*
X184368386Y-115686162D01*
X184745155Y-114650997D01*
X185780320Y-115027766D01*
X185403551Y-116062931D01*
G37*
G36*
X189162321Y-117431012D02*
G01*
X184368385Y-115686162D01*
X186113235Y-110892226D01*
X190907171Y-112637076D01*
X189162321Y-117431012D01*
G37*
D16*
X161902216Y-93300000D03*
X161902216Y-94300000D03*
X161902216Y-95300000D03*
X161902216Y-96300000D03*
X162902216Y-96300000D03*
X163902216Y-96300000D03*
X164902216Y-96300000D03*
X165902216Y-96300000D03*
X165902216Y-95300000D03*
X165902216Y-94300000D03*
X165902216Y-93300000D03*
X165902216Y-92300000D03*
X164902216Y-92300000D03*
X163902216Y-92300000D03*
X162902216Y-92300000D03*
X161902216Y-92300000D03*
D17*
X163902216Y-94300000D03*
D15*
G36*
X138264230Y-94674495D02*
G01*
X137485281Y-95453444D01*
X136706332Y-94674495D01*
X137485281Y-93895546D01*
X138264230Y-94674495D01*
G37*
G36*
X138971337Y-93967388D02*
G01*
X138192388Y-94746337D01*
X137413439Y-93967388D01*
X138192388Y-93188439D01*
X138971337Y-93967388D01*
G37*
G36*
X139678444Y-93260281D02*
G01*
X138899495Y-94039230D01*
X138120546Y-93260281D01*
X138899495Y-92481332D01*
X139678444Y-93260281D01*
G37*
G36*
X140385551Y-92553175D02*
G01*
X139606602Y-93332124D01*
X138827653Y-92553175D01*
X139606602Y-91774226D01*
X140385551Y-92553175D01*
G37*
G36*
X139678444Y-91846068D02*
G01*
X138899495Y-92625017D01*
X138120546Y-91846068D01*
X138899495Y-91067119D01*
X139678444Y-91846068D01*
G37*
G36*
X138971337Y-91138961D02*
G01*
X138192388Y-91917910D01*
X137413439Y-91138961D01*
X138192388Y-90360012D01*
X138971337Y-91138961D01*
G37*
G36*
X138264230Y-90431854D02*
G01*
X137485281Y-91210803D01*
X136706332Y-90431854D01*
X137485281Y-89652905D01*
X138264230Y-90431854D01*
G37*
G36*
X137557124Y-89724747D02*
G01*
X136778175Y-90503696D01*
X135999226Y-89724747D01*
X136778175Y-88945798D01*
X137557124Y-89724747D01*
G37*
G36*
X136850017Y-90431854D02*
G01*
X136071068Y-91210803D01*
X135292119Y-90431854D01*
X136071068Y-89652905D01*
X136850017Y-90431854D01*
G37*
G36*
X136142910Y-91138961D02*
G01*
X135363961Y-91917910D01*
X134585012Y-91138961D01*
X135363961Y-90360012D01*
X136142910Y-91138961D01*
G37*
G36*
X135435803Y-91846068D02*
G01*
X134656854Y-92625017D01*
X133877905Y-91846068D01*
X134656854Y-91067119D01*
X135435803Y-91846068D01*
G37*
G36*
X134728696Y-92553175D02*
G01*
X133949747Y-93332124D01*
X133170798Y-92553175D01*
X133949747Y-91774226D01*
X134728696Y-92553175D01*
G37*
G36*
X135435803Y-93260281D02*
G01*
X134656854Y-94039230D01*
X133877905Y-93260281D01*
X134656854Y-92481332D01*
X135435803Y-93260281D01*
G37*
G36*
X136142910Y-93967388D02*
G01*
X135363961Y-94746337D01*
X134585012Y-93967388D01*
X135363961Y-93188439D01*
X136142910Y-93967388D01*
G37*
G36*
X136850017Y-94674495D02*
G01*
X136071068Y-95453444D01*
X135292119Y-94674495D01*
X136071068Y-93895546D01*
X136850017Y-94674495D01*
G37*
G36*
X137557124Y-95381602D02*
G01*
X136778175Y-96160551D01*
X135999226Y-95381602D01*
X136778175Y-94602653D01*
X137557124Y-95381602D01*
G37*
G36*
X140385551Y-92553175D02*
G01*
X136778175Y-96160551D01*
X133170799Y-92553175D01*
X136778175Y-88945799D01*
X140385551Y-92553175D01*
G37*
G36*
X182135770Y-74875505D02*
G01*
X182914719Y-74096556D01*
X183693668Y-74875505D01*
X182914719Y-75654454D01*
X182135770Y-74875505D01*
G37*
G36*
X181428663Y-75582612D02*
G01*
X182207612Y-74803663D01*
X182986561Y-75582612D01*
X182207612Y-76361561D01*
X181428663Y-75582612D01*
G37*
G36*
X180721556Y-76289719D02*
G01*
X181500505Y-75510770D01*
X182279454Y-76289719D01*
X181500505Y-77068668D01*
X180721556Y-76289719D01*
G37*
G36*
X180014449Y-76996825D02*
G01*
X180793398Y-76217876D01*
X181572347Y-76996825D01*
X180793398Y-77775774D01*
X180014449Y-76996825D01*
G37*
G36*
X180721556Y-77703932D02*
G01*
X181500505Y-76924983D01*
X182279454Y-77703932D01*
X181500505Y-78482881D01*
X180721556Y-77703932D01*
G37*
G36*
X181428663Y-78411039D02*
G01*
X182207612Y-77632090D01*
X182986561Y-78411039D01*
X182207612Y-79189988D01*
X181428663Y-78411039D01*
G37*
G36*
X182135770Y-79118146D02*
G01*
X182914719Y-78339197D01*
X183693668Y-79118146D01*
X182914719Y-79897095D01*
X182135770Y-79118146D01*
G37*
G36*
X182842876Y-79825253D02*
G01*
X183621825Y-79046304D01*
X184400774Y-79825253D01*
X183621825Y-80604202D01*
X182842876Y-79825253D01*
G37*
G36*
X183549983Y-79118146D02*
G01*
X184328932Y-78339197D01*
X185107881Y-79118146D01*
X184328932Y-79897095D01*
X183549983Y-79118146D01*
G37*
G36*
X184257090Y-78411039D02*
G01*
X185036039Y-77632090D01*
X185814988Y-78411039D01*
X185036039Y-79189988D01*
X184257090Y-78411039D01*
G37*
G36*
X184964197Y-77703932D02*
G01*
X185743146Y-76924983D01*
X186522095Y-77703932D01*
X185743146Y-78482881D01*
X184964197Y-77703932D01*
G37*
G36*
X185671304Y-76996825D02*
G01*
X186450253Y-76217876D01*
X187229202Y-76996825D01*
X186450253Y-77775774D01*
X185671304Y-76996825D01*
G37*
G36*
X184964197Y-76289719D02*
G01*
X185743146Y-75510770D01*
X186522095Y-76289719D01*
X185743146Y-77068668D01*
X184964197Y-76289719D01*
G37*
G36*
X184257090Y-75582612D02*
G01*
X185036039Y-74803663D01*
X185814988Y-75582612D01*
X185036039Y-76361561D01*
X184257090Y-75582612D01*
G37*
G36*
X183549983Y-74875505D02*
G01*
X184328932Y-74096556D01*
X185107881Y-74875505D01*
X184328932Y-75654454D01*
X183549983Y-74875505D01*
G37*
G36*
X182842876Y-74168398D02*
G01*
X183621825Y-73389449D01*
X184400774Y-74168398D01*
X183621825Y-74947347D01*
X182842876Y-74168398D01*
G37*
G36*
X180014449Y-76996825D02*
G01*
X183621825Y-73389449D01*
X187229201Y-76996825D01*
X183621825Y-80604201D01*
X180014449Y-76996825D01*
G37*
D18*
X197597056Y-113702944D03*
X195900000Y-113000000D03*
X194202944Y-113702944D03*
X193500000Y-115400000D03*
X194202944Y-117097056D03*
X195900000Y-117800000D03*
X197597056Y-117097056D03*
X198300000Y-115400000D03*
D19*
X195900000Y-115400000D03*
D18*
X126197056Y-113702944D03*
X124500000Y-113000000D03*
X122802944Y-113702944D03*
X122100000Y-115400000D03*
X122802944Y-117097056D03*
X124500000Y-117800000D03*
X126197056Y-117097056D03*
X126900000Y-115400000D03*
D19*
X124500000Y-115400000D03*
D18*
X197597056Y-71502944D03*
X195900000Y-70800000D03*
X194202944Y-71502944D03*
X193500000Y-73200000D03*
X194202944Y-74897056D03*
X195900000Y-75600000D03*
X197597056Y-74897056D03*
X198300000Y-73200000D03*
D19*
X195900000Y-73200000D03*
D18*
X126197056Y-71502944D03*
X124500000Y-70800000D03*
X122802944Y-71502944D03*
X122100000Y-73200000D03*
X122802944Y-74897056D03*
X124500000Y-75600000D03*
X126197056Y-74897056D03*
X126900000Y-73200000D03*
D19*
X124500000Y-73200000D03*
D20*
X168600000Y-108000000D03*
D21*
X146501109Y-102300000D03*
X151951109Y-102300000D03*
D22*
X157401109Y-102300000D03*
D21*
X157401109Y-86300000D03*
X151951109Y-86300000D03*
D22*
X146501109Y-86300000D03*
D23*
X187440000Y-94300000D03*
D24*
X184900000Y-94300000D03*
D25*
X148800000Y-111100000D03*
M02*
