G04 #@! TF.GenerationSoftware,KiCad,Pcbnew,(5.1.5-1-g2528d3844)*
G04 #@! TF.CreationDate,2020-01-10T11:41:54-05:00*
G04 #@! TF.ProjectId,diode-or,64696f64-652d-46f7-922e-6b696361645f,v1.0.0*
G04 #@! TF.SameCoordinates,Original*
G04 #@! TF.FileFunction,Copper,L1,Top*
G04 #@! TF.FilePolarity,Positive*
%FSLAX46Y46*%
G04 Gerber Fmt 4.6, Leading zero omitted, Abs format (unit mm)*
G04 Created by KiCad (PCBNEW (5.1.5-1-g2528d3844)) date 2020-01-10 11:41:54*
%MOMM*%
%LPD*%
G04 APERTURE LIST*
%ADD10O,1.700000X2.000000*%
%ADD11R,1.700000X2.000000*%
%ADD12C,0.762000*%
%ADD13C,0.100000*%
%ADD14R,5.000000X5.000000*%
%ADD15C,5.000000*%
%ADD16C,0.800000*%
%ADD17C,6.400000*%
%ADD18O,2.500000X4.500000*%
%ADD19R,2.500000X4.500000*%
%ADD20O,1.700000X1.700000*%
%ADD21R,1.700000X1.700000*%
%ADD22C,1.016000*%
%ADD23C,0.254000*%
G04 APERTURE END LIST*
D10*
X178100000Y-115620000D03*
X173020000Y-115620000D03*
X173020000Y-108000000D03*
X175560000Y-108000000D03*
D11*
X178100000Y-108000000D03*
D12*
X186326963Y-115812877D03*
X187580513Y-116269132D03*
X188833123Y-116725044D03*
X189289036Y-115472434D03*
X189745291Y-114218884D03*
X190201204Y-112966274D03*
X188948594Y-112510361D03*
X187695044Y-112054106D03*
X186442433Y-111598193D03*
X185986521Y-112850804D03*
X185530266Y-114104354D03*
X185074353Y-115356964D03*
G04 #@! TA.AperFunction,ComponentPad*
D13*
G36*
X189131959Y-117365901D02*
G01*
X184433496Y-115655800D01*
X186143597Y-110957337D01*
X190842060Y-112667438D01*
X189131959Y-117365901D01*
G37*
G04 #@! TD.AperFunction*
D12*
X182679252Y-75110972D03*
X181735972Y-76054252D03*
X180793398Y-76996825D03*
X181735972Y-77939399D03*
X182679252Y-78882679D03*
X183621825Y-79825253D03*
X184564399Y-78882679D03*
X185507679Y-77939399D03*
X186450253Y-76996825D03*
X185507679Y-76054252D03*
X184564399Y-75110972D03*
X183621825Y-74168398D03*
G04 #@! TA.AperFunction,ComponentPad*
D13*
G36*
X180086291Y-76996825D02*
G01*
X183621825Y-73461291D01*
X187157359Y-76996825D01*
X183621825Y-80532359D01*
X180086291Y-76996825D01*
G37*
G04 #@! TD.AperFunction*
D12*
X161902216Y-93633000D03*
X161902216Y-94967000D03*
X161902216Y-96300000D03*
X163235216Y-96300000D03*
X164569216Y-96300000D03*
X165902216Y-96300000D03*
X165902216Y-94967000D03*
X165902216Y-93633000D03*
X165902216Y-92300000D03*
X164569216Y-92300000D03*
X163235216Y-92300000D03*
X161902216Y-92300000D03*
D14*
X163902216Y-94300000D03*
D12*
X132819487Y-116269132D03*
X134073037Y-115812877D03*
X135325647Y-115356964D03*
X134869734Y-114104354D03*
X134413479Y-112850804D03*
X133957567Y-111598193D03*
X132704956Y-112054106D03*
X131451406Y-112510361D03*
X130198796Y-112966274D03*
X130654709Y-114218884D03*
X131110964Y-115472434D03*
X131566877Y-116725044D03*
G04 #@! TA.AperFunction,ComponentPad*
D13*
G36*
X135966504Y-115655800D02*
G01*
X131268041Y-117365901D01*
X129557940Y-112667438D01*
X134256403Y-110957337D01*
X135966504Y-115655800D01*
G37*
G04 #@! TD.AperFunction*
D12*
X137720748Y-94439028D03*
X138664028Y-93495748D03*
X139606602Y-92553175D03*
X138664028Y-91610601D03*
X137720748Y-90667321D03*
X136778175Y-89724747D03*
X135835601Y-90667321D03*
X134892321Y-91610601D03*
X133949747Y-92553175D03*
X134892321Y-93495748D03*
X135835601Y-94439028D03*
X136778175Y-95381602D03*
G04 #@! TA.AperFunction,ComponentPad*
D13*
G36*
X140313709Y-92553175D02*
G01*
X136778175Y-96088709D01*
X133242641Y-92553175D01*
X136778175Y-89017641D01*
X140313709Y-92553175D01*
G37*
G04 #@! TD.AperFunction*
D15*
X140501109Y-107500000D03*
X163401109Y-107500000D03*
X163401109Y-81100000D03*
X140501109Y-81100000D03*
D16*
X197597056Y-113702944D03*
X195900000Y-113000000D03*
X194202944Y-113702944D03*
X193500000Y-115400000D03*
X194202944Y-117097056D03*
X195900000Y-117800000D03*
X197597056Y-117097056D03*
X198300000Y-115400000D03*
D17*
X195900000Y-115400000D03*
D16*
X126197056Y-113702944D03*
X124500000Y-113000000D03*
X122802944Y-113702944D03*
X122100000Y-115400000D03*
X122802944Y-117097056D03*
X124500000Y-117800000D03*
X126197056Y-117097056D03*
X126900000Y-115400000D03*
D17*
X124500000Y-115400000D03*
D16*
X197597056Y-71502944D03*
X195900000Y-70800000D03*
X194202944Y-71502944D03*
X193500000Y-73200000D03*
X194202944Y-74897056D03*
X195900000Y-75600000D03*
X197597056Y-74897056D03*
X198300000Y-73200000D03*
D17*
X195900000Y-73200000D03*
D16*
X126197056Y-71502944D03*
X124500000Y-70800000D03*
X122802944Y-71502944D03*
X122100000Y-73200000D03*
X122802944Y-74897056D03*
X124500000Y-75600000D03*
X126197056Y-74897056D03*
X126900000Y-73200000D03*
D17*
X124500000Y-73200000D03*
D18*
X146501109Y-102300000D03*
X151951109Y-102300000D03*
D19*
X157401109Y-102300000D03*
D18*
X157401109Y-86300000D03*
X151951109Y-86300000D03*
D19*
X146501109Y-86300000D03*
D20*
X187440000Y-94300000D03*
D21*
X184900000Y-94300000D03*
D22*
X148800000Y-111100000D03*
D23*
G36*
X198689324Y-69138804D02*
G01*
X198967628Y-69222829D01*
X199224312Y-69359311D01*
X199449597Y-69543048D01*
X199634903Y-69767044D01*
X199773175Y-70022774D01*
X199859140Y-70300483D01*
X199892000Y-70613126D01*
X199892001Y-117975149D01*
X199861196Y-118289321D01*
X199777171Y-118567628D01*
X199640690Y-118824310D01*
X199456949Y-119049599D01*
X199232956Y-119234903D01*
X198977226Y-119373175D01*
X198699520Y-119459139D01*
X198386874Y-119492000D01*
X122024841Y-119492000D01*
X121710679Y-119461196D01*
X121432372Y-119377171D01*
X121175690Y-119240690D01*
X120950401Y-119056949D01*
X120765097Y-118832956D01*
X120626825Y-118577226D01*
X120555565Y-118347021D01*
X122271400Y-118347021D01*
X122665685Y-118788980D01*
X123362088Y-119081718D01*
X124102221Y-119232971D01*
X124857639Y-119236924D01*
X125599313Y-119093427D01*
X126298742Y-118807993D01*
X126334315Y-118788980D01*
X126728600Y-118347021D01*
X193671400Y-118347021D01*
X194065685Y-118788980D01*
X194762088Y-119081718D01*
X195502221Y-119232971D01*
X196257639Y-119236924D01*
X196999313Y-119093427D01*
X197698742Y-118807993D01*
X197734315Y-118788980D01*
X198128600Y-118347021D01*
X195900000Y-116118420D01*
X193671400Y-118347021D01*
X126728600Y-118347021D01*
X124500000Y-116118420D01*
X122271400Y-118347021D01*
X120555565Y-118347021D01*
X120540861Y-118299520D01*
X120508000Y-117986874D01*
X120508000Y-115757639D01*
X120663076Y-115757639D01*
X120806573Y-116499313D01*
X121092007Y-117198742D01*
X121111020Y-117234315D01*
X121552979Y-117628600D01*
X123781580Y-115400000D01*
X125218420Y-115400000D01*
X127447021Y-117628600D01*
X127888980Y-117234315D01*
X128181718Y-116537912D01*
X128332971Y-115797779D01*
X128335100Y-115390816D01*
X171408000Y-115390816D01*
X171408000Y-115849185D01*
X171431325Y-116086007D01*
X171523501Y-116389870D01*
X171673186Y-116669912D01*
X171874629Y-116915371D01*
X172120089Y-117116814D01*
X172400131Y-117266499D01*
X172703994Y-117358675D01*
X173020000Y-117389799D01*
X173336007Y-117358675D01*
X173639870Y-117266499D01*
X173919912Y-117116814D01*
X174165371Y-116915371D01*
X174366814Y-116669912D01*
X174516499Y-116389869D01*
X174608675Y-116086006D01*
X174632000Y-115849184D01*
X174632000Y-115390816D01*
X176488000Y-115390816D01*
X176488000Y-115849185D01*
X176511325Y-116086007D01*
X176603501Y-116389870D01*
X176753186Y-116669912D01*
X176954629Y-116915371D01*
X177200089Y-117116814D01*
X177480131Y-117266499D01*
X177783994Y-117358675D01*
X178100000Y-117389799D01*
X178416007Y-117358675D01*
X178719870Y-117266499D01*
X178999912Y-117116814D01*
X179245371Y-116915371D01*
X179446814Y-116669912D01*
X179596499Y-116389869D01*
X179688675Y-116086006D01*
X179712000Y-115849184D01*
X179712000Y-115757639D01*
X192063076Y-115757639D01*
X192206573Y-116499313D01*
X192492007Y-117198742D01*
X192511020Y-117234315D01*
X192952979Y-117628600D01*
X195181580Y-115400000D01*
X196618420Y-115400000D01*
X198847021Y-117628600D01*
X199288980Y-117234315D01*
X199581718Y-116537912D01*
X199732971Y-115797779D01*
X199736924Y-115042361D01*
X199593427Y-114300687D01*
X199307993Y-113601258D01*
X199288980Y-113565685D01*
X198847021Y-113171400D01*
X196618420Y-115400000D01*
X195181580Y-115400000D01*
X192952979Y-113171400D01*
X192511020Y-113565685D01*
X192218282Y-114262088D01*
X192067029Y-115002221D01*
X192063076Y-115757639D01*
X179712000Y-115757639D01*
X179712000Y-115390815D01*
X179688675Y-115153993D01*
X179596499Y-114850130D01*
X179446814Y-114570088D01*
X179245371Y-114324629D01*
X178999911Y-114123186D01*
X178719869Y-113973501D01*
X178416006Y-113881325D01*
X178100000Y-113850201D01*
X177783993Y-113881325D01*
X177480130Y-113973501D01*
X177200088Y-114123186D01*
X176954629Y-114324629D01*
X176753186Y-114570089D01*
X176603501Y-114850131D01*
X176511325Y-115153994D01*
X176488000Y-115390816D01*
X174632000Y-115390816D01*
X174632000Y-115390815D01*
X174608675Y-115153993D01*
X174516499Y-114850130D01*
X174366814Y-114570088D01*
X174165371Y-114324629D01*
X173919911Y-114123186D01*
X173639869Y-113973501D01*
X173336006Y-113881325D01*
X173020000Y-113850201D01*
X172703993Y-113881325D01*
X172400130Y-113973501D01*
X172120088Y-114123186D01*
X171874629Y-114324629D01*
X171673186Y-114570089D01*
X171523501Y-114850131D01*
X171431325Y-115153994D01*
X171408000Y-115390816D01*
X128335100Y-115390816D01*
X128336924Y-115042361D01*
X128193427Y-114300687D01*
X127907993Y-113601258D01*
X127888980Y-113565685D01*
X127447021Y-113171400D01*
X125218420Y-115400000D01*
X123781580Y-115400000D01*
X121552979Y-113171400D01*
X121111020Y-113565685D01*
X120818282Y-114262088D01*
X120667029Y-115002221D01*
X120663076Y-115757639D01*
X120508000Y-115757639D01*
X120508000Y-112452979D01*
X122271400Y-112452979D01*
X124500000Y-114681580D01*
X126728600Y-112452979D01*
X193671400Y-112452979D01*
X195900000Y-114681580D01*
X198128600Y-112452979D01*
X197734315Y-112011020D01*
X197037912Y-111718282D01*
X196297779Y-111567029D01*
X195542361Y-111563076D01*
X194800687Y-111706573D01*
X194101258Y-111992007D01*
X194065685Y-112011020D01*
X193671400Y-112452979D01*
X126728600Y-112452979D01*
X126334315Y-112011020D01*
X125637912Y-111718282D01*
X124897779Y-111567029D01*
X124142361Y-111563076D01*
X123400687Y-111706573D01*
X122701258Y-111992007D01*
X122665685Y-112011020D01*
X122271400Y-112452979D01*
X120508000Y-112452979D01*
X120508000Y-81664605D01*
X122942000Y-81664605D01*
X122942001Y-87885397D01*
X122949352Y-87960035D01*
X122978400Y-88055793D01*
X123025572Y-88144045D01*
X123035127Y-88155688D01*
X123298057Y-88584751D01*
X123316102Y-88609587D01*
X123333240Y-88635064D01*
X123952554Y-89415641D01*
X123952560Y-89415649D01*
X124006853Y-89474017D01*
X124740655Y-90148103D01*
X124740661Y-90148110D01*
X124803416Y-90197265D01*
X125633640Y-90748265D01*
X125703312Y-90786998D01*
X126609507Y-91201338D01*
X126609509Y-91201339D01*
X126684383Y-91228696D01*
X127644242Y-91496175D01*
X127722473Y-91511483D01*
X128712356Y-91625514D01*
X128792019Y-91628395D01*
X129787554Y-91586170D01*
X129866687Y-91576554D01*
X129866701Y-91576550D01*
X130843348Y-91379115D01*
X130843360Y-91379113D01*
X130881687Y-91368174D01*
X130920014Y-91357236D01*
X130920025Y-91357231D01*
X131738000Y-91052563D01*
X131738000Y-97557554D01*
X131390496Y-97398665D01*
X131390491Y-97398662D01*
X131315617Y-97371305D01*
X130355758Y-97103826D01*
X130277527Y-97088518D01*
X129287643Y-96974487D01*
X129207981Y-96971606D01*
X128212446Y-97013831D01*
X128133313Y-97023447D01*
X128133301Y-97023450D01*
X127156655Y-97220886D01*
X127156640Y-97220888D01*
X127107375Y-97234949D01*
X127079987Y-97242765D01*
X127079980Y-97242768D01*
X126146236Y-97590558D01*
X126146225Y-97590561D01*
X126115991Y-97604614D01*
X126073937Y-97624160D01*
X126073928Y-97624166D01*
X125206078Y-98113746D01*
X125139936Y-98158240D01*
X125139930Y-98158245D01*
X124359358Y-98777555D01*
X124359350Y-98777561D01*
X124300983Y-98831854D01*
X123626892Y-99565660D01*
X123626891Y-99565661D01*
X123577736Y-99628416D01*
X123040972Y-100437190D01*
X123025572Y-100455955D01*
X122978400Y-100544208D01*
X122949352Y-100639966D01*
X122942001Y-100714604D01*
X122942002Y-106935396D01*
X122949353Y-107010034D01*
X122978401Y-107105792D01*
X123025573Y-107194044D01*
X123035124Y-107205682D01*
X123298057Y-107634750D01*
X123316096Y-107659579D01*
X123333240Y-107685064D01*
X123952555Y-108465642D01*
X123952561Y-108465650D01*
X124006854Y-108524017D01*
X124740661Y-109198109D01*
X124803416Y-109247264D01*
X125633640Y-109798264D01*
X125703312Y-109836997D01*
X126609509Y-110251338D01*
X126684383Y-110278695D01*
X127644242Y-110546174D01*
X127722473Y-110561482D01*
X128712356Y-110675513D01*
X128792019Y-110678394D01*
X129787554Y-110636169D01*
X129866687Y-110626553D01*
X129866701Y-110626549D01*
X130843347Y-110429114D01*
X130843359Y-110429112D01*
X130881686Y-110418173D01*
X130920013Y-110407235D01*
X130920024Y-110407230D01*
X131853775Y-110059439D01*
X131926063Y-110025840D01*
X132071598Y-109943739D01*
X138775790Y-109943739D01*
X139084701Y-110313779D01*
X139660858Y-110536041D01*
X140269305Y-110641629D01*
X140886661Y-110626486D01*
X141489200Y-110491194D01*
X141917517Y-110313779D01*
X142226428Y-109943739D01*
X161675790Y-109943739D01*
X161984701Y-110313779D01*
X162560858Y-110536041D01*
X163169305Y-110641629D01*
X163786661Y-110626486D01*
X164389200Y-110491194D01*
X164817517Y-110313779D01*
X165126428Y-109943739D01*
X163401109Y-108218420D01*
X161675790Y-109943739D01*
X142226428Y-109943739D01*
X140501109Y-108218420D01*
X138775790Y-109943739D01*
X132071598Y-109943739D01*
X132793916Y-109536257D01*
X132793922Y-109536254D01*
X132860064Y-109491760D01*
X133640642Y-108872445D01*
X133640650Y-108872439D01*
X133699017Y-108818146D01*
X134373109Y-108084339D01*
X134422264Y-108021584D01*
X134973264Y-107191360D01*
X135011997Y-107121688D01*
X135426338Y-106215491D01*
X135453695Y-106140617D01*
X135670668Y-105362000D01*
X138184967Y-105362000D01*
X137914826Y-105632141D01*
X138057368Y-105774683D01*
X137687330Y-106083592D01*
X137465068Y-106659749D01*
X137359480Y-107268196D01*
X137374623Y-107885552D01*
X137509915Y-108488091D01*
X137687330Y-108916408D01*
X138057370Y-109225319D01*
X139782689Y-107500000D01*
X139768547Y-107485858D01*
X140486967Y-106767438D01*
X140501109Y-106781580D01*
X140515252Y-106767438D01*
X141233672Y-107485858D01*
X141219529Y-107500000D01*
X142944848Y-109225319D01*
X143314888Y-108916408D01*
X143537150Y-108340251D01*
X143642738Y-107731804D01*
X143631367Y-107268196D01*
X160259480Y-107268196D01*
X160274623Y-107885552D01*
X160409915Y-108488091D01*
X160587330Y-108916408D01*
X160957370Y-109225319D01*
X162682689Y-107500000D01*
X164119529Y-107500000D01*
X165844848Y-109225319D01*
X166214888Y-108916408D01*
X166437150Y-108340251D01*
X166528448Y-107814147D01*
X166713000Y-107814147D01*
X166713000Y-108185853D01*
X166785517Y-108550417D01*
X166927763Y-108893829D01*
X167134272Y-109202892D01*
X167397108Y-109465728D01*
X167706171Y-109672237D01*
X168049583Y-109814483D01*
X168414147Y-109887000D01*
X168785853Y-109887000D01*
X169150417Y-109814483D01*
X169493829Y-109672237D01*
X169802892Y-109465728D01*
X170065728Y-109202892D01*
X170272237Y-108893829D01*
X170414483Y-108550417D01*
X170487000Y-108185853D01*
X170487000Y-107814147D01*
X170478381Y-107770816D01*
X171408000Y-107770816D01*
X171408000Y-108229185D01*
X171431325Y-108466007D01*
X171523501Y-108769870D01*
X171673186Y-109049912D01*
X171874629Y-109295371D01*
X172120089Y-109496814D01*
X172400131Y-109646499D01*
X172703994Y-109738675D01*
X173020000Y-109769799D01*
X173336007Y-109738675D01*
X173639870Y-109646499D01*
X173919912Y-109496814D01*
X174165371Y-109295371D01*
X174290000Y-109143510D01*
X174414629Y-109295371D01*
X174660089Y-109496814D01*
X174940131Y-109646499D01*
X175243994Y-109738675D01*
X175560000Y-109769799D01*
X175876007Y-109738675D01*
X176179870Y-109646499D01*
X176459912Y-109496814D01*
X176593104Y-109387506D01*
X176613355Y-109425392D01*
X176708578Y-109541422D01*
X176824608Y-109636645D01*
X176956985Y-109707402D01*
X177100622Y-109750974D01*
X177250000Y-109765686D01*
X178950000Y-109765686D01*
X179099378Y-109750974D01*
X179243015Y-109707402D01*
X179375392Y-109636645D01*
X179491422Y-109541422D01*
X179586645Y-109425392D01*
X179657402Y-109293015D01*
X179700974Y-109149378D01*
X179715686Y-109000000D01*
X179715686Y-107000000D01*
X179700974Y-106850622D01*
X179657402Y-106706985D01*
X179586645Y-106574608D01*
X179491422Y-106458578D01*
X179375392Y-106363355D01*
X179243015Y-106292598D01*
X179099378Y-106249026D01*
X178950000Y-106234314D01*
X177250000Y-106234314D01*
X177100622Y-106249026D01*
X176956985Y-106292598D01*
X176824608Y-106363355D01*
X176708578Y-106458578D01*
X176613355Y-106574608D01*
X176593104Y-106612494D01*
X176459911Y-106503186D01*
X176179869Y-106353501D01*
X175876006Y-106261325D01*
X175560000Y-106230201D01*
X175243993Y-106261325D01*
X174940130Y-106353501D01*
X174660088Y-106503186D01*
X174414629Y-106704629D01*
X174290000Y-106856490D01*
X174165371Y-106704629D01*
X173919911Y-106503186D01*
X173639869Y-106353501D01*
X173336006Y-106261325D01*
X173020000Y-106230201D01*
X172703993Y-106261325D01*
X172400130Y-106353501D01*
X172120088Y-106503186D01*
X171874629Y-106704629D01*
X171673186Y-106950089D01*
X171523501Y-107230131D01*
X171431325Y-107533994D01*
X171408000Y-107770816D01*
X170478381Y-107770816D01*
X170414483Y-107449583D01*
X170272237Y-107106171D01*
X170065728Y-106797108D01*
X169802892Y-106534272D01*
X169493829Y-106327763D01*
X169150417Y-106185517D01*
X168785853Y-106113000D01*
X168414147Y-106113000D01*
X168049583Y-106185517D01*
X167706171Y-106327763D01*
X167397108Y-106534272D01*
X167134272Y-106797108D01*
X166927763Y-107106171D01*
X166785517Y-107449583D01*
X166713000Y-107814147D01*
X166528448Y-107814147D01*
X166542738Y-107731804D01*
X166527595Y-107114448D01*
X166392303Y-106511909D01*
X166214888Y-106083592D01*
X165844848Y-105774681D01*
X164119529Y-107500000D01*
X162682689Y-107500000D01*
X160957370Y-105774681D01*
X160587330Y-106083592D01*
X160365068Y-106659749D01*
X160259480Y-107268196D01*
X143631367Y-107268196D01*
X143627595Y-107114448D01*
X143492303Y-106511909D01*
X143314888Y-106083592D01*
X142944850Y-105774683D01*
X143087392Y-105632141D01*
X142817251Y-105362000D01*
X155500000Y-105362000D01*
X155648659Y-105347358D01*
X155791605Y-105303996D01*
X155871289Y-105261405D01*
X156001731Y-105300974D01*
X156151109Y-105315686D01*
X158651109Y-105315686D01*
X158800487Y-105300974D01*
X158944124Y-105257402D01*
X159076501Y-105186645D01*
X159192531Y-105091422D01*
X159221386Y-105056261D01*
X161675790Y-105056261D01*
X163401109Y-106781580D01*
X165126428Y-105056261D01*
X164817517Y-104686221D01*
X164241360Y-104463959D01*
X163632913Y-104358371D01*
X163015557Y-104373514D01*
X162413018Y-104508806D01*
X161984701Y-104686221D01*
X161675790Y-105056261D01*
X159221386Y-105056261D01*
X159287754Y-104975392D01*
X159358511Y-104843015D01*
X159402083Y-104699378D01*
X159416795Y-104550000D01*
X159416795Y-103617018D01*
X184546605Y-103617018D01*
X184588830Y-104612554D01*
X184598446Y-104691687D01*
X184598450Y-104691701D01*
X184795885Y-105668347D01*
X184795887Y-105668359D01*
X184817764Y-105745013D01*
X185165559Y-106678775D01*
X185199158Y-106751063D01*
X185199164Y-106751072D01*
X185688746Y-107618922D01*
X185733239Y-107685064D01*
X185733244Y-107685070D01*
X186352553Y-108465641D01*
X186352559Y-108465649D01*
X186406852Y-108524017D01*
X187140654Y-109198103D01*
X187140660Y-109198110D01*
X187203415Y-109247265D01*
X188033639Y-109798265D01*
X188103311Y-109836998D01*
X189009506Y-110251338D01*
X189009508Y-110251339D01*
X189084382Y-110278696D01*
X190044241Y-110546175D01*
X190122472Y-110561483D01*
X191112355Y-110675514D01*
X191192018Y-110678395D01*
X192187554Y-110636170D01*
X192266687Y-110626554D01*
X192266701Y-110626550D01*
X193243347Y-110429115D01*
X193243359Y-110429113D01*
X193320013Y-110407236D01*
X194253775Y-110059441D01*
X194326063Y-110025842D01*
X194326072Y-110025836D01*
X195193917Y-109536257D01*
X195193921Y-109536255D01*
X195222445Y-109517067D01*
X195260064Y-109491761D01*
X195260070Y-109491756D01*
X196040641Y-108872447D01*
X196040649Y-108872441D01*
X196099017Y-108818148D01*
X196773103Y-108084346D01*
X196773110Y-108084340D01*
X196822265Y-108021585D01*
X197359036Y-107212801D01*
X197374429Y-107194044D01*
X197421601Y-107105792D01*
X197450649Y-107010034D01*
X197458000Y-106935396D01*
X197458000Y-100714603D01*
X197450649Y-100639965D01*
X197421601Y-100544207D01*
X197374429Y-100455955D01*
X197364874Y-100444312D01*
X197101944Y-100015249D01*
X197083894Y-99990405D01*
X197066761Y-99964937D01*
X196447444Y-99184357D01*
X196447440Y-99184350D01*
X196407808Y-99141744D01*
X196393148Y-99125983D01*
X196393141Y-99125978D01*
X195659340Y-98451890D01*
X195596585Y-98402735D01*
X194766361Y-97851735D01*
X194696689Y-97813002D01*
X193790497Y-97398664D01*
X193790492Y-97398661D01*
X193715618Y-97371304D01*
X192755759Y-97103825D01*
X192677528Y-97088517D01*
X191687644Y-96974486D01*
X191607982Y-96971605D01*
X190612446Y-97013830D01*
X190533313Y-97023446D01*
X190533301Y-97023449D01*
X189556653Y-97220885D01*
X189556641Y-97220887D01*
X189479987Y-97242764D01*
X188546225Y-97590559D01*
X188473937Y-97624158D01*
X187606088Y-98113740D01*
X187606078Y-98113745D01*
X187577555Y-98132933D01*
X187539936Y-98158239D01*
X187539930Y-98158244D01*
X186759357Y-98777556D01*
X186759350Y-98777560D01*
X186733710Y-98801410D01*
X186700983Y-98831852D01*
X186700978Y-98831859D01*
X186026890Y-99565660D01*
X185977735Y-99628415D01*
X185426735Y-100458639D01*
X185388002Y-100528311D01*
X184973664Y-101434503D01*
X184973661Y-101434508D01*
X184946304Y-101509382D01*
X184678825Y-102469241D01*
X184663517Y-102547472D01*
X184549486Y-103537354D01*
X184549486Y-103537355D01*
X184546605Y-103617018D01*
X159416795Y-103617018D01*
X159416795Y-100050000D01*
X159402083Y-99900622D01*
X159358511Y-99756985D01*
X159287754Y-99624608D01*
X159192531Y-99508578D01*
X159076501Y-99413355D01*
X158944124Y-99342598D01*
X158800487Y-99299026D01*
X158651109Y-99284314D01*
X156262000Y-99284314D01*
X156262000Y-91800000D01*
X160636530Y-91800000D01*
X160636530Y-96800000D01*
X160651242Y-96949378D01*
X160694814Y-97093015D01*
X160765571Y-97225392D01*
X160860794Y-97341422D01*
X160976824Y-97436645D01*
X161109201Y-97507402D01*
X161252838Y-97550974D01*
X161402216Y-97565686D01*
X166402216Y-97565686D01*
X166551594Y-97550974D01*
X166695231Y-97507402D01*
X166827608Y-97436645D01*
X166943638Y-97341422D01*
X167038861Y-97225392D01*
X167109618Y-97093015D01*
X167153190Y-96949378D01*
X167167902Y-96800000D01*
X167167902Y-94092018D01*
X168048822Y-94092018D01*
X168091046Y-95087553D01*
X168100662Y-95166685D01*
X168100665Y-95166697D01*
X168298101Y-96143346D01*
X168298103Y-96143358D01*
X168308294Y-96179065D01*
X168319980Y-96220012D01*
X168319985Y-96220023D01*
X168667776Y-97153775D01*
X168701375Y-97226063D01*
X169190956Y-98093911D01*
X169190961Y-98093921D01*
X169235455Y-98160063D01*
X169854775Y-98940646D01*
X169854776Y-98940648D01*
X169909069Y-98999015D01*
X170642870Y-99673102D01*
X170642876Y-99673109D01*
X170705631Y-99722264D01*
X171535855Y-100273264D01*
X171605527Y-100311997D01*
X172511724Y-100726338D01*
X172586598Y-100753695D01*
X173546457Y-101021174D01*
X173624688Y-101036482D01*
X174614571Y-101150513D01*
X174694234Y-101153394D01*
X175689769Y-101111170D01*
X175768901Y-101101554D01*
X175768913Y-101101551D01*
X176745562Y-100904115D01*
X176745574Y-100904113D01*
X176783901Y-100893174D01*
X176822228Y-100882236D01*
X176822239Y-100882231D01*
X177755991Y-100534440D01*
X177828279Y-100500841D01*
X178696127Y-100011260D01*
X178696137Y-100011255D01*
X178762279Y-99966761D01*
X179542865Y-99347439D01*
X179569374Y-99322780D01*
X179601231Y-99293147D01*
X180275318Y-98559346D01*
X180275325Y-98559340D01*
X180324480Y-98496585D01*
X180861247Y-97687807D01*
X180876645Y-97669044D01*
X180923817Y-97580792D01*
X180952865Y-97485034D01*
X180960216Y-97410396D01*
X180960216Y-93450000D01*
X183284314Y-93450000D01*
X183284314Y-95150000D01*
X183299026Y-95299378D01*
X183342598Y-95443015D01*
X183413355Y-95575392D01*
X183508578Y-95691422D01*
X183624608Y-95786645D01*
X183756985Y-95857402D01*
X183900622Y-95900974D01*
X184050000Y-95915686D01*
X185750000Y-95915686D01*
X185899378Y-95900974D01*
X186043015Y-95857402D01*
X186175392Y-95786645D01*
X186291422Y-95691422D01*
X186386645Y-95575392D01*
X186403725Y-95543437D01*
X186412410Y-95552122D01*
X186676432Y-95728536D01*
X186969797Y-95850052D01*
X187281232Y-95912000D01*
X187598768Y-95912000D01*
X187910203Y-95850052D01*
X188203568Y-95728536D01*
X188467590Y-95552122D01*
X188692122Y-95327590D01*
X188868536Y-95063568D01*
X188990052Y-94770203D01*
X189052000Y-94458768D01*
X189052000Y-94141232D01*
X188990052Y-93829797D01*
X188868536Y-93536432D01*
X188692122Y-93272410D01*
X188467590Y-93047878D01*
X188203568Y-92871464D01*
X187910203Y-92749948D01*
X187598768Y-92688000D01*
X187281232Y-92688000D01*
X186969797Y-92749948D01*
X186676432Y-92871464D01*
X186412410Y-93047878D01*
X186403725Y-93056563D01*
X186386645Y-93024608D01*
X186291422Y-92908578D01*
X186175392Y-92813355D01*
X186043015Y-92742598D01*
X185899378Y-92699026D01*
X185750000Y-92684314D01*
X184050000Y-92684314D01*
X183900622Y-92699026D01*
X183756985Y-92742598D01*
X183624608Y-92813355D01*
X183508578Y-92908578D01*
X183413355Y-93024608D01*
X183342598Y-93156985D01*
X183299026Y-93300622D01*
X183284314Y-93450000D01*
X180960216Y-93450000D01*
X180960216Y-91189604D01*
X180952865Y-91114966D01*
X180923817Y-91019208D01*
X180876645Y-90930956D01*
X180867090Y-90919313D01*
X180604160Y-90490250D01*
X180586110Y-90465406D01*
X180568977Y-90439938D01*
X179949655Y-89659351D01*
X179895363Y-89600984D01*
X179895356Y-89600978D01*
X179161562Y-88926898D01*
X179161556Y-88926891D01*
X179098801Y-88877736D01*
X178268577Y-88326736D01*
X178198905Y-88288003D01*
X177292713Y-87873665D01*
X177292708Y-87873662D01*
X177217834Y-87846305D01*
X176257975Y-87578826D01*
X176179744Y-87563518D01*
X175189862Y-87449487D01*
X175189861Y-87449487D01*
X175110198Y-87446606D01*
X174114663Y-87488830D01*
X174035531Y-87498446D01*
X174035521Y-87498449D01*
X173058872Y-87695885D01*
X173058857Y-87695887D01*
X173015745Y-87708192D01*
X172982204Y-87717764D01*
X172982193Y-87717769D01*
X172048452Y-88065557D01*
X172048441Y-88065560D01*
X171976153Y-88099159D01*
X171108295Y-88588745D01*
X171042153Y-88633239D01*
X171042147Y-88633244D01*
X170261567Y-89252561D01*
X170203200Y-89306853D01*
X170203194Y-89306860D01*
X169529114Y-90040654D01*
X169529107Y-90040660D01*
X169479952Y-90103415D01*
X168928952Y-90933639D01*
X168890219Y-91003311D01*
X168475881Y-91909503D01*
X168475878Y-91909508D01*
X168448521Y-91984382D01*
X168181042Y-92944241D01*
X168165734Y-93022472D01*
X168051703Y-94012354D01*
X168051703Y-94012355D01*
X168048822Y-94092018D01*
X167167902Y-94092018D01*
X167167902Y-91800000D01*
X167153190Y-91650622D01*
X167109618Y-91506985D01*
X167038861Y-91374608D01*
X166943638Y-91258578D01*
X166827608Y-91163355D01*
X166695231Y-91092598D01*
X166551594Y-91049026D01*
X166402216Y-91034314D01*
X161402216Y-91034314D01*
X161252838Y-91049026D01*
X161109201Y-91092598D01*
X160976824Y-91163355D01*
X160860794Y-91258578D01*
X160765571Y-91374608D01*
X160694814Y-91506985D01*
X160651242Y-91650622D01*
X160636530Y-91800000D01*
X156262000Y-91800000D01*
X156262000Y-88967967D01*
X156277894Y-88981011D01*
X156627426Y-89167840D01*
X157006689Y-89282888D01*
X157401109Y-89321735D01*
X157795530Y-89282888D01*
X158174793Y-89167840D01*
X158524325Y-88981011D01*
X158830692Y-88729583D01*
X159082120Y-88423216D01*
X159268949Y-88073684D01*
X159383997Y-87694421D01*
X159413109Y-87398841D01*
X159413109Y-85201159D01*
X159383997Y-84905579D01*
X159281296Y-84567018D01*
X184546606Y-84567018D01*
X184588830Y-85562553D01*
X184598446Y-85641685D01*
X184598449Y-85641697D01*
X184795885Y-86618346D01*
X184795887Y-86618358D01*
X184806078Y-86654065D01*
X184817764Y-86695012D01*
X184817769Y-86695023D01*
X185165560Y-87628775D01*
X185199159Y-87701063D01*
X185688740Y-88568911D01*
X185688745Y-88568921D01*
X185733239Y-88635063D01*
X186352559Y-89415646D01*
X186352560Y-89415648D01*
X186406853Y-89474015D01*
X187140654Y-90148102D01*
X187140660Y-90148109D01*
X187203415Y-90197264D01*
X188033639Y-90748264D01*
X188103311Y-90786997D01*
X189009508Y-91201338D01*
X189084382Y-91228695D01*
X190044241Y-91496174D01*
X190122472Y-91511482D01*
X191112355Y-91625513D01*
X191192018Y-91628394D01*
X192187553Y-91586170D01*
X192266685Y-91576554D01*
X192266697Y-91576551D01*
X193243346Y-91379115D01*
X193243358Y-91379113D01*
X193281685Y-91368174D01*
X193320012Y-91357236D01*
X193320023Y-91357231D01*
X194253775Y-91009440D01*
X194326063Y-90975841D01*
X195193911Y-90486260D01*
X195193921Y-90486255D01*
X195260063Y-90441761D01*
X196040649Y-89822439D01*
X196065924Y-89798928D01*
X196099015Y-89768147D01*
X196773102Y-89034346D01*
X196773109Y-89034340D01*
X196822264Y-88971585D01*
X197359027Y-88162812D01*
X197374429Y-88144045D01*
X197421601Y-88055793D01*
X197450649Y-87960035D01*
X197458000Y-87885397D01*
X197458000Y-81664604D01*
X197450649Y-81589966D01*
X197421601Y-81494208D01*
X197374429Y-81405956D01*
X197364874Y-81394313D01*
X197101944Y-80965250D01*
X197083894Y-80940406D01*
X197066761Y-80914938D01*
X196447439Y-80134351D01*
X196393147Y-80075984D01*
X196393140Y-80075978D01*
X195659346Y-79401898D01*
X195659340Y-79401891D01*
X195596585Y-79352736D01*
X194766361Y-78801736D01*
X194696689Y-78763003D01*
X193790497Y-78348665D01*
X193790492Y-78348662D01*
X193715618Y-78321305D01*
X192755759Y-78053826D01*
X192677528Y-78038518D01*
X191687646Y-77924487D01*
X191687645Y-77924487D01*
X191607982Y-77921606D01*
X190612447Y-77963830D01*
X190533315Y-77973446D01*
X190533305Y-77973449D01*
X189556656Y-78170885D01*
X189556641Y-78170887D01*
X189513529Y-78183192D01*
X189479988Y-78192764D01*
X189479977Y-78192769D01*
X188546236Y-78540557D01*
X188546225Y-78540560D01*
X188473937Y-78574159D01*
X187606079Y-79063745D01*
X187539937Y-79108239D01*
X187539931Y-79108244D01*
X186759351Y-79727561D01*
X186700984Y-79781853D01*
X186700978Y-79781860D01*
X186026898Y-80515654D01*
X186026891Y-80515660D01*
X185977736Y-80578415D01*
X185426736Y-81408639D01*
X185388003Y-81478311D01*
X184973665Y-82384503D01*
X184973662Y-82384508D01*
X184946305Y-82459382D01*
X184678826Y-83419241D01*
X184663518Y-83497472D01*
X184549487Y-84487354D01*
X184549487Y-84487355D01*
X184546606Y-84567018D01*
X159281296Y-84567018D01*
X159268949Y-84526316D01*
X159082120Y-84176784D01*
X158830692Y-83870417D01*
X158524325Y-83618989D01*
X158383542Y-83543739D01*
X161675790Y-83543739D01*
X161984701Y-83913779D01*
X162560858Y-84136041D01*
X163169305Y-84241629D01*
X163786661Y-84226486D01*
X164389200Y-84091194D01*
X164817517Y-83913779D01*
X165126428Y-83543739D01*
X163401109Y-81818420D01*
X161675790Y-83543739D01*
X158383542Y-83543739D01*
X158174792Y-83432160D01*
X157795529Y-83317112D01*
X157401109Y-83278265D01*
X157006688Y-83317112D01*
X156627425Y-83432160D01*
X156277893Y-83618989D01*
X156193311Y-83688404D01*
X156133580Y-83576655D01*
X156038815Y-83461185D01*
X155923345Y-83366420D01*
X155791605Y-83296004D01*
X155648659Y-83252642D01*
X155500000Y-83238000D01*
X142817251Y-83238000D01*
X143087392Y-82967859D01*
X142944850Y-82825317D01*
X143314888Y-82516408D01*
X143537150Y-81940251D01*
X143642738Y-81331804D01*
X143631367Y-80868196D01*
X160259480Y-80868196D01*
X160274623Y-81485552D01*
X160409915Y-82088091D01*
X160587330Y-82516408D01*
X160957370Y-82825319D01*
X162682689Y-81100000D01*
X164119529Y-81100000D01*
X165844848Y-82825319D01*
X166214888Y-82516408D01*
X166437150Y-81940251D01*
X166542738Y-81331804D01*
X166527595Y-80714448D01*
X166392303Y-80111909D01*
X166214888Y-79683592D01*
X165844848Y-79374681D01*
X164119529Y-81100000D01*
X162682689Y-81100000D01*
X160957370Y-79374681D01*
X160587330Y-79683592D01*
X160365068Y-80259749D01*
X160259480Y-80868196D01*
X143631367Y-80868196D01*
X143627595Y-80714448D01*
X143492303Y-80111909D01*
X143314888Y-79683592D01*
X142944848Y-79374681D01*
X141219529Y-81100000D01*
X141233672Y-81114143D01*
X140515252Y-81832563D01*
X140501109Y-81818420D01*
X140486967Y-81832563D01*
X139768547Y-81114143D01*
X139782689Y-81100000D01*
X138057370Y-79374681D01*
X137687330Y-79683592D01*
X137465068Y-80259749D01*
X137359480Y-80868196D01*
X137374623Y-81485552D01*
X137509915Y-82088091D01*
X137687330Y-82516408D01*
X138057368Y-82825317D01*
X137914826Y-82967859D01*
X138184967Y-83238000D01*
X135666045Y-83238000D01*
X135604115Y-82931654D01*
X135604113Y-82931639D01*
X135588421Y-82876659D01*
X135582236Y-82854986D01*
X135582233Y-82854979D01*
X135234443Y-81921235D01*
X135234440Y-81921224D01*
X135200841Y-81848936D01*
X134711259Y-80981087D01*
X134711254Y-80981077D01*
X134666760Y-80914935D01*
X134047440Y-80134352D01*
X134047439Y-80134350D01*
X134007806Y-80091743D01*
X133993147Y-80075983D01*
X133993140Y-80075978D01*
X133259339Y-79401890D01*
X133196584Y-79352735D01*
X132366360Y-78801735D01*
X132296688Y-78763002D01*
X132063237Y-78656261D01*
X138775790Y-78656261D01*
X140501109Y-80381580D01*
X142226428Y-78656261D01*
X161675790Y-78656261D01*
X163401109Y-80381580D01*
X165126428Y-78656261D01*
X164817517Y-78286221D01*
X164241360Y-78063959D01*
X163632913Y-77958371D01*
X163015557Y-77973514D01*
X162413018Y-78108806D01*
X161984701Y-78286221D01*
X161675790Y-78656261D01*
X142226428Y-78656261D01*
X141917517Y-78286221D01*
X141341360Y-78063959D01*
X140732913Y-77958371D01*
X140115557Y-77973514D01*
X139513018Y-78108806D01*
X139084701Y-78286221D01*
X138775790Y-78656261D01*
X132063237Y-78656261D01*
X131390496Y-78348664D01*
X131390491Y-78348661D01*
X131315617Y-78321304D01*
X130355758Y-78053825D01*
X130277527Y-78038517D01*
X129287643Y-77924486D01*
X129207981Y-77921605D01*
X128212446Y-77963830D01*
X128133313Y-77973446D01*
X128133299Y-77973450D01*
X127156654Y-78170885D01*
X127156639Y-78170887D01*
X127107374Y-78184948D01*
X127079986Y-78192764D01*
X127079979Y-78192767D01*
X126146235Y-78540557D01*
X126146224Y-78540560D01*
X126073936Y-78574159D01*
X125206087Y-79063741D01*
X125206077Y-79063746D01*
X125139935Y-79108240D01*
X124359357Y-79727557D01*
X124359350Y-79727561D01*
X124331222Y-79753725D01*
X124300983Y-79781853D01*
X124300978Y-79781860D01*
X123626891Y-80515660D01*
X123626890Y-80515661D01*
X123577735Y-80578416D01*
X123040968Y-81387195D01*
X123025571Y-81405956D01*
X122978399Y-81494209D01*
X122949351Y-81589967D01*
X122942000Y-81664605D01*
X120508000Y-81664605D01*
X120508000Y-76147021D01*
X122271400Y-76147021D01*
X122665685Y-76588980D01*
X123362088Y-76881718D01*
X124102221Y-77032971D01*
X124857639Y-77036924D01*
X125064893Y-76996825D01*
X179320605Y-76996825D01*
X179335317Y-77146203D01*
X179378889Y-77289840D01*
X179449646Y-77422217D01*
X179544869Y-77538247D01*
X183080403Y-81073781D01*
X183196433Y-81169004D01*
X183328810Y-81239761D01*
X183472447Y-81283333D01*
X183621825Y-81298045D01*
X183771203Y-81283333D01*
X183914840Y-81239761D01*
X184047217Y-81169004D01*
X184163247Y-81073781D01*
X187698781Y-77538247D01*
X187794004Y-77422217D01*
X187864761Y-77289840D01*
X187908333Y-77146203D01*
X187923045Y-76996825D01*
X187908333Y-76847447D01*
X187864761Y-76703810D01*
X187794004Y-76571433D01*
X187698781Y-76455403D01*
X187390399Y-76147021D01*
X193671400Y-76147021D01*
X194065685Y-76588980D01*
X194762088Y-76881718D01*
X195502221Y-77032971D01*
X196257639Y-77036924D01*
X196999313Y-76893427D01*
X197698742Y-76607993D01*
X197734315Y-76588980D01*
X198128600Y-76147021D01*
X195900000Y-73918420D01*
X193671400Y-76147021D01*
X187390399Y-76147021D01*
X184801017Y-73557639D01*
X192063076Y-73557639D01*
X192206573Y-74299313D01*
X192492007Y-74998742D01*
X192511020Y-75034315D01*
X192952979Y-75428600D01*
X195181580Y-73200000D01*
X196618420Y-73200000D01*
X198847021Y-75428600D01*
X199288980Y-75034315D01*
X199581718Y-74337912D01*
X199732971Y-73597779D01*
X199736924Y-72842361D01*
X199593427Y-72100687D01*
X199307993Y-71401258D01*
X199288980Y-71365685D01*
X198847021Y-70971400D01*
X196618420Y-73200000D01*
X195181580Y-73200000D01*
X192952979Y-70971400D01*
X192511020Y-71365685D01*
X192218282Y-72062088D01*
X192067029Y-72802221D01*
X192063076Y-73557639D01*
X184801017Y-73557639D01*
X184163247Y-72919869D01*
X184047217Y-72824646D01*
X183914840Y-72753889D01*
X183771203Y-72710317D01*
X183621825Y-72695605D01*
X183472447Y-72710317D01*
X183328810Y-72753889D01*
X183196433Y-72824646D01*
X183080403Y-72919869D01*
X179544869Y-76455403D01*
X179449646Y-76571433D01*
X179378889Y-76703810D01*
X179335317Y-76847447D01*
X179320605Y-76996825D01*
X125064893Y-76996825D01*
X125599313Y-76893427D01*
X126298742Y-76607993D01*
X126334315Y-76588980D01*
X126728600Y-76147021D01*
X124500000Y-73918420D01*
X122271400Y-76147021D01*
X120508000Y-76147021D01*
X120508000Y-73557639D01*
X120663076Y-73557639D01*
X120806573Y-74299313D01*
X121092007Y-74998742D01*
X121111020Y-75034315D01*
X121552979Y-75428600D01*
X123781580Y-73200000D01*
X125218420Y-73200000D01*
X127447021Y-75428600D01*
X127888980Y-75034315D01*
X128181718Y-74337912D01*
X128332971Y-73597779D01*
X128336924Y-72842361D01*
X128193427Y-72100687D01*
X127907993Y-71401258D01*
X127888980Y-71365685D01*
X127447021Y-70971400D01*
X125218420Y-73200000D01*
X123781580Y-73200000D01*
X121552979Y-70971400D01*
X121111020Y-71365685D01*
X120818282Y-72062088D01*
X120667029Y-72802221D01*
X120663076Y-73557639D01*
X120508000Y-73557639D01*
X120508000Y-70624840D01*
X120538804Y-70310676D01*
X120556223Y-70252979D01*
X122271400Y-70252979D01*
X124500000Y-72481580D01*
X126728600Y-70252979D01*
X193671400Y-70252979D01*
X195900000Y-72481580D01*
X198128600Y-70252979D01*
X197734315Y-69811020D01*
X197037912Y-69518282D01*
X196297779Y-69367029D01*
X195542361Y-69363076D01*
X194800687Y-69506573D01*
X194101258Y-69792007D01*
X194065685Y-69811020D01*
X193671400Y-70252979D01*
X126728600Y-70252979D01*
X126334315Y-69811020D01*
X125637912Y-69518282D01*
X124897779Y-69367029D01*
X124142361Y-69363076D01*
X123400687Y-69506573D01*
X122701258Y-69792007D01*
X122665685Y-69811020D01*
X122271400Y-70252979D01*
X120556223Y-70252979D01*
X120622829Y-70032372D01*
X120759311Y-69775688D01*
X120943048Y-69550403D01*
X121167044Y-69365097D01*
X121422774Y-69226825D01*
X121700483Y-69140860D01*
X122013126Y-69108000D01*
X198375160Y-69108000D01*
X198689324Y-69138804D01*
G37*
X198689324Y-69138804D02*
X198967628Y-69222829D01*
X199224312Y-69359311D01*
X199449597Y-69543048D01*
X199634903Y-69767044D01*
X199773175Y-70022774D01*
X199859140Y-70300483D01*
X199892000Y-70613126D01*
X199892001Y-117975149D01*
X199861196Y-118289321D01*
X199777171Y-118567628D01*
X199640690Y-118824310D01*
X199456949Y-119049599D01*
X199232956Y-119234903D01*
X198977226Y-119373175D01*
X198699520Y-119459139D01*
X198386874Y-119492000D01*
X122024841Y-119492000D01*
X121710679Y-119461196D01*
X121432372Y-119377171D01*
X121175690Y-119240690D01*
X120950401Y-119056949D01*
X120765097Y-118832956D01*
X120626825Y-118577226D01*
X120555565Y-118347021D01*
X122271400Y-118347021D01*
X122665685Y-118788980D01*
X123362088Y-119081718D01*
X124102221Y-119232971D01*
X124857639Y-119236924D01*
X125599313Y-119093427D01*
X126298742Y-118807993D01*
X126334315Y-118788980D01*
X126728600Y-118347021D01*
X193671400Y-118347021D01*
X194065685Y-118788980D01*
X194762088Y-119081718D01*
X195502221Y-119232971D01*
X196257639Y-119236924D01*
X196999313Y-119093427D01*
X197698742Y-118807993D01*
X197734315Y-118788980D01*
X198128600Y-118347021D01*
X195900000Y-116118420D01*
X193671400Y-118347021D01*
X126728600Y-118347021D01*
X124500000Y-116118420D01*
X122271400Y-118347021D01*
X120555565Y-118347021D01*
X120540861Y-118299520D01*
X120508000Y-117986874D01*
X120508000Y-115757639D01*
X120663076Y-115757639D01*
X120806573Y-116499313D01*
X121092007Y-117198742D01*
X121111020Y-117234315D01*
X121552979Y-117628600D01*
X123781580Y-115400000D01*
X125218420Y-115400000D01*
X127447021Y-117628600D01*
X127888980Y-117234315D01*
X128181718Y-116537912D01*
X128332971Y-115797779D01*
X128335100Y-115390816D01*
X171408000Y-115390816D01*
X171408000Y-115849185D01*
X171431325Y-116086007D01*
X171523501Y-116389870D01*
X171673186Y-116669912D01*
X171874629Y-116915371D01*
X172120089Y-117116814D01*
X172400131Y-117266499D01*
X172703994Y-117358675D01*
X173020000Y-117389799D01*
X173336007Y-117358675D01*
X173639870Y-117266499D01*
X173919912Y-117116814D01*
X174165371Y-116915371D01*
X174366814Y-116669912D01*
X174516499Y-116389869D01*
X174608675Y-116086006D01*
X174632000Y-115849184D01*
X174632000Y-115390816D01*
X176488000Y-115390816D01*
X176488000Y-115849185D01*
X176511325Y-116086007D01*
X176603501Y-116389870D01*
X176753186Y-116669912D01*
X176954629Y-116915371D01*
X177200089Y-117116814D01*
X177480131Y-117266499D01*
X177783994Y-117358675D01*
X178100000Y-117389799D01*
X178416007Y-117358675D01*
X178719870Y-117266499D01*
X178999912Y-117116814D01*
X179245371Y-116915371D01*
X179446814Y-116669912D01*
X179596499Y-116389869D01*
X179688675Y-116086006D01*
X179712000Y-115849184D01*
X179712000Y-115757639D01*
X192063076Y-115757639D01*
X192206573Y-116499313D01*
X192492007Y-117198742D01*
X192511020Y-117234315D01*
X192952979Y-117628600D01*
X195181580Y-115400000D01*
X196618420Y-115400000D01*
X198847021Y-117628600D01*
X199288980Y-117234315D01*
X199581718Y-116537912D01*
X199732971Y-115797779D01*
X199736924Y-115042361D01*
X199593427Y-114300687D01*
X199307993Y-113601258D01*
X199288980Y-113565685D01*
X198847021Y-113171400D01*
X196618420Y-115400000D01*
X195181580Y-115400000D01*
X192952979Y-113171400D01*
X192511020Y-113565685D01*
X192218282Y-114262088D01*
X192067029Y-115002221D01*
X192063076Y-115757639D01*
X179712000Y-115757639D01*
X179712000Y-115390815D01*
X179688675Y-115153993D01*
X179596499Y-114850130D01*
X179446814Y-114570088D01*
X179245371Y-114324629D01*
X178999911Y-114123186D01*
X178719869Y-113973501D01*
X178416006Y-113881325D01*
X178100000Y-113850201D01*
X177783993Y-113881325D01*
X177480130Y-113973501D01*
X177200088Y-114123186D01*
X176954629Y-114324629D01*
X176753186Y-114570089D01*
X176603501Y-114850131D01*
X176511325Y-115153994D01*
X176488000Y-115390816D01*
X174632000Y-115390816D01*
X174632000Y-115390815D01*
X174608675Y-115153993D01*
X174516499Y-114850130D01*
X174366814Y-114570088D01*
X174165371Y-114324629D01*
X173919911Y-114123186D01*
X173639869Y-113973501D01*
X173336006Y-113881325D01*
X173020000Y-113850201D01*
X172703993Y-113881325D01*
X172400130Y-113973501D01*
X172120088Y-114123186D01*
X171874629Y-114324629D01*
X171673186Y-114570089D01*
X171523501Y-114850131D01*
X171431325Y-115153994D01*
X171408000Y-115390816D01*
X128335100Y-115390816D01*
X128336924Y-115042361D01*
X128193427Y-114300687D01*
X127907993Y-113601258D01*
X127888980Y-113565685D01*
X127447021Y-113171400D01*
X125218420Y-115400000D01*
X123781580Y-115400000D01*
X121552979Y-113171400D01*
X121111020Y-113565685D01*
X120818282Y-114262088D01*
X120667029Y-115002221D01*
X120663076Y-115757639D01*
X120508000Y-115757639D01*
X120508000Y-112452979D01*
X122271400Y-112452979D01*
X124500000Y-114681580D01*
X126728600Y-112452979D01*
X193671400Y-112452979D01*
X195900000Y-114681580D01*
X198128600Y-112452979D01*
X197734315Y-112011020D01*
X197037912Y-111718282D01*
X196297779Y-111567029D01*
X195542361Y-111563076D01*
X194800687Y-111706573D01*
X194101258Y-111992007D01*
X194065685Y-112011020D01*
X193671400Y-112452979D01*
X126728600Y-112452979D01*
X126334315Y-112011020D01*
X125637912Y-111718282D01*
X124897779Y-111567029D01*
X124142361Y-111563076D01*
X123400687Y-111706573D01*
X122701258Y-111992007D01*
X122665685Y-112011020D01*
X122271400Y-112452979D01*
X120508000Y-112452979D01*
X120508000Y-81664605D01*
X122942000Y-81664605D01*
X122942001Y-87885397D01*
X122949352Y-87960035D01*
X122978400Y-88055793D01*
X123025572Y-88144045D01*
X123035127Y-88155688D01*
X123298057Y-88584751D01*
X123316102Y-88609587D01*
X123333240Y-88635064D01*
X123952554Y-89415641D01*
X123952560Y-89415649D01*
X124006853Y-89474017D01*
X124740655Y-90148103D01*
X124740661Y-90148110D01*
X124803416Y-90197265D01*
X125633640Y-90748265D01*
X125703312Y-90786998D01*
X126609507Y-91201338D01*
X126609509Y-91201339D01*
X126684383Y-91228696D01*
X127644242Y-91496175D01*
X127722473Y-91511483D01*
X128712356Y-91625514D01*
X128792019Y-91628395D01*
X129787554Y-91586170D01*
X129866687Y-91576554D01*
X129866701Y-91576550D01*
X130843348Y-91379115D01*
X130843360Y-91379113D01*
X130881687Y-91368174D01*
X130920014Y-91357236D01*
X130920025Y-91357231D01*
X131738000Y-91052563D01*
X131738000Y-97557554D01*
X131390496Y-97398665D01*
X131390491Y-97398662D01*
X131315617Y-97371305D01*
X130355758Y-97103826D01*
X130277527Y-97088518D01*
X129287643Y-96974487D01*
X129207981Y-96971606D01*
X128212446Y-97013831D01*
X128133313Y-97023447D01*
X128133301Y-97023450D01*
X127156655Y-97220886D01*
X127156640Y-97220888D01*
X127107375Y-97234949D01*
X127079987Y-97242765D01*
X127079980Y-97242768D01*
X126146236Y-97590558D01*
X126146225Y-97590561D01*
X126115991Y-97604614D01*
X126073937Y-97624160D01*
X126073928Y-97624166D01*
X125206078Y-98113746D01*
X125139936Y-98158240D01*
X125139930Y-98158245D01*
X124359358Y-98777555D01*
X124359350Y-98777561D01*
X124300983Y-98831854D01*
X123626892Y-99565660D01*
X123626891Y-99565661D01*
X123577736Y-99628416D01*
X123040972Y-100437190D01*
X123025572Y-100455955D01*
X122978400Y-100544208D01*
X122949352Y-100639966D01*
X122942001Y-100714604D01*
X122942002Y-106935396D01*
X122949353Y-107010034D01*
X122978401Y-107105792D01*
X123025573Y-107194044D01*
X123035124Y-107205682D01*
X123298057Y-107634750D01*
X123316096Y-107659579D01*
X123333240Y-107685064D01*
X123952555Y-108465642D01*
X123952561Y-108465650D01*
X124006854Y-108524017D01*
X124740661Y-109198109D01*
X124803416Y-109247264D01*
X125633640Y-109798264D01*
X125703312Y-109836997D01*
X126609509Y-110251338D01*
X126684383Y-110278695D01*
X127644242Y-110546174D01*
X127722473Y-110561482D01*
X128712356Y-110675513D01*
X128792019Y-110678394D01*
X129787554Y-110636169D01*
X129866687Y-110626553D01*
X129866701Y-110626549D01*
X130843347Y-110429114D01*
X130843359Y-110429112D01*
X130881686Y-110418173D01*
X130920013Y-110407235D01*
X130920024Y-110407230D01*
X131853775Y-110059439D01*
X131926063Y-110025840D01*
X132071598Y-109943739D01*
X138775790Y-109943739D01*
X139084701Y-110313779D01*
X139660858Y-110536041D01*
X140269305Y-110641629D01*
X140886661Y-110626486D01*
X141489200Y-110491194D01*
X141917517Y-110313779D01*
X142226428Y-109943739D01*
X161675790Y-109943739D01*
X161984701Y-110313779D01*
X162560858Y-110536041D01*
X163169305Y-110641629D01*
X163786661Y-110626486D01*
X164389200Y-110491194D01*
X164817517Y-110313779D01*
X165126428Y-109943739D01*
X163401109Y-108218420D01*
X161675790Y-109943739D01*
X142226428Y-109943739D01*
X140501109Y-108218420D01*
X138775790Y-109943739D01*
X132071598Y-109943739D01*
X132793916Y-109536257D01*
X132793922Y-109536254D01*
X132860064Y-109491760D01*
X133640642Y-108872445D01*
X133640650Y-108872439D01*
X133699017Y-108818146D01*
X134373109Y-108084339D01*
X134422264Y-108021584D01*
X134973264Y-107191360D01*
X135011997Y-107121688D01*
X135426338Y-106215491D01*
X135453695Y-106140617D01*
X135670668Y-105362000D01*
X138184967Y-105362000D01*
X137914826Y-105632141D01*
X138057368Y-105774683D01*
X137687330Y-106083592D01*
X137465068Y-106659749D01*
X137359480Y-107268196D01*
X137374623Y-107885552D01*
X137509915Y-108488091D01*
X137687330Y-108916408D01*
X138057370Y-109225319D01*
X139782689Y-107500000D01*
X139768547Y-107485858D01*
X140486967Y-106767438D01*
X140501109Y-106781580D01*
X140515252Y-106767438D01*
X141233672Y-107485858D01*
X141219529Y-107500000D01*
X142944848Y-109225319D01*
X143314888Y-108916408D01*
X143537150Y-108340251D01*
X143642738Y-107731804D01*
X143631367Y-107268196D01*
X160259480Y-107268196D01*
X160274623Y-107885552D01*
X160409915Y-108488091D01*
X160587330Y-108916408D01*
X160957370Y-109225319D01*
X162682689Y-107500000D01*
X164119529Y-107500000D01*
X165844848Y-109225319D01*
X166214888Y-108916408D01*
X166437150Y-108340251D01*
X166528448Y-107814147D01*
X166713000Y-107814147D01*
X166713000Y-108185853D01*
X166785517Y-108550417D01*
X166927763Y-108893829D01*
X167134272Y-109202892D01*
X167397108Y-109465728D01*
X167706171Y-109672237D01*
X168049583Y-109814483D01*
X168414147Y-109887000D01*
X168785853Y-109887000D01*
X169150417Y-109814483D01*
X169493829Y-109672237D01*
X169802892Y-109465728D01*
X170065728Y-109202892D01*
X170272237Y-108893829D01*
X170414483Y-108550417D01*
X170487000Y-108185853D01*
X170487000Y-107814147D01*
X170478381Y-107770816D01*
X171408000Y-107770816D01*
X171408000Y-108229185D01*
X171431325Y-108466007D01*
X171523501Y-108769870D01*
X171673186Y-109049912D01*
X171874629Y-109295371D01*
X172120089Y-109496814D01*
X172400131Y-109646499D01*
X172703994Y-109738675D01*
X173020000Y-109769799D01*
X173336007Y-109738675D01*
X173639870Y-109646499D01*
X173919912Y-109496814D01*
X174165371Y-109295371D01*
X174290000Y-109143510D01*
X174414629Y-109295371D01*
X174660089Y-109496814D01*
X174940131Y-109646499D01*
X175243994Y-109738675D01*
X175560000Y-109769799D01*
X175876007Y-109738675D01*
X176179870Y-109646499D01*
X176459912Y-109496814D01*
X176593104Y-109387506D01*
X176613355Y-109425392D01*
X176708578Y-109541422D01*
X176824608Y-109636645D01*
X176956985Y-109707402D01*
X177100622Y-109750974D01*
X177250000Y-109765686D01*
X178950000Y-109765686D01*
X179099378Y-109750974D01*
X179243015Y-109707402D01*
X179375392Y-109636645D01*
X179491422Y-109541422D01*
X179586645Y-109425392D01*
X179657402Y-109293015D01*
X179700974Y-109149378D01*
X179715686Y-109000000D01*
X179715686Y-107000000D01*
X179700974Y-106850622D01*
X179657402Y-106706985D01*
X179586645Y-106574608D01*
X179491422Y-106458578D01*
X179375392Y-106363355D01*
X179243015Y-106292598D01*
X179099378Y-106249026D01*
X178950000Y-106234314D01*
X177250000Y-106234314D01*
X177100622Y-106249026D01*
X176956985Y-106292598D01*
X176824608Y-106363355D01*
X176708578Y-106458578D01*
X176613355Y-106574608D01*
X176593104Y-106612494D01*
X176459911Y-106503186D01*
X176179869Y-106353501D01*
X175876006Y-106261325D01*
X175560000Y-106230201D01*
X175243993Y-106261325D01*
X174940130Y-106353501D01*
X174660088Y-106503186D01*
X174414629Y-106704629D01*
X174290000Y-106856490D01*
X174165371Y-106704629D01*
X173919911Y-106503186D01*
X173639869Y-106353501D01*
X173336006Y-106261325D01*
X173020000Y-106230201D01*
X172703993Y-106261325D01*
X172400130Y-106353501D01*
X172120088Y-106503186D01*
X171874629Y-106704629D01*
X171673186Y-106950089D01*
X171523501Y-107230131D01*
X171431325Y-107533994D01*
X171408000Y-107770816D01*
X170478381Y-107770816D01*
X170414483Y-107449583D01*
X170272237Y-107106171D01*
X170065728Y-106797108D01*
X169802892Y-106534272D01*
X169493829Y-106327763D01*
X169150417Y-106185517D01*
X168785853Y-106113000D01*
X168414147Y-106113000D01*
X168049583Y-106185517D01*
X167706171Y-106327763D01*
X167397108Y-106534272D01*
X167134272Y-106797108D01*
X166927763Y-107106171D01*
X166785517Y-107449583D01*
X166713000Y-107814147D01*
X166528448Y-107814147D01*
X166542738Y-107731804D01*
X166527595Y-107114448D01*
X166392303Y-106511909D01*
X166214888Y-106083592D01*
X165844848Y-105774681D01*
X164119529Y-107500000D01*
X162682689Y-107500000D01*
X160957370Y-105774681D01*
X160587330Y-106083592D01*
X160365068Y-106659749D01*
X160259480Y-107268196D01*
X143631367Y-107268196D01*
X143627595Y-107114448D01*
X143492303Y-106511909D01*
X143314888Y-106083592D01*
X142944850Y-105774683D01*
X143087392Y-105632141D01*
X142817251Y-105362000D01*
X155500000Y-105362000D01*
X155648659Y-105347358D01*
X155791605Y-105303996D01*
X155871289Y-105261405D01*
X156001731Y-105300974D01*
X156151109Y-105315686D01*
X158651109Y-105315686D01*
X158800487Y-105300974D01*
X158944124Y-105257402D01*
X159076501Y-105186645D01*
X159192531Y-105091422D01*
X159221386Y-105056261D01*
X161675790Y-105056261D01*
X163401109Y-106781580D01*
X165126428Y-105056261D01*
X164817517Y-104686221D01*
X164241360Y-104463959D01*
X163632913Y-104358371D01*
X163015557Y-104373514D01*
X162413018Y-104508806D01*
X161984701Y-104686221D01*
X161675790Y-105056261D01*
X159221386Y-105056261D01*
X159287754Y-104975392D01*
X159358511Y-104843015D01*
X159402083Y-104699378D01*
X159416795Y-104550000D01*
X159416795Y-103617018D01*
X184546605Y-103617018D01*
X184588830Y-104612554D01*
X184598446Y-104691687D01*
X184598450Y-104691701D01*
X184795885Y-105668347D01*
X184795887Y-105668359D01*
X184817764Y-105745013D01*
X185165559Y-106678775D01*
X185199158Y-106751063D01*
X185199164Y-106751072D01*
X185688746Y-107618922D01*
X185733239Y-107685064D01*
X185733244Y-107685070D01*
X186352553Y-108465641D01*
X186352559Y-108465649D01*
X186406852Y-108524017D01*
X187140654Y-109198103D01*
X187140660Y-109198110D01*
X187203415Y-109247265D01*
X188033639Y-109798265D01*
X188103311Y-109836998D01*
X189009506Y-110251338D01*
X189009508Y-110251339D01*
X189084382Y-110278696D01*
X190044241Y-110546175D01*
X190122472Y-110561483D01*
X191112355Y-110675514D01*
X191192018Y-110678395D01*
X192187554Y-110636170D01*
X192266687Y-110626554D01*
X192266701Y-110626550D01*
X193243347Y-110429115D01*
X193243359Y-110429113D01*
X193320013Y-110407236D01*
X194253775Y-110059441D01*
X194326063Y-110025842D01*
X194326072Y-110025836D01*
X195193917Y-109536257D01*
X195193921Y-109536255D01*
X195222445Y-109517067D01*
X195260064Y-109491761D01*
X195260070Y-109491756D01*
X196040641Y-108872447D01*
X196040649Y-108872441D01*
X196099017Y-108818148D01*
X196773103Y-108084346D01*
X196773110Y-108084340D01*
X196822265Y-108021585D01*
X197359036Y-107212801D01*
X197374429Y-107194044D01*
X197421601Y-107105792D01*
X197450649Y-107010034D01*
X197458000Y-106935396D01*
X197458000Y-100714603D01*
X197450649Y-100639965D01*
X197421601Y-100544207D01*
X197374429Y-100455955D01*
X197364874Y-100444312D01*
X197101944Y-100015249D01*
X197083894Y-99990405D01*
X197066761Y-99964937D01*
X196447444Y-99184357D01*
X196447440Y-99184350D01*
X196407808Y-99141744D01*
X196393148Y-99125983D01*
X196393141Y-99125978D01*
X195659340Y-98451890D01*
X195596585Y-98402735D01*
X194766361Y-97851735D01*
X194696689Y-97813002D01*
X193790497Y-97398664D01*
X193790492Y-97398661D01*
X193715618Y-97371304D01*
X192755759Y-97103825D01*
X192677528Y-97088517D01*
X191687644Y-96974486D01*
X191607982Y-96971605D01*
X190612446Y-97013830D01*
X190533313Y-97023446D01*
X190533301Y-97023449D01*
X189556653Y-97220885D01*
X189556641Y-97220887D01*
X189479987Y-97242764D01*
X188546225Y-97590559D01*
X188473937Y-97624158D01*
X187606088Y-98113740D01*
X187606078Y-98113745D01*
X187577555Y-98132933D01*
X187539936Y-98158239D01*
X187539930Y-98158244D01*
X186759357Y-98777556D01*
X186759350Y-98777560D01*
X186733710Y-98801410D01*
X186700983Y-98831852D01*
X186700978Y-98831859D01*
X186026890Y-99565660D01*
X185977735Y-99628415D01*
X185426735Y-100458639D01*
X185388002Y-100528311D01*
X184973664Y-101434503D01*
X184973661Y-101434508D01*
X184946304Y-101509382D01*
X184678825Y-102469241D01*
X184663517Y-102547472D01*
X184549486Y-103537354D01*
X184549486Y-103537355D01*
X184546605Y-103617018D01*
X159416795Y-103617018D01*
X159416795Y-100050000D01*
X159402083Y-99900622D01*
X159358511Y-99756985D01*
X159287754Y-99624608D01*
X159192531Y-99508578D01*
X159076501Y-99413355D01*
X158944124Y-99342598D01*
X158800487Y-99299026D01*
X158651109Y-99284314D01*
X156262000Y-99284314D01*
X156262000Y-91800000D01*
X160636530Y-91800000D01*
X160636530Y-96800000D01*
X160651242Y-96949378D01*
X160694814Y-97093015D01*
X160765571Y-97225392D01*
X160860794Y-97341422D01*
X160976824Y-97436645D01*
X161109201Y-97507402D01*
X161252838Y-97550974D01*
X161402216Y-97565686D01*
X166402216Y-97565686D01*
X166551594Y-97550974D01*
X166695231Y-97507402D01*
X166827608Y-97436645D01*
X166943638Y-97341422D01*
X167038861Y-97225392D01*
X167109618Y-97093015D01*
X167153190Y-96949378D01*
X167167902Y-96800000D01*
X167167902Y-94092018D01*
X168048822Y-94092018D01*
X168091046Y-95087553D01*
X168100662Y-95166685D01*
X168100665Y-95166697D01*
X168298101Y-96143346D01*
X168298103Y-96143358D01*
X168308294Y-96179065D01*
X168319980Y-96220012D01*
X168319985Y-96220023D01*
X168667776Y-97153775D01*
X168701375Y-97226063D01*
X169190956Y-98093911D01*
X169190961Y-98093921D01*
X169235455Y-98160063D01*
X169854775Y-98940646D01*
X169854776Y-98940648D01*
X169909069Y-98999015D01*
X170642870Y-99673102D01*
X170642876Y-99673109D01*
X170705631Y-99722264D01*
X171535855Y-100273264D01*
X171605527Y-100311997D01*
X172511724Y-100726338D01*
X172586598Y-100753695D01*
X173546457Y-101021174D01*
X173624688Y-101036482D01*
X174614571Y-101150513D01*
X174694234Y-101153394D01*
X175689769Y-101111170D01*
X175768901Y-101101554D01*
X175768913Y-101101551D01*
X176745562Y-100904115D01*
X176745574Y-100904113D01*
X176783901Y-100893174D01*
X176822228Y-100882236D01*
X176822239Y-100882231D01*
X177755991Y-100534440D01*
X177828279Y-100500841D01*
X178696127Y-100011260D01*
X178696137Y-100011255D01*
X178762279Y-99966761D01*
X179542865Y-99347439D01*
X179569374Y-99322780D01*
X179601231Y-99293147D01*
X180275318Y-98559346D01*
X180275325Y-98559340D01*
X180324480Y-98496585D01*
X180861247Y-97687807D01*
X180876645Y-97669044D01*
X180923817Y-97580792D01*
X180952865Y-97485034D01*
X180960216Y-97410396D01*
X180960216Y-93450000D01*
X183284314Y-93450000D01*
X183284314Y-95150000D01*
X183299026Y-95299378D01*
X183342598Y-95443015D01*
X183413355Y-95575392D01*
X183508578Y-95691422D01*
X183624608Y-95786645D01*
X183756985Y-95857402D01*
X183900622Y-95900974D01*
X184050000Y-95915686D01*
X185750000Y-95915686D01*
X185899378Y-95900974D01*
X186043015Y-95857402D01*
X186175392Y-95786645D01*
X186291422Y-95691422D01*
X186386645Y-95575392D01*
X186403725Y-95543437D01*
X186412410Y-95552122D01*
X186676432Y-95728536D01*
X186969797Y-95850052D01*
X187281232Y-95912000D01*
X187598768Y-95912000D01*
X187910203Y-95850052D01*
X188203568Y-95728536D01*
X188467590Y-95552122D01*
X188692122Y-95327590D01*
X188868536Y-95063568D01*
X188990052Y-94770203D01*
X189052000Y-94458768D01*
X189052000Y-94141232D01*
X188990052Y-93829797D01*
X188868536Y-93536432D01*
X188692122Y-93272410D01*
X188467590Y-93047878D01*
X188203568Y-92871464D01*
X187910203Y-92749948D01*
X187598768Y-92688000D01*
X187281232Y-92688000D01*
X186969797Y-92749948D01*
X186676432Y-92871464D01*
X186412410Y-93047878D01*
X186403725Y-93056563D01*
X186386645Y-93024608D01*
X186291422Y-92908578D01*
X186175392Y-92813355D01*
X186043015Y-92742598D01*
X185899378Y-92699026D01*
X185750000Y-92684314D01*
X184050000Y-92684314D01*
X183900622Y-92699026D01*
X183756985Y-92742598D01*
X183624608Y-92813355D01*
X183508578Y-92908578D01*
X183413355Y-93024608D01*
X183342598Y-93156985D01*
X183299026Y-93300622D01*
X183284314Y-93450000D01*
X180960216Y-93450000D01*
X180960216Y-91189604D01*
X180952865Y-91114966D01*
X180923817Y-91019208D01*
X180876645Y-90930956D01*
X180867090Y-90919313D01*
X180604160Y-90490250D01*
X180586110Y-90465406D01*
X180568977Y-90439938D01*
X179949655Y-89659351D01*
X179895363Y-89600984D01*
X179895356Y-89600978D01*
X179161562Y-88926898D01*
X179161556Y-88926891D01*
X179098801Y-88877736D01*
X178268577Y-88326736D01*
X178198905Y-88288003D01*
X177292713Y-87873665D01*
X177292708Y-87873662D01*
X177217834Y-87846305D01*
X176257975Y-87578826D01*
X176179744Y-87563518D01*
X175189862Y-87449487D01*
X175189861Y-87449487D01*
X175110198Y-87446606D01*
X174114663Y-87488830D01*
X174035531Y-87498446D01*
X174035521Y-87498449D01*
X173058872Y-87695885D01*
X173058857Y-87695887D01*
X173015745Y-87708192D01*
X172982204Y-87717764D01*
X172982193Y-87717769D01*
X172048452Y-88065557D01*
X172048441Y-88065560D01*
X171976153Y-88099159D01*
X171108295Y-88588745D01*
X171042153Y-88633239D01*
X171042147Y-88633244D01*
X170261567Y-89252561D01*
X170203200Y-89306853D01*
X170203194Y-89306860D01*
X169529114Y-90040654D01*
X169529107Y-90040660D01*
X169479952Y-90103415D01*
X168928952Y-90933639D01*
X168890219Y-91003311D01*
X168475881Y-91909503D01*
X168475878Y-91909508D01*
X168448521Y-91984382D01*
X168181042Y-92944241D01*
X168165734Y-93022472D01*
X168051703Y-94012354D01*
X168051703Y-94012355D01*
X168048822Y-94092018D01*
X167167902Y-94092018D01*
X167167902Y-91800000D01*
X167153190Y-91650622D01*
X167109618Y-91506985D01*
X167038861Y-91374608D01*
X166943638Y-91258578D01*
X166827608Y-91163355D01*
X166695231Y-91092598D01*
X166551594Y-91049026D01*
X166402216Y-91034314D01*
X161402216Y-91034314D01*
X161252838Y-91049026D01*
X161109201Y-91092598D01*
X160976824Y-91163355D01*
X160860794Y-91258578D01*
X160765571Y-91374608D01*
X160694814Y-91506985D01*
X160651242Y-91650622D01*
X160636530Y-91800000D01*
X156262000Y-91800000D01*
X156262000Y-88967967D01*
X156277894Y-88981011D01*
X156627426Y-89167840D01*
X157006689Y-89282888D01*
X157401109Y-89321735D01*
X157795530Y-89282888D01*
X158174793Y-89167840D01*
X158524325Y-88981011D01*
X158830692Y-88729583D01*
X159082120Y-88423216D01*
X159268949Y-88073684D01*
X159383997Y-87694421D01*
X159413109Y-87398841D01*
X159413109Y-85201159D01*
X159383997Y-84905579D01*
X159281296Y-84567018D01*
X184546606Y-84567018D01*
X184588830Y-85562553D01*
X184598446Y-85641685D01*
X184598449Y-85641697D01*
X184795885Y-86618346D01*
X184795887Y-86618358D01*
X184806078Y-86654065D01*
X184817764Y-86695012D01*
X184817769Y-86695023D01*
X185165560Y-87628775D01*
X185199159Y-87701063D01*
X185688740Y-88568911D01*
X185688745Y-88568921D01*
X185733239Y-88635063D01*
X186352559Y-89415646D01*
X186352560Y-89415648D01*
X186406853Y-89474015D01*
X187140654Y-90148102D01*
X187140660Y-90148109D01*
X187203415Y-90197264D01*
X188033639Y-90748264D01*
X188103311Y-90786997D01*
X189009508Y-91201338D01*
X189084382Y-91228695D01*
X190044241Y-91496174D01*
X190122472Y-91511482D01*
X191112355Y-91625513D01*
X191192018Y-91628394D01*
X192187553Y-91586170D01*
X192266685Y-91576554D01*
X192266697Y-91576551D01*
X193243346Y-91379115D01*
X193243358Y-91379113D01*
X193281685Y-91368174D01*
X193320012Y-91357236D01*
X193320023Y-91357231D01*
X194253775Y-91009440D01*
X194326063Y-90975841D01*
X195193911Y-90486260D01*
X195193921Y-90486255D01*
X195260063Y-90441761D01*
X196040649Y-89822439D01*
X196065924Y-89798928D01*
X196099015Y-89768147D01*
X196773102Y-89034346D01*
X196773109Y-89034340D01*
X196822264Y-88971585D01*
X197359027Y-88162812D01*
X197374429Y-88144045D01*
X197421601Y-88055793D01*
X197450649Y-87960035D01*
X197458000Y-87885397D01*
X197458000Y-81664604D01*
X197450649Y-81589966D01*
X197421601Y-81494208D01*
X197374429Y-81405956D01*
X197364874Y-81394313D01*
X197101944Y-80965250D01*
X197083894Y-80940406D01*
X197066761Y-80914938D01*
X196447439Y-80134351D01*
X196393147Y-80075984D01*
X196393140Y-80075978D01*
X195659346Y-79401898D01*
X195659340Y-79401891D01*
X195596585Y-79352736D01*
X194766361Y-78801736D01*
X194696689Y-78763003D01*
X193790497Y-78348665D01*
X193790492Y-78348662D01*
X193715618Y-78321305D01*
X192755759Y-78053826D01*
X192677528Y-78038518D01*
X191687646Y-77924487D01*
X191687645Y-77924487D01*
X191607982Y-77921606D01*
X190612447Y-77963830D01*
X190533315Y-77973446D01*
X190533305Y-77973449D01*
X189556656Y-78170885D01*
X189556641Y-78170887D01*
X189513529Y-78183192D01*
X189479988Y-78192764D01*
X189479977Y-78192769D01*
X188546236Y-78540557D01*
X188546225Y-78540560D01*
X188473937Y-78574159D01*
X187606079Y-79063745D01*
X187539937Y-79108239D01*
X187539931Y-79108244D01*
X186759351Y-79727561D01*
X186700984Y-79781853D01*
X186700978Y-79781860D01*
X186026898Y-80515654D01*
X186026891Y-80515660D01*
X185977736Y-80578415D01*
X185426736Y-81408639D01*
X185388003Y-81478311D01*
X184973665Y-82384503D01*
X184973662Y-82384508D01*
X184946305Y-82459382D01*
X184678826Y-83419241D01*
X184663518Y-83497472D01*
X184549487Y-84487354D01*
X184549487Y-84487355D01*
X184546606Y-84567018D01*
X159281296Y-84567018D01*
X159268949Y-84526316D01*
X159082120Y-84176784D01*
X158830692Y-83870417D01*
X158524325Y-83618989D01*
X158383542Y-83543739D01*
X161675790Y-83543739D01*
X161984701Y-83913779D01*
X162560858Y-84136041D01*
X163169305Y-84241629D01*
X163786661Y-84226486D01*
X164389200Y-84091194D01*
X164817517Y-83913779D01*
X165126428Y-83543739D01*
X163401109Y-81818420D01*
X161675790Y-83543739D01*
X158383542Y-83543739D01*
X158174792Y-83432160D01*
X157795529Y-83317112D01*
X157401109Y-83278265D01*
X157006688Y-83317112D01*
X156627425Y-83432160D01*
X156277893Y-83618989D01*
X156193311Y-83688404D01*
X156133580Y-83576655D01*
X156038815Y-83461185D01*
X155923345Y-83366420D01*
X155791605Y-83296004D01*
X155648659Y-83252642D01*
X155500000Y-83238000D01*
X142817251Y-83238000D01*
X143087392Y-82967859D01*
X142944850Y-82825317D01*
X143314888Y-82516408D01*
X143537150Y-81940251D01*
X143642738Y-81331804D01*
X143631367Y-80868196D01*
X160259480Y-80868196D01*
X160274623Y-81485552D01*
X160409915Y-82088091D01*
X160587330Y-82516408D01*
X160957370Y-82825319D01*
X162682689Y-81100000D01*
X164119529Y-81100000D01*
X165844848Y-82825319D01*
X166214888Y-82516408D01*
X166437150Y-81940251D01*
X166542738Y-81331804D01*
X166527595Y-80714448D01*
X166392303Y-80111909D01*
X166214888Y-79683592D01*
X165844848Y-79374681D01*
X164119529Y-81100000D01*
X162682689Y-81100000D01*
X160957370Y-79374681D01*
X160587330Y-79683592D01*
X160365068Y-80259749D01*
X160259480Y-80868196D01*
X143631367Y-80868196D01*
X143627595Y-80714448D01*
X143492303Y-80111909D01*
X143314888Y-79683592D01*
X142944848Y-79374681D01*
X141219529Y-81100000D01*
X141233672Y-81114143D01*
X140515252Y-81832563D01*
X140501109Y-81818420D01*
X140486967Y-81832563D01*
X139768547Y-81114143D01*
X139782689Y-81100000D01*
X138057370Y-79374681D01*
X137687330Y-79683592D01*
X137465068Y-80259749D01*
X137359480Y-80868196D01*
X137374623Y-81485552D01*
X137509915Y-82088091D01*
X137687330Y-82516408D01*
X138057368Y-82825317D01*
X137914826Y-82967859D01*
X138184967Y-83238000D01*
X135666045Y-83238000D01*
X135604115Y-82931654D01*
X135604113Y-82931639D01*
X135588421Y-82876659D01*
X135582236Y-82854986D01*
X135582233Y-82854979D01*
X135234443Y-81921235D01*
X135234440Y-81921224D01*
X135200841Y-81848936D01*
X134711259Y-80981087D01*
X134711254Y-80981077D01*
X134666760Y-80914935D01*
X134047440Y-80134352D01*
X134047439Y-80134350D01*
X134007806Y-80091743D01*
X133993147Y-80075983D01*
X133993140Y-80075978D01*
X133259339Y-79401890D01*
X133196584Y-79352735D01*
X132366360Y-78801735D01*
X132296688Y-78763002D01*
X132063237Y-78656261D01*
X138775790Y-78656261D01*
X140501109Y-80381580D01*
X142226428Y-78656261D01*
X161675790Y-78656261D01*
X163401109Y-80381580D01*
X165126428Y-78656261D01*
X164817517Y-78286221D01*
X164241360Y-78063959D01*
X163632913Y-77958371D01*
X163015557Y-77973514D01*
X162413018Y-78108806D01*
X161984701Y-78286221D01*
X161675790Y-78656261D01*
X142226428Y-78656261D01*
X141917517Y-78286221D01*
X141341360Y-78063959D01*
X140732913Y-77958371D01*
X140115557Y-77973514D01*
X139513018Y-78108806D01*
X139084701Y-78286221D01*
X138775790Y-78656261D01*
X132063237Y-78656261D01*
X131390496Y-78348664D01*
X131390491Y-78348661D01*
X131315617Y-78321304D01*
X130355758Y-78053825D01*
X130277527Y-78038517D01*
X129287643Y-77924486D01*
X129207981Y-77921605D01*
X128212446Y-77963830D01*
X128133313Y-77973446D01*
X128133299Y-77973450D01*
X127156654Y-78170885D01*
X127156639Y-78170887D01*
X127107374Y-78184948D01*
X127079986Y-78192764D01*
X127079979Y-78192767D01*
X126146235Y-78540557D01*
X126146224Y-78540560D01*
X126073936Y-78574159D01*
X125206087Y-79063741D01*
X125206077Y-79063746D01*
X125139935Y-79108240D01*
X124359357Y-79727557D01*
X124359350Y-79727561D01*
X124331222Y-79753725D01*
X124300983Y-79781853D01*
X124300978Y-79781860D01*
X123626891Y-80515660D01*
X123626890Y-80515661D01*
X123577735Y-80578416D01*
X123040968Y-81387195D01*
X123025571Y-81405956D01*
X122978399Y-81494209D01*
X122949351Y-81589967D01*
X122942000Y-81664605D01*
X120508000Y-81664605D01*
X120508000Y-76147021D01*
X122271400Y-76147021D01*
X122665685Y-76588980D01*
X123362088Y-76881718D01*
X124102221Y-77032971D01*
X124857639Y-77036924D01*
X125064893Y-76996825D01*
X179320605Y-76996825D01*
X179335317Y-77146203D01*
X179378889Y-77289840D01*
X179449646Y-77422217D01*
X179544869Y-77538247D01*
X183080403Y-81073781D01*
X183196433Y-81169004D01*
X183328810Y-81239761D01*
X183472447Y-81283333D01*
X183621825Y-81298045D01*
X183771203Y-81283333D01*
X183914840Y-81239761D01*
X184047217Y-81169004D01*
X184163247Y-81073781D01*
X187698781Y-77538247D01*
X187794004Y-77422217D01*
X187864761Y-77289840D01*
X187908333Y-77146203D01*
X187923045Y-76996825D01*
X187908333Y-76847447D01*
X187864761Y-76703810D01*
X187794004Y-76571433D01*
X187698781Y-76455403D01*
X187390399Y-76147021D01*
X193671400Y-76147021D01*
X194065685Y-76588980D01*
X194762088Y-76881718D01*
X195502221Y-77032971D01*
X196257639Y-77036924D01*
X196999313Y-76893427D01*
X197698742Y-76607993D01*
X197734315Y-76588980D01*
X198128600Y-76147021D01*
X195900000Y-73918420D01*
X193671400Y-76147021D01*
X187390399Y-76147021D01*
X184801017Y-73557639D01*
X192063076Y-73557639D01*
X192206573Y-74299313D01*
X192492007Y-74998742D01*
X192511020Y-75034315D01*
X192952979Y-75428600D01*
X195181580Y-73200000D01*
X196618420Y-73200000D01*
X198847021Y-75428600D01*
X199288980Y-75034315D01*
X199581718Y-74337912D01*
X199732971Y-73597779D01*
X199736924Y-72842361D01*
X199593427Y-72100687D01*
X199307993Y-71401258D01*
X199288980Y-71365685D01*
X198847021Y-70971400D01*
X196618420Y-73200000D01*
X195181580Y-73200000D01*
X192952979Y-70971400D01*
X192511020Y-71365685D01*
X192218282Y-72062088D01*
X192067029Y-72802221D01*
X192063076Y-73557639D01*
X184801017Y-73557639D01*
X184163247Y-72919869D01*
X184047217Y-72824646D01*
X183914840Y-72753889D01*
X183771203Y-72710317D01*
X183621825Y-72695605D01*
X183472447Y-72710317D01*
X183328810Y-72753889D01*
X183196433Y-72824646D01*
X183080403Y-72919869D01*
X179544869Y-76455403D01*
X179449646Y-76571433D01*
X179378889Y-76703810D01*
X179335317Y-76847447D01*
X179320605Y-76996825D01*
X125064893Y-76996825D01*
X125599313Y-76893427D01*
X126298742Y-76607993D01*
X126334315Y-76588980D01*
X126728600Y-76147021D01*
X124500000Y-73918420D01*
X122271400Y-76147021D01*
X120508000Y-76147021D01*
X120508000Y-73557639D01*
X120663076Y-73557639D01*
X120806573Y-74299313D01*
X121092007Y-74998742D01*
X121111020Y-75034315D01*
X121552979Y-75428600D01*
X123781580Y-73200000D01*
X125218420Y-73200000D01*
X127447021Y-75428600D01*
X127888980Y-75034315D01*
X128181718Y-74337912D01*
X128332971Y-73597779D01*
X128336924Y-72842361D01*
X128193427Y-72100687D01*
X127907993Y-71401258D01*
X127888980Y-71365685D01*
X127447021Y-70971400D01*
X125218420Y-73200000D01*
X123781580Y-73200000D01*
X121552979Y-70971400D01*
X121111020Y-71365685D01*
X120818282Y-72062088D01*
X120667029Y-72802221D01*
X120663076Y-73557639D01*
X120508000Y-73557639D01*
X120508000Y-70624840D01*
X120538804Y-70310676D01*
X120556223Y-70252979D01*
X122271400Y-70252979D01*
X124500000Y-72481580D01*
X126728600Y-70252979D01*
X193671400Y-70252979D01*
X195900000Y-72481580D01*
X198128600Y-70252979D01*
X197734315Y-69811020D01*
X197037912Y-69518282D01*
X196297779Y-69367029D01*
X195542361Y-69363076D01*
X194800687Y-69506573D01*
X194101258Y-69792007D01*
X194065685Y-69811020D01*
X193671400Y-70252979D01*
X126728600Y-70252979D01*
X126334315Y-69811020D01*
X125637912Y-69518282D01*
X124897779Y-69367029D01*
X124142361Y-69363076D01*
X123400687Y-69506573D01*
X122701258Y-69792007D01*
X122665685Y-69811020D01*
X122271400Y-70252979D01*
X120556223Y-70252979D01*
X120622829Y-70032372D01*
X120759311Y-69775688D01*
X120943048Y-69550403D01*
X121167044Y-69365097D01*
X121422774Y-69226825D01*
X121700483Y-69140860D01*
X122013126Y-69108000D01*
X198375160Y-69108000D01*
X198689324Y-69138804D01*
G36*
X139549619Y-84236643D02*
G01*
X140179830Y-84362000D01*
X140822388Y-84362000D01*
X141452599Y-84236643D01*
X141717301Y-84127000D01*
X144485423Y-84127000D01*
X144485423Y-88550000D01*
X144500135Y-88699378D01*
X144543707Y-88843015D01*
X144614464Y-88975392D01*
X144709687Y-89091422D01*
X144825717Y-89186645D01*
X144958094Y-89257402D01*
X145101731Y-89300974D01*
X145251109Y-89315686D01*
X147751109Y-89315686D01*
X147900487Y-89300974D01*
X148044124Y-89257402D01*
X148176501Y-89186645D01*
X148292531Y-89091422D01*
X148387754Y-88975392D01*
X148458511Y-88843015D01*
X148502083Y-88699378D01*
X148516795Y-88550000D01*
X148516795Y-84127000D01*
X155373000Y-84127000D01*
X155373000Y-104473000D01*
X148141263Y-104473000D01*
X148182120Y-104423216D01*
X148368949Y-104073684D01*
X148483997Y-103694421D01*
X148513109Y-103398841D01*
X148513109Y-101201159D01*
X148483997Y-100905579D01*
X148368949Y-100526316D01*
X148182120Y-100176784D01*
X147930692Y-99870417D01*
X147624325Y-99618989D01*
X147274793Y-99432160D01*
X146895530Y-99317112D01*
X146501109Y-99278265D01*
X146106689Y-99317112D01*
X145727426Y-99432160D01*
X145377894Y-99618989D01*
X145071527Y-99870417D01*
X144820099Y-100176784D01*
X144633270Y-100526316D01*
X144518222Y-100905579D01*
X144489110Y-101201159D01*
X144489109Y-103398840D01*
X144518221Y-103694420D01*
X144633269Y-104073683D01*
X144820098Y-104423216D01*
X144860955Y-104473000D01*
X141717301Y-104473000D01*
X141452599Y-104363357D01*
X140822388Y-104238000D01*
X140179830Y-104238000D01*
X139549619Y-104363357D01*
X139284917Y-104473000D01*
X135809001Y-104473000D01*
X135850513Y-104112644D01*
X135853394Y-104032981D01*
X135811169Y-103037446D01*
X135801553Y-102958313D01*
X135801550Y-102958301D01*
X135604114Y-101981655D01*
X135604112Y-101981640D01*
X135590051Y-101932375D01*
X135582235Y-101904987D01*
X135582232Y-101904980D01*
X135234442Y-100971236D01*
X135234439Y-100971225D01*
X135209172Y-100916864D01*
X135200840Y-100898937D01*
X135200834Y-100898928D01*
X134711254Y-100031078D01*
X134666760Y-99964936D01*
X134666755Y-99964930D01*
X134047445Y-99184358D01*
X134047439Y-99184350D01*
X133993146Y-99125983D01*
X133259339Y-98451891D01*
X133196584Y-98402736D01*
X132627000Y-98024717D01*
X132627000Y-90580420D01*
X132793913Y-90486259D01*
X132793923Y-90486254D01*
X132835284Y-90458430D01*
X132860065Y-90441760D01*
X132860071Y-90441755D01*
X133640641Y-89822446D01*
X133640649Y-89822440D01*
X133699017Y-89768147D01*
X134373103Y-89034345D01*
X134373110Y-89034339D01*
X134422265Y-88971584D01*
X134973265Y-88141360D01*
X135011998Y-88071688D01*
X135426339Y-87165491D01*
X135453696Y-87090617D01*
X135721175Y-86130758D01*
X135736483Y-86052527D01*
X135850514Y-85062644D01*
X135853395Y-84982981D01*
X135817089Y-84127000D01*
X139284917Y-84127000D01*
X139549619Y-84236643D01*
G37*
X139549619Y-84236643D02*
X140179830Y-84362000D01*
X140822388Y-84362000D01*
X141452599Y-84236643D01*
X141717301Y-84127000D01*
X144485423Y-84127000D01*
X144485423Y-88550000D01*
X144500135Y-88699378D01*
X144543707Y-88843015D01*
X144614464Y-88975392D01*
X144709687Y-89091422D01*
X144825717Y-89186645D01*
X144958094Y-89257402D01*
X145101731Y-89300974D01*
X145251109Y-89315686D01*
X147751109Y-89315686D01*
X147900487Y-89300974D01*
X148044124Y-89257402D01*
X148176501Y-89186645D01*
X148292531Y-89091422D01*
X148387754Y-88975392D01*
X148458511Y-88843015D01*
X148502083Y-88699378D01*
X148516795Y-88550000D01*
X148516795Y-84127000D01*
X155373000Y-84127000D01*
X155373000Y-104473000D01*
X148141263Y-104473000D01*
X148182120Y-104423216D01*
X148368949Y-104073684D01*
X148483997Y-103694421D01*
X148513109Y-103398841D01*
X148513109Y-101201159D01*
X148483997Y-100905579D01*
X148368949Y-100526316D01*
X148182120Y-100176784D01*
X147930692Y-99870417D01*
X147624325Y-99618989D01*
X147274793Y-99432160D01*
X146895530Y-99317112D01*
X146501109Y-99278265D01*
X146106689Y-99317112D01*
X145727426Y-99432160D01*
X145377894Y-99618989D01*
X145071527Y-99870417D01*
X144820099Y-100176784D01*
X144633270Y-100526316D01*
X144518222Y-100905579D01*
X144489110Y-101201159D01*
X144489109Y-103398840D01*
X144518221Y-103694420D01*
X144633269Y-104073683D01*
X144820098Y-104423216D01*
X144860955Y-104473000D01*
X141717301Y-104473000D01*
X141452599Y-104363357D01*
X140822388Y-104238000D01*
X140179830Y-104238000D01*
X139549619Y-104363357D01*
X139284917Y-104473000D01*
X135809001Y-104473000D01*
X135850513Y-104112644D01*
X135853394Y-104032981D01*
X135811169Y-103037446D01*
X135801553Y-102958313D01*
X135801550Y-102958301D01*
X135604114Y-101981655D01*
X135604112Y-101981640D01*
X135590051Y-101932375D01*
X135582235Y-101904987D01*
X135582232Y-101904980D01*
X135234442Y-100971236D01*
X135234439Y-100971225D01*
X135209172Y-100916864D01*
X135200840Y-100898937D01*
X135200834Y-100898928D01*
X134711254Y-100031078D01*
X134666760Y-99964936D01*
X134666755Y-99964930D01*
X134047445Y-99184358D01*
X134047439Y-99184350D01*
X133993146Y-99125983D01*
X133259339Y-98451891D01*
X133196584Y-98402736D01*
X132627000Y-98024717D01*
X132627000Y-90580420D01*
X132793913Y-90486259D01*
X132793923Y-90486254D01*
X132835284Y-90458430D01*
X132860065Y-90441760D01*
X132860071Y-90441755D01*
X133640641Y-89822446D01*
X133640649Y-89822440D01*
X133699017Y-89768147D01*
X134373103Y-89034345D01*
X134373110Y-89034339D01*
X134422265Y-88971584D01*
X134973265Y-88141360D01*
X135011998Y-88071688D01*
X135426339Y-87165491D01*
X135453696Y-87090617D01*
X135721175Y-86130758D01*
X135736483Y-86052527D01*
X135850514Y-85062644D01*
X135853395Y-84982981D01*
X135817089Y-84127000D01*
X139284917Y-84127000D01*
X139549619Y-84236643D01*
M02*
