G04 #@! TF.GenerationSoftware,KiCad,Pcbnew,(5.1.5-1-g2528d3844)*
G04 #@! TF.CreationDate,2020-01-07T19:19:00-05:00*
G04 #@! TF.ProjectId,diode-or,64696f64-652d-46f7-922e-6b696361645f,v1.0.0*
G04 #@! TF.SameCoordinates,Original*
G04 #@! TF.FileFunction,Copper,L2,Bot*
G04 #@! TF.FilePolarity,Positive*
%FSLAX46Y46*%
G04 Gerber Fmt 4.6, Leading zero omitted, Abs format (unit mm)*
G04 Created by KiCad (PCBNEW (5.1.5-1-g2528d3844)) date 2020-01-07 19:19:00*
%MOMM*%
%LPD*%
G04 APERTURE LIST*
%ADD10R,1.000000X1.500000*%
%ADD11R,1.000000X1.300000*%
%ADD12R,1.300000X1.000000*%
%ADD13R,1.250000X1.300000*%
%ADD14R,1.600000X1.200000*%
%ADD15R,1.100000X0.575000*%
%ADD16R,0.600000X1.650000*%
%ADD17R,1.260000X0.830000*%
%ADD18O,1.700000X2.000000*%
%ADD19R,1.700000X2.000000*%
%ADD20R,0.650000X0.400000*%
%ADD21C,0.762000*%
%ADD22C,0.100000*%
%ADD23R,5.000000X5.000000*%
%ADD24R,0.650000X1.220000*%
%ADD25C,5.000000*%
%ADD26C,0.800000*%
%ADD27C,6.400000*%
%ADD28O,2.500000X4.500000*%
%ADD29R,2.500000X4.500000*%
%ADD30R,2.500000X1.800000*%
%ADD31R,1.800000X2.500000*%
%ADD32R,2.300000X2.500000*%
%ADD33O,1.700000X1.700000*%
%ADD34R,1.700000X1.700000*%
%ADD35C,1.016000*%
%ADD36C,0.254000*%
%ADD37C,1.270000*%
%ADD38C,0.508000*%
G04 APERTURE END LIST*
D10*
X168600000Y-110525000D03*
X168600000Y-105475000D03*
D11*
X182100000Y-103800000D03*
X179900000Y-103800000D03*
D12*
X161900000Y-100100000D03*
X161900000Y-102300000D03*
D13*
X153500000Y-111650000D03*
X153500000Y-113950000D03*
D14*
X149400000Y-109600000D03*
X149400000Y-106400000D03*
D15*
X177700000Y-103262500D03*
X177700000Y-104337500D03*
X174300000Y-104337500D03*
X174300000Y-103262500D03*
D16*
X177950000Y-103800000D03*
X174050000Y-103800000D03*
D15*
X164600000Y-102537500D03*
X164600000Y-101462500D03*
X168000000Y-101462500D03*
X168000000Y-102537500D03*
D16*
X164350000Y-102000000D03*
X168250000Y-102000000D03*
D17*
X164630000Y-112000000D03*
X161770000Y-112000000D03*
D12*
X155800000Y-110300000D03*
X155800000Y-112500000D03*
D18*
X178100000Y-115620000D03*
X173020000Y-115620000D03*
X173020000Y-108000000D03*
X175560000Y-108000000D03*
D19*
X178100000Y-108000000D03*
D20*
X157850000Y-110750000D03*
X157850000Y-112050000D03*
X159750000Y-111400000D03*
X159750000Y-112050000D03*
X159750000Y-110750000D03*
D21*
X186326963Y-115812877D03*
X187580513Y-116269132D03*
X188833123Y-116725044D03*
X189289036Y-115472434D03*
X189745291Y-114218884D03*
X190201204Y-112966274D03*
X188948594Y-112510361D03*
X187695044Y-112054106D03*
X186442433Y-111598193D03*
X185986521Y-112850804D03*
X185530266Y-114104354D03*
X185074353Y-115356964D03*
G04 #@! TA.AperFunction,ComponentPad*
D22*
G36*
X189131959Y-117365901D02*
G01*
X184433496Y-115655800D01*
X186143597Y-110957337D01*
X190842060Y-112667438D01*
X189131959Y-117365901D01*
G37*
G04 #@! TD.AperFunction*
D21*
X182679252Y-75110972D03*
X181735972Y-76054252D03*
X180793398Y-76996825D03*
X181735972Y-77939399D03*
X182679252Y-78882679D03*
X183621825Y-79825253D03*
X184564399Y-78882679D03*
X185507679Y-77939399D03*
X186450253Y-76996825D03*
X185507679Y-76054252D03*
X184564399Y-75110972D03*
X183621825Y-74168398D03*
G04 #@! TA.AperFunction,ComponentPad*
D22*
G36*
X180086291Y-76996825D02*
G01*
X183621825Y-73461291D01*
X187157359Y-76996825D01*
X183621825Y-80532359D01*
X180086291Y-76996825D01*
G37*
G04 #@! TD.AperFunction*
D21*
X161902216Y-93633000D03*
X161902216Y-94967000D03*
X161902216Y-96300000D03*
X163235216Y-96300000D03*
X164569216Y-96300000D03*
X165902216Y-96300000D03*
X165902216Y-94967000D03*
X165902216Y-93633000D03*
X165902216Y-92300000D03*
X164569216Y-92300000D03*
X163235216Y-92300000D03*
X161902216Y-92300000D03*
D23*
X163902216Y-94300000D03*
D21*
X132819487Y-116269132D03*
X134073037Y-115812877D03*
X135325647Y-115356964D03*
X134869734Y-114104354D03*
X134413479Y-112850804D03*
X133957567Y-111598193D03*
X132704956Y-112054106D03*
X131451406Y-112510361D03*
X130198796Y-112966274D03*
X130654709Y-114218884D03*
X131110964Y-115472434D03*
X131566877Y-116725044D03*
G04 #@! TA.AperFunction,ComponentPad*
D22*
G36*
X135966504Y-115655800D02*
G01*
X131268041Y-117365901D01*
X129557940Y-112667438D01*
X134256403Y-110957337D01*
X135966504Y-115655800D01*
G37*
G04 #@! TD.AperFunction*
D21*
X137720748Y-94439028D03*
X138664028Y-93495748D03*
X139606602Y-92553175D03*
X138664028Y-91610601D03*
X137720748Y-90667321D03*
X136778175Y-89724747D03*
X135835601Y-90667321D03*
X134892321Y-91610601D03*
X133949747Y-92553175D03*
X134892321Y-93495748D03*
X135835601Y-94439028D03*
X136778175Y-95381602D03*
G04 #@! TA.AperFunction,ComponentPad*
D22*
G36*
X140313709Y-92553175D02*
G01*
X136778175Y-96088709D01*
X133242641Y-92553175D01*
X136778175Y-89017641D01*
X140313709Y-92553175D01*
G37*
G04 #@! TD.AperFunction*
G04 #@! TA.AperFunction,SMDPad,CuDef*
G36*
X137174504Y-70351204D02*
G01*
X137198773Y-70354804D01*
X137222571Y-70360765D01*
X137245671Y-70369030D01*
X137267849Y-70379520D01*
X137288893Y-70392133D01*
X137308598Y-70406747D01*
X137326777Y-70423223D01*
X137343253Y-70441402D01*
X137357867Y-70461107D01*
X137370480Y-70482151D01*
X137380970Y-70504329D01*
X137389235Y-70527429D01*
X137395196Y-70551227D01*
X137398796Y-70575496D01*
X137400000Y-70600000D01*
X137400000Y-73600000D01*
X137398796Y-73624504D01*
X137395196Y-73648773D01*
X137389235Y-73672571D01*
X137380970Y-73695671D01*
X137370480Y-73717849D01*
X137357867Y-73738893D01*
X137343253Y-73758598D01*
X137326777Y-73776777D01*
X137308598Y-73793253D01*
X137288893Y-73807867D01*
X137267849Y-73820480D01*
X137245671Y-73830970D01*
X137222571Y-73839235D01*
X137198773Y-73845196D01*
X137174504Y-73848796D01*
X137150000Y-73850000D01*
X136050000Y-73850000D01*
X136025496Y-73848796D01*
X136001227Y-73845196D01*
X135977429Y-73839235D01*
X135954329Y-73830970D01*
X135932151Y-73820480D01*
X135911107Y-73807867D01*
X135891402Y-73793253D01*
X135873223Y-73776777D01*
X135856747Y-73758598D01*
X135842133Y-73738893D01*
X135829520Y-73717849D01*
X135819030Y-73695671D01*
X135810765Y-73672571D01*
X135804804Y-73648773D01*
X135801204Y-73624504D01*
X135800000Y-73600000D01*
X135800000Y-70600000D01*
X135801204Y-70575496D01*
X135804804Y-70551227D01*
X135810765Y-70527429D01*
X135819030Y-70504329D01*
X135829520Y-70482151D01*
X135842133Y-70461107D01*
X135856747Y-70441402D01*
X135873223Y-70423223D01*
X135891402Y-70406747D01*
X135911107Y-70392133D01*
X135932151Y-70379520D01*
X135954329Y-70369030D01*
X135977429Y-70360765D01*
X136001227Y-70354804D01*
X136025496Y-70351204D01*
X136050000Y-70350000D01*
X137150000Y-70350000D01*
X137174504Y-70351204D01*
G37*
G04 #@! TD.AperFunction*
G04 #@! TA.AperFunction,SMDPad,CuDef*
G36*
X137174504Y-75951204D02*
G01*
X137198773Y-75954804D01*
X137222571Y-75960765D01*
X137245671Y-75969030D01*
X137267849Y-75979520D01*
X137288893Y-75992133D01*
X137308598Y-76006747D01*
X137326777Y-76023223D01*
X137343253Y-76041402D01*
X137357867Y-76061107D01*
X137370480Y-76082151D01*
X137380970Y-76104329D01*
X137389235Y-76127429D01*
X137395196Y-76151227D01*
X137398796Y-76175496D01*
X137400000Y-76200000D01*
X137400000Y-79200000D01*
X137398796Y-79224504D01*
X137395196Y-79248773D01*
X137389235Y-79272571D01*
X137380970Y-79295671D01*
X137370480Y-79317849D01*
X137357867Y-79338893D01*
X137343253Y-79358598D01*
X137326777Y-79376777D01*
X137308598Y-79393253D01*
X137288893Y-79407867D01*
X137267849Y-79420480D01*
X137245671Y-79430970D01*
X137222571Y-79439235D01*
X137198773Y-79445196D01*
X137174504Y-79448796D01*
X137150000Y-79450000D01*
X136050000Y-79450000D01*
X136025496Y-79448796D01*
X136001227Y-79445196D01*
X135977429Y-79439235D01*
X135954329Y-79430970D01*
X135932151Y-79420480D01*
X135911107Y-79407867D01*
X135891402Y-79393253D01*
X135873223Y-79376777D01*
X135856747Y-79358598D01*
X135842133Y-79338893D01*
X135829520Y-79317849D01*
X135819030Y-79295671D01*
X135810765Y-79272571D01*
X135804804Y-79248773D01*
X135801204Y-79224504D01*
X135800000Y-79200000D01*
X135800000Y-76200000D01*
X135801204Y-76175496D01*
X135804804Y-76151227D01*
X135810765Y-76127429D01*
X135819030Y-76104329D01*
X135829520Y-76082151D01*
X135842133Y-76061107D01*
X135856747Y-76041402D01*
X135873223Y-76023223D01*
X135891402Y-76006747D01*
X135911107Y-75992133D01*
X135932151Y-75979520D01*
X135954329Y-75969030D01*
X135977429Y-75960765D01*
X136001227Y-75954804D01*
X136025496Y-75951204D01*
X136050000Y-75950000D01*
X137150000Y-75950000D01*
X137174504Y-75951204D01*
G37*
G04 #@! TD.AperFunction*
D24*
X153550000Y-106390000D03*
X152600000Y-106390000D03*
X151650000Y-106390000D03*
X151650000Y-109010000D03*
X152600000Y-109010000D03*
X153550000Y-109010000D03*
D25*
X140501109Y-107500000D03*
X163401109Y-107500000D03*
X163401109Y-81100000D03*
X140501109Y-81100000D03*
D26*
X197597056Y-113702944D03*
X195900000Y-113000000D03*
X194202944Y-113702944D03*
X193500000Y-115400000D03*
X194202944Y-117097056D03*
X195900000Y-117800000D03*
X197597056Y-117097056D03*
X198300000Y-115400000D03*
D27*
X195900000Y-115400000D03*
D26*
X126197056Y-113702944D03*
X124500000Y-113000000D03*
X122802944Y-113702944D03*
X122100000Y-115400000D03*
X122802944Y-117097056D03*
X124500000Y-117800000D03*
X126197056Y-117097056D03*
X126900000Y-115400000D03*
D27*
X124500000Y-115400000D03*
D26*
X197597056Y-71502944D03*
X195900000Y-70800000D03*
X194202944Y-71502944D03*
X193500000Y-73200000D03*
X194202944Y-74897056D03*
X195900000Y-75600000D03*
X197597056Y-74897056D03*
X198300000Y-73200000D03*
D27*
X195900000Y-73200000D03*
D26*
X126197056Y-71502944D03*
X124500000Y-70800000D03*
X122802944Y-71502944D03*
X122100000Y-73200000D03*
X122802944Y-74897056D03*
X124500000Y-75600000D03*
X126197056Y-74897056D03*
X126900000Y-73200000D03*
D27*
X124500000Y-73200000D03*
D28*
X146501109Y-102300000D03*
X151951109Y-102300000D03*
D29*
X157401109Y-102300000D03*
D30*
X146000000Y-114500000D03*
X142000000Y-114500000D03*
D31*
X145800000Y-110900000D03*
X145800000Y-106900000D03*
D32*
X141000000Y-102150000D03*
X141000000Y-97850000D03*
D28*
X157401109Y-86300000D03*
X151951109Y-86300000D03*
D29*
X146501109Y-86300000D03*
D33*
X187440000Y-94300000D03*
D34*
X184900000Y-94300000D03*
D35*
X148800000Y-111100000D03*
D36*
X152600000Y-109010000D02*
X152600000Y-110150000D01*
D37*
X145800000Y-110900000D02*
X145800000Y-112550000D01*
X146000000Y-112750000D02*
X146000000Y-114500000D01*
X145800000Y-112550000D02*
X146000000Y-112750000D01*
D36*
X159750000Y-112050000D02*
X159750000Y-113200000D01*
X161900000Y-102300000D02*
X163100000Y-102300000D01*
X163400000Y-102000000D02*
X164350000Y-102000000D01*
X163100000Y-102300000D02*
X163400000Y-102000000D01*
X177950000Y-103800000D02*
X179900000Y-103800000D01*
X167075000Y-110525000D02*
X168600000Y-110525000D01*
X165600000Y-112000000D02*
X167075000Y-110525000D01*
X164630000Y-112000000D02*
X165600000Y-112000000D01*
X184900000Y-96850000D02*
X184900000Y-94300000D01*
X182100000Y-99650000D02*
X184900000Y-96850000D01*
X182100000Y-103800000D02*
X182100000Y-99650000D01*
D38*
X149400000Y-110500000D02*
X149400000Y-109600000D01*
X148800000Y-111100000D02*
X149400000Y-110500000D01*
D36*
X153550000Y-103898891D02*
X151951109Y-102300000D01*
X153550000Y-106390000D02*
X153550000Y-103898891D01*
X151951109Y-102300000D02*
X151951109Y-99548891D01*
X151951109Y-99548891D02*
X152400000Y-99100000D01*
X152400000Y-99100000D02*
X161600000Y-99100000D01*
X161600000Y-99100000D02*
X161900000Y-99400000D01*
X161900000Y-100100000D02*
X161900000Y-99400000D01*
X153550000Y-109010000D02*
X153550000Y-110200000D01*
X153500000Y-110250000D02*
X153500000Y-111650000D01*
X153550000Y-110200000D02*
X153500000Y-110250000D01*
X153560000Y-109000000D02*
X153550000Y-109010000D01*
X171400000Y-103800000D02*
X161400000Y-103800000D01*
X161400000Y-103800000D02*
X156200000Y-109000000D01*
X155800000Y-110300000D02*
X155800000Y-109000000D01*
X155800000Y-109000000D02*
X153560000Y-109000000D01*
X156200000Y-109000000D02*
X155800000Y-109000000D01*
X155800000Y-110300000D02*
X156700000Y-110300000D01*
X157150000Y-110750000D02*
X157850000Y-110750000D01*
X156700000Y-110300000D02*
X157150000Y-110750000D01*
X175560000Y-108000000D02*
X175560000Y-106760000D01*
X175560000Y-106760000D02*
X175100000Y-106300000D01*
X173900000Y-106300000D02*
X171400000Y-103800000D01*
X175100000Y-106300000D02*
X173900000Y-106300000D01*
X149410000Y-106390000D02*
X149400000Y-106400000D01*
X151650000Y-106390000D02*
X149410000Y-106390000D01*
D37*
X145800000Y-103001109D02*
X146501109Y-102300000D01*
X145800000Y-106900000D02*
X145800000Y-103001109D01*
D38*
X147500000Y-106900000D02*
X145800000Y-106900000D01*
X148000000Y-106400000D02*
X147500000Y-106900000D01*
X149400000Y-106400000D02*
X148000000Y-106400000D01*
D36*
X172700000Y-103800000D02*
X174050000Y-103800000D01*
X170900000Y-102000000D02*
X172700000Y-103800000D01*
X168250000Y-102000000D02*
X170900000Y-102000000D01*
X178100000Y-108000000D02*
X178100000Y-105800000D01*
X177700000Y-105400000D02*
X174700000Y-105400000D01*
X178100000Y-105800000D02*
X177700000Y-105400000D01*
X174300000Y-105000000D02*
X174300000Y-104337500D01*
X174700000Y-105400000D02*
X174300000Y-105000000D01*
X157401109Y-106348891D02*
X157401109Y-102300000D01*
X152600000Y-106390000D02*
X152600000Y-107350000D01*
X152600000Y-107350000D02*
X152950000Y-107700000D01*
X152950000Y-107700000D02*
X156050000Y-107700000D01*
X156050000Y-107700000D02*
X157401109Y-106348891D01*
X159750000Y-111400000D02*
X160300000Y-111400000D01*
X160900000Y-112000000D02*
X161770000Y-112000000D01*
X160300000Y-111400000D02*
X160900000Y-112000000D01*
X155800000Y-112500000D02*
X156700000Y-112500000D01*
X157150000Y-112050000D02*
X157850000Y-112050000D01*
X156700000Y-112500000D02*
X157150000Y-112050000D01*
G36*
X168739816Y-90808114D02*
G01*
X168683775Y-90908918D01*
X168683775Y-90908919D01*
X168269434Y-91815116D01*
X168230172Y-91922574D01*
X168229853Y-91923447D01*
X167962377Y-92883294D01*
X167962373Y-92883306D01*
X167940226Y-92996494D01*
X167826195Y-93986378D01*
X167822026Y-94101637D01*
X167864250Y-95097172D01*
X167878163Y-95211664D01*
X167878166Y-95211674D01*
X168075605Y-96188338D01*
X168107257Y-96299245D01*
X168455052Y-97233004D01*
X168455053Y-97233008D01*
X168477648Y-97281620D01*
X168503665Y-97337596D01*
X168503666Y-97337597D01*
X168993252Y-98205455D01*
X169057627Y-98301152D01*
X169511335Y-98873000D01*
X162778409Y-98873000D01*
X162699378Y-98849026D01*
X162588950Y-98838150D01*
X162531659Y-98768341D01*
X162497736Y-98740501D01*
X162259499Y-98502264D01*
X162231659Y-98468341D01*
X162096291Y-98357247D01*
X161941851Y-98274697D01*
X161774274Y-98223864D01*
X161643667Y-98211000D01*
X161643660Y-98211000D01*
X161600000Y-98206700D01*
X161556340Y-98211000D01*
X152443660Y-98211000D01*
X152400000Y-98206700D01*
X152356340Y-98211000D01*
X152356333Y-98211000D01*
X152242325Y-98222229D01*
X152225725Y-98223864D01*
X152167725Y-98241458D01*
X152058149Y-98274697D01*
X151903709Y-98357247D01*
X151768341Y-98468341D01*
X151740501Y-98502264D01*
X151353368Y-98889397D01*
X151319451Y-98917232D01*
X151291616Y-98951149D01*
X151291614Y-98951151D01*
X151208357Y-99052600D01*
X151125807Y-99207039D01*
X151074973Y-99374617D01*
X151063298Y-99493163D01*
X150827894Y-99618989D01*
X150521527Y-99870417D01*
X150270099Y-100176784D01*
X150083270Y-100526316D01*
X149968222Y-100905579D01*
X149939110Y-101201159D01*
X149939109Y-103398840D01*
X149968221Y-103694420D01*
X150083269Y-104073683D01*
X150270098Y-104423216D01*
X150521526Y-104729583D01*
X150696281Y-104873000D01*
X145127000Y-104873000D01*
X145127000Y-90627000D01*
X168860017Y-90627000D01*
X168739816Y-90808114D01*
G37*
X168739816Y-90808114D02*
X168683775Y-90908918D01*
X168683775Y-90908919D01*
X168269434Y-91815116D01*
X168230172Y-91922574D01*
X168229853Y-91923447D01*
X167962377Y-92883294D01*
X167962373Y-92883306D01*
X167940226Y-92996494D01*
X167826195Y-93986378D01*
X167822026Y-94101637D01*
X167864250Y-95097172D01*
X167878163Y-95211664D01*
X167878166Y-95211674D01*
X168075605Y-96188338D01*
X168107257Y-96299245D01*
X168455052Y-97233004D01*
X168455053Y-97233008D01*
X168477648Y-97281620D01*
X168503665Y-97337596D01*
X168503666Y-97337597D01*
X168993252Y-98205455D01*
X169057627Y-98301152D01*
X169511335Y-98873000D01*
X162778409Y-98873000D01*
X162699378Y-98849026D01*
X162588950Y-98838150D01*
X162531659Y-98768341D01*
X162497736Y-98740501D01*
X162259499Y-98502264D01*
X162231659Y-98468341D01*
X162096291Y-98357247D01*
X161941851Y-98274697D01*
X161774274Y-98223864D01*
X161643667Y-98211000D01*
X161643660Y-98211000D01*
X161600000Y-98206700D01*
X161556340Y-98211000D01*
X152443660Y-98211000D01*
X152400000Y-98206700D01*
X152356340Y-98211000D01*
X152356333Y-98211000D01*
X152242325Y-98222229D01*
X152225725Y-98223864D01*
X152167725Y-98241458D01*
X152058149Y-98274697D01*
X151903709Y-98357247D01*
X151768341Y-98468341D01*
X151740501Y-98502264D01*
X151353368Y-98889397D01*
X151319451Y-98917232D01*
X151291616Y-98951149D01*
X151291614Y-98951151D01*
X151208357Y-99052600D01*
X151125807Y-99207039D01*
X151074973Y-99374617D01*
X151063298Y-99493163D01*
X150827894Y-99618989D01*
X150521527Y-99870417D01*
X150270099Y-100176784D01*
X150083270Y-100526316D01*
X149968222Y-100905579D01*
X149939110Y-101201159D01*
X149939109Y-103398840D01*
X149968221Y-103694420D01*
X150083269Y-104073683D01*
X150270098Y-104423216D01*
X150521526Y-104729583D01*
X150696281Y-104873000D01*
X145127000Y-104873000D01*
X145127000Y-90627000D01*
X168860017Y-90627000D01*
X168739816Y-90808114D01*
G36*
X187873000Y-78652538D02*
G01*
X187494545Y-78866036D01*
X187398848Y-78930411D01*
X186618262Y-79549733D01*
X186533814Y-79628286D01*
X185859721Y-80362093D01*
X185859720Y-80362094D01*
X185788600Y-80452890D01*
X185237600Y-81283114D01*
X185181559Y-81383918D01*
X185181559Y-81383919D01*
X184767218Y-82290116D01*
X184727956Y-82397574D01*
X184727637Y-82398447D01*
X184460161Y-83358294D01*
X184460157Y-83358306D01*
X184438010Y-83471494D01*
X184323979Y-84461378D01*
X184319810Y-84576637D01*
X184362034Y-85572172D01*
X184375947Y-85686664D01*
X184375950Y-85686674D01*
X184573389Y-86663338D01*
X184605041Y-86774245D01*
X184952836Y-87708004D01*
X184952837Y-87708008D01*
X184975432Y-87756620D01*
X185001449Y-87812596D01*
X185001450Y-87812597D01*
X185491036Y-88680455D01*
X185555411Y-88776152D01*
X186174733Y-89556738D01*
X186236369Y-89623000D01*
X180210583Y-89623000D01*
X180127483Y-89518262D01*
X180048930Y-89433814D01*
X179315123Y-88759721D01*
X179311592Y-88756955D01*
X179224326Y-88688600D01*
X178394102Y-88137600D01*
X178293298Y-88081559D01*
X178293293Y-88081557D01*
X177387100Y-87667218D01*
X177278770Y-87627637D01*
X177278767Y-87627636D01*
X176318922Y-87360161D01*
X176318910Y-87360157D01*
X176205722Y-87338010D01*
X175215838Y-87223979D01*
X175100579Y-87219810D01*
X174105044Y-87262034D01*
X174105043Y-87262034D01*
X174091130Y-87263725D01*
X173990552Y-87275947D01*
X173990542Y-87275950D01*
X173013880Y-87473389D01*
X173013877Y-87473389D01*
X172902971Y-87505041D01*
X171969208Y-87852837D01*
X171864619Y-87901450D01*
X170996761Y-88391036D01*
X170901064Y-88455411D01*
X170120478Y-89074733D01*
X170036030Y-89153286D01*
X169604539Y-89623000D01*
X145127000Y-89623000D01*
X145127000Y-85201160D01*
X149939109Y-85201160D01*
X149939110Y-87398841D01*
X149968222Y-87694421D01*
X150083270Y-88073684D01*
X150270099Y-88423216D01*
X150521527Y-88729583D01*
X150827894Y-88981011D01*
X151177426Y-89167840D01*
X151556689Y-89282888D01*
X151951109Y-89321735D01*
X152345530Y-89282888D01*
X152724793Y-89167840D01*
X153074325Y-88981011D01*
X153380692Y-88729583D01*
X153632120Y-88423216D01*
X153818949Y-88073684D01*
X153933997Y-87694421D01*
X153963109Y-87398841D01*
X153963109Y-85201159D01*
X153933997Y-84905579D01*
X153818949Y-84526316D01*
X153632120Y-84176784D01*
X153380692Y-83870417D01*
X153074325Y-83618989D01*
X152724792Y-83432160D01*
X152345529Y-83317112D01*
X151951109Y-83278265D01*
X151556688Y-83317112D01*
X151177425Y-83432160D01*
X150827893Y-83618989D01*
X150521526Y-83870417D01*
X150270098Y-84176784D01*
X150083269Y-84526317D01*
X149968221Y-84905580D01*
X149939109Y-85201160D01*
X145127000Y-85201160D01*
X145127000Y-80778721D01*
X160139109Y-80778721D01*
X160139109Y-81421279D01*
X160264466Y-82051490D01*
X160510362Y-82645136D01*
X160867348Y-83179404D01*
X161321705Y-83633761D01*
X161855973Y-83990747D01*
X162449619Y-84236643D01*
X163079830Y-84362000D01*
X163722388Y-84362000D01*
X164352599Y-84236643D01*
X164946245Y-83990747D01*
X165480513Y-83633761D01*
X165934870Y-83179404D01*
X166291856Y-82645136D01*
X166537752Y-82051490D01*
X166663109Y-81421279D01*
X166663109Y-80778721D01*
X166537752Y-80148510D01*
X166291856Y-79554864D01*
X165934870Y-79020596D01*
X165480513Y-78566239D01*
X164946245Y-78209253D01*
X164352599Y-77963357D01*
X163722388Y-77838000D01*
X163079830Y-77838000D01*
X162449619Y-77963357D01*
X161855973Y-78209253D01*
X161321705Y-78566239D01*
X160867348Y-79020596D01*
X160510362Y-79554864D01*
X160264466Y-80148510D01*
X160139109Y-80778721D01*
X145127000Y-80778721D01*
X145127000Y-73027000D01*
X187873000Y-73027000D01*
X187873000Y-78652538D01*
G37*
X187873000Y-78652538D02*
X187494545Y-78866036D01*
X187398848Y-78930411D01*
X186618262Y-79549733D01*
X186533814Y-79628286D01*
X185859721Y-80362093D01*
X185859720Y-80362094D01*
X185788600Y-80452890D01*
X185237600Y-81283114D01*
X185181559Y-81383918D01*
X185181559Y-81383919D01*
X184767218Y-82290116D01*
X184727956Y-82397574D01*
X184727637Y-82398447D01*
X184460161Y-83358294D01*
X184460157Y-83358306D01*
X184438010Y-83471494D01*
X184323979Y-84461378D01*
X184319810Y-84576637D01*
X184362034Y-85572172D01*
X184375947Y-85686664D01*
X184375950Y-85686674D01*
X184573389Y-86663338D01*
X184605041Y-86774245D01*
X184952836Y-87708004D01*
X184952837Y-87708008D01*
X184975432Y-87756620D01*
X185001449Y-87812596D01*
X185001450Y-87812597D01*
X185491036Y-88680455D01*
X185555411Y-88776152D01*
X186174733Y-89556738D01*
X186236369Y-89623000D01*
X180210583Y-89623000D01*
X180127483Y-89518262D01*
X180048930Y-89433814D01*
X179315123Y-88759721D01*
X179311592Y-88756955D01*
X179224326Y-88688600D01*
X178394102Y-88137600D01*
X178293298Y-88081559D01*
X178293293Y-88081557D01*
X177387100Y-87667218D01*
X177278770Y-87627637D01*
X177278767Y-87627636D01*
X176318922Y-87360161D01*
X176318910Y-87360157D01*
X176205722Y-87338010D01*
X175215838Y-87223979D01*
X175100579Y-87219810D01*
X174105044Y-87262034D01*
X174105043Y-87262034D01*
X174091130Y-87263725D01*
X173990552Y-87275947D01*
X173990542Y-87275950D01*
X173013880Y-87473389D01*
X173013877Y-87473389D01*
X172902971Y-87505041D01*
X171969208Y-87852837D01*
X171864619Y-87901450D01*
X170996761Y-88391036D01*
X170901064Y-88455411D01*
X170120478Y-89074733D01*
X170036030Y-89153286D01*
X169604539Y-89623000D01*
X145127000Y-89623000D01*
X145127000Y-85201160D01*
X149939109Y-85201160D01*
X149939110Y-87398841D01*
X149968222Y-87694421D01*
X150083270Y-88073684D01*
X150270099Y-88423216D01*
X150521527Y-88729583D01*
X150827894Y-88981011D01*
X151177426Y-89167840D01*
X151556689Y-89282888D01*
X151951109Y-89321735D01*
X152345530Y-89282888D01*
X152724793Y-89167840D01*
X153074325Y-88981011D01*
X153380692Y-88729583D01*
X153632120Y-88423216D01*
X153818949Y-88073684D01*
X153933997Y-87694421D01*
X153963109Y-87398841D01*
X153963109Y-85201159D01*
X153933997Y-84905579D01*
X153818949Y-84526316D01*
X153632120Y-84176784D01*
X153380692Y-83870417D01*
X153074325Y-83618989D01*
X152724792Y-83432160D01*
X152345529Y-83317112D01*
X151951109Y-83278265D01*
X151556688Y-83317112D01*
X151177425Y-83432160D01*
X150827893Y-83618989D01*
X150521526Y-83870417D01*
X150270098Y-84176784D01*
X150083269Y-84526317D01*
X149968221Y-84905580D01*
X149939109Y-85201160D01*
X145127000Y-85201160D01*
X145127000Y-80778721D01*
X160139109Y-80778721D01*
X160139109Y-81421279D01*
X160264466Y-82051490D01*
X160510362Y-82645136D01*
X160867348Y-83179404D01*
X161321705Y-83633761D01*
X161855973Y-83990747D01*
X162449619Y-84236643D01*
X163079830Y-84362000D01*
X163722388Y-84362000D01*
X164352599Y-84236643D01*
X164946245Y-83990747D01*
X165480513Y-83633761D01*
X165934870Y-83179404D01*
X166291856Y-82645136D01*
X166537752Y-82051490D01*
X166663109Y-81421279D01*
X166663109Y-80778721D01*
X166537752Y-80148510D01*
X166291856Y-79554864D01*
X165934870Y-79020596D01*
X165480513Y-78566239D01*
X164946245Y-78209253D01*
X164352599Y-77963357D01*
X163722388Y-77838000D01*
X163079830Y-77838000D01*
X162449619Y-77963357D01*
X161855973Y-78209253D01*
X161321705Y-78566239D01*
X160867348Y-79020596D01*
X160510362Y-79554864D01*
X160264466Y-80148510D01*
X160139109Y-80778721D01*
X145127000Y-80778721D01*
X145127000Y-73027000D01*
X187873000Y-73027000D01*
X187873000Y-78652538D01*
G36*
X194744327Y-69390258D02*
G01*
X194023289Y-69688922D01*
X193374372Y-70122514D01*
X192822514Y-70674372D01*
X192388922Y-71323289D01*
X192090258Y-72044327D01*
X191938000Y-72809777D01*
X191938000Y-73590223D01*
X192090258Y-74355673D01*
X192388922Y-75076711D01*
X192822514Y-75725628D01*
X193374372Y-76277486D01*
X194023289Y-76711078D01*
X194744327Y-77009742D01*
X195509777Y-77162000D01*
X196290223Y-77162000D01*
X197055673Y-77009742D01*
X197776711Y-76711078D01*
X198425628Y-76277486D01*
X198977486Y-75725628D01*
X199411078Y-75076711D01*
X199665000Y-74463689D01*
X199665001Y-106038000D01*
X197685000Y-106038000D01*
X197685000Y-100703445D01*
X197674365Y-100595465D01*
X197632337Y-100456917D01*
X197564087Y-100329230D01*
X197550257Y-100312378D01*
X197295493Y-99896642D01*
X197269382Y-99860703D01*
X197244589Y-99823847D01*
X196625268Y-99043261D01*
X196546715Y-98958813D01*
X196546714Y-98958812D01*
X195812907Y-98284720D01*
X195800113Y-98274698D01*
X195722110Y-98213599D01*
X194891886Y-97662599D01*
X194791082Y-97606558D01*
X194791077Y-97606556D01*
X193884884Y-97192217D01*
X193776554Y-97152636D01*
X193776551Y-97152635D01*
X192816706Y-96885160D01*
X192816694Y-96885156D01*
X192703506Y-96863009D01*
X191713622Y-96748978D01*
X191598363Y-96744809D01*
X191598362Y-96744809D01*
X190602826Y-96787034D01*
X190488334Y-96800947D01*
X190488322Y-96800950D01*
X189511661Y-96998389D01*
X189400755Y-97030041D01*
X188466996Y-97377835D01*
X188466992Y-97377836D01*
X188423242Y-97398171D01*
X188362404Y-97426448D01*
X188362403Y-97426449D01*
X187494544Y-97916036D01*
X187398847Y-97980411D01*
X186618261Y-98599732D01*
X186556430Y-98657247D01*
X186533812Y-98678286D01*
X185859720Y-99412093D01*
X185859719Y-99412094D01*
X185788599Y-99502890D01*
X185237599Y-100333114D01*
X185181558Y-100433918D01*
X185181558Y-100433919D01*
X184767217Y-101340116D01*
X184727636Y-101448446D01*
X184727636Y-101448447D01*
X184460160Y-102408294D01*
X184460156Y-102408306D01*
X184438009Y-102521494D01*
X184323978Y-103511378D01*
X184320963Y-103594747D01*
X184319809Y-103626638D01*
X184362034Y-104622173D01*
X184362034Y-104622174D01*
X184362414Y-104625302D01*
X184375947Y-104736666D01*
X184375950Y-104736678D01*
X184573389Y-105713339D01*
X184605041Y-105824245D01*
X184684658Y-106038000D01*
X181200000Y-106038000D01*
X181051341Y-106052642D01*
X180908395Y-106096004D01*
X180776655Y-106166420D01*
X180661185Y-106261185D01*
X180566420Y-106376655D01*
X180496004Y-106508395D01*
X180452642Y-106651341D01*
X180438000Y-106800000D01*
X180438000Y-110238000D01*
X172600000Y-110238000D01*
X172451341Y-110252642D01*
X172308395Y-110296004D01*
X172176655Y-110366420D01*
X172061185Y-110461185D01*
X169084370Y-113438000D01*
X157800000Y-113438000D01*
X157651341Y-113452642D01*
X157508395Y-113496004D01*
X157376655Y-113566420D01*
X157261185Y-113661185D01*
X155484370Y-115438000D01*
X147884329Y-115438000D01*
X147888072Y-115400000D01*
X147885000Y-114785750D01*
X147726250Y-114627000D01*
X146127000Y-114627000D01*
X146127000Y-114647000D01*
X145873000Y-114647000D01*
X145873000Y-114627000D01*
X145853000Y-114627000D01*
X145853000Y-114600000D01*
X152236928Y-114600000D01*
X152249188Y-114724482D01*
X152285498Y-114844180D01*
X152344463Y-114954494D01*
X152423815Y-115051185D01*
X152520506Y-115130537D01*
X152630820Y-115189502D01*
X152750518Y-115225812D01*
X152875000Y-115238072D01*
X153214250Y-115235000D01*
X153373000Y-115076250D01*
X153373000Y-114077000D01*
X153627000Y-114077000D01*
X153627000Y-115076250D01*
X153785750Y-115235000D01*
X154125000Y-115238072D01*
X154249482Y-115225812D01*
X154369180Y-115189502D01*
X154479494Y-115130537D01*
X154576185Y-115051185D01*
X154655537Y-114954494D01*
X154714502Y-114844180D01*
X154750812Y-114724482D01*
X154763072Y-114600000D01*
X154760000Y-114235750D01*
X154601250Y-114077000D01*
X153627000Y-114077000D01*
X153373000Y-114077000D01*
X152398750Y-114077000D01*
X152240000Y-114235750D01*
X152236928Y-114600000D01*
X145853000Y-114600000D01*
X145853000Y-114373000D01*
X145873000Y-114373000D01*
X145873000Y-113123750D01*
X146127000Y-113123750D01*
X146127000Y-114373000D01*
X147726250Y-114373000D01*
X147885000Y-114214250D01*
X147888072Y-113600000D01*
X147875812Y-113475518D01*
X147839502Y-113355820D01*
X147780537Y-113245506D01*
X147701185Y-113148815D01*
X147604494Y-113069463D01*
X147494180Y-113010498D01*
X147374482Y-112974188D01*
X147250000Y-112961928D01*
X146285750Y-112965000D01*
X146127000Y-113123750D01*
X145873000Y-113123750D01*
X145714250Y-112965000D01*
X145262000Y-112963559D01*
X145262000Y-112786262D01*
X145514250Y-112785000D01*
X145673000Y-112626250D01*
X145673000Y-111027000D01*
X145927000Y-111027000D01*
X145927000Y-112626250D01*
X146085750Y-112785000D01*
X146700000Y-112788072D01*
X146824482Y-112775812D01*
X146944180Y-112739502D01*
X147054494Y-112680537D01*
X147151185Y-112601185D01*
X147230537Y-112504494D01*
X147289502Y-112394180D01*
X147325812Y-112274482D01*
X147338072Y-112150000D01*
X147335000Y-111185750D01*
X147176250Y-111027000D01*
X145927000Y-111027000D01*
X145673000Y-111027000D01*
X145653000Y-111027000D01*
X145653000Y-110773000D01*
X145673000Y-110773000D01*
X145673000Y-109173750D01*
X145927000Y-109173750D01*
X145927000Y-110773000D01*
X147176250Y-110773000D01*
X147335000Y-110614250D01*
X147338072Y-109650000D01*
X147325812Y-109525518D01*
X147289502Y-109405820D01*
X147230537Y-109295506D01*
X147151185Y-109198815D01*
X147054494Y-109119463D01*
X146944180Y-109060498D01*
X146824482Y-109024188D01*
X146700000Y-109011928D01*
X146085750Y-109015000D01*
X145927000Y-109173750D01*
X145673000Y-109173750D01*
X145514250Y-109015000D01*
X145262000Y-109013738D01*
X145262000Y-108915686D01*
X146700000Y-108915686D01*
X146849378Y-108900974D01*
X146993015Y-108857402D01*
X147125392Y-108786645D01*
X147241422Y-108691422D01*
X147336645Y-108575392D01*
X147407402Y-108443015D01*
X147450974Y-108299378D01*
X147465686Y-108150000D01*
X147465686Y-107917535D01*
X147500000Y-107920915D01*
X147549902Y-107916000D01*
X147699171Y-107901298D01*
X147890687Y-107843202D01*
X148067190Y-107748860D01*
X148192361Y-107646134D01*
X148306985Y-107707402D01*
X148450622Y-107750974D01*
X148600000Y-107765686D01*
X150200000Y-107765686D01*
X150349378Y-107750974D01*
X150493015Y-107707402D01*
X150625392Y-107636645D01*
X150741422Y-107541422D01*
X150762500Y-107515738D01*
X150783578Y-107541422D01*
X150899608Y-107636645D01*
X151031985Y-107707402D01*
X151175622Y-107750974D01*
X151305922Y-107763807D01*
X151200518Y-107774188D01*
X151080820Y-107810498D01*
X150970506Y-107869463D01*
X150873815Y-107948815D01*
X150794463Y-108045506D01*
X150735498Y-108155820D01*
X150699188Y-108275518D01*
X150686928Y-108400000D01*
X150687060Y-108413965D01*
X150625392Y-108363355D01*
X150493015Y-108292598D01*
X150349378Y-108249026D01*
X150200000Y-108234314D01*
X148600000Y-108234314D01*
X148450622Y-108249026D01*
X148306985Y-108292598D01*
X148174608Y-108363355D01*
X148058578Y-108458578D01*
X147963355Y-108574608D01*
X147892598Y-108706985D01*
X147849026Y-108850622D01*
X147834314Y-109000000D01*
X147834314Y-110200000D01*
X147840557Y-110263392D01*
X147813527Y-110290422D01*
X147674541Y-110498429D01*
X147578805Y-110729555D01*
X147530000Y-110974916D01*
X147530000Y-111225084D01*
X147578805Y-111470445D01*
X147674541Y-111701571D01*
X147813527Y-111909578D01*
X147990422Y-112086473D01*
X148198429Y-112225459D01*
X148429555Y-112321195D01*
X148674916Y-112370000D01*
X148925084Y-112370000D01*
X149170445Y-112321195D01*
X149401571Y-112225459D01*
X149609578Y-112086473D01*
X149786473Y-111909578D01*
X149925459Y-111701571D01*
X150021195Y-111470445D01*
X150059632Y-111277208D01*
X150083127Y-111253713D01*
X150121896Y-111221896D01*
X150248860Y-111067190D01*
X150308844Y-110954966D01*
X150349378Y-110950974D01*
X150493015Y-110907402D01*
X150625392Y-110836645D01*
X150741422Y-110741422D01*
X150836645Y-110625392D01*
X150907402Y-110493015D01*
X150950974Y-110349378D01*
X150965686Y-110200000D01*
X150965686Y-110146581D01*
X150970506Y-110150537D01*
X151080820Y-110209502D01*
X151200518Y-110245812D01*
X151325000Y-110258072D01*
X151364250Y-110255000D01*
X151523000Y-110096250D01*
X151523000Y-109137000D01*
X151503000Y-109137000D01*
X151503000Y-108883000D01*
X151523000Y-108883000D01*
X151523000Y-108863000D01*
X151777000Y-108863000D01*
X151777000Y-108883000D01*
X151797000Y-108883000D01*
X151797000Y-109137000D01*
X151777000Y-109137000D01*
X151777000Y-109158750D01*
X151640000Y-109295750D01*
X151636928Y-109620000D01*
X151649188Y-109744482D01*
X151685498Y-109864180D01*
X151744463Y-109974494D01*
X151777000Y-110014141D01*
X151777000Y-110096250D01*
X151935750Y-110255000D01*
X151975000Y-110258072D01*
X152099482Y-110245812D01*
X152125000Y-110238071D01*
X152150518Y-110245812D01*
X152275000Y-110258072D01*
X152314250Y-110255000D01*
X152473000Y-110096250D01*
X152473000Y-110014141D01*
X152505537Y-109974494D01*
X152527998Y-109932473D01*
X152588355Y-110045392D01*
X152622727Y-110087274D01*
X152622439Y-110090193D01*
X152611000Y-110206334D01*
X152611000Y-110206340D01*
X152606700Y-110250000D01*
X152610057Y-110284082D01*
X152581985Y-110292598D01*
X152449608Y-110363355D01*
X152333578Y-110458578D01*
X152238355Y-110574608D01*
X152167598Y-110706985D01*
X152124026Y-110850622D01*
X152109314Y-111000000D01*
X152109314Y-112300000D01*
X152124026Y-112449378D01*
X152167598Y-112593015D01*
X152238355Y-112725392D01*
X152333578Y-112841422D01*
X152391124Y-112888649D01*
X152344463Y-112945506D01*
X152285498Y-113055820D01*
X152249188Y-113175518D01*
X152236928Y-113300000D01*
X152240000Y-113664250D01*
X152398750Y-113823000D01*
X153373000Y-113823000D01*
X153373000Y-113803000D01*
X153627000Y-113803000D01*
X153627000Y-113823000D01*
X154601250Y-113823000D01*
X154760000Y-113664250D01*
X154760073Y-113655601D01*
X154856985Y-113707402D01*
X155000622Y-113750974D01*
X155150000Y-113765686D01*
X156450000Y-113765686D01*
X156599378Y-113750974D01*
X156743015Y-113707402D01*
X156875392Y-113636645D01*
X156991422Y-113541422D01*
X157086645Y-113425392D01*
X157157402Y-113293015D01*
X157168074Y-113257836D01*
X157196291Y-113242753D01*
X157331659Y-113131659D01*
X157359499Y-113097736D01*
X157449031Y-113008204D01*
X157525000Y-113015686D01*
X158175000Y-113015686D01*
X158324378Y-113000974D01*
X158468015Y-112957402D01*
X158600392Y-112886645D01*
X158716422Y-112791422D01*
X158811645Y-112675392D01*
X158872099Y-112562290D01*
X158903381Y-112617490D01*
X158985097Y-112712192D01*
X159083719Y-112789132D01*
X159195456Y-112845353D01*
X159316014Y-112878695D01*
X159440761Y-112887877D01*
X159464250Y-112885000D01*
X159623000Y-112726250D01*
X159623000Y-112238072D01*
X159877000Y-112238072D01*
X159877000Y-112726250D01*
X160035750Y-112885000D01*
X160059239Y-112887877D01*
X160183986Y-112878695D01*
X160304544Y-112845353D01*
X160416281Y-112789132D01*
X160514903Y-112712192D01*
X160546796Y-112675230D01*
X160563990Y-112684420D01*
X160609463Y-112769494D01*
X160688815Y-112866185D01*
X160785506Y-112945537D01*
X160895820Y-113004502D01*
X161015518Y-113040812D01*
X161140000Y-113053072D01*
X162400000Y-113053072D01*
X162524482Y-113040812D01*
X162644180Y-113004502D01*
X162754494Y-112945537D01*
X162851185Y-112866185D01*
X162930537Y-112769494D01*
X162989502Y-112659180D01*
X163025812Y-112539482D01*
X163038072Y-112415000D01*
X163038072Y-111585000D01*
X163361928Y-111585000D01*
X163361928Y-112415000D01*
X163374188Y-112539482D01*
X163410498Y-112659180D01*
X163469463Y-112769494D01*
X163548815Y-112866185D01*
X163645506Y-112945537D01*
X163755820Y-113004502D01*
X163875518Y-113040812D01*
X164000000Y-113053072D01*
X165260000Y-113053072D01*
X165384482Y-113040812D01*
X165504180Y-113004502D01*
X165614494Y-112945537D01*
X165711185Y-112866185D01*
X165790537Y-112769494D01*
X165810317Y-112732488D01*
X165893015Y-112707402D01*
X166025392Y-112636645D01*
X166141422Y-112541422D01*
X166165284Y-112512346D01*
X167390631Y-111287000D01*
X167463110Y-111287000D01*
X167474188Y-111399482D01*
X167510498Y-111519180D01*
X167569463Y-111629494D01*
X167648815Y-111726185D01*
X167745506Y-111805537D01*
X167855820Y-111864502D01*
X167975518Y-111900812D01*
X168100000Y-111913072D01*
X169100000Y-111913072D01*
X169224482Y-111900812D01*
X169344180Y-111864502D01*
X169454494Y-111805537D01*
X169551185Y-111726185D01*
X169630537Y-111629494D01*
X169689502Y-111519180D01*
X169725812Y-111399482D01*
X169738072Y-111275000D01*
X169738072Y-109775000D01*
X169725812Y-109650518D01*
X169689502Y-109530820D01*
X169633548Y-109426139D01*
X169721935Y-109367081D01*
X169967081Y-109121935D01*
X170159692Y-108833673D01*
X170292364Y-108513373D01*
X170360000Y-108173345D01*
X170360000Y-107826655D01*
X170292364Y-107486627D01*
X170159692Y-107166327D01*
X169967081Y-106878065D01*
X169721935Y-106632919D01*
X169633548Y-106573861D01*
X169689502Y-106469180D01*
X169725812Y-106349482D01*
X169738072Y-106225000D01*
X169735000Y-105760750D01*
X169576250Y-105602000D01*
X168727000Y-105602000D01*
X168727000Y-105622000D01*
X168473000Y-105622000D01*
X168473000Y-105602000D01*
X167623750Y-105602000D01*
X167465000Y-105760750D01*
X167461928Y-106225000D01*
X167474188Y-106349482D01*
X167510498Y-106469180D01*
X167566452Y-106573861D01*
X167478065Y-106632919D01*
X167232919Y-106878065D01*
X167040308Y-107166327D01*
X166907636Y-107486627D01*
X166840000Y-107826655D01*
X166840000Y-108173345D01*
X166907636Y-108513373D01*
X167040308Y-108833673D01*
X167232919Y-109121935D01*
X167478065Y-109367081D01*
X167566452Y-109426139D01*
X167510498Y-109530820D01*
X167474188Y-109650518D01*
X167463110Y-109763000D01*
X167112422Y-109763000D01*
X167074999Y-109759314D01*
X167037576Y-109763000D01*
X167037574Y-109763000D01*
X166925622Y-109774026D01*
X166781985Y-109817598D01*
X166726845Y-109847071D01*
X166649607Y-109888355D01*
X166573535Y-109950786D01*
X166533578Y-109983578D01*
X166509721Y-110012648D01*
X165518967Y-111003402D01*
X165504180Y-110995498D01*
X165384482Y-110959188D01*
X165260000Y-110946928D01*
X164000000Y-110946928D01*
X163875518Y-110959188D01*
X163755820Y-110995498D01*
X163645506Y-111054463D01*
X163548815Y-111133815D01*
X163469463Y-111230506D01*
X163410498Y-111340820D01*
X163374188Y-111460518D01*
X163361928Y-111585000D01*
X163038072Y-111585000D01*
X163025812Y-111460518D01*
X162989502Y-111340820D01*
X162930537Y-111230506D01*
X162851185Y-111133815D01*
X162754494Y-111054463D01*
X162644180Y-110995498D01*
X162524482Y-110959188D01*
X162400000Y-110946928D01*
X161140000Y-110946928D01*
X161015518Y-110959188D01*
X160955135Y-110977505D01*
X160865283Y-110887653D01*
X160841422Y-110858578D01*
X160725392Y-110763355D01*
X160713072Y-110756770D01*
X160713072Y-110550000D01*
X160700812Y-110425518D01*
X160664502Y-110305820D01*
X160605537Y-110195506D01*
X160526185Y-110098815D01*
X160429494Y-110019463D01*
X160319180Y-109960498D01*
X160199482Y-109924188D01*
X160075000Y-109911928D01*
X159425000Y-109911928D01*
X159300518Y-109924188D01*
X159180820Y-109960498D01*
X159070506Y-110019463D01*
X158973815Y-110098815D01*
X158894463Y-110195506D01*
X158872002Y-110237527D01*
X158811645Y-110124608D01*
X158716422Y-110008578D01*
X158600392Y-109913355D01*
X158468015Y-109842598D01*
X158324378Y-109799026D01*
X158175000Y-109784314D01*
X157525000Y-109784314D01*
X157449031Y-109791796D01*
X157359499Y-109702264D01*
X157331659Y-109668341D01*
X157196291Y-109557247D01*
X157168074Y-109542164D01*
X157157402Y-109506985D01*
X157086645Y-109374608D01*
X157084834Y-109372401D01*
X160526452Y-105930784D01*
X160510362Y-105954864D01*
X160264466Y-106548510D01*
X160139109Y-107178721D01*
X160139109Y-107821279D01*
X160264466Y-108451490D01*
X160510362Y-109045136D01*
X160867348Y-109579404D01*
X161321705Y-110033761D01*
X161855973Y-110390747D01*
X162449619Y-110636643D01*
X163079830Y-110762000D01*
X163722388Y-110762000D01*
X164352599Y-110636643D01*
X164946245Y-110390747D01*
X165480513Y-110033761D01*
X165934870Y-109579404D01*
X166291856Y-109045136D01*
X166537752Y-108451490D01*
X166663109Y-107821279D01*
X166663109Y-107178721D01*
X166537752Y-106548510D01*
X166291856Y-105954864D01*
X165934870Y-105420596D01*
X165480513Y-104966239D01*
X165065595Y-104689000D01*
X167465474Y-104689000D01*
X167461928Y-104725000D01*
X167465000Y-105189250D01*
X167623750Y-105348000D01*
X168473000Y-105348000D01*
X168473000Y-105328000D01*
X168727000Y-105328000D01*
X168727000Y-105348000D01*
X169576250Y-105348000D01*
X169735000Y-105189250D01*
X169738072Y-104725000D01*
X169734526Y-104689000D01*
X171031765Y-104689000D01*
X172729219Y-106386455D01*
X172728889Y-106386487D01*
X172448966Y-106471401D01*
X172190986Y-106609294D01*
X171964866Y-106794866D01*
X171779294Y-107020987D01*
X171641401Y-107278967D01*
X171556487Y-107558890D01*
X171535000Y-107777051D01*
X171535000Y-108222950D01*
X171556487Y-108441111D01*
X171641401Y-108721034D01*
X171779294Y-108979014D01*
X171964866Y-109205134D01*
X172190987Y-109390706D01*
X172448967Y-109528599D01*
X172728890Y-109613513D01*
X173020000Y-109642185D01*
X173311111Y-109613513D01*
X173591034Y-109528599D01*
X173849014Y-109390706D01*
X174075134Y-109205134D01*
X174208980Y-109042043D01*
X174213186Y-109049912D01*
X174414629Y-109295371D01*
X174660089Y-109496814D01*
X174940131Y-109646499D01*
X175243994Y-109738675D01*
X175560000Y-109769799D01*
X175876007Y-109738675D01*
X176179870Y-109646499D01*
X176459912Y-109496814D01*
X176593104Y-109387506D01*
X176613355Y-109425392D01*
X176708578Y-109541422D01*
X176824608Y-109636645D01*
X176956985Y-109707402D01*
X177100622Y-109750974D01*
X177250000Y-109765686D01*
X178950000Y-109765686D01*
X179099378Y-109750974D01*
X179243015Y-109707402D01*
X179375392Y-109636645D01*
X179491422Y-109541422D01*
X179586645Y-109425392D01*
X179657402Y-109293015D01*
X179700974Y-109149378D01*
X179715686Y-109000000D01*
X179715686Y-107000000D01*
X179700974Y-106850622D01*
X179657402Y-106706985D01*
X179586645Y-106574608D01*
X179491422Y-106458578D01*
X179375392Y-106363355D01*
X179243015Y-106292598D01*
X179099378Y-106249026D01*
X178989000Y-106238155D01*
X178989000Y-105843659D01*
X178993300Y-105799999D01*
X178989000Y-105756339D01*
X178989000Y-105756333D01*
X178976910Y-105633580D01*
X178976136Y-105625724D01*
X178930323Y-105474698D01*
X178925303Y-105458149D01*
X178842753Y-105303709D01*
X178731659Y-105168341D01*
X178697731Y-105140497D01*
X178663965Y-105106731D01*
X178701185Y-105076185D01*
X178780537Y-104979494D01*
X178839502Y-104869180D01*
X178862867Y-104792155D01*
X178869463Y-104804494D01*
X178948815Y-104901185D01*
X179045506Y-104980537D01*
X179155820Y-105039502D01*
X179275518Y-105075812D01*
X179400000Y-105088072D01*
X180400000Y-105088072D01*
X180524482Y-105075812D01*
X180644180Y-105039502D01*
X180754494Y-104980537D01*
X180851185Y-104901185D01*
X180930537Y-104804494D01*
X180989502Y-104694180D01*
X181000000Y-104659573D01*
X181010498Y-104694180D01*
X181069463Y-104804494D01*
X181148815Y-104901185D01*
X181245506Y-104980537D01*
X181355820Y-105039502D01*
X181475518Y-105075812D01*
X181600000Y-105088072D01*
X182600000Y-105088072D01*
X182724482Y-105075812D01*
X182844180Y-105039502D01*
X182954494Y-104980537D01*
X183051185Y-104901185D01*
X183130537Y-104804494D01*
X183189502Y-104694180D01*
X183225812Y-104574482D01*
X183238072Y-104450000D01*
X183238072Y-103150000D01*
X183225812Y-103025518D01*
X183189502Y-102905820D01*
X183130537Y-102795506D01*
X183051185Y-102698815D01*
X182954494Y-102619463D01*
X182862000Y-102570023D01*
X182862000Y-99965630D01*
X185412353Y-97415278D01*
X185441422Y-97391422D01*
X185485596Y-97337596D01*
X185536645Y-97275393D01*
X185584028Y-97186744D01*
X185607402Y-97143015D01*
X185650974Y-96999378D01*
X185662000Y-96887426D01*
X185662000Y-96887423D01*
X185665686Y-96850000D01*
X185662000Y-96812577D01*
X185662000Y-95788072D01*
X185750000Y-95788072D01*
X185874482Y-95775812D01*
X185994180Y-95739502D01*
X186104494Y-95680537D01*
X186201185Y-95601185D01*
X186280537Y-95504494D01*
X186339502Y-95394180D01*
X186363966Y-95313534D01*
X186439731Y-95397588D01*
X186673080Y-95571641D01*
X186935901Y-95696825D01*
X187083110Y-95741476D01*
X187313000Y-95620155D01*
X187313000Y-94427000D01*
X187567000Y-94427000D01*
X187567000Y-95620155D01*
X187796890Y-95741476D01*
X187944099Y-95696825D01*
X188206920Y-95571641D01*
X188440269Y-95397588D01*
X188635178Y-95181355D01*
X188784157Y-94931252D01*
X188881481Y-94656891D01*
X188760814Y-94427000D01*
X187567000Y-94427000D01*
X187313000Y-94427000D01*
X187293000Y-94427000D01*
X187293000Y-94173000D01*
X187313000Y-94173000D01*
X187313000Y-92979845D01*
X187567000Y-92979845D01*
X187567000Y-94173000D01*
X188760814Y-94173000D01*
X188881481Y-93943109D01*
X188784157Y-93668748D01*
X188635178Y-93418645D01*
X188440269Y-93202412D01*
X188206920Y-93028359D01*
X187944099Y-92903175D01*
X187796890Y-92858524D01*
X187567000Y-92979845D01*
X187313000Y-92979845D01*
X187083110Y-92858524D01*
X186935901Y-92903175D01*
X186673080Y-93028359D01*
X186439731Y-93202412D01*
X186363966Y-93286466D01*
X186339502Y-93205820D01*
X186280537Y-93095506D01*
X186201185Y-92998815D01*
X186104494Y-92919463D01*
X185994180Y-92860498D01*
X185874482Y-92824188D01*
X185750000Y-92811928D01*
X184050000Y-92811928D01*
X183925518Y-92824188D01*
X183805820Y-92860498D01*
X183695506Y-92919463D01*
X183598815Y-92998815D01*
X183519463Y-93095506D01*
X183460498Y-93205820D01*
X183424188Y-93325518D01*
X183411928Y-93450000D01*
X183411928Y-95150000D01*
X183424188Y-95274482D01*
X183460498Y-95394180D01*
X183519463Y-95504494D01*
X183598815Y-95601185D01*
X183695506Y-95680537D01*
X183805820Y-95739502D01*
X183925518Y-95775812D01*
X184050000Y-95788072D01*
X184138000Y-95788072D01*
X184138000Y-96534369D01*
X181587649Y-99084721D01*
X181558579Y-99108578D01*
X181534722Y-99137648D01*
X181534721Y-99137649D01*
X181463355Y-99224608D01*
X181392599Y-99356985D01*
X181349027Y-99500622D01*
X181334314Y-99650000D01*
X181338001Y-99687433D01*
X181338000Y-102570023D01*
X181245506Y-102619463D01*
X181148815Y-102698815D01*
X181069463Y-102795506D01*
X181010498Y-102905820D01*
X181000000Y-102940427D01*
X180989502Y-102905820D01*
X180930537Y-102795506D01*
X180851185Y-102698815D01*
X180754494Y-102619463D01*
X180644180Y-102560498D01*
X180524482Y-102524188D01*
X180400000Y-102511928D01*
X179400000Y-102511928D01*
X179275518Y-102524188D01*
X179155820Y-102560498D01*
X179045506Y-102619463D01*
X178948815Y-102698815D01*
X178869463Y-102795506D01*
X178862867Y-102807845D01*
X178839502Y-102730820D01*
X178780537Y-102620506D01*
X178701185Y-102523815D01*
X178604494Y-102444463D01*
X178494180Y-102385498D01*
X178374482Y-102349188D01*
X178250000Y-102336928D01*
X177150000Y-102336928D01*
X177025518Y-102349188D01*
X176905820Y-102385498D01*
X176795506Y-102444463D01*
X176698815Y-102523815D01*
X176619463Y-102620506D01*
X176560498Y-102730820D01*
X176524188Y-102850518D01*
X176511928Y-102975000D01*
X176511928Y-103550000D01*
X176524188Y-103674482D01*
X176560498Y-103794180D01*
X176563609Y-103800000D01*
X176560498Y-103805820D01*
X176524188Y-103925518D01*
X176511928Y-104050000D01*
X176511928Y-104511000D01*
X175615686Y-104511000D01*
X175615686Y-104050000D01*
X175600974Y-103900622D01*
X175570451Y-103800000D01*
X175600974Y-103699378D01*
X175615686Y-103550000D01*
X175615686Y-102975000D01*
X175600974Y-102825622D01*
X175557402Y-102681985D01*
X175486645Y-102549608D01*
X175391422Y-102433578D01*
X175275392Y-102338355D01*
X175143015Y-102267598D01*
X174999378Y-102224026D01*
X174850000Y-102209314D01*
X173750000Y-102209314D01*
X173600622Y-102224026D01*
X173456985Y-102267598D01*
X173324608Y-102338355D01*
X173208578Y-102433578D01*
X173113355Y-102549608D01*
X173042598Y-102681985D01*
X172999026Y-102825622D01*
X172997576Y-102840341D01*
X171559499Y-101402264D01*
X171531659Y-101368341D01*
X171396291Y-101257247D01*
X171241851Y-101174697D01*
X171074274Y-101123864D01*
X170943667Y-101111000D01*
X170943660Y-101111000D01*
X170900000Y-101106700D01*
X170856340Y-101111000D01*
X169309383Y-101111000D01*
X169300974Y-101025622D01*
X169257402Y-100881985D01*
X169186645Y-100749608D01*
X169091422Y-100633578D01*
X168975392Y-100538355D01*
X168843015Y-100467598D01*
X168699378Y-100424026D01*
X168550000Y-100409314D01*
X167450000Y-100409314D01*
X167300622Y-100424026D01*
X167156985Y-100467598D01*
X167024608Y-100538355D01*
X166908578Y-100633578D01*
X166813355Y-100749608D01*
X166742598Y-100881985D01*
X166699026Y-101025622D01*
X166684314Y-101175000D01*
X166684314Y-101750000D01*
X166699026Y-101899378D01*
X166729549Y-102000000D01*
X166699026Y-102100622D01*
X166684314Y-102250000D01*
X166684314Y-102825000D01*
X166692784Y-102911000D01*
X165907216Y-102911000D01*
X165915686Y-102825000D01*
X165915686Y-102250000D01*
X165900974Y-102100622D01*
X165870451Y-102000000D01*
X165900974Y-101899378D01*
X165915686Y-101750000D01*
X165915686Y-101175000D01*
X165900974Y-101025622D01*
X165857402Y-100881985D01*
X165786645Y-100749608D01*
X165691422Y-100633578D01*
X165575392Y-100538355D01*
X165443015Y-100467598D01*
X165299378Y-100424026D01*
X165150000Y-100409314D01*
X164050000Y-100409314D01*
X163900622Y-100424026D01*
X163756985Y-100467598D01*
X163624608Y-100538355D01*
X163508578Y-100633578D01*
X163413355Y-100749608D01*
X163342598Y-100881985D01*
X163299026Y-101025622D01*
X163289974Y-101117536D01*
X163258924Y-101120594D01*
X163225724Y-101123864D01*
X163152798Y-101145986D01*
X163058149Y-101174697D01*
X163037292Y-101185846D01*
X163091422Y-101141422D01*
X163186645Y-101025392D01*
X163257402Y-100893015D01*
X163300974Y-100749378D01*
X163315686Y-100600000D01*
X163315686Y-99762000D01*
X170404096Y-99762000D01*
X170489309Y-99840279D01*
X170580105Y-99911400D01*
X170580111Y-99911403D01*
X171410330Y-100462400D01*
X171511134Y-100518441D01*
X172417332Y-100932782D01*
X172525662Y-100972363D01*
X172525665Y-100972364D01*
X173485522Y-101239843D01*
X173598710Y-101261990D01*
X174588594Y-101376021D01*
X174703853Y-101380190D01*
X175699388Y-101337966D01*
X175699389Y-101337966D01*
X175713302Y-101336275D01*
X175813880Y-101324053D01*
X175813890Y-101324050D01*
X176790554Y-101126611D01*
X176845254Y-101111000D01*
X176901461Y-101094959D01*
X177835220Y-100747164D01*
X177835224Y-100747163D01*
X177911270Y-100711817D01*
X177939812Y-100698551D01*
X177939816Y-100698548D01*
X178807671Y-100208964D01*
X178903368Y-100144589D01*
X179683954Y-99525267D01*
X179768403Y-99446714D01*
X179768409Y-99446707D01*
X180442495Y-98712907D01*
X180445541Y-98709019D01*
X180463103Y-98686598D01*
X180513616Y-98622111D01*
X180513619Y-98622105D01*
X181044014Y-97822928D01*
X181066303Y-97795769D01*
X181134553Y-97668082D01*
X181176581Y-97529534D01*
X181187216Y-97421554D01*
X181187216Y-91178446D01*
X181176581Y-91070466D01*
X181134553Y-90931918D01*
X181066303Y-90804231D01*
X181052473Y-90787379D01*
X180883720Y-90512000D01*
X187267139Y-90512000D01*
X187908114Y-90937400D01*
X188008918Y-90993441D01*
X188915116Y-91407782D01*
X189023446Y-91447363D01*
X189023449Y-91447364D01*
X189983306Y-91714843D01*
X190096494Y-91736990D01*
X191086378Y-91851021D01*
X191201637Y-91855190D01*
X192197172Y-91812966D01*
X192197173Y-91812966D01*
X192218938Y-91810321D01*
X192311664Y-91799053D01*
X192311674Y-91799050D01*
X193288338Y-91601611D01*
X193331797Y-91589208D01*
X193399245Y-91569959D01*
X194333004Y-91222164D01*
X194333008Y-91222163D01*
X194381620Y-91199568D01*
X194437596Y-91173551D01*
X194437600Y-91173548D01*
X195305455Y-90683964D01*
X195401152Y-90619589D01*
X195401153Y-90619588D01*
X196181738Y-90000267D01*
X196266187Y-89921714D01*
X196266193Y-89921707D01*
X196940279Y-89187907D01*
X196943325Y-89184019D01*
X196960887Y-89161598D01*
X197011400Y-89097111D01*
X197011403Y-89097105D01*
X197541795Y-88297933D01*
X197564087Y-88270770D01*
X197632337Y-88143083D01*
X197674365Y-88004535D01*
X197685000Y-87896555D01*
X197685000Y-81653446D01*
X197674365Y-81545466D01*
X197632337Y-81406918D01*
X197564087Y-81279231D01*
X197550257Y-81262379D01*
X197295493Y-80846643D01*
X197269382Y-80810704D01*
X197244589Y-80773848D01*
X196625267Y-79993262D01*
X196546714Y-79908814D01*
X196546713Y-79908813D01*
X195812907Y-79234721D01*
X195812906Y-79234720D01*
X195722110Y-79163600D01*
X194891886Y-78612600D01*
X194791082Y-78556559D01*
X194791077Y-78556557D01*
X193884884Y-78142218D01*
X193776554Y-78102637D01*
X193776551Y-78102636D01*
X192816706Y-77835161D01*
X192816694Y-77835157D01*
X192703506Y-77813010D01*
X191713622Y-77698979D01*
X191598363Y-77694810D01*
X190602828Y-77737034D01*
X190602827Y-77737034D01*
X190588914Y-77738725D01*
X190488336Y-77750947D01*
X190488326Y-77750950D01*
X189511664Y-77948389D01*
X189511661Y-77948389D01*
X189400755Y-77980041D01*
X188762000Y-78217956D01*
X188762000Y-72900000D01*
X188747358Y-72751341D01*
X188703996Y-72608395D01*
X188633580Y-72476655D01*
X188538815Y-72361185D01*
X188423345Y-72266420D01*
X188291605Y-72196004D01*
X188148659Y-72152642D01*
X188000000Y-72138000D01*
X145262000Y-72138000D01*
X145262000Y-69335000D01*
X195022127Y-69335000D01*
X194744327Y-69390258D01*
G37*
X194744327Y-69390258D02*
X194023289Y-69688922D01*
X193374372Y-70122514D01*
X192822514Y-70674372D01*
X192388922Y-71323289D01*
X192090258Y-72044327D01*
X191938000Y-72809777D01*
X191938000Y-73590223D01*
X192090258Y-74355673D01*
X192388922Y-75076711D01*
X192822514Y-75725628D01*
X193374372Y-76277486D01*
X194023289Y-76711078D01*
X194744327Y-77009742D01*
X195509777Y-77162000D01*
X196290223Y-77162000D01*
X197055673Y-77009742D01*
X197776711Y-76711078D01*
X198425628Y-76277486D01*
X198977486Y-75725628D01*
X199411078Y-75076711D01*
X199665000Y-74463689D01*
X199665001Y-106038000D01*
X197685000Y-106038000D01*
X197685000Y-100703445D01*
X197674365Y-100595465D01*
X197632337Y-100456917D01*
X197564087Y-100329230D01*
X197550257Y-100312378D01*
X197295493Y-99896642D01*
X197269382Y-99860703D01*
X197244589Y-99823847D01*
X196625268Y-99043261D01*
X196546715Y-98958813D01*
X196546714Y-98958812D01*
X195812907Y-98284720D01*
X195800113Y-98274698D01*
X195722110Y-98213599D01*
X194891886Y-97662599D01*
X194791082Y-97606558D01*
X194791077Y-97606556D01*
X193884884Y-97192217D01*
X193776554Y-97152636D01*
X193776551Y-97152635D01*
X192816706Y-96885160D01*
X192816694Y-96885156D01*
X192703506Y-96863009D01*
X191713622Y-96748978D01*
X191598363Y-96744809D01*
X191598362Y-96744809D01*
X190602826Y-96787034D01*
X190488334Y-96800947D01*
X190488322Y-96800950D01*
X189511661Y-96998389D01*
X189400755Y-97030041D01*
X188466996Y-97377835D01*
X188466992Y-97377836D01*
X188423242Y-97398171D01*
X188362404Y-97426448D01*
X188362403Y-97426449D01*
X187494544Y-97916036D01*
X187398847Y-97980411D01*
X186618261Y-98599732D01*
X186556430Y-98657247D01*
X186533812Y-98678286D01*
X185859720Y-99412093D01*
X185859719Y-99412094D01*
X185788599Y-99502890D01*
X185237599Y-100333114D01*
X185181558Y-100433918D01*
X185181558Y-100433919D01*
X184767217Y-101340116D01*
X184727636Y-101448446D01*
X184727636Y-101448447D01*
X184460160Y-102408294D01*
X184460156Y-102408306D01*
X184438009Y-102521494D01*
X184323978Y-103511378D01*
X184320963Y-103594747D01*
X184319809Y-103626638D01*
X184362034Y-104622173D01*
X184362034Y-104622174D01*
X184362414Y-104625302D01*
X184375947Y-104736666D01*
X184375950Y-104736678D01*
X184573389Y-105713339D01*
X184605041Y-105824245D01*
X184684658Y-106038000D01*
X181200000Y-106038000D01*
X181051341Y-106052642D01*
X180908395Y-106096004D01*
X180776655Y-106166420D01*
X180661185Y-106261185D01*
X180566420Y-106376655D01*
X180496004Y-106508395D01*
X180452642Y-106651341D01*
X180438000Y-106800000D01*
X180438000Y-110238000D01*
X172600000Y-110238000D01*
X172451341Y-110252642D01*
X172308395Y-110296004D01*
X172176655Y-110366420D01*
X172061185Y-110461185D01*
X169084370Y-113438000D01*
X157800000Y-113438000D01*
X157651341Y-113452642D01*
X157508395Y-113496004D01*
X157376655Y-113566420D01*
X157261185Y-113661185D01*
X155484370Y-115438000D01*
X147884329Y-115438000D01*
X147888072Y-115400000D01*
X147885000Y-114785750D01*
X147726250Y-114627000D01*
X146127000Y-114627000D01*
X146127000Y-114647000D01*
X145873000Y-114647000D01*
X145873000Y-114627000D01*
X145853000Y-114627000D01*
X145853000Y-114600000D01*
X152236928Y-114600000D01*
X152249188Y-114724482D01*
X152285498Y-114844180D01*
X152344463Y-114954494D01*
X152423815Y-115051185D01*
X152520506Y-115130537D01*
X152630820Y-115189502D01*
X152750518Y-115225812D01*
X152875000Y-115238072D01*
X153214250Y-115235000D01*
X153373000Y-115076250D01*
X153373000Y-114077000D01*
X153627000Y-114077000D01*
X153627000Y-115076250D01*
X153785750Y-115235000D01*
X154125000Y-115238072D01*
X154249482Y-115225812D01*
X154369180Y-115189502D01*
X154479494Y-115130537D01*
X154576185Y-115051185D01*
X154655537Y-114954494D01*
X154714502Y-114844180D01*
X154750812Y-114724482D01*
X154763072Y-114600000D01*
X154760000Y-114235750D01*
X154601250Y-114077000D01*
X153627000Y-114077000D01*
X153373000Y-114077000D01*
X152398750Y-114077000D01*
X152240000Y-114235750D01*
X152236928Y-114600000D01*
X145853000Y-114600000D01*
X145853000Y-114373000D01*
X145873000Y-114373000D01*
X145873000Y-113123750D01*
X146127000Y-113123750D01*
X146127000Y-114373000D01*
X147726250Y-114373000D01*
X147885000Y-114214250D01*
X147888072Y-113600000D01*
X147875812Y-113475518D01*
X147839502Y-113355820D01*
X147780537Y-113245506D01*
X147701185Y-113148815D01*
X147604494Y-113069463D01*
X147494180Y-113010498D01*
X147374482Y-112974188D01*
X147250000Y-112961928D01*
X146285750Y-112965000D01*
X146127000Y-113123750D01*
X145873000Y-113123750D01*
X145714250Y-112965000D01*
X145262000Y-112963559D01*
X145262000Y-112786262D01*
X145514250Y-112785000D01*
X145673000Y-112626250D01*
X145673000Y-111027000D01*
X145927000Y-111027000D01*
X145927000Y-112626250D01*
X146085750Y-112785000D01*
X146700000Y-112788072D01*
X146824482Y-112775812D01*
X146944180Y-112739502D01*
X147054494Y-112680537D01*
X147151185Y-112601185D01*
X147230537Y-112504494D01*
X147289502Y-112394180D01*
X147325812Y-112274482D01*
X147338072Y-112150000D01*
X147335000Y-111185750D01*
X147176250Y-111027000D01*
X145927000Y-111027000D01*
X145673000Y-111027000D01*
X145653000Y-111027000D01*
X145653000Y-110773000D01*
X145673000Y-110773000D01*
X145673000Y-109173750D01*
X145927000Y-109173750D01*
X145927000Y-110773000D01*
X147176250Y-110773000D01*
X147335000Y-110614250D01*
X147338072Y-109650000D01*
X147325812Y-109525518D01*
X147289502Y-109405820D01*
X147230537Y-109295506D01*
X147151185Y-109198815D01*
X147054494Y-109119463D01*
X146944180Y-109060498D01*
X146824482Y-109024188D01*
X146700000Y-109011928D01*
X146085750Y-109015000D01*
X145927000Y-109173750D01*
X145673000Y-109173750D01*
X145514250Y-109015000D01*
X145262000Y-109013738D01*
X145262000Y-108915686D01*
X146700000Y-108915686D01*
X146849378Y-108900974D01*
X146993015Y-108857402D01*
X147125392Y-108786645D01*
X147241422Y-108691422D01*
X147336645Y-108575392D01*
X147407402Y-108443015D01*
X147450974Y-108299378D01*
X147465686Y-108150000D01*
X147465686Y-107917535D01*
X147500000Y-107920915D01*
X147549902Y-107916000D01*
X147699171Y-107901298D01*
X147890687Y-107843202D01*
X148067190Y-107748860D01*
X148192361Y-107646134D01*
X148306985Y-107707402D01*
X148450622Y-107750974D01*
X148600000Y-107765686D01*
X150200000Y-107765686D01*
X150349378Y-107750974D01*
X150493015Y-107707402D01*
X150625392Y-107636645D01*
X150741422Y-107541422D01*
X150762500Y-107515738D01*
X150783578Y-107541422D01*
X150899608Y-107636645D01*
X151031985Y-107707402D01*
X151175622Y-107750974D01*
X151305922Y-107763807D01*
X151200518Y-107774188D01*
X151080820Y-107810498D01*
X150970506Y-107869463D01*
X150873815Y-107948815D01*
X150794463Y-108045506D01*
X150735498Y-108155820D01*
X150699188Y-108275518D01*
X150686928Y-108400000D01*
X150687060Y-108413965D01*
X150625392Y-108363355D01*
X150493015Y-108292598D01*
X150349378Y-108249026D01*
X150200000Y-108234314D01*
X148600000Y-108234314D01*
X148450622Y-108249026D01*
X148306985Y-108292598D01*
X148174608Y-108363355D01*
X148058578Y-108458578D01*
X147963355Y-108574608D01*
X147892598Y-108706985D01*
X147849026Y-108850622D01*
X147834314Y-109000000D01*
X147834314Y-110200000D01*
X147840557Y-110263392D01*
X147813527Y-110290422D01*
X147674541Y-110498429D01*
X147578805Y-110729555D01*
X147530000Y-110974916D01*
X147530000Y-111225084D01*
X147578805Y-111470445D01*
X147674541Y-111701571D01*
X147813527Y-111909578D01*
X147990422Y-112086473D01*
X148198429Y-112225459D01*
X148429555Y-112321195D01*
X148674916Y-112370000D01*
X148925084Y-112370000D01*
X149170445Y-112321195D01*
X149401571Y-112225459D01*
X149609578Y-112086473D01*
X149786473Y-111909578D01*
X149925459Y-111701571D01*
X150021195Y-111470445D01*
X150059632Y-111277208D01*
X150083127Y-111253713D01*
X150121896Y-111221896D01*
X150248860Y-111067190D01*
X150308844Y-110954966D01*
X150349378Y-110950974D01*
X150493015Y-110907402D01*
X150625392Y-110836645D01*
X150741422Y-110741422D01*
X150836645Y-110625392D01*
X150907402Y-110493015D01*
X150950974Y-110349378D01*
X150965686Y-110200000D01*
X150965686Y-110146581D01*
X150970506Y-110150537D01*
X151080820Y-110209502D01*
X151200518Y-110245812D01*
X151325000Y-110258072D01*
X151364250Y-110255000D01*
X151523000Y-110096250D01*
X151523000Y-109137000D01*
X151503000Y-109137000D01*
X151503000Y-108883000D01*
X151523000Y-108883000D01*
X151523000Y-108863000D01*
X151777000Y-108863000D01*
X151777000Y-108883000D01*
X151797000Y-108883000D01*
X151797000Y-109137000D01*
X151777000Y-109137000D01*
X151777000Y-109158750D01*
X151640000Y-109295750D01*
X151636928Y-109620000D01*
X151649188Y-109744482D01*
X151685498Y-109864180D01*
X151744463Y-109974494D01*
X151777000Y-110014141D01*
X151777000Y-110096250D01*
X151935750Y-110255000D01*
X151975000Y-110258072D01*
X152099482Y-110245812D01*
X152125000Y-110238071D01*
X152150518Y-110245812D01*
X152275000Y-110258072D01*
X152314250Y-110255000D01*
X152473000Y-110096250D01*
X152473000Y-110014141D01*
X152505537Y-109974494D01*
X152527998Y-109932473D01*
X152588355Y-110045392D01*
X152622727Y-110087274D01*
X152622439Y-110090193D01*
X152611000Y-110206334D01*
X152611000Y-110206340D01*
X152606700Y-110250000D01*
X152610057Y-110284082D01*
X152581985Y-110292598D01*
X152449608Y-110363355D01*
X152333578Y-110458578D01*
X152238355Y-110574608D01*
X152167598Y-110706985D01*
X152124026Y-110850622D01*
X152109314Y-111000000D01*
X152109314Y-112300000D01*
X152124026Y-112449378D01*
X152167598Y-112593015D01*
X152238355Y-112725392D01*
X152333578Y-112841422D01*
X152391124Y-112888649D01*
X152344463Y-112945506D01*
X152285498Y-113055820D01*
X152249188Y-113175518D01*
X152236928Y-113300000D01*
X152240000Y-113664250D01*
X152398750Y-113823000D01*
X153373000Y-113823000D01*
X153373000Y-113803000D01*
X153627000Y-113803000D01*
X153627000Y-113823000D01*
X154601250Y-113823000D01*
X154760000Y-113664250D01*
X154760073Y-113655601D01*
X154856985Y-113707402D01*
X155000622Y-113750974D01*
X155150000Y-113765686D01*
X156450000Y-113765686D01*
X156599378Y-113750974D01*
X156743015Y-113707402D01*
X156875392Y-113636645D01*
X156991422Y-113541422D01*
X157086645Y-113425392D01*
X157157402Y-113293015D01*
X157168074Y-113257836D01*
X157196291Y-113242753D01*
X157331659Y-113131659D01*
X157359499Y-113097736D01*
X157449031Y-113008204D01*
X157525000Y-113015686D01*
X158175000Y-113015686D01*
X158324378Y-113000974D01*
X158468015Y-112957402D01*
X158600392Y-112886645D01*
X158716422Y-112791422D01*
X158811645Y-112675392D01*
X158872099Y-112562290D01*
X158903381Y-112617490D01*
X158985097Y-112712192D01*
X159083719Y-112789132D01*
X159195456Y-112845353D01*
X159316014Y-112878695D01*
X159440761Y-112887877D01*
X159464250Y-112885000D01*
X159623000Y-112726250D01*
X159623000Y-112238072D01*
X159877000Y-112238072D01*
X159877000Y-112726250D01*
X160035750Y-112885000D01*
X160059239Y-112887877D01*
X160183986Y-112878695D01*
X160304544Y-112845353D01*
X160416281Y-112789132D01*
X160514903Y-112712192D01*
X160546796Y-112675230D01*
X160563990Y-112684420D01*
X160609463Y-112769494D01*
X160688815Y-112866185D01*
X160785506Y-112945537D01*
X160895820Y-113004502D01*
X161015518Y-113040812D01*
X161140000Y-113053072D01*
X162400000Y-113053072D01*
X162524482Y-113040812D01*
X162644180Y-113004502D01*
X162754494Y-112945537D01*
X162851185Y-112866185D01*
X162930537Y-112769494D01*
X162989502Y-112659180D01*
X163025812Y-112539482D01*
X163038072Y-112415000D01*
X163038072Y-111585000D01*
X163361928Y-111585000D01*
X163361928Y-112415000D01*
X163374188Y-112539482D01*
X163410498Y-112659180D01*
X163469463Y-112769494D01*
X163548815Y-112866185D01*
X163645506Y-112945537D01*
X163755820Y-113004502D01*
X163875518Y-113040812D01*
X164000000Y-113053072D01*
X165260000Y-113053072D01*
X165384482Y-113040812D01*
X165504180Y-113004502D01*
X165614494Y-112945537D01*
X165711185Y-112866185D01*
X165790537Y-112769494D01*
X165810317Y-112732488D01*
X165893015Y-112707402D01*
X166025392Y-112636645D01*
X166141422Y-112541422D01*
X166165284Y-112512346D01*
X167390631Y-111287000D01*
X167463110Y-111287000D01*
X167474188Y-111399482D01*
X167510498Y-111519180D01*
X167569463Y-111629494D01*
X167648815Y-111726185D01*
X167745506Y-111805537D01*
X167855820Y-111864502D01*
X167975518Y-111900812D01*
X168100000Y-111913072D01*
X169100000Y-111913072D01*
X169224482Y-111900812D01*
X169344180Y-111864502D01*
X169454494Y-111805537D01*
X169551185Y-111726185D01*
X169630537Y-111629494D01*
X169689502Y-111519180D01*
X169725812Y-111399482D01*
X169738072Y-111275000D01*
X169738072Y-109775000D01*
X169725812Y-109650518D01*
X169689502Y-109530820D01*
X169633548Y-109426139D01*
X169721935Y-109367081D01*
X169967081Y-109121935D01*
X170159692Y-108833673D01*
X170292364Y-108513373D01*
X170360000Y-108173345D01*
X170360000Y-107826655D01*
X170292364Y-107486627D01*
X170159692Y-107166327D01*
X169967081Y-106878065D01*
X169721935Y-106632919D01*
X169633548Y-106573861D01*
X169689502Y-106469180D01*
X169725812Y-106349482D01*
X169738072Y-106225000D01*
X169735000Y-105760750D01*
X169576250Y-105602000D01*
X168727000Y-105602000D01*
X168727000Y-105622000D01*
X168473000Y-105622000D01*
X168473000Y-105602000D01*
X167623750Y-105602000D01*
X167465000Y-105760750D01*
X167461928Y-106225000D01*
X167474188Y-106349482D01*
X167510498Y-106469180D01*
X167566452Y-106573861D01*
X167478065Y-106632919D01*
X167232919Y-106878065D01*
X167040308Y-107166327D01*
X166907636Y-107486627D01*
X166840000Y-107826655D01*
X166840000Y-108173345D01*
X166907636Y-108513373D01*
X167040308Y-108833673D01*
X167232919Y-109121935D01*
X167478065Y-109367081D01*
X167566452Y-109426139D01*
X167510498Y-109530820D01*
X167474188Y-109650518D01*
X167463110Y-109763000D01*
X167112422Y-109763000D01*
X167074999Y-109759314D01*
X167037576Y-109763000D01*
X167037574Y-109763000D01*
X166925622Y-109774026D01*
X166781985Y-109817598D01*
X166726845Y-109847071D01*
X166649607Y-109888355D01*
X166573535Y-109950786D01*
X166533578Y-109983578D01*
X166509721Y-110012648D01*
X165518967Y-111003402D01*
X165504180Y-110995498D01*
X165384482Y-110959188D01*
X165260000Y-110946928D01*
X164000000Y-110946928D01*
X163875518Y-110959188D01*
X163755820Y-110995498D01*
X163645506Y-111054463D01*
X163548815Y-111133815D01*
X163469463Y-111230506D01*
X163410498Y-111340820D01*
X163374188Y-111460518D01*
X163361928Y-111585000D01*
X163038072Y-111585000D01*
X163025812Y-111460518D01*
X162989502Y-111340820D01*
X162930537Y-111230506D01*
X162851185Y-111133815D01*
X162754494Y-111054463D01*
X162644180Y-110995498D01*
X162524482Y-110959188D01*
X162400000Y-110946928D01*
X161140000Y-110946928D01*
X161015518Y-110959188D01*
X160955135Y-110977505D01*
X160865283Y-110887653D01*
X160841422Y-110858578D01*
X160725392Y-110763355D01*
X160713072Y-110756770D01*
X160713072Y-110550000D01*
X160700812Y-110425518D01*
X160664502Y-110305820D01*
X160605537Y-110195506D01*
X160526185Y-110098815D01*
X160429494Y-110019463D01*
X160319180Y-109960498D01*
X160199482Y-109924188D01*
X160075000Y-109911928D01*
X159425000Y-109911928D01*
X159300518Y-109924188D01*
X159180820Y-109960498D01*
X159070506Y-110019463D01*
X158973815Y-110098815D01*
X158894463Y-110195506D01*
X158872002Y-110237527D01*
X158811645Y-110124608D01*
X158716422Y-110008578D01*
X158600392Y-109913355D01*
X158468015Y-109842598D01*
X158324378Y-109799026D01*
X158175000Y-109784314D01*
X157525000Y-109784314D01*
X157449031Y-109791796D01*
X157359499Y-109702264D01*
X157331659Y-109668341D01*
X157196291Y-109557247D01*
X157168074Y-109542164D01*
X157157402Y-109506985D01*
X157086645Y-109374608D01*
X157084834Y-109372401D01*
X160526452Y-105930784D01*
X160510362Y-105954864D01*
X160264466Y-106548510D01*
X160139109Y-107178721D01*
X160139109Y-107821279D01*
X160264466Y-108451490D01*
X160510362Y-109045136D01*
X160867348Y-109579404D01*
X161321705Y-110033761D01*
X161855973Y-110390747D01*
X162449619Y-110636643D01*
X163079830Y-110762000D01*
X163722388Y-110762000D01*
X164352599Y-110636643D01*
X164946245Y-110390747D01*
X165480513Y-110033761D01*
X165934870Y-109579404D01*
X166291856Y-109045136D01*
X166537752Y-108451490D01*
X166663109Y-107821279D01*
X166663109Y-107178721D01*
X166537752Y-106548510D01*
X166291856Y-105954864D01*
X165934870Y-105420596D01*
X165480513Y-104966239D01*
X165065595Y-104689000D01*
X167465474Y-104689000D01*
X167461928Y-104725000D01*
X167465000Y-105189250D01*
X167623750Y-105348000D01*
X168473000Y-105348000D01*
X168473000Y-105328000D01*
X168727000Y-105328000D01*
X168727000Y-105348000D01*
X169576250Y-105348000D01*
X169735000Y-105189250D01*
X169738072Y-104725000D01*
X169734526Y-104689000D01*
X171031765Y-104689000D01*
X172729219Y-106386455D01*
X172728889Y-106386487D01*
X172448966Y-106471401D01*
X172190986Y-106609294D01*
X171964866Y-106794866D01*
X171779294Y-107020987D01*
X171641401Y-107278967D01*
X171556487Y-107558890D01*
X171535000Y-107777051D01*
X171535000Y-108222950D01*
X171556487Y-108441111D01*
X171641401Y-108721034D01*
X171779294Y-108979014D01*
X171964866Y-109205134D01*
X172190987Y-109390706D01*
X172448967Y-109528599D01*
X172728890Y-109613513D01*
X173020000Y-109642185D01*
X173311111Y-109613513D01*
X173591034Y-109528599D01*
X173849014Y-109390706D01*
X174075134Y-109205134D01*
X174208980Y-109042043D01*
X174213186Y-109049912D01*
X174414629Y-109295371D01*
X174660089Y-109496814D01*
X174940131Y-109646499D01*
X175243994Y-109738675D01*
X175560000Y-109769799D01*
X175876007Y-109738675D01*
X176179870Y-109646499D01*
X176459912Y-109496814D01*
X176593104Y-109387506D01*
X176613355Y-109425392D01*
X176708578Y-109541422D01*
X176824608Y-109636645D01*
X176956985Y-109707402D01*
X177100622Y-109750974D01*
X177250000Y-109765686D01*
X178950000Y-109765686D01*
X179099378Y-109750974D01*
X179243015Y-109707402D01*
X179375392Y-109636645D01*
X179491422Y-109541422D01*
X179586645Y-109425392D01*
X179657402Y-109293015D01*
X179700974Y-109149378D01*
X179715686Y-109000000D01*
X179715686Y-107000000D01*
X179700974Y-106850622D01*
X179657402Y-106706985D01*
X179586645Y-106574608D01*
X179491422Y-106458578D01*
X179375392Y-106363355D01*
X179243015Y-106292598D01*
X179099378Y-106249026D01*
X178989000Y-106238155D01*
X178989000Y-105843659D01*
X178993300Y-105799999D01*
X178989000Y-105756339D01*
X178989000Y-105756333D01*
X178976910Y-105633580D01*
X178976136Y-105625724D01*
X178930323Y-105474698D01*
X178925303Y-105458149D01*
X178842753Y-105303709D01*
X178731659Y-105168341D01*
X178697731Y-105140497D01*
X178663965Y-105106731D01*
X178701185Y-105076185D01*
X178780537Y-104979494D01*
X178839502Y-104869180D01*
X178862867Y-104792155D01*
X178869463Y-104804494D01*
X178948815Y-104901185D01*
X179045506Y-104980537D01*
X179155820Y-105039502D01*
X179275518Y-105075812D01*
X179400000Y-105088072D01*
X180400000Y-105088072D01*
X180524482Y-105075812D01*
X180644180Y-105039502D01*
X180754494Y-104980537D01*
X180851185Y-104901185D01*
X180930537Y-104804494D01*
X180989502Y-104694180D01*
X181000000Y-104659573D01*
X181010498Y-104694180D01*
X181069463Y-104804494D01*
X181148815Y-104901185D01*
X181245506Y-104980537D01*
X181355820Y-105039502D01*
X181475518Y-105075812D01*
X181600000Y-105088072D01*
X182600000Y-105088072D01*
X182724482Y-105075812D01*
X182844180Y-105039502D01*
X182954494Y-104980537D01*
X183051185Y-104901185D01*
X183130537Y-104804494D01*
X183189502Y-104694180D01*
X183225812Y-104574482D01*
X183238072Y-104450000D01*
X183238072Y-103150000D01*
X183225812Y-103025518D01*
X183189502Y-102905820D01*
X183130537Y-102795506D01*
X183051185Y-102698815D01*
X182954494Y-102619463D01*
X182862000Y-102570023D01*
X182862000Y-99965630D01*
X185412353Y-97415278D01*
X185441422Y-97391422D01*
X185485596Y-97337596D01*
X185536645Y-97275393D01*
X185584028Y-97186744D01*
X185607402Y-97143015D01*
X185650974Y-96999378D01*
X185662000Y-96887426D01*
X185662000Y-96887423D01*
X185665686Y-96850000D01*
X185662000Y-96812577D01*
X185662000Y-95788072D01*
X185750000Y-95788072D01*
X185874482Y-95775812D01*
X185994180Y-95739502D01*
X186104494Y-95680537D01*
X186201185Y-95601185D01*
X186280537Y-95504494D01*
X186339502Y-95394180D01*
X186363966Y-95313534D01*
X186439731Y-95397588D01*
X186673080Y-95571641D01*
X186935901Y-95696825D01*
X187083110Y-95741476D01*
X187313000Y-95620155D01*
X187313000Y-94427000D01*
X187567000Y-94427000D01*
X187567000Y-95620155D01*
X187796890Y-95741476D01*
X187944099Y-95696825D01*
X188206920Y-95571641D01*
X188440269Y-95397588D01*
X188635178Y-95181355D01*
X188784157Y-94931252D01*
X188881481Y-94656891D01*
X188760814Y-94427000D01*
X187567000Y-94427000D01*
X187313000Y-94427000D01*
X187293000Y-94427000D01*
X187293000Y-94173000D01*
X187313000Y-94173000D01*
X187313000Y-92979845D01*
X187567000Y-92979845D01*
X187567000Y-94173000D01*
X188760814Y-94173000D01*
X188881481Y-93943109D01*
X188784157Y-93668748D01*
X188635178Y-93418645D01*
X188440269Y-93202412D01*
X188206920Y-93028359D01*
X187944099Y-92903175D01*
X187796890Y-92858524D01*
X187567000Y-92979845D01*
X187313000Y-92979845D01*
X187083110Y-92858524D01*
X186935901Y-92903175D01*
X186673080Y-93028359D01*
X186439731Y-93202412D01*
X186363966Y-93286466D01*
X186339502Y-93205820D01*
X186280537Y-93095506D01*
X186201185Y-92998815D01*
X186104494Y-92919463D01*
X185994180Y-92860498D01*
X185874482Y-92824188D01*
X185750000Y-92811928D01*
X184050000Y-92811928D01*
X183925518Y-92824188D01*
X183805820Y-92860498D01*
X183695506Y-92919463D01*
X183598815Y-92998815D01*
X183519463Y-93095506D01*
X183460498Y-93205820D01*
X183424188Y-93325518D01*
X183411928Y-93450000D01*
X183411928Y-95150000D01*
X183424188Y-95274482D01*
X183460498Y-95394180D01*
X183519463Y-95504494D01*
X183598815Y-95601185D01*
X183695506Y-95680537D01*
X183805820Y-95739502D01*
X183925518Y-95775812D01*
X184050000Y-95788072D01*
X184138000Y-95788072D01*
X184138000Y-96534369D01*
X181587649Y-99084721D01*
X181558579Y-99108578D01*
X181534722Y-99137648D01*
X181534721Y-99137649D01*
X181463355Y-99224608D01*
X181392599Y-99356985D01*
X181349027Y-99500622D01*
X181334314Y-99650000D01*
X181338001Y-99687433D01*
X181338000Y-102570023D01*
X181245506Y-102619463D01*
X181148815Y-102698815D01*
X181069463Y-102795506D01*
X181010498Y-102905820D01*
X181000000Y-102940427D01*
X180989502Y-102905820D01*
X180930537Y-102795506D01*
X180851185Y-102698815D01*
X180754494Y-102619463D01*
X180644180Y-102560498D01*
X180524482Y-102524188D01*
X180400000Y-102511928D01*
X179400000Y-102511928D01*
X179275518Y-102524188D01*
X179155820Y-102560498D01*
X179045506Y-102619463D01*
X178948815Y-102698815D01*
X178869463Y-102795506D01*
X178862867Y-102807845D01*
X178839502Y-102730820D01*
X178780537Y-102620506D01*
X178701185Y-102523815D01*
X178604494Y-102444463D01*
X178494180Y-102385498D01*
X178374482Y-102349188D01*
X178250000Y-102336928D01*
X177150000Y-102336928D01*
X177025518Y-102349188D01*
X176905820Y-102385498D01*
X176795506Y-102444463D01*
X176698815Y-102523815D01*
X176619463Y-102620506D01*
X176560498Y-102730820D01*
X176524188Y-102850518D01*
X176511928Y-102975000D01*
X176511928Y-103550000D01*
X176524188Y-103674482D01*
X176560498Y-103794180D01*
X176563609Y-103800000D01*
X176560498Y-103805820D01*
X176524188Y-103925518D01*
X176511928Y-104050000D01*
X176511928Y-104511000D01*
X175615686Y-104511000D01*
X175615686Y-104050000D01*
X175600974Y-103900622D01*
X175570451Y-103800000D01*
X175600974Y-103699378D01*
X175615686Y-103550000D01*
X175615686Y-102975000D01*
X175600974Y-102825622D01*
X175557402Y-102681985D01*
X175486645Y-102549608D01*
X175391422Y-102433578D01*
X175275392Y-102338355D01*
X175143015Y-102267598D01*
X174999378Y-102224026D01*
X174850000Y-102209314D01*
X173750000Y-102209314D01*
X173600622Y-102224026D01*
X173456985Y-102267598D01*
X173324608Y-102338355D01*
X173208578Y-102433578D01*
X173113355Y-102549608D01*
X173042598Y-102681985D01*
X172999026Y-102825622D01*
X172997576Y-102840341D01*
X171559499Y-101402264D01*
X171531659Y-101368341D01*
X171396291Y-101257247D01*
X171241851Y-101174697D01*
X171074274Y-101123864D01*
X170943667Y-101111000D01*
X170943660Y-101111000D01*
X170900000Y-101106700D01*
X170856340Y-101111000D01*
X169309383Y-101111000D01*
X169300974Y-101025622D01*
X169257402Y-100881985D01*
X169186645Y-100749608D01*
X169091422Y-100633578D01*
X168975392Y-100538355D01*
X168843015Y-100467598D01*
X168699378Y-100424026D01*
X168550000Y-100409314D01*
X167450000Y-100409314D01*
X167300622Y-100424026D01*
X167156985Y-100467598D01*
X167024608Y-100538355D01*
X166908578Y-100633578D01*
X166813355Y-100749608D01*
X166742598Y-100881985D01*
X166699026Y-101025622D01*
X166684314Y-101175000D01*
X166684314Y-101750000D01*
X166699026Y-101899378D01*
X166729549Y-102000000D01*
X166699026Y-102100622D01*
X166684314Y-102250000D01*
X166684314Y-102825000D01*
X166692784Y-102911000D01*
X165907216Y-102911000D01*
X165915686Y-102825000D01*
X165915686Y-102250000D01*
X165900974Y-102100622D01*
X165870451Y-102000000D01*
X165900974Y-101899378D01*
X165915686Y-101750000D01*
X165915686Y-101175000D01*
X165900974Y-101025622D01*
X165857402Y-100881985D01*
X165786645Y-100749608D01*
X165691422Y-100633578D01*
X165575392Y-100538355D01*
X165443015Y-100467598D01*
X165299378Y-100424026D01*
X165150000Y-100409314D01*
X164050000Y-100409314D01*
X163900622Y-100424026D01*
X163756985Y-100467598D01*
X163624608Y-100538355D01*
X163508578Y-100633578D01*
X163413355Y-100749608D01*
X163342598Y-100881985D01*
X163299026Y-101025622D01*
X163289974Y-101117536D01*
X163258924Y-101120594D01*
X163225724Y-101123864D01*
X163152798Y-101145986D01*
X163058149Y-101174697D01*
X163037292Y-101185846D01*
X163091422Y-101141422D01*
X163186645Y-101025392D01*
X163257402Y-100893015D01*
X163300974Y-100749378D01*
X163315686Y-100600000D01*
X163315686Y-99762000D01*
X170404096Y-99762000D01*
X170489309Y-99840279D01*
X170580105Y-99911400D01*
X170580111Y-99911403D01*
X171410330Y-100462400D01*
X171511134Y-100518441D01*
X172417332Y-100932782D01*
X172525662Y-100972363D01*
X172525665Y-100972364D01*
X173485522Y-101239843D01*
X173598710Y-101261990D01*
X174588594Y-101376021D01*
X174703853Y-101380190D01*
X175699388Y-101337966D01*
X175699389Y-101337966D01*
X175713302Y-101336275D01*
X175813880Y-101324053D01*
X175813890Y-101324050D01*
X176790554Y-101126611D01*
X176845254Y-101111000D01*
X176901461Y-101094959D01*
X177835220Y-100747164D01*
X177835224Y-100747163D01*
X177911270Y-100711817D01*
X177939812Y-100698551D01*
X177939816Y-100698548D01*
X178807671Y-100208964D01*
X178903368Y-100144589D01*
X179683954Y-99525267D01*
X179768403Y-99446714D01*
X179768409Y-99446707D01*
X180442495Y-98712907D01*
X180445541Y-98709019D01*
X180463103Y-98686598D01*
X180513616Y-98622111D01*
X180513619Y-98622105D01*
X181044014Y-97822928D01*
X181066303Y-97795769D01*
X181134553Y-97668082D01*
X181176581Y-97529534D01*
X181187216Y-97421554D01*
X181187216Y-91178446D01*
X181176581Y-91070466D01*
X181134553Y-90931918D01*
X181066303Y-90804231D01*
X181052473Y-90787379D01*
X180883720Y-90512000D01*
X187267139Y-90512000D01*
X187908114Y-90937400D01*
X188008918Y-90993441D01*
X188915116Y-91407782D01*
X189023446Y-91447363D01*
X189023449Y-91447364D01*
X189983306Y-91714843D01*
X190096494Y-91736990D01*
X191086378Y-91851021D01*
X191201637Y-91855190D01*
X192197172Y-91812966D01*
X192197173Y-91812966D01*
X192218938Y-91810321D01*
X192311664Y-91799053D01*
X192311674Y-91799050D01*
X193288338Y-91601611D01*
X193331797Y-91589208D01*
X193399245Y-91569959D01*
X194333004Y-91222164D01*
X194333008Y-91222163D01*
X194381620Y-91199568D01*
X194437596Y-91173551D01*
X194437600Y-91173548D01*
X195305455Y-90683964D01*
X195401152Y-90619589D01*
X195401153Y-90619588D01*
X196181738Y-90000267D01*
X196266187Y-89921714D01*
X196266193Y-89921707D01*
X196940279Y-89187907D01*
X196943325Y-89184019D01*
X196960887Y-89161598D01*
X197011400Y-89097111D01*
X197011403Y-89097105D01*
X197541795Y-88297933D01*
X197564087Y-88270770D01*
X197632337Y-88143083D01*
X197674365Y-88004535D01*
X197685000Y-87896555D01*
X197685000Y-81653446D01*
X197674365Y-81545466D01*
X197632337Y-81406918D01*
X197564087Y-81279231D01*
X197550257Y-81262379D01*
X197295493Y-80846643D01*
X197269382Y-80810704D01*
X197244589Y-80773848D01*
X196625267Y-79993262D01*
X196546714Y-79908814D01*
X196546713Y-79908813D01*
X195812907Y-79234721D01*
X195812906Y-79234720D01*
X195722110Y-79163600D01*
X194891886Y-78612600D01*
X194791082Y-78556559D01*
X194791077Y-78556557D01*
X193884884Y-78142218D01*
X193776554Y-78102637D01*
X193776551Y-78102636D01*
X192816706Y-77835161D01*
X192816694Y-77835157D01*
X192703506Y-77813010D01*
X191713622Y-77698979D01*
X191598363Y-77694810D01*
X190602828Y-77737034D01*
X190602827Y-77737034D01*
X190588914Y-77738725D01*
X190488336Y-77750947D01*
X190488326Y-77750950D01*
X189511664Y-77948389D01*
X189511661Y-77948389D01*
X189400755Y-77980041D01*
X188762000Y-78217956D01*
X188762000Y-72900000D01*
X188747358Y-72751341D01*
X188703996Y-72608395D01*
X188633580Y-72476655D01*
X188538815Y-72361185D01*
X188423345Y-72266420D01*
X188291605Y-72196004D01*
X188148659Y-72152642D01*
X188000000Y-72138000D01*
X145262000Y-72138000D01*
X145262000Y-69335000D01*
X195022127Y-69335000D01*
X194744327Y-69390258D01*
G36*
X135445506Y-75419463D02*
G01*
X135348815Y-75498815D01*
X135269463Y-75595506D01*
X135210498Y-75705820D01*
X135174188Y-75825518D01*
X135161928Y-75950000D01*
X135165000Y-77033250D01*
X135323750Y-77192000D01*
X136092000Y-77192000D01*
X136092000Y-77172000D01*
X137108000Y-77172000D01*
X137108000Y-77192000D01*
X137876250Y-77192000D01*
X138035000Y-77033250D01*
X138038072Y-75950000D01*
X138025812Y-75825518D01*
X137989502Y-75705820D01*
X137930537Y-75595506D01*
X137851185Y-75498815D01*
X137754494Y-75419463D01*
X137675053Y-75377000D01*
X144238000Y-75377000D01*
X144238000Y-89750000D01*
X144252642Y-89898659D01*
X144296004Y-90041605D01*
X144340579Y-90125000D01*
X144296004Y-90208395D01*
X144252642Y-90351341D01*
X144238000Y-90500000D01*
X144238000Y-99623000D01*
X142513678Y-99623000D01*
X142601185Y-99551185D01*
X142680537Y-99454494D01*
X142739502Y-99344180D01*
X142775812Y-99224482D01*
X142788072Y-99100000D01*
X142785000Y-98516750D01*
X142626250Y-98358000D01*
X141508000Y-98358000D01*
X141508000Y-98378000D01*
X140492000Y-98378000D01*
X140492000Y-98358000D01*
X139373750Y-98358000D01*
X139215000Y-98516750D01*
X139211928Y-99100000D01*
X139224188Y-99224482D01*
X139260498Y-99344180D01*
X139319463Y-99454494D01*
X139398815Y-99551185D01*
X139486322Y-99623000D01*
X134685235Y-99623000D01*
X134225266Y-99043261D01*
X134206701Y-99023303D01*
X134146713Y-98958812D01*
X133412906Y-98284720D01*
X133322109Y-98213600D01*
X132627000Y-97752273D01*
X132627000Y-96600000D01*
X139211928Y-96600000D01*
X139215000Y-97183250D01*
X139373750Y-97342000D01*
X140492000Y-97342000D01*
X140492000Y-96123750D01*
X141508000Y-96123750D01*
X141508000Y-97342000D01*
X142626250Y-97342000D01*
X142785000Y-97183250D01*
X142788072Y-96600000D01*
X142775812Y-96475518D01*
X142739502Y-96355820D01*
X142680537Y-96245506D01*
X142601185Y-96148815D01*
X142504494Y-96069463D01*
X142394180Y-96010498D01*
X142274482Y-95974188D01*
X142150000Y-95961928D01*
X141666750Y-95965000D01*
X141508000Y-96123750D01*
X140492000Y-96123750D01*
X140333250Y-95965000D01*
X139850000Y-95961928D01*
X139725518Y-95974188D01*
X139605820Y-96010498D01*
X139495506Y-96069463D01*
X139398815Y-96148815D01*
X139319463Y-96245506D01*
X139260498Y-96355820D01*
X139224188Y-96475518D01*
X139211928Y-96600000D01*
X132627000Y-96600000D01*
X132627000Y-90841049D01*
X132905457Y-90683963D01*
X133001154Y-90619588D01*
X133781739Y-90000267D01*
X133866187Y-89921714D01*
X134540280Y-89187906D01*
X134571925Y-89147506D01*
X134611401Y-89097109D01*
X135162401Y-88266885D01*
X135218442Y-88166081D01*
X135632783Y-87259883D01*
X135672364Y-87151553D01*
X135672365Y-87151550D01*
X135939844Y-86191693D01*
X135961991Y-86078505D01*
X136076022Y-85088621D01*
X136080191Y-84973362D01*
X136080191Y-84973361D01*
X136037966Y-83977826D01*
X136024053Y-83863334D01*
X136024050Y-83863322D01*
X135826611Y-82886660D01*
X135803751Y-82806560D01*
X135794959Y-82775753D01*
X135447163Y-81841991D01*
X135398550Y-81737402D01*
X134908963Y-80869543D01*
X134908963Y-80869542D01*
X134844588Y-80773846D01*
X134225267Y-79993261D01*
X134146714Y-79908813D01*
X134146713Y-79908812D01*
X133647257Y-79450000D01*
X135161928Y-79450000D01*
X135174188Y-79574482D01*
X135210498Y-79694180D01*
X135269463Y-79804494D01*
X135348815Y-79901185D01*
X135445506Y-79980537D01*
X135555820Y-80039502D01*
X135675518Y-80075812D01*
X135800000Y-80088072D01*
X135933250Y-80085000D01*
X136092000Y-79926250D01*
X136092000Y-78208000D01*
X137108000Y-78208000D01*
X137108000Y-79926250D01*
X137266750Y-80085000D01*
X137389600Y-80087832D01*
X137364466Y-80148510D01*
X137239109Y-80778721D01*
X137239109Y-81421279D01*
X137364466Y-82051490D01*
X137610362Y-82645136D01*
X137967348Y-83179404D01*
X138421705Y-83633761D01*
X138955973Y-83990747D01*
X139549619Y-84236643D01*
X140179830Y-84362000D01*
X140822388Y-84362000D01*
X141452599Y-84236643D01*
X142046245Y-83990747D01*
X142580513Y-83633761D01*
X143034870Y-83179404D01*
X143391856Y-82645136D01*
X143637752Y-82051490D01*
X143763109Y-81421279D01*
X143763109Y-80778721D01*
X143637752Y-80148510D01*
X143391856Y-79554864D01*
X143034870Y-79020596D01*
X142580513Y-78566239D01*
X142046245Y-78209253D01*
X141452599Y-77963357D01*
X140822388Y-77838000D01*
X140179830Y-77838000D01*
X139549619Y-77963357D01*
X138955973Y-78209253D01*
X138421705Y-78566239D01*
X138036658Y-78951286D01*
X138035000Y-78366750D01*
X137876250Y-78208000D01*
X137108000Y-78208000D01*
X136092000Y-78208000D01*
X135323750Y-78208000D01*
X135165000Y-78366750D01*
X135161928Y-79450000D01*
X133647257Y-79450000D01*
X133412906Y-79234720D01*
X133386342Y-79213912D01*
X133322109Y-79163599D01*
X132627000Y-78702272D01*
X132627000Y-75377000D01*
X135524947Y-75377000D01*
X135445506Y-75419463D01*
G37*
X135445506Y-75419463D02*
X135348815Y-75498815D01*
X135269463Y-75595506D01*
X135210498Y-75705820D01*
X135174188Y-75825518D01*
X135161928Y-75950000D01*
X135165000Y-77033250D01*
X135323750Y-77192000D01*
X136092000Y-77192000D01*
X136092000Y-77172000D01*
X137108000Y-77172000D01*
X137108000Y-77192000D01*
X137876250Y-77192000D01*
X138035000Y-77033250D01*
X138038072Y-75950000D01*
X138025812Y-75825518D01*
X137989502Y-75705820D01*
X137930537Y-75595506D01*
X137851185Y-75498815D01*
X137754494Y-75419463D01*
X137675053Y-75377000D01*
X144238000Y-75377000D01*
X144238000Y-89750000D01*
X144252642Y-89898659D01*
X144296004Y-90041605D01*
X144340579Y-90125000D01*
X144296004Y-90208395D01*
X144252642Y-90351341D01*
X144238000Y-90500000D01*
X144238000Y-99623000D01*
X142513678Y-99623000D01*
X142601185Y-99551185D01*
X142680537Y-99454494D01*
X142739502Y-99344180D01*
X142775812Y-99224482D01*
X142788072Y-99100000D01*
X142785000Y-98516750D01*
X142626250Y-98358000D01*
X141508000Y-98358000D01*
X141508000Y-98378000D01*
X140492000Y-98378000D01*
X140492000Y-98358000D01*
X139373750Y-98358000D01*
X139215000Y-98516750D01*
X139211928Y-99100000D01*
X139224188Y-99224482D01*
X139260498Y-99344180D01*
X139319463Y-99454494D01*
X139398815Y-99551185D01*
X139486322Y-99623000D01*
X134685235Y-99623000D01*
X134225266Y-99043261D01*
X134206701Y-99023303D01*
X134146713Y-98958812D01*
X133412906Y-98284720D01*
X133322109Y-98213600D01*
X132627000Y-97752273D01*
X132627000Y-96600000D01*
X139211928Y-96600000D01*
X139215000Y-97183250D01*
X139373750Y-97342000D01*
X140492000Y-97342000D01*
X140492000Y-96123750D01*
X141508000Y-96123750D01*
X141508000Y-97342000D01*
X142626250Y-97342000D01*
X142785000Y-97183250D01*
X142788072Y-96600000D01*
X142775812Y-96475518D01*
X142739502Y-96355820D01*
X142680537Y-96245506D01*
X142601185Y-96148815D01*
X142504494Y-96069463D01*
X142394180Y-96010498D01*
X142274482Y-95974188D01*
X142150000Y-95961928D01*
X141666750Y-95965000D01*
X141508000Y-96123750D01*
X140492000Y-96123750D01*
X140333250Y-95965000D01*
X139850000Y-95961928D01*
X139725518Y-95974188D01*
X139605820Y-96010498D01*
X139495506Y-96069463D01*
X139398815Y-96148815D01*
X139319463Y-96245506D01*
X139260498Y-96355820D01*
X139224188Y-96475518D01*
X139211928Y-96600000D01*
X132627000Y-96600000D01*
X132627000Y-90841049D01*
X132905457Y-90683963D01*
X133001154Y-90619588D01*
X133781739Y-90000267D01*
X133866187Y-89921714D01*
X134540280Y-89187906D01*
X134571925Y-89147506D01*
X134611401Y-89097109D01*
X135162401Y-88266885D01*
X135218442Y-88166081D01*
X135632783Y-87259883D01*
X135672364Y-87151553D01*
X135672365Y-87151550D01*
X135939844Y-86191693D01*
X135961991Y-86078505D01*
X136076022Y-85088621D01*
X136080191Y-84973362D01*
X136080191Y-84973361D01*
X136037966Y-83977826D01*
X136024053Y-83863334D01*
X136024050Y-83863322D01*
X135826611Y-82886660D01*
X135803751Y-82806560D01*
X135794959Y-82775753D01*
X135447163Y-81841991D01*
X135398550Y-81737402D01*
X134908963Y-80869543D01*
X134908963Y-80869542D01*
X134844588Y-80773846D01*
X134225267Y-79993261D01*
X134146714Y-79908813D01*
X134146713Y-79908812D01*
X133647257Y-79450000D01*
X135161928Y-79450000D01*
X135174188Y-79574482D01*
X135210498Y-79694180D01*
X135269463Y-79804494D01*
X135348815Y-79901185D01*
X135445506Y-79980537D01*
X135555820Y-80039502D01*
X135675518Y-80075812D01*
X135800000Y-80088072D01*
X135933250Y-80085000D01*
X136092000Y-79926250D01*
X136092000Y-78208000D01*
X137108000Y-78208000D01*
X137108000Y-79926250D01*
X137266750Y-80085000D01*
X137389600Y-80087832D01*
X137364466Y-80148510D01*
X137239109Y-80778721D01*
X137239109Y-81421279D01*
X137364466Y-82051490D01*
X137610362Y-82645136D01*
X137967348Y-83179404D01*
X138421705Y-83633761D01*
X138955973Y-83990747D01*
X139549619Y-84236643D01*
X140179830Y-84362000D01*
X140822388Y-84362000D01*
X141452599Y-84236643D01*
X142046245Y-83990747D01*
X142580513Y-83633761D01*
X143034870Y-83179404D01*
X143391856Y-82645136D01*
X143637752Y-82051490D01*
X143763109Y-81421279D01*
X143763109Y-80778721D01*
X143637752Y-80148510D01*
X143391856Y-79554864D01*
X143034870Y-79020596D01*
X142580513Y-78566239D01*
X142046245Y-78209253D01*
X141452599Y-77963357D01*
X140822388Y-77838000D01*
X140179830Y-77838000D01*
X139549619Y-77963357D01*
X138955973Y-78209253D01*
X138421705Y-78566239D01*
X138036658Y-78951286D01*
X138035000Y-78366750D01*
X137876250Y-78208000D01*
X137108000Y-78208000D01*
X136092000Y-78208000D01*
X135323750Y-78208000D01*
X135165000Y-78366750D01*
X135161928Y-79450000D01*
X133647257Y-79450000D01*
X133412906Y-79234720D01*
X133386342Y-79213912D01*
X133322109Y-79163599D01*
X132627000Y-78702272D01*
X132627000Y-75377000D01*
X135524947Y-75377000D01*
X135445506Y-75419463D01*
G36*
X144373000Y-72468637D02*
G01*
X144366420Y-72476655D01*
X144296004Y-72608395D01*
X144252642Y-72751341D01*
X144238000Y-72900000D01*
X144238000Y-74488000D01*
X137400731Y-74488000D01*
X137524482Y-74475812D01*
X137644180Y-74439502D01*
X137754494Y-74380537D01*
X137851185Y-74301185D01*
X137930537Y-74204494D01*
X137989502Y-74094180D01*
X138025812Y-73974482D01*
X138038072Y-73850000D01*
X138035000Y-72766750D01*
X137876250Y-72608000D01*
X137108000Y-72608000D01*
X137108000Y-74326250D01*
X137266750Y-74485000D01*
X137396877Y-74488000D01*
X135803123Y-74488000D01*
X135933250Y-74485000D01*
X136092000Y-74326250D01*
X136092000Y-72608000D01*
X135323750Y-72608000D01*
X135165000Y-72766750D01*
X135161928Y-73850000D01*
X135174188Y-73974482D01*
X135210498Y-74094180D01*
X135269463Y-74204494D01*
X135348815Y-74301185D01*
X135445506Y-74380537D01*
X135555820Y-74439502D01*
X135675518Y-74475812D01*
X135799269Y-74488000D01*
X132500000Y-74488000D01*
X132351341Y-74502642D01*
X132208395Y-74546004D01*
X132076655Y-74616420D01*
X131961185Y-74711185D01*
X131866420Y-74826655D01*
X131796004Y-74958395D01*
X131752642Y-75101341D01*
X131738000Y-75250000D01*
X131738000Y-78257950D01*
X131484883Y-78142217D01*
X131376553Y-78102636D01*
X131376550Y-78102635D01*
X130416705Y-77835160D01*
X130416693Y-77835156D01*
X130303505Y-77813009D01*
X129313621Y-77698978D01*
X129198362Y-77694809D01*
X129198361Y-77694809D01*
X128202826Y-77737034D01*
X128088334Y-77750947D01*
X128088322Y-77750950D01*
X127111662Y-77948389D01*
X127111659Y-77948389D01*
X127000753Y-77980041D01*
X126066991Y-78327837D01*
X125962402Y-78376450D01*
X125094548Y-78866034D01*
X125094542Y-78866037D01*
X124998846Y-78930412D01*
X124218261Y-79549733D01*
X124218260Y-79549734D01*
X124133812Y-79628287D01*
X123459721Y-80362093D01*
X123459719Y-80362095D01*
X123388599Y-80452891D01*
X122858196Y-81252080D01*
X122835913Y-81279232D01*
X122767663Y-81406919D01*
X122725635Y-81545467D01*
X122715000Y-81653447D01*
X122715001Y-87896555D01*
X122725636Y-88004535D01*
X122767664Y-88143083D01*
X122835914Y-88270770D01*
X122849743Y-88287620D01*
X123104508Y-88703359D01*
X123130620Y-88739300D01*
X123155412Y-88776154D01*
X123774732Y-89556738D01*
X123774733Y-89556739D01*
X123853286Y-89641187D01*
X124587093Y-90315279D01*
X124587095Y-90315281D01*
X124677891Y-90386401D01*
X125508115Y-90937401D01*
X125608919Y-90993442D01*
X126515117Y-91407783D01*
X126623447Y-91447364D01*
X126623450Y-91447365D01*
X127583307Y-91714844D01*
X127696495Y-91736991D01*
X128686379Y-91851022D01*
X128801638Y-91855191D01*
X128801639Y-91855191D01*
X129797173Y-91812966D01*
X129797174Y-91812966D01*
X129818939Y-91810321D01*
X129911666Y-91799053D01*
X129911678Y-91799050D01*
X130888340Y-91601612D01*
X130978577Y-91575858D01*
X130999247Y-91569959D01*
X131738000Y-91294797D01*
X131738000Y-97307951D01*
X131484883Y-97192218D01*
X131376553Y-97152637D01*
X131376550Y-97152636D01*
X130416705Y-96885161D01*
X130416693Y-96885157D01*
X130303505Y-96863010D01*
X129313621Y-96748979D01*
X129198362Y-96744810D01*
X129198361Y-96744810D01*
X128202826Y-96787035D01*
X128088334Y-96800948D01*
X128088322Y-96800951D01*
X127111663Y-96998390D01*
X127111660Y-96998390D01*
X127000754Y-97030042D01*
X126066992Y-97377838D01*
X125962403Y-97426451D01*
X125094546Y-97916036D01*
X125094544Y-97916037D01*
X124998847Y-97980412D01*
X124218264Y-98599732D01*
X124218261Y-98599734D01*
X124133812Y-98678287D01*
X123459720Y-99412094D01*
X123415189Y-99468946D01*
X123388600Y-99502891D01*
X122858201Y-100302074D01*
X122835914Y-100329231D01*
X122767664Y-100456918D01*
X122725636Y-100595466D01*
X122715001Y-100703446D01*
X122715002Y-106946554D01*
X122725637Y-107054534D01*
X122767665Y-107193082D01*
X122835915Y-107320769D01*
X122849740Y-107337615D01*
X123104508Y-107753358D01*
X123130620Y-107789299D01*
X123155412Y-107826153D01*
X123774734Y-108606739D01*
X123853287Y-108691188D01*
X124587094Y-109365280D01*
X124667429Y-109428205D01*
X124677891Y-109436400D01*
X125508115Y-109987400D01*
X125608919Y-110043441D01*
X126515117Y-110457782D01*
X126623447Y-110497363D01*
X126623450Y-110497364D01*
X127583307Y-110764843D01*
X127696495Y-110786990D01*
X128686379Y-110901021D01*
X128801638Y-110905190D01*
X128801639Y-110905190D01*
X129797173Y-110862965D01*
X129797174Y-110862965D01*
X129809579Y-110861457D01*
X129911666Y-110849052D01*
X129911678Y-110849049D01*
X130888337Y-110651610D01*
X130888340Y-110651610D01*
X130999246Y-110619958D01*
X131933004Y-110272163D01*
X131933008Y-110272162D01*
X132037597Y-110223549D01*
X132533599Y-109943739D01*
X138775790Y-109943739D01*
X139084701Y-110313779D01*
X139660858Y-110536041D01*
X140269305Y-110641629D01*
X140886661Y-110626486D01*
X141489200Y-110491194D01*
X141917517Y-110313779D01*
X142226428Y-109943739D01*
X140501109Y-108218420D01*
X138775790Y-109943739D01*
X132533599Y-109943739D01*
X132905455Y-109733964D01*
X133001152Y-109669589D01*
X133001154Y-109669588D01*
X133781739Y-109050266D01*
X133866188Y-108971713D01*
X134540280Y-108237906D01*
X134611400Y-108147109D01*
X135162400Y-107316885D01*
X135189468Y-107268196D01*
X137359480Y-107268196D01*
X137374623Y-107885552D01*
X137509915Y-108488091D01*
X137687330Y-108916408D01*
X138057370Y-109225319D01*
X139782689Y-107500000D01*
X141219529Y-107500000D01*
X142944848Y-109225319D01*
X143314888Y-108916408D01*
X143537150Y-108340251D01*
X143642738Y-107731804D01*
X143627595Y-107114448D01*
X143492303Y-106511909D01*
X143314888Y-106083592D01*
X142944848Y-105774681D01*
X141219529Y-107500000D01*
X139782689Y-107500000D01*
X138057370Y-105774681D01*
X137687330Y-106083592D01*
X137465068Y-106659749D01*
X137359480Y-107268196D01*
X135189468Y-107268196D01*
X135218441Y-107216081D01*
X135632782Y-106309883D01*
X135672363Y-106201553D01*
X135672364Y-106201550D01*
X135939843Y-105241693D01*
X135961990Y-105128505D01*
X135970312Y-105056261D01*
X138775790Y-105056261D01*
X140501109Y-106781580D01*
X142226428Y-105056261D01*
X141917517Y-104686221D01*
X141341360Y-104463959D01*
X140732913Y-104358371D01*
X140115557Y-104373514D01*
X139513018Y-104508806D01*
X139084701Y-104686221D01*
X138775790Y-105056261D01*
X135970312Y-105056261D01*
X136076021Y-104138621D01*
X136080190Y-104023362D01*
X136080190Y-104023361D01*
X136053751Y-103400000D01*
X139211928Y-103400000D01*
X139224188Y-103524482D01*
X139260498Y-103644180D01*
X139319463Y-103754494D01*
X139398815Y-103851185D01*
X139495506Y-103930537D01*
X139605820Y-103989502D01*
X139725518Y-104025812D01*
X139850000Y-104038072D01*
X140333250Y-104035000D01*
X140492000Y-103876250D01*
X140492000Y-102658000D01*
X141508000Y-102658000D01*
X141508000Y-103876250D01*
X141666750Y-104035000D01*
X142150000Y-104038072D01*
X142274482Y-104025812D01*
X142394180Y-103989502D01*
X142504494Y-103930537D01*
X142601185Y-103851185D01*
X142680537Y-103754494D01*
X142739502Y-103644180D01*
X142775812Y-103524482D01*
X142788072Y-103400000D01*
X142785000Y-102816750D01*
X142626250Y-102658000D01*
X141508000Y-102658000D01*
X140492000Y-102658000D01*
X139373750Y-102658000D01*
X139215000Y-102816750D01*
X139211928Y-103400000D01*
X136053751Y-103400000D01*
X136037965Y-103027826D01*
X136024052Y-102913334D01*
X136024049Y-102913322D01*
X135826610Y-101936661D01*
X135794958Y-101825755D01*
X135794958Y-101825754D01*
X135447162Y-100891992D01*
X135398549Y-100787403D01*
X135243186Y-100512000D01*
X139346961Y-100512000D01*
X139319463Y-100545506D01*
X139260498Y-100655820D01*
X139224188Y-100775518D01*
X139211928Y-100900000D01*
X139215000Y-101483250D01*
X139373750Y-101642000D01*
X140492000Y-101642000D01*
X140492000Y-101622000D01*
X141508000Y-101622000D01*
X141508000Y-101642000D01*
X142626250Y-101642000D01*
X142785000Y-101483250D01*
X142788072Y-100900000D01*
X142775812Y-100775518D01*
X142739502Y-100655820D01*
X142680537Y-100545506D01*
X142653039Y-100512000D01*
X144238000Y-100512000D01*
X144238000Y-105000000D01*
X144252642Y-105148659D01*
X144272354Y-105213642D01*
X144263355Y-105224608D01*
X144192598Y-105356985D01*
X144149026Y-105500622D01*
X144134314Y-105650000D01*
X144134314Y-108150000D01*
X144149026Y-108299378D01*
X144192598Y-108443015D01*
X144263355Y-108575392D01*
X144358578Y-108691422D01*
X144373000Y-108703258D01*
X144373000Y-109096742D01*
X144358578Y-109108578D01*
X144263355Y-109224608D01*
X144192598Y-109356985D01*
X144149026Y-109500622D01*
X144134314Y-109650000D01*
X144134314Y-112150000D01*
X144149026Y-112299378D01*
X144192598Y-112443015D01*
X144263355Y-112575392D01*
X144358578Y-112691422D01*
X144373000Y-112703258D01*
X144373000Y-112937489D01*
X144324608Y-112963355D01*
X144208578Y-113058578D01*
X144113355Y-113174608D01*
X144042598Y-113306985D01*
X143999026Y-113450622D01*
X143984314Y-113600000D01*
X143984314Y-115400000D01*
X143999026Y-115549378D01*
X144042598Y-115693015D01*
X144113355Y-115825392D01*
X144208578Y-115941422D01*
X144324608Y-116036645D01*
X144373000Y-116062511D01*
X144373000Y-116200000D01*
X144375440Y-116224776D01*
X144382667Y-116248601D01*
X144394403Y-116270557D01*
X144410197Y-116289803D01*
X144429443Y-116305597D01*
X144451399Y-116317333D01*
X144475224Y-116324560D01*
X144500000Y-116327000D01*
X155800000Y-116327000D01*
X155824776Y-116324560D01*
X155848601Y-116317333D01*
X155870557Y-116305597D01*
X155889803Y-116289803D01*
X156788790Y-115390816D01*
X171408000Y-115390816D01*
X171408000Y-115849185D01*
X171431325Y-116086007D01*
X171523501Y-116389870D01*
X171673186Y-116669912D01*
X171874629Y-116915371D01*
X172120089Y-117116814D01*
X172400131Y-117266499D01*
X172703994Y-117358675D01*
X173020000Y-117389799D01*
X173336007Y-117358675D01*
X173639870Y-117266499D01*
X173919912Y-117116814D01*
X174165371Y-116915371D01*
X174366814Y-116669912D01*
X174516499Y-116389869D01*
X174608675Y-116086006D01*
X174632000Y-115849184D01*
X174632000Y-115390816D01*
X176488000Y-115390816D01*
X176488000Y-115849185D01*
X176511325Y-116086007D01*
X176603501Y-116389870D01*
X176753186Y-116669912D01*
X176954629Y-116915371D01*
X177200089Y-117116814D01*
X177480131Y-117266499D01*
X177783994Y-117358675D01*
X178100000Y-117389799D01*
X178416007Y-117358675D01*
X178719870Y-117266499D01*
X178999912Y-117116814D01*
X179245371Y-116915371D01*
X179446814Y-116669912D01*
X179596499Y-116389869D01*
X179688675Y-116086006D01*
X179712000Y-115849184D01*
X179712000Y-115757639D01*
X192063076Y-115757639D01*
X192206573Y-116499313D01*
X192492007Y-117198742D01*
X192511020Y-117234315D01*
X192952979Y-117628600D01*
X195181580Y-115400000D01*
X192952979Y-113171400D01*
X192511020Y-113565685D01*
X192218282Y-114262088D01*
X192067029Y-115002221D01*
X192063076Y-115757639D01*
X179712000Y-115757639D01*
X179712000Y-115390815D01*
X179688675Y-115153993D01*
X179596499Y-114850130D01*
X179446814Y-114570088D01*
X179245371Y-114324629D01*
X178999911Y-114123186D01*
X178719869Y-113973501D01*
X178416006Y-113881325D01*
X178100000Y-113850201D01*
X177783993Y-113881325D01*
X177480130Y-113973501D01*
X177200088Y-114123186D01*
X176954629Y-114324629D01*
X176753186Y-114570089D01*
X176603501Y-114850131D01*
X176511325Y-115153994D01*
X176488000Y-115390816D01*
X174632000Y-115390816D01*
X174632000Y-115390815D01*
X174608675Y-115153993D01*
X174516499Y-114850130D01*
X174366814Y-114570088D01*
X174165371Y-114324629D01*
X173919911Y-114123186D01*
X173639869Y-113973501D01*
X173336006Y-113881325D01*
X173020000Y-113850201D01*
X172703993Y-113881325D01*
X172400130Y-113973501D01*
X172120088Y-114123186D01*
X171874629Y-114324629D01*
X171673186Y-114570089D01*
X171523501Y-114850131D01*
X171431325Y-115153994D01*
X171408000Y-115390816D01*
X156788790Y-115390816D01*
X157852606Y-114327000D01*
X169400000Y-114327000D01*
X169424776Y-114324560D01*
X169448601Y-114317333D01*
X169470557Y-114305597D01*
X169489803Y-114289803D01*
X171326627Y-112452979D01*
X193671400Y-112452979D01*
X195900000Y-114681580D01*
X198128600Y-112452979D01*
X197734315Y-112011020D01*
X197037912Y-111718282D01*
X196297779Y-111567029D01*
X195542361Y-111563076D01*
X194800687Y-111706573D01*
X194101258Y-111992007D01*
X194065685Y-112011020D01*
X193671400Y-112452979D01*
X171326627Y-112452979D01*
X172652606Y-111127000D01*
X181200000Y-111127000D01*
X181224776Y-111124560D01*
X181248601Y-111117333D01*
X181270557Y-111105597D01*
X181289803Y-111089803D01*
X181305597Y-111070557D01*
X181317333Y-111048601D01*
X181324560Y-111024776D01*
X181327000Y-111000000D01*
X181327000Y-106927000D01*
X185037781Y-106927000D01*
X185491036Y-107730456D01*
X185555411Y-107826153D01*
X186174732Y-108606739D01*
X186253285Y-108691187D01*
X186987093Y-109365280D01*
X186987094Y-109365281D01*
X187077890Y-109436401D01*
X187908114Y-109987401D01*
X188008918Y-110043442D01*
X188915116Y-110457783D01*
X189023446Y-110497364D01*
X189023449Y-110497365D01*
X189983306Y-110764844D01*
X190096494Y-110786991D01*
X191086378Y-110901022D01*
X191201637Y-110905191D01*
X191201638Y-110905191D01*
X192197173Y-110862966D01*
X192197174Y-110862966D01*
X192209579Y-110861458D01*
X192311666Y-110849053D01*
X192311678Y-110849050D01*
X193288339Y-110651611D01*
X193399245Y-110619959D01*
X194333004Y-110272165D01*
X194333008Y-110272164D01*
X194414441Y-110234314D01*
X194437596Y-110223552D01*
X194437600Y-110223549D01*
X195305456Y-109733964D01*
X195401153Y-109669589D01*
X195401154Y-109669588D01*
X196181739Y-109050268D01*
X196266187Y-108971715D01*
X196266189Y-108971713D01*
X196940280Y-108237907D01*
X196971926Y-108197506D01*
X197011401Y-108147110D01*
X197541804Y-107347921D01*
X197564087Y-107320769D01*
X197632337Y-107193082D01*
X197674365Y-107054534D01*
X197685000Y-106946554D01*
X197685000Y-106927000D01*
X199665001Y-106927000D01*
X199665001Y-114670622D01*
X199593427Y-114300687D01*
X199307993Y-113601258D01*
X199288980Y-113565685D01*
X198847021Y-113171400D01*
X196618420Y-115400000D01*
X198847021Y-117628600D01*
X199288980Y-117234315D01*
X199581718Y-116537912D01*
X199665001Y-116130380D01*
X199665001Y-117964043D01*
X199637451Y-118245021D01*
X199566291Y-118480712D01*
X199450711Y-118698088D01*
X199295104Y-118888879D01*
X199105408Y-119045811D01*
X198888843Y-119162906D01*
X198653656Y-119235709D01*
X198374972Y-119265000D01*
X122035947Y-119265000D01*
X121754979Y-119237451D01*
X121519288Y-119166291D01*
X121301912Y-119050711D01*
X121111121Y-118895104D01*
X120954189Y-118705408D01*
X120837094Y-118488843D01*
X120793193Y-118347021D01*
X122271400Y-118347021D01*
X122665685Y-118788980D01*
X123362088Y-119081718D01*
X124102221Y-119232971D01*
X124857639Y-119236924D01*
X125599313Y-119093427D01*
X126298742Y-118807993D01*
X126334315Y-118788980D01*
X126728600Y-118347021D01*
X193671400Y-118347021D01*
X194065685Y-118788980D01*
X194762088Y-119081718D01*
X195502221Y-119232971D01*
X196257639Y-119236924D01*
X196999313Y-119093427D01*
X197698742Y-118807993D01*
X197734315Y-118788980D01*
X198128600Y-118347021D01*
X195900000Y-116118420D01*
X193671400Y-118347021D01*
X126728600Y-118347021D01*
X124500000Y-116118420D01*
X122271400Y-118347021D01*
X120793193Y-118347021D01*
X120764291Y-118253656D01*
X120735000Y-117974972D01*
X120735000Y-116129383D01*
X120806573Y-116499313D01*
X121092007Y-117198742D01*
X121111020Y-117234315D01*
X121552979Y-117628600D01*
X123781580Y-115400000D01*
X125218420Y-115400000D01*
X127447021Y-117628600D01*
X127888980Y-117234315D01*
X128181718Y-116537912D01*
X128332971Y-115797779D01*
X128335052Y-115400000D01*
X140111928Y-115400000D01*
X140124188Y-115524482D01*
X140160498Y-115644180D01*
X140219463Y-115754494D01*
X140298815Y-115851185D01*
X140395506Y-115930537D01*
X140505820Y-115989502D01*
X140625518Y-116025812D01*
X140750000Y-116038072D01*
X141333250Y-116035000D01*
X141492000Y-115876250D01*
X141492000Y-115008000D01*
X142508000Y-115008000D01*
X142508000Y-115876250D01*
X142666750Y-116035000D01*
X143250000Y-116038072D01*
X143374482Y-116025812D01*
X143494180Y-115989502D01*
X143604494Y-115930537D01*
X143701185Y-115851185D01*
X143780537Y-115754494D01*
X143839502Y-115644180D01*
X143875812Y-115524482D01*
X143888072Y-115400000D01*
X143885000Y-115166750D01*
X143726250Y-115008000D01*
X142508000Y-115008000D01*
X141492000Y-115008000D01*
X140273750Y-115008000D01*
X140115000Y-115166750D01*
X140111928Y-115400000D01*
X128335052Y-115400000D01*
X128336924Y-115042361D01*
X128193427Y-114300687D01*
X127907993Y-113601258D01*
X127907321Y-113600000D01*
X140111928Y-113600000D01*
X140115000Y-113833250D01*
X140273750Y-113992000D01*
X141492000Y-113992000D01*
X141492000Y-113123750D01*
X142508000Y-113123750D01*
X142508000Y-113992000D01*
X143726250Y-113992000D01*
X143885000Y-113833250D01*
X143888072Y-113600000D01*
X143875812Y-113475518D01*
X143839502Y-113355820D01*
X143780537Y-113245506D01*
X143701185Y-113148815D01*
X143604494Y-113069463D01*
X143494180Y-113010498D01*
X143374482Y-112974188D01*
X143250000Y-112961928D01*
X142666750Y-112965000D01*
X142508000Y-113123750D01*
X141492000Y-113123750D01*
X141333250Y-112965000D01*
X140750000Y-112961928D01*
X140625518Y-112974188D01*
X140505820Y-113010498D01*
X140395506Y-113069463D01*
X140298815Y-113148815D01*
X140219463Y-113245506D01*
X140160498Y-113355820D01*
X140124188Y-113475518D01*
X140111928Y-113600000D01*
X127907321Y-113600000D01*
X127888980Y-113565685D01*
X127447021Y-113171400D01*
X125218420Y-115400000D01*
X123781580Y-115400000D01*
X121552979Y-113171400D01*
X121111020Y-113565685D01*
X120818282Y-114262088D01*
X120735000Y-114669615D01*
X120735000Y-112452979D01*
X122271400Y-112452979D01*
X124500000Y-114681580D01*
X126728600Y-112452979D01*
X126334315Y-112011020D01*
X125637912Y-111718282D01*
X124897779Y-111567029D01*
X124142361Y-111563076D01*
X123400687Y-111706573D01*
X122701258Y-111992007D01*
X122665685Y-112011020D01*
X122271400Y-112452979D01*
X120735000Y-112452979D01*
X120735000Y-76147021D01*
X122271400Y-76147021D01*
X122665685Y-76588980D01*
X123362088Y-76881718D01*
X124102221Y-77032971D01*
X124857639Y-77036924D01*
X125599313Y-76893427D01*
X126298742Y-76607993D01*
X126334315Y-76588980D01*
X126728600Y-76147021D01*
X124500000Y-73918420D01*
X122271400Y-76147021D01*
X120735000Y-76147021D01*
X120735000Y-73929383D01*
X120806573Y-74299313D01*
X121092007Y-74998742D01*
X121111020Y-75034315D01*
X121552979Y-75428600D01*
X123781580Y-73200000D01*
X125218420Y-73200000D01*
X127447021Y-75428600D01*
X127888980Y-75034315D01*
X128181718Y-74337912D01*
X128332971Y-73597779D01*
X128336924Y-72842361D01*
X128193427Y-72100687D01*
X127907993Y-71401258D01*
X127888980Y-71365685D01*
X127447021Y-70971400D01*
X125218420Y-73200000D01*
X123781580Y-73200000D01*
X121552979Y-70971400D01*
X121111020Y-71365685D01*
X120818282Y-72062088D01*
X120735000Y-72469615D01*
X120735000Y-70635947D01*
X120762549Y-70354979D01*
X120793344Y-70252979D01*
X122271400Y-70252979D01*
X124500000Y-72481580D01*
X126631579Y-70350000D01*
X135161928Y-70350000D01*
X135165000Y-71433250D01*
X135323750Y-71592000D01*
X136092000Y-71592000D01*
X136092000Y-69873750D01*
X137108000Y-69873750D01*
X137108000Y-71592000D01*
X137876250Y-71592000D01*
X138035000Y-71433250D01*
X138038072Y-70350000D01*
X138025812Y-70225518D01*
X137989502Y-70105820D01*
X137930537Y-69995506D01*
X137851185Y-69898815D01*
X137754494Y-69819463D01*
X137644180Y-69760498D01*
X137524482Y-69724188D01*
X137400000Y-69711928D01*
X137266750Y-69715000D01*
X137108000Y-69873750D01*
X136092000Y-69873750D01*
X135933250Y-69715000D01*
X135800000Y-69711928D01*
X135675518Y-69724188D01*
X135555820Y-69760498D01*
X135445506Y-69819463D01*
X135348815Y-69898815D01*
X135269463Y-69995506D01*
X135210498Y-70105820D01*
X135174188Y-70225518D01*
X135161928Y-70350000D01*
X126631579Y-70350000D01*
X126728600Y-70252979D01*
X126334315Y-69811020D01*
X125637912Y-69518282D01*
X124897779Y-69367029D01*
X124142361Y-69363076D01*
X123400687Y-69506573D01*
X122701258Y-69792007D01*
X122665685Y-69811020D01*
X122271400Y-70252979D01*
X120793344Y-70252979D01*
X120833708Y-70119288D01*
X120949291Y-69901911D01*
X121104895Y-69711121D01*
X121294593Y-69554189D01*
X121511157Y-69437094D01*
X121746344Y-69364291D01*
X122025028Y-69335000D01*
X144373000Y-69335000D01*
X144373000Y-72468637D01*
G37*
X144373000Y-72468637D02*
X144366420Y-72476655D01*
X144296004Y-72608395D01*
X144252642Y-72751341D01*
X144238000Y-72900000D01*
X144238000Y-74488000D01*
X137400731Y-74488000D01*
X137524482Y-74475812D01*
X137644180Y-74439502D01*
X137754494Y-74380537D01*
X137851185Y-74301185D01*
X137930537Y-74204494D01*
X137989502Y-74094180D01*
X138025812Y-73974482D01*
X138038072Y-73850000D01*
X138035000Y-72766750D01*
X137876250Y-72608000D01*
X137108000Y-72608000D01*
X137108000Y-74326250D01*
X137266750Y-74485000D01*
X137396877Y-74488000D01*
X135803123Y-74488000D01*
X135933250Y-74485000D01*
X136092000Y-74326250D01*
X136092000Y-72608000D01*
X135323750Y-72608000D01*
X135165000Y-72766750D01*
X135161928Y-73850000D01*
X135174188Y-73974482D01*
X135210498Y-74094180D01*
X135269463Y-74204494D01*
X135348815Y-74301185D01*
X135445506Y-74380537D01*
X135555820Y-74439502D01*
X135675518Y-74475812D01*
X135799269Y-74488000D01*
X132500000Y-74488000D01*
X132351341Y-74502642D01*
X132208395Y-74546004D01*
X132076655Y-74616420D01*
X131961185Y-74711185D01*
X131866420Y-74826655D01*
X131796004Y-74958395D01*
X131752642Y-75101341D01*
X131738000Y-75250000D01*
X131738000Y-78257950D01*
X131484883Y-78142217D01*
X131376553Y-78102636D01*
X131376550Y-78102635D01*
X130416705Y-77835160D01*
X130416693Y-77835156D01*
X130303505Y-77813009D01*
X129313621Y-77698978D01*
X129198362Y-77694809D01*
X129198361Y-77694809D01*
X128202826Y-77737034D01*
X128088334Y-77750947D01*
X128088322Y-77750950D01*
X127111662Y-77948389D01*
X127111659Y-77948389D01*
X127000753Y-77980041D01*
X126066991Y-78327837D01*
X125962402Y-78376450D01*
X125094548Y-78866034D01*
X125094542Y-78866037D01*
X124998846Y-78930412D01*
X124218261Y-79549733D01*
X124218260Y-79549734D01*
X124133812Y-79628287D01*
X123459721Y-80362093D01*
X123459719Y-80362095D01*
X123388599Y-80452891D01*
X122858196Y-81252080D01*
X122835913Y-81279232D01*
X122767663Y-81406919D01*
X122725635Y-81545467D01*
X122715000Y-81653447D01*
X122715001Y-87896555D01*
X122725636Y-88004535D01*
X122767664Y-88143083D01*
X122835914Y-88270770D01*
X122849743Y-88287620D01*
X123104508Y-88703359D01*
X123130620Y-88739300D01*
X123155412Y-88776154D01*
X123774732Y-89556738D01*
X123774733Y-89556739D01*
X123853286Y-89641187D01*
X124587093Y-90315279D01*
X124587095Y-90315281D01*
X124677891Y-90386401D01*
X125508115Y-90937401D01*
X125608919Y-90993442D01*
X126515117Y-91407783D01*
X126623447Y-91447364D01*
X126623450Y-91447365D01*
X127583307Y-91714844D01*
X127696495Y-91736991D01*
X128686379Y-91851022D01*
X128801638Y-91855191D01*
X128801639Y-91855191D01*
X129797173Y-91812966D01*
X129797174Y-91812966D01*
X129818939Y-91810321D01*
X129911666Y-91799053D01*
X129911678Y-91799050D01*
X130888340Y-91601612D01*
X130978577Y-91575858D01*
X130999247Y-91569959D01*
X131738000Y-91294797D01*
X131738000Y-97307951D01*
X131484883Y-97192218D01*
X131376553Y-97152637D01*
X131376550Y-97152636D01*
X130416705Y-96885161D01*
X130416693Y-96885157D01*
X130303505Y-96863010D01*
X129313621Y-96748979D01*
X129198362Y-96744810D01*
X129198361Y-96744810D01*
X128202826Y-96787035D01*
X128088334Y-96800948D01*
X128088322Y-96800951D01*
X127111663Y-96998390D01*
X127111660Y-96998390D01*
X127000754Y-97030042D01*
X126066992Y-97377838D01*
X125962403Y-97426451D01*
X125094546Y-97916036D01*
X125094544Y-97916037D01*
X124998847Y-97980412D01*
X124218264Y-98599732D01*
X124218261Y-98599734D01*
X124133812Y-98678287D01*
X123459720Y-99412094D01*
X123415189Y-99468946D01*
X123388600Y-99502891D01*
X122858201Y-100302074D01*
X122835914Y-100329231D01*
X122767664Y-100456918D01*
X122725636Y-100595466D01*
X122715001Y-100703446D01*
X122715002Y-106946554D01*
X122725637Y-107054534D01*
X122767665Y-107193082D01*
X122835915Y-107320769D01*
X122849740Y-107337615D01*
X123104508Y-107753358D01*
X123130620Y-107789299D01*
X123155412Y-107826153D01*
X123774734Y-108606739D01*
X123853287Y-108691188D01*
X124587094Y-109365280D01*
X124667429Y-109428205D01*
X124677891Y-109436400D01*
X125508115Y-109987400D01*
X125608919Y-110043441D01*
X126515117Y-110457782D01*
X126623447Y-110497363D01*
X126623450Y-110497364D01*
X127583307Y-110764843D01*
X127696495Y-110786990D01*
X128686379Y-110901021D01*
X128801638Y-110905190D01*
X128801639Y-110905190D01*
X129797173Y-110862965D01*
X129797174Y-110862965D01*
X129809579Y-110861457D01*
X129911666Y-110849052D01*
X129911678Y-110849049D01*
X130888337Y-110651610D01*
X130888340Y-110651610D01*
X130999246Y-110619958D01*
X131933004Y-110272163D01*
X131933008Y-110272162D01*
X132037597Y-110223549D01*
X132533599Y-109943739D01*
X138775790Y-109943739D01*
X139084701Y-110313779D01*
X139660858Y-110536041D01*
X140269305Y-110641629D01*
X140886661Y-110626486D01*
X141489200Y-110491194D01*
X141917517Y-110313779D01*
X142226428Y-109943739D01*
X140501109Y-108218420D01*
X138775790Y-109943739D01*
X132533599Y-109943739D01*
X132905455Y-109733964D01*
X133001152Y-109669589D01*
X133001154Y-109669588D01*
X133781739Y-109050266D01*
X133866188Y-108971713D01*
X134540280Y-108237906D01*
X134611400Y-108147109D01*
X135162400Y-107316885D01*
X135189468Y-107268196D01*
X137359480Y-107268196D01*
X137374623Y-107885552D01*
X137509915Y-108488091D01*
X137687330Y-108916408D01*
X138057370Y-109225319D01*
X139782689Y-107500000D01*
X141219529Y-107500000D01*
X142944848Y-109225319D01*
X143314888Y-108916408D01*
X143537150Y-108340251D01*
X143642738Y-107731804D01*
X143627595Y-107114448D01*
X143492303Y-106511909D01*
X143314888Y-106083592D01*
X142944848Y-105774681D01*
X141219529Y-107500000D01*
X139782689Y-107500000D01*
X138057370Y-105774681D01*
X137687330Y-106083592D01*
X137465068Y-106659749D01*
X137359480Y-107268196D01*
X135189468Y-107268196D01*
X135218441Y-107216081D01*
X135632782Y-106309883D01*
X135672363Y-106201553D01*
X135672364Y-106201550D01*
X135939843Y-105241693D01*
X135961990Y-105128505D01*
X135970312Y-105056261D01*
X138775790Y-105056261D01*
X140501109Y-106781580D01*
X142226428Y-105056261D01*
X141917517Y-104686221D01*
X141341360Y-104463959D01*
X140732913Y-104358371D01*
X140115557Y-104373514D01*
X139513018Y-104508806D01*
X139084701Y-104686221D01*
X138775790Y-105056261D01*
X135970312Y-105056261D01*
X136076021Y-104138621D01*
X136080190Y-104023362D01*
X136080190Y-104023361D01*
X136053751Y-103400000D01*
X139211928Y-103400000D01*
X139224188Y-103524482D01*
X139260498Y-103644180D01*
X139319463Y-103754494D01*
X139398815Y-103851185D01*
X139495506Y-103930537D01*
X139605820Y-103989502D01*
X139725518Y-104025812D01*
X139850000Y-104038072D01*
X140333250Y-104035000D01*
X140492000Y-103876250D01*
X140492000Y-102658000D01*
X141508000Y-102658000D01*
X141508000Y-103876250D01*
X141666750Y-104035000D01*
X142150000Y-104038072D01*
X142274482Y-104025812D01*
X142394180Y-103989502D01*
X142504494Y-103930537D01*
X142601185Y-103851185D01*
X142680537Y-103754494D01*
X142739502Y-103644180D01*
X142775812Y-103524482D01*
X142788072Y-103400000D01*
X142785000Y-102816750D01*
X142626250Y-102658000D01*
X141508000Y-102658000D01*
X140492000Y-102658000D01*
X139373750Y-102658000D01*
X139215000Y-102816750D01*
X139211928Y-103400000D01*
X136053751Y-103400000D01*
X136037965Y-103027826D01*
X136024052Y-102913334D01*
X136024049Y-102913322D01*
X135826610Y-101936661D01*
X135794958Y-101825755D01*
X135794958Y-101825754D01*
X135447162Y-100891992D01*
X135398549Y-100787403D01*
X135243186Y-100512000D01*
X139346961Y-100512000D01*
X139319463Y-100545506D01*
X139260498Y-100655820D01*
X139224188Y-100775518D01*
X139211928Y-100900000D01*
X139215000Y-101483250D01*
X139373750Y-101642000D01*
X140492000Y-101642000D01*
X140492000Y-101622000D01*
X141508000Y-101622000D01*
X141508000Y-101642000D01*
X142626250Y-101642000D01*
X142785000Y-101483250D01*
X142788072Y-100900000D01*
X142775812Y-100775518D01*
X142739502Y-100655820D01*
X142680537Y-100545506D01*
X142653039Y-100512000D01*
X144238000Y-100512000D01*
X144238000Y-105000000D01*
X144252642Y-105148659D01*
X144272354Y-105213642D01*
X144263355Y-105224608D01*
X144192598Y-105356985D01*
X144149026Y-105500622D01*
X144134314Y-105650000D01*
X144134314Y-108150000D01*
X144149026Y-108299378D01*
X144192598Y-108443015D01*
X144263355Y-108575392D01*
X144358578Y-108691422D01*
X144373000Y-108703258D01*
X144373000Y-109096742D01*
X144358578Y-109108578D01*
X144263355Y-109224608D01*
X144192598Y-109356985D01*
X144149026Y-109500622D01*
X144134314Y-109650000D01*
X144134314Y-112150000D01*
X144149026Y-112299378D01*
X144192598Y-112443015D01*
X144263355Y-112575392D01*
X144358578Y-112691422D01*
X144373000Y-112703258D01*
X144373000Y-112937489D01*
X144324608Y-112963355D01*
X144208578Y-113058578D01*
X144113355Y-113174608D01*
X144042598Y-113306985D01*
X143999026Y-113450622D01*
X143984314Y-113600000D01*
X143984314Y-115400000D01*
X143999026Y-115549378D01*
X144042598Y-115693015D01*
X144113355Y-115825392D01*
X144208578Y-115941422D01*
X144324608Y-116036645D01*
X144373000Y-116062511D01*
X144373000Y-116200000D01*
X144375440Y-116224776D01*
X144382667Y-116248601D01*
X144394403Y-116270557D01*
X144410197Y-116289803D01*
X144429443Y-116305597D01*
X144451399Y-116317333D01*
X144475224Y-116324560D01*
X144500000Y-116327000D01*
X155800000Y-116327000D01*
X155824776Y-116324560D01*
X155848601Y-116317333D01*
X155870557Y-116305597D01*
X155889803Y-116289803D01*
X156788790Y-115390816D01*
X171408000Y-115390816D01*
X171408000Y-115849185D01*
X171431325Y-116086007D01*
X171523501Y-116389870D01*
X171673186Y-116669912D01*
X171874629Y-116915371D01*
X172120089Y-117116814D01*
X172400131Y-117266499D01*
X172703994Y-117358675D01*
X173020000Y-117389799D01*
X173336007Y-117358675D01*
X173639870Y-117266499D01*
X173919912Y-117116814D01*
X174165371Y-116915371D01*
X174366814Y-116669912D01*
X174516499Y-116389869D01*
X174608675Y-116086006D01*
X174632000Y-115849184D01*
X174632000Y-115390816D01*
X176488000Y-115390816D01*
X176488000Y-115849185D01*
X176511325Y-116086007D01*
X176603501Y-116389870D01*
X176753186Y-116669912D01*
X176954629Y-116915371D01*
X177200089Y-117116814D01*
X177480131Y-117266499D01*
X177783994Y-117358675D01*
X178100000Y-117389799D01*
X178416007Y-117358675D01*
X178719870Y-117266499D01*
X178999912Y-117116814D01*
X179245371Y-116915371D01*
X179446814Y-116669912D01*
X179596499Y-116389869D01*
X179688675Y-116086006D01*
X179712000Y-115849184D01*
X179712000Y-115757639D01*
X192063076Y-115757639D01*
X192206573Y-116499313D01*
X192492007Y-117198742D01*
X192511020Y-117234315D01*
X192952979Y-117628600D01*
X195181580Y-115400000D01*
X192952979Y-113171400D01*
X192511020Y-113565685D01*
X192218282Y-114262088D01*
X192067029Y-115002221D01*
X192063076Y-115757639D01*
X179712000Y-115757639D01*
X179712000Y-115390815D01*
X179688675Y-115153993D01*
X179596499Y-114850130D01*
X179446814Y-114570088D01*
X179245371Y-114324629D01*
X178999911Y-114123186D01*
X178719869Y-113973501D01*
X178416006Y-113881325D01*
X178100000Y-113850201D01*
X177783993Y-113881325D01*
X177480130Y-113973501D01*
X177200088Y-114123186D01*
X176954629Y-114324629D01*
X176753186Y-114570089D01*
X176603501Y-114850131D01*
X176511325Y-115153994D01*
X176488000Y-115390816D01*
X174632000Y-115390816D01*
X174632000Y-115390815D01*
X174608675Y-115153993D01*
X174516499Y-114850130D01*
X174366814Y-114570088D01*
X174165371Y-114324629D01*
X173919911Y-114123186D01*
X173639869Y-113973501D01*
X173336006Y-113881325D01*
X173020000Y-113850201D01*
X172703993Y-113881325D01*
X172400130Y-113973501D01*
X172120088Y-114123186D01*
X171874629Y-114324629D01*
X171673186Y-114570089D01*
X171523501Y-114850131D01*
X171431325Y-115153994D01*
X171408000Y-115390816D01*
X156788790Y-115390816D01*
X157852606Y-114327000D01*
X169400000Y-114327000D01*
X169424776Y-114324560D01*
X169448601Y-114317333D01*
X169470557Y-114305597D01*
X169489803Y-114289803D01*
X171326627Y-112452979D01*
X193671400Y-112452979D01*
X195900000Y-114681580D01*
X198128600Y-112452979D01*
X197734315Y-112011020D01*
X197037912Y-111718282D01*
X196297779Y-111567029D01*
X195542361Y-111563076D01*
X194800687Y-111706573D01*
X194101258Y-111992007D01*
X194065685Y-112011020D01*
X193671400Y-112452979D01*
X171326627Y-112452979D01*
X172652606Y-111127000D01*
X181200000Y-111127000D01*
X181224776Y-111124560D01*
X181248601Y-111117333D01*
X181270557Y-111105597D01*
X181289803Y-111089803D01*
X181305597Y-111070557D01*
X181317333Y-111048601D01*
X181324560Y-111024776D01*
X181327000Y-111000000D01*
X181327000Y-106927000D01*
X185037781Y-106927000D01*
X185491036Y-107730456D01*
X185555411Y-107826153D01*
X186174732Y-108606739D01*
X186253285Y-108691187D01*
X186987093Y-109365280D01*
X186987094Y-109365281D01*
X187077890Y-109436401D01*
X187908114Y-109987401D01*
X188008918Y-110043442D01*
X188915116Y-110457783D01*
X189023446Y-110497364D01*
X189023449Y-110497365D01*
X189983306Y-110764844D01*
X190096494Y-110786991D01*
X191086378Y-110901022D01*
X191201637Y-110905191D01*
X191201638Y-110905191D01*
X192197173Y-110862966D01*
X192197174Y-110862966D01*
X192209579Y-110861458D01*
X192311666Y-110849053D01*
X192311678Y-110849050D01*
X193288339Y-110651611D01*
X193399245Y-110619959D01*
X194333004Y-110272165D01*
X194333008Y-110272164D01*
X194414441Y-110234314D01*
X194437596Y-110223552D01*
X194437600Y-110223549D01*
X195305456Y-109733964D01*
X195401153Y-109669589D01*
X195401154Y-109669588D01*
X196181739Y-109050268D01*
X196266187Y-108971715D01*
X196266189Y-108971713D01*
X196940280Y-108237907D01*
X196971926Y-108197506D01*
X197011401Y-108147110D01*
X197541804Y-107347921D01*
X197564087Y-107320769D01*
X197632337Y-107193082D01*
X197674365Y-107054534D01*
X197685000Y-106946554D01*
X197685000Y-106927000D01*
X199665001Y-106927000D01*
X199665001Y-114670622D01*
X199593427Y-114300687D01*
X199307993Y-113601258D01*
X199288980Y-113565685D01*
X198847021Y-113171400D01*
X196618420Y-115400000D01*
X198847021Y-117628600D01*
X199288980Y-117234315D01*
X199581718Y-116537912D01*
X199665001Y-116130380D01*
X199665001Y-117964043D01*
X199637451Y-118245021D01*
X199566291Y-118480712D01*
X199450711Y-118698088D01*
X199295104Y-118888879D01*
X199105408Y-119045811D01*
X198888843Y-119162906D01*
X198653656Y-119235709D01*
X198374972Y-119265000D01*
X122035947Y-119265000D01*
X121754979Y-119237451D01*
X121519288Y-119166291D01*
X121301912Y-119050711D01*
X121111121Y-118895104D01*
X120954189Y-118705408D01*
X120837094Y-118488843D01*
X120793193Y-118347021D01*
X122271400Y-118347021D01*
X122665685Y-118788980D01*
X123362088Y-119081718D01*
X124102221Y-119232971D01*
X124857639Y-119236924D01*
X125599313Y-119093427D01*
X126298742Y-118807993D01*
X126334315Y-118788980D01*
X126728600Y-118347021D01*
X193671400Y-118347021D01*
X194065685Y-118788980D01*
X194762088Y-119081718D01*
X195502221Y-119232971D01*
X196257639Y-119236924D01*
X196999313Y-119093427D01*
X197698742Y-118807993D01*
X197734315Y-118788980D01*
X198128600Y-118347021D01*
X195900000Y-116118420D01*
X193671400Y-118347021D01*
X126728600Y-118347021D01*
X124500000Y-116118420D01*
X122271400Y-118347021D01*
X120793193Y-118347021D01*
X120764291Y-118253656D01*
X120735000Y-117974972D01*
X120735000Y-116129383D01*
X120806573Y-116499313D01*
X121092007Y-117198742D01*
X121111020Y-117234315D01*
X121552979Y-117628600D01*
X123781580Y-115400000D01*
X125218420Y-115400000D01*
X127447021Y-117628600D01*
X127888980Y-117234315D01*
X128181718Y-116537912D01*
X128332971Y-115797779D01*
X128335052Y-115400000D01*
X140111928Y-115400000D01*
X140124188Y-115524482D01*
X140160498Y-115644180D01*
X140219463Y-115754494D01*
X140298815Y-115851185D01*
X140395506Y-115930537D01*
X140505820Y-115989502D01*
X140625518Y-116025812D01*
X140750000Y-116038072D01*
X141333250Y-116035000D01*
X141492000Y-115876250D01*
X141492000Y-115008000D01*
X142508000Y-115008000D01*
X142508000Y-115876250D01*
X142666750Y-116035000D01*
X143250000Y-116038072D01*
X143374482Y-116025812D01*
X143494180Y-115989502D01*
X143604494Y-115930537D01*
X143701185Y-115851185D01*
X143780537Y-115754494D01*
X143839502Y-115644180D01*
X143875812Y-115524482D01*
X143888072Y-115400000D01*
X143885000Y-115166750D01*
X143726250Y-115008000D01*
X142508000Y-115008000D01*
X141492000Y-115008000D01*
X140273750Y-115008000D01*
X140115000Y-115166750D01*
X140111928Y-115400000D01*
X128335052Y-115400000D01*
X128336924Y-115042361D01*
X128193427Y-114300687D01*
X127907993Y-113601258D01*
X127907321Y-113600000D01*
X140111928Y-113600000D01*
X140115000Y-113833250D01*
X140273750Y-113992000D01*
X141492000Y-113992000D01*
X141492000Y-113123750D01*
X142508000Y-113123750D01*
X142508000Y-113992000D01*
X143726250Y-113992000D01*
X143885000Y-113833250D01*
X143888072Y-113600000D01*
X143875812Y-113475518D01*
X143839502Y-113355820D01*
X143780537Y-113245506D01*
X143701185Y-113148815D01*
X143604494Y-113069463D01*
X143494180Y-113010498D01*
X143374482Y-112974188D01*
X143250000Y-112961928D01*
X142666750Y-112965000D01*
X142508000Y-113123750D01*
X141492000Y-113123750D01*
X141333250Y-112965000D01*
X140750000Y-112961928D01*
X140625518Y-112974188D01*
X140505820Y-113010498D01*
X140395506Y-113069463D01*
X140298815Y-113148815D01*
X140219463Y-113245506D01*
X140160498Y-113355820D01*
X140124188Y-113475518D01*
X140111928Y-113600000D01*
X127907321Y-113600000D01*
X127888980Y-113565685D01*
X127447021Y-113171400D01*
X125218420Y-115400000D01*
X123781580Y-115400000D01*
X121552979Y-113171400D01*
X121111020Y-113565685D01*
X120818282Y-114262088D01*
X120735000Y-114669615D01*
X120735000Y-112452979D01*
X122271400Y-112452979D01*
X124500000Y-114681580D01*
X126728600Y-112452979D01*
X126334315Y-112011020D01*
X125637912Y-111718282D01*
X124897779Y-111567029D01*
X124142361Y-111563076D01*
X123400687Y-111706573D01*
X122701258Y-111992007D01*
X122665685Y-112011020D01*
X122271400Y-112452979D01*
X120735000Y-112452979D01*
X120735000Y-76147021D01*
X122271400Y-76147021D01*
X122665685Y-76588980D01*
X123362088Y-76881718D01*
X124102221Y-77032971D01*
X124857639Y-77036924D01*
X125599313Y-76893427D01*
X126298742Y-76607993D01*
X126334315Y-76588980D01*
X126728600Y-76147021D01*
X124500000Y-73918420D01*
X122271400Y-76147021D01*
X120735000Y-76147021D01*
X120735000Y-73929383D01*
X120806573Y-74299313D01*
X121092007Y-74998742D01*
X121111020Y-75034315D01*
X121552979Y-75428600D01*
X123781580Y-73200000D01*
X125218420Y-73200000D01*
X127447021Y-75428600D01*
X127888980Y-75034315D01*
X128181718Y-74337912D01*
X128332971Y-73597779D01*
X128336924Y-72842361D01*
X128193427Y-72100687D01*
X127907993Y-71401258D01*
X127888980Y-71365685D01*
X127447021Y-70971400D01*
X125218420Y-73200000D01*
X123781580Y-73200000D01*
X121552979Y-70971400D01*
X121111020Y-71365685D01*
X120818282Y-72062088D01*
X120735000Y-72469615D01*
X120735000Y-70635947D01*
X120762549Y-70354979D01*
X120793344Y-70252979D01*
X122271400Y-70252979D01*
X124500000Y-72481580D01*
X126631579Y-70350000D01*
X135161928Y-70350000D01*
X135165000Y-71433250D01*
X135323750Y-71592000D01*
X136092000Y-71592000D01*
X136092000Y-69873750D01*
X137108000Y-69873750D01*
X137108000Y-71592000D01*
X137876250Y-71592000D01*
X138035000Y-71433250D01*
X138038072Y-70350000D01*
X138025812Y-70225518D01*
X137989502Y-70105820D01*
X137930537Y-69995506D01*
X137851185Y-69898815D01*
X137754494Y-69819463D01*
X137644180Y-69760498D01*
X137524482Y-69724188D01*
X137400000Y-69711928D01*
X137266750Y-69715000D01*
X137108000Y-69873750D01*
X136092000Y-69873750D01*
X135933250Y-69715000D01*
X135800000Y-69711928D01*
X135675518Y-69724188D01*
X135555820Y-69760498D01*
X135445506Y-69819463D01*
X135348815Y-69898815D01*
X135269463Y-69995506D01*
X135210498Y-70105820D01*
X135174188Y-70225518D01*
X135161928Y-70350000D01*
X126631579Y-70350000D01*
X126728600Y-70252979D01*
X126334315Y-69811020D01*
X125637912Y-69518282D01*
X124897779Y-69367029D01*
X124142361Y-69363076D01*
X123400687Y-69506573D01*
X122701258Y-69792007D01*
X122665685Y-69811020D01*
X122271400Y-70252979D01*
X120793344Y-70252979D01*
X120833708Y-70119288D01*
X120949291Y-69901911D01*
X121104895Y-69711121D01*
X121294593Y-69554189D01*
X121511157Y-69437094D01*
X121746344Y-69364291D01*
X122025028Y-69335000D01*
X144373000Y-69335000D01*
X144373000Y-72468637D01*
M02*
