M48
; DRILL file {KiCad (5.1.5-1-g2528d3844)} date Fri Jan 10 11:41:58 2020
; FORMAT={-:-/ absolute / metric / decimal}
; #@! TF.CreationDate,2020-01-10T11:41:58-05:00
; #@! TF.GenerationSoftware,Kicad,Pcbnew,(5.1.5-1-g2528d3844)
FMAT,2
METRIC
T1C0.500
T2C0.508
T3C1.000
T4C1.270
T5C1.500
T6C2.500
T7C3.200
T8C2.250
%
G90
G05
T1
X122.1Y-73.2
X122.803Y-71.503
X122.803Y-74.897
X124.5Y-70.8
X124.5Y-75.6
X126.197Y-71.503
X126.197Y-74.897
X126.9Y-73.2
X193.5Y-115.4
X194.203Y-113.703
X194.203Y-117.097
X195.9Y-113.0
X195.9Y-117.8
X197.597Y-113.703
X197.597Y-117.097
X198.3Y-115.4
X193.5Y-73.2
X194.203Y-71.503
X194.203Y-74.897
X195.9Y-70.8
X195.9Y-75.6
X197.597Y-71.503
X197.597Y-74.897
X198.3Y-73.2
X122.1Y-115.4
X122.803Y-113.703
X122.803Y-117.097
X124.5Y-113.0
X124.5Y-117.8
X126.197Y-113.703
X126.197Y-117.097
X126.9Y-115.4
T2
X148.8Y-111.1
X161.902Y-92.3
X161.902Y-93.633
X161.902Y-94.967
X161.902Y-96.3
X163.235Y-92.3
X163.235Y-96.3
X164.569Y-92.3
X164.569Y-96.3
X165.902Y-92.3
X165.902Y-93.633
X165.902Y-94.967
X165.902Y-96.3
X130.199Y-112.966
X130.655Y-114.219
X131.111Y-115.472
X131.451Y-112.51
X131.567Y-116.725
X132.705Y-112.054
X132.819Y-116.269
X133.958Y-111.598
X134.073Y-115.813
X134.413Y-112.851
X134.87Y-114.104
X135.326Y-115.357
X180.793Y-76.997
X181.736Y-76.054
X181.736Y-77.939
X182.679Y-75.111
X182.679Y-78.883
X183.622Y-74.168
X183.622Y-79.825
X184.564Y-75.111
X184.564Y-78.883
X185.508Y-76.054
X185.508Y-77.939
X186.45Y-76.997
X133.95Y-92.553
X134.892Y-91.611
X134.892Y-93.496
X135.836Y-90.667
X135.836Y-94.439
X136.778Y-89.725
X136.778Y-95.382
X137.721Y-90.667
X137.721Y-94.439
X138.664Y-91.611
X138.664Y-93.496
X139.607Y-92.553
X185.074Y-115.357
X185.53Y-114.104
X185.987Y-112.851
X186.327Y-115.813
X186.442Y-111.598
X187.581Y-116.269
X187.695Y-112.054
X188.833Y-116.725
X188.949Y-112.51
X189.289Y-115.472
X189.745Y-114.219
X190.201Y-112.966
T3
X184.9Y-94.3
X187.44Y-94.3
X173.02Y-108.0
X173.02Y-115.62
X175.56Y-108.0
X178.1Y-108.0
X178.1Y-115.62
T4
X163.902Y-94.3
X132.762Y-114.162
X183.622Y-76.997
X136.778Y-92.553
X187.638Y-114.162
T5
X146.501Y-86.3
X151.951Y-86.3
X157.401Y-86.3
X146.501Y-102.3
X151.951Y-102.3
X157.401Y-102.3
T6
X140.501Y-81.1
X140.501Y-107.5
X163.401Y-81.1
X163.401Y-107.5
T7
X124.5Y-73.2
X195.9Y-115.4
X195.9Y-73.2
X124.5Y-115.4
T8
X168.6Y-108.0
T0
M30
