G04 #@! TF.GenerationSoftware,KiCad,Pcbnew,(5.1.5-1-g2528d3844)*
G04 #@! TF.CreationDate,2019-12-26T13:43:01-05:00*
G04 #@! TF.ProjectId,diode-or,64696f64-652d-46f7-922e-6b696361645f,rev?*
G04 #@! TF.SameCoordinates,Original*
G04 #@! TF.FileFunction,Soldermask,Bot*
G04 #@! TF.FilePolarity,Negative*
%FSLAX46Y46*%
G04 Gerber Fmt 4.6, Leading zero omitted, Abs format (unit mm)*
G04 Created by KiCad (PCBNEW (5.1.5-1-g2528d3844)) date 2019-12-26 13:43:01*
%MOMM*%
%LPD*%
G04 APERTURE LIST*
%ADD10C,0.100000*%
%ADD11O,1.801600X2.101600*%
%ADD12R,1.801600X2.101600*%
%ADD13R,1.361600X0.931600*%
%ADD14R,0.751600X1.321600*%
%ADD15C,5.101600*%
%ADD16R,1.101600X1.101600*%
%ADD17R,5.101600X5.101600*%
%ADD18C,0.901600*%
%ADD19C,6.501600*%
%ADD20C,2.351600*%
%ADD21R,1.101600X1.601600*%
%ADD22R,1.201600X0.676600*%
%ADD23R,0.701600X1.751600*%
%ADD24R,1.101600X1.401600*%
%ADD25R,1.401600X1.101600*%
%ADD26O,2.601600X4.601600*%
%ADD27R,2.601600X4.601600*%
%ADD28R,2.601600X1.901600*%
%ADD29R,1.901600X2.601600*%
%ADD30R,2.401600X2.601600*%
%ADD31R,1.701600X1.301600*%
%ADD32R,1.351600X1.401600*%
%ADD33O,1.801600X1.801600*%
%ADD34R,1.801600X1.801600*%
%ADD35C,1.117600*%
G04 APERTURE END LIST*
D10*
G36*
X178200000Y-103300000D02*
G01*
X177200000Y-103300000D01*
X177200000Y-104700000D01*
X178200000Y-104700000D01*
X178200000Y-103300000D01*
G37*
X178200000Y-103300000D02*
X177200000Y-103300000D01*
X177200000Y-104700000D01*
X178200000Y-104700000D01*
X178200000Y-103300000D01*
G36*
X174800000Y-103300000D02*
G01*
X173800000Y-103300000D01*
X173800000Y-104700000D01*
X174800000Y-104700000D01*
X174800000Y-103300000D01*
G37*
X174800000Y-103300000D02*
X173800000Y-103300000D01*
X173800000Y-104700000D01*
X174800000Y-104700000D01*
X174800000Y-103300000D01*
G36*
X164100000Y-103200000D02*
G01*
X165100000Y-103200000D01*
X165100000Y-101800000D01*
X164100000Y-101800000D01*
X164100000Y-103200000D01*
G37*
X164100000Y-103200000D02*
X165100000Y-103200000D01*
X165100000Y-101800000D01*
X164100000Y-101800000D01*
X164100000Y-103200000D01*
G36*
X167500000Y-103200000D02*
G01*
X168500000Y-103200000D01*
X168500000Y-101800000D01*
X167500000Y-101800000D01*
X167500000Y-103200000D01*
G37*
X167500000Y-103200000D02*
X168500000Y-103200000D01*
X168500000Y-101800000D01*
X167500000Y-101800000D01*
X167500000Y-103200000D01*
G36*
X137210985Y-70300480D02*
G01*
X137236795Y-70304309D01*
X137262104Y-70310648D01*
X137286671Y-70319439D01*
X137310258Y-70330594D01*
X137332637Y-70344008D01*
X137353594Y-70359551D01*
X137372927Y-70377073D01*
X137390449Y-70396406D01*
X137405992Y-70417363D01*
X137419406Y-70439742D01*
X137430561Y-70463329D01*
X137439352Y-70487896D01*
X137445691Y-70513205D01*
X137449520Y-70539015D01*
X137450800Y-70565075D01*
X137450800Y-73634925D01*
X137449520Y-73660985D01*
X137445691Y-73686795D01*
X137439352Y-73712104D01*
X137430561Y-73736671D01*
X137419406Y-73760258D01*
X137405992Y-73782637D01*
X137390449Y-73803594D01*
X137372927Y-73822927D01*
X137353594Y-73840449D01*
X137332637Y-73855992D01*
X137310258Y-73869406D01*
X137286671Y-73880561D01*
X137262104Y-73889352D01*
X137236795Y-73895691D01*
X137210985Y-73899520D01*
X137184925Y-73900800D01*
X136015075Y-73900800D01*
X135989015Y-73899520D01*
X135963205Y-73895691D01*
X135937896Y-73889352D01*
X135913329Y-73880561D01*
X135889742Y-73869406D01*
X135867363Y-73855992D01*
X135846406Y-73840449D01*
X135827073Y-73822927D01*
X135809551Y-73803594D01*
X135794008Y-73782637D01*
X135780594Y-73760258D01*
X135769439Y-73736671D01*
X135760648Y-73712104D01*
X135754309Y-73686795D01*
X135750480Y-73660985D01*
X135749200Y-73634925D01*
X135749200Y-70565075D01*
X135750480Y-70539015D01*
X135754309Y-70513205D01*
X135760648Y-70487896D01*
X135769439Y-70463329D01*
X135780594Y-70439742D01*
X135794008Y-70417363D01*
X135809551Y-70396406D01*
X135827073Y-70377073D01*
X135846406Y-70359551D01*
X135867363Y-70344008D01*
X135889742Y-70330594D01*
X135913329Y-70319439D01*
X135937896Y-70310648D01*
X135963205Y-70304309D01*
X135989015Y-70300480D01*
X136015075Y-70299200D01*
X137184925Y-70299200D01*
X137210985Y-70300480D01*
G37*
G36*
X137210985Y-75900480D02*
G01*
X137236795Y-75904309D01*
X137262104Y-75910648D01*
X137286671Y-75919439D01*
X137310258Y-75930594D01*
X137332637Y-75944008D01*
X137353594Y-75959551D01*
X137372927Y-75977073D01*
X137390449Y-75996406D01*
X137405992Y-76017363D01*
X137419406Y-76039742D01*
X137430561Y-76063329D01*
X137439352Y-76087896D01*
X137445691Y-76113205D01*
X137449520Y-76139015D01*
X137450800Y-76165075D01*
X137450800Y-79234925D01*
X137449520Y-79260985D01*
X137445691Y-79286795D01*
X137439352Y-79312104D01*
X137430561Y-79336671D01*
X137419406Y-79360258D01*
X137405992Y-79382637D01*
X137390449Y-79403594D01*
X137372927Y-79422927D01*
X137353594Y-79440449D01*
X137332637Y-79455992D01*
X137310258Y-79469406D01*
X137286671Y-79480561D01*
X137262104Y-79489352D01*
X137236795Y-79495691D01*
X137210985Y-79499520D01*
X137184925Y-79500800D01*
X136015075Y-79500800D01*
X135989015Y-79499520D01*
X135963205Y-79495691D01*
X135937896Y-79489352D01*
X135913329Y-79480561D01*
X135889742Y-79469406D01*
X135867363Y-79455992D01*
X135846406Y-79440449D01*
X135827073Y-79422927D01*
X135809551Y-79403594D01*
X135794008Y-79382637D01*
X135780594Y-79360258D01*
X135769439Y-79336671D01*
X135760648Y-79312104D01*
X135754309Y-79286795D01*
X135750480Y-79260985D01*
X135749200Y-79234925D01*
X135749200Y-76165075D01*
X135750480Y-76139015D01*
X135754309Y-76113205D01*
X135760648Y-76087896D01*
X135769439Y-76063329D01*
X135780594Y-76039742D01*
X135794008Y-76017363D01*
X135809551Y-75996406D01*
X135827073Y-75977073D01*
X135846406Y-75959551D01*
X135867363Y-75944008D01*
X135889742Y-75930594D01*
X135913329Y-75919439D01*
X135937896Y-75910648D01*
X135963205Y-75904309D01*
X135989015Y-75900480D01*
X136015075Y-75899200D01*
X137184925Y-75899200D01*
X137210985Y-75900480D01*
G37*
D11*
X177680000Y-108000000D03*
X175140000Y-108000000D03*
D12*
X172600000Y-108000000D03*
D13*
X163930000Y-111600000D03*
X161070000Y-111600000D03*
D14*
X153550000Y-106390000D03*
X152600000Y-106390000D03*
X151650000Y-106390000D03*
X151650000Y-109010000D03*
X152600000Y-109010000D03*
X153550000Y-109010000D03*
D15*
X140501109Y-107500000D03*
X163401109Y-107500000D03*
X163401109Y-81100000D03*
X140501109Y-81100000D03*
D10*
G36*
X133212536Y-116712222D02*
G01*
X132177371Y-117088991D01*
X131800602Y-116053826D01*
X132835767Y-115677057D01*
X133212536Y-116712222D01*
G37*
G36*
X134152229Y-116370202D02*
G01*
X133117064Y-116746971D01*
X132740295Y-115711806D01*
X133775460Y-115335037D01*
X134152229Y-116370202D01*
G37*
G36*
X135091921Y-116028182D02*
G01*
X134056756Y-116404951D01*
X133679987Y-115369786D01*
X134715152Y-114993017D01*
X135091921Y-116028182D01*
G37*
G36*
X136031614Y-115686162D02*
G01*
X134996449Y-116062931D01*
X134619680Y-115027766D01*
X135654845Y-114650997D01*
X136031614Y-115686162D01*
G37*
G36*
X135689594Y-114746469D02*
G01*
X134654429Y-115123238D01*
X134277660Y-114088073D01*
X135312825Y-113711304D01*
X135689594Y-114746469D01*
G37*
G36*
X135347574Y-113806777D02*
G01*
X134312409Y-114183546D01*
X133935640Y-113148381D01*
X134970805Y-112771612D01*
X135347574Y-113806777D01*
G37*
G36*
X135005554Y-112867084D02*
G01*
X133970389Y-113243853D01*
X133593620Y-112208688D01*
X134628785Y-111831919D01*
X135005554Y-112867084D01*
G37*
G36*
X134663534Y-111927391D02*
G01*
X133628369Y-112304160D01*
X133251600Y-111268995D01*
X134286765Y-110892226D01*
X134663534Y-111927391D01*
G37*
G36*
X133723841Y-112269411D02*
G01*
X132688676Y-112646180D01*
X132311907Y-111611015D01*
X133347072Y-111234246D01*
X133723841Y-112269411D01*
G37*
G36*
X132784148Y-112611432D02*
G01*
X131748983Y-112988201D01*
X131372214Y-111953036D01*
X132407379Y-111576267D01*
X132784148Y-112611432D01*
G37*
G36*
X131844456Y-112953452D02*
G01*
X130809291Y-113330221D01*
X130432522Y-112295056D01*
X131467687Y-111918287D01*
X131844456Y-112953452D01*
G37*
G36*
X130904763Y-113295472D02*
G01*
X129869598Y-113672241D01*
X129492829Y-112637076D01*
X130527994Y-112260307D01*
X130904763Y-113295472D01*
G37*
G36*
X131246783Y-114235164D02*
G01*
X130211618Y-114611933D01*
X129834849Y-113576768D01*
X130870014Y-113199999D01*
X131246783Y-114235164D01*
G37*
G36*
X131588803Y-115174857D02*
G01*
X130553638Y-115551626D01*
X130176869Y-114516461D01*
X131212034Y-114139692D01*
X131588803Y-115174857D01*
G37*
G36*
X131930823Y-116114550D02*
G01*
X130895658Y-116491319D01*
X130518889Y-115456154D01*
X131554054Y-115079385D01*
X131930823Y-116114550D01*
G37*
G36*
X132272844Y-117054242D02*
G01*
X131237679Y-117431011D01*
X130860910Y-116395846D01*
X131896075Y-116019077D01*
X132272844Y-117054242D01*
G37*
G36*
X136031615Y-115686162D02*
G01*
X131237679Y-117431012D01*
X129492829Y-112637076D01*
X134286765Y-110892226D01*
X136031615Y-115686162D01*
G37*
G36*
X186343244Y-116404951D02*
G01*
X185308079Y-116028182D01*
X185684848Y-114993017D01*
X186720013Y-115369786D01*
X186343244Y-116404951D01*
G37*
G36*
X187282936Y-116746971D02*
G01*
X186247771Y-116370202D01*
X186624540Y-115335037D01*
X187659705Y-115711806D01*
X187282936Y-116746971D01*
G37*
G36*
X188222629Y-117088991D02*
G01*
X187187464Y-116712222D01*
X187564233Y-115677057D01*
X188599398Y-116053826D01*
X188222629Y-117088991D01*
G37*
G36*
X189162321Y-117431011D02*
G01*
X188127156Y-117054242D01*
X188503925Y-116019077D01*
X189539090Y-116395846D01*
X189162321Y-117431011D01*
G37*
G36*
X189504342Y-116491319D02*
G01*
X188469177Y-116114550D01*
X188845946Y-115079385D01*
X189881111Y-115456154D01*
X189504342Y-116491319D01*
G37*
G36*
X189846362Y-115551626D02*
G01*
X188811197Y-115174857D01*
X189187966Y-114139692D01*
X190223131Y-114516461D01*
X189846362Y-115551626D01*
G37*
G36*
X190188382Y-114611933D02*
G01*
X189153217Y-114235164D01*
X189529986Y-113199999D01*
X190565151Y-113576768D01*
X190188382Y-114611933D01*
G37*
G36*
X190530402Y-113672241D02*
G01*
X189495237Y-113295472D01*
X189872006Y-112260307D01*
X190907171Y-112637076D01*
X190530402Y-113672241D01*
G37*
G36*
X189590709Y-113330221D02*
G01*
X188555544Y-112953452D01*
X188932313Y-111918287D01*
X189967478Y-112295056D01*
X189590709Y-113330221D01*
G37*
G36*
X188651017Y-112988201D02*
G01*
X187615852Y-112611432D01*
X187992621Y-111576267D01*
X189027786Y-111953036D01*
X188651017Y-112988201D01*
G37*
G36*
X187711324Y-112646180D02*
G01*
X186676159Y-112269411D01*
X187052928Y-111234246D01*
X188088093Y-111611015D01*
X187711324Y-112646180D01*
G37*
G36*
X186771631Y-112304160D02*
G01*
X185736466Y-111927391D01*
X186113235Y-110892226D01*
X187148400Y-111268995D01*
X186771631Y-112304160D01*
G37*
G36*
X186429611Y-113243853D02*
G01*
X185394446Y-112867084D01*
X185771215Y-111831919D01*
X186806380Y-112208688D01*
X186429611Y-113243853D01*
G37*
G36*
X186087591Y-114183546D02*
G01*
X185052426Y-113806777D01*
X185429195Y-112771612D01*
X186464360Y-113148381D01*
X186087591Y-114183546D01*
G37*
G36*
X185745571Y-115123238D02*
G01*
X184710406Y-114746469D01*
X185087175Y-113711304D01*
X186122340Y-114088073D01*
X185745571Y-115123238D01*
G37*
G36*
X185403551Y-116062931D02*
G01*
X184368386Y-115686162D01*
X184745155Y-114650997D01*
X185780320Y-115027766D01*
X185403551Y-116062931D01*
G37*
G36*
X189162321Y-117431012D02*
G01*
X184368385Y-115686162D01*
X186113235Y-110892226D01*
X190907171Y-112637076D01*
X189162321Y-117431012D01*
G37*
D16*
X161902216Y-93300000D03*
X161902216Y-94300000D03*
X161902216Y-95300000D03*
X161902216Y-96300000D03*
X162902216Y-96300000D03*
X163902216Y-96300000D03*
X164902216Y-96300000D03*
X165902216Y-96300000D03*
X165902216Y-95300000D03*
X165902216Y-94300000D03*
X165902216Y-93300000D03*
X165902216Y-92300000D03*
X164902216Y-92300000D03*
X163902216Y-92300000D03*
X162902216Y-92300000D03*
X161902216Y-92300000D03*
D17*
X163902216Y-94300000D03*
D10*
G36*
X138264230Y-94674495D02*
G01*
X137485281Y-95453444D01*
X136706332Y-94674495D01*
X137485281Y-93895546D01*
X138264230Y-94674495D01*
G37*
G36*
X138971337Y-93967388D02*
G01*
X138192388Y-94746337D01*
X137413439Y-93967388D01*
X138192388Y-93188439D01*
X138971337Y-93967388D01*
G37*
G36*
X139678444Y-93260281D02*
G01*
X138899495Y-94039230D01*
X138120546Y-93260281D01*
X138899495Y-92481332D01*
X139678444Y-93260281D01*
G37*
G36*
X140385551Y-92553175D02*
G01*
X139606602Y-93332124D01*
X138827653Y-92553175D01*
X139606602Y-91774226D01*
X140385551Y-92553175D01*
G37*
G36*
X139678444Y-91846068D02*
G01*
X138899495Y-92625017D01*
X138120546Y-91846068D01*
X138899495Y-91067119D01*
X139678444Y-91846068D01*
G37*
G36*
X138971337Y-91138961D02*
G01*
X138192388Y-91917910D01*
X137413439Y-91138961D01*
X138192388Y-90360012D01*
X138971337Y-91138961D01*
G37*
G36*
X138264230Y-90431854D02*
G01*
X137485281Y-91210803D01*
X136706332Y-90431854D01*
X137485281Y-89652905D01*
X138264230Y-90431854D01*
G37*
G36*
X137557124Y-89724747D02*
G01*
X136778175Y-90503696D01*
X135999226Y-89724747D01*
X136778175Y-88945798D01*
X137557124Y-89724747D01*
G37*
G36*
X136850017Y-90431854D02*
G01*
X136071068Y-91210803D01*
X135292119Y-90431854D01*
X136071068Y-89652905D01*
X136850017Y-90431854D01*
G37*
G36*
X136142910Y-91138961D02*
G01*
X135363961Y-91917910D01*
X134585012Y-91138961D01*
X135363961Y-90360012D01*
X136142910Y-91138961D01*
G37*
G36*
X135435803Y-91846068D02*
G01*
X134656854Y-92625017D01*
X133877905Y-91846068D01*
X134656854Y-91067119D01*
X135435803Y-91846068D01*
G37*
G36*
X134728696Y-92553175D02*
G01*
X133949747Y-93332124D01*
X133170798Y-92553175D01*
X133949747Y-91774226D01*
X134728696Y-92553175D01*
G37*
G36*
X135435803Y-93260281D02*
G01*
X134656854Y-94039230D01*
X133877905Y-93260281D01*
X134656854Y-92481332D01*
X135435803Y-93260281D01*
G37*
G36*
X136142910Y-93967388D02*
G01*
X135363961Y-94746337D01*
X134585012Y-93967388D01*
X135363961Y-93188439D01*
X136142910Y-93967388D01*
G37*
G36*
X136850017Y-94674495D02*
G01*
X136071068Y-95453444D01*
X135292119Y-94674495D01*
X136071068Y-93895546D01*
X136850017Y-94674495D01*
G37*
G36*
X137557124Y-95381602D02*
G01*
X136778175Y-96160551D01*
X135999226Y-95381602D01*
X136778175Y-94602653D01*
X137557124Y-95381602D01*
G37*
G36*
X140385551Y-92553175D02*
G01*
X136778175Y-96160551D01*
X133170799Y-92553175D01*
X136778175Y-88945799D01*
X140385551Y-92553175D01*
G37*
G36*
X182135770Y-74875505D02*
G01*
X182914719Y-74096556D01*
X183693668Y-74875505D01*
X182914719Y-75654454D01*
X182135770Y-74875505D01*
G37*
G36*
X181428663Y-75582612D02*
G01*
X182207612Y-74803663D01*
X182986561Y-75582612D01*
X182207612Y-76361561D01*
X181428663Y-75582612D01*
G37*
G36*
X180721556Y-76289719D02*
G01*
X181500505Y-75510770D01*
X182279454Y-76289719D01*
X181500505Y-77068668D01*
X180721556Y-76289719D01*
G37*
G36*
X180014449Y-76996825D02*
G01*
X180793398Y-76217876D01*
X181572347Y-76996825D01*
X180793398Y-77775774D01*
X180014449Y-76996825D01*
G37*
G36*
X180721556Y-77703932D02*
G01*
X181500505Y-76924983D01*
X182279454Y-77703932D01*
X181500505Y-78482881D01*
X180721556Y-77703932D01*
G37*
G36*
X181428663Y-78411039D02*
G01*
X182207612Y-77632090D01*
X182986561Y-78411039D01*
X182207612Y-79189988D01*
X181428663Y-78411039D01*
G37*
G36*
X182135770Y-79118146D02*
G01*
X182914719Y-78339197D01*
X183693668Y-79118146D01*
X182914719Y-79897095D01*
X182135770Y-79118146D01*
G37*
G36*
X182842876Y-79825253D02*
G01*
X183621825Y-79046304D01*
X184400774Y-79825253D01*
X183621825Y-80604202D01*
X182842876Y-79825253D01*
G37*
G36*
X183549983Y-79118146D02*
G01*
X184328932Y-78339197D01*
X185107881Y-79118146D01*
X184328932Y-79897095D01*
X183549983Y-79118146D01*
G37*
G36*
X184257090Y-78411039D02*
G01*
X185036039Y-77632090D01*
X185814988Y-78411039D01*
X185036039Y-79189988D01*
X184257090Y-78411039D01*
G37*
G36*
X184964197Y-77703932D02*
G01*
X185743146Y-76924983D01*
X186522095Y-77703932D01*
X185743146Y-78482881D01*
X184964197Y-77703932D01*
G37*
G36*
X185671304Y-76996825D02*
G01*
X186450253Y-76217876D01*
X187229202Y-76996825D01*
X186450253Y-77775774D01*
X185671304Y-76996825D01*
G37*
G36*
X184964197Y-76289719D02*
G01*
X185743146Y-75510770D01*
X186522095Y-76289719D01*
X185743146Y-77068668D01*
X184964197Y-76289719D01*
G37*
G36*
X184257090Y-75582612D02*
G01*
X185036039Y-74803663D01*
X185814988Y-75582612D01*
X185036039Y-76361561D01*
X184257090Y-75582612D01*
G37*
G36*
X183549983Y-74875505D02*
G01*
X184328932Y-74096556D01*
X185107881Y-74875505D01*
X184328932Y-75654454D01*
X183549983Y-74875505D01*
G37*
G36*
X182842876Y-74168398D02*
G01*
X183621825Y-73389449D01*
X184400774Y-74168398D01*
X183621825Y-74947347D01*
X182842876Y-74168398D01*
G37*
G36*
X180014449Y-76996825D02*
G01*
X183621825Y-73389449D01*
X187229201Y-76996825D01*
X183621825Y-80604201D01*
X180014449Y-76996825D01*
G37*
D18*
X197597056Y-113702944D03*
X195900000Y-113000000D03*
X194202944Y-113702944D03*
X193500000Y-115400000D03*
X194202944Y-117097056D03*
X195900000Y-117800000D03*
X197597056Y-117097056D03*
X198300000Y-115400000D03*
D19*
X195900000Y-115400000D03*
D18*
X126197056Y-113702944D03*
X124500000Y-113000000D03*
X122802944Y-113702944D03*
X122100000Y-115400000D03*
X122802944Y-117097056D03*
X124500000Y-117800000D03*
X126197056Y-117097056D03*
X126900000Y-115400000D03*
D19*
X124500000Y-115400000D03*
D18*
X197597056Y-71502944D03*
X195900000Y-70800000D03*
X194202944Y-71502944D03*
X193500000Y-73200000D03*
X194202944Y-74897056D03*
X195900000Y-75600000D03*
X197597056Y-74897056D03*
X198300000Y-73200000D03*
D19*
X195900000Y-73200000D03*
D18*
X126197056Y-71502944D03*
X124500000Y-70800000D03*
X122802944Y-71502944D03*
X122100000Y-73200000D03*
X122802944Y-74897056D03*
X124500000Y-75600000D03*
X126197056Y-74897056D03*
X126900000Y-73200000D03*
D19*
X124500000Y-73200000D03*
D20*
X168600000Y-108000000D03*
D21*
X168600000Y-110525000D03*
X168600000Y-105475000D03*
D22*
X177700000Y-103462500D03*
X177700000Y-104537500D03*
X174300000Y-104537500D03*
X174300000Y-103462500D03*
D23*
X177950000Y-104000000D03*
X174050000Y-104000000D03*
D22*
X164600000Y-103037500D03*
X164600000Y-101962500D03*
X168000000Y-101962500D03*
X168000000Y-103037500D03*
D23*
X164350000Y-102500000D03*
X168250000Y-102500000D03*
D24*
X156000000Y-111600000D03*
X158200000Y-111600000D03*
X182100000Y-104000000D03*
X179900000Y-104000000D03*
D25*
X161900000Y-100400000D03*
X161900000Y-102600000D03*
D26*
X146501109Y-102300000D03*
X151951109Y-102300000D03*
D27*
X157401109Y-102300000D03*
D28*
X146000000Y-114500000D03*
X142000000Y-114500000D03*
D29*
X145800000Y-110900000D03*
X145800000Y-106900000D03*
D30*
X141000000Y-102150000D03*
X141000000Y-97850000D03*
D26*
X157401109Y-86300000D03*
X151951109Y-86300000D03*
D27*
X146501109Y-86300000D03*
D31*
X149400000Y-109600000D03*
X149400000Y-106400000D03*
D32*
X153500000Y-111650000D03*
X153500000Y-113950000D03*
D33*
X187440000Y-94300000D03*
D34*
X184900000Y-94300000D03*
D35*
X148800000Y-111100000D03*
M02*
