G04 #@! TF.GenerationSoftware,KiCad,Pcbnew,(5.1.5-1-g2528d3844)*
G04 #@! TF.CreationDate,2020-01-07T19:19:00-05:00*
G04 #@! TF.ProjectId,diode-or,64696f64-652d-46f7-922e-6b696361645f,v1.0.0*
G04 #@! TF.SameCoordinates,Original*
G04 #@! TF.FileFunction,Copper,L1,Top*
G04 #@! TF.FilePolarity,Positive*
%FSLAX46Y46*%
G04 Gerber Fmt 4.6, Leading zero omitted, Abs format (unit mm)*
G04 Created by KiCad (PCBNEW (5.1.5-1-g2528d3844)) date 2020-01-07 19:19:00*
%MOMM*%
%LPD*%
G04 APERTURE LIST*
%ADD10O,1.700000X2.000000*%
%ADD11R,1.700000X2.000000*%
%ADD12C,0.762000*%
%ADD13C,0.100000*%
%ADD14R,5.000000X5.000000*%
%ADD15C,5.000000*%
%ADD16C,0.800000*%
%ADD17C,6.400000*%
%ADD18O,2.500000X4.500000*%
%ADD19R,2.500000X4.500000*%
%ADD20O,1.700000X1.700000*%
%ADD21R,1.700000X1.700000*%
%ADD22C,1.016000*%
%ADD23C,0.254000*%
G04 APERTURE END LIST*
D10*
X178100000Y-115620000D03*
X173020000Y-115620000D03*
X173020000Y-108000000D03*
X175560000Y-108000000D03*
D11*
X178100000Y-108000000D03*
D12*
X186326963Y-115812877D03*
X187580513Y-116269132D03*
X188833123Y-116725044D03*
X189289036Y-115472434D03*
X189745291Y-114218884D03*
X190201204Y-112966274D03*
X188948594Y-112510361D03*
X187695044Y-112054106D03*
X186442433Y-111598193D03*
X185986521Y-112850804D03*
X185530266Y-114104354D03*
X185074353Y-115356964D03*
G04 #@! TA.AperFunction,ComponentPad*
D13*
G36*
X189131959Y-117365901D02*
G01*
X184433496Y-115655800D01*
X186143597Y-110957337D01*
X190842060Y-112667438D01*
X189131959Y-117365901D01*
G37*
G04 #@! TD.AperFunction*
D12*
X182679252Y-75110972D03*
X181735972Y-76054252D03*
X180793398Y-76996825D03*
X181735972Y-77939399D03*
X182679252Y-78882679D03*
X183621825Y-79825253D03*
X184564399Y-78882679D03*
X185507679Y-77939399D03*
X186450253Y-76996825D03*
X185507679Y-76054252D03*
X184564399Y-75110972D03*
X183621825Y-74168398D03*
G04 #@! TA.AperFunction,ComponentPad*
D13*
G36*
X180086291Y-76996825D02*
G01*
X183621825Y-73461291D01*
X187157359Y-76996825D01*
X183621825Y-80532359D01*
X180086291Y-76996825D01*
G37*
G04 #@! TD.AperFunction*
D12*
X161902216Y-93633000D03*
X161902216Y-94967000D03*
X161902216Y-96300000D03*
X163235216Y-96300000D03*
X164569216Y-96300000D03*
X165902216Y-96300000D03*
X165902216Y-94967000D03*
X165902216Y-93633000D03*
X165902216Y-92300000D03*
X164569216Y-92300000D03*
X163235216Y-92300000D03*
X161902216Y-92300000D03*
D14*
X163902216Y-94300000D03*
D12*
X132819487Y-116269132D03*
X134073037Y-115812877D03*
X135325647Y-115356964D03*
X134869734Y-114104354D03*
X134413479Y-112850804D03*
X133957567Y-111598193D03*
X132704956Y-112054106D03*
X131451406Y-112510361D03*
X130198796Y-112966274D03*
X130654709Y-114218884D03*
X131110964Y-115472434D03*
X131566877Y-116725044D03*
G04 #@! TA.AperFunction,ComponentPad*
D13*
G36*
X135966504Y-115655800D02*
G01*
X131268041Y-117365901D01*
X129557940Y-112667438D01*
X134256403Y-110957337D01*
X135966504Y-115655800D01*
G37*
G04 #@! TD.AperFunction*
D12*
X137720748Y-94439028D03*
X138664028Y-93495748D03*
X139606602Y-92553175D03*
X138664028Y-91610601D03*
X137720748Y-90667321D03*
X136778175Y-89724747D03*
X135835601Y-90667321D03*
X134892321Y-91610601D03*
X133949747Y-92553175D03*
X134892321Y-93495748D03*
X135835601Y-94439028D03*
X136778175Y-95381602D03*
G04 #@! TA.AperFunction,ComponentPad*
D13*
G36*
X140313709Y-92553175D02*
G01*
X136778175Y-96088709D01*
X133242641Y-92553175D01*
X136778175Y-89017641D01*
X140313709Y-92553175D01*
G37*
G04 #@! TD.AperFunction*
D15*
X140501109Y-107500000D03*
X163401109Y-107500000D03*
X163401109Y-81100000D03*
X140501109Y-81100000D03*
D16*
X197597056Y-113702944D03*
X195900000Y-113000000D03*
X194202944Y-113702944D03*
X193500000Y-115400000D03*
X194202944Y-117097056D03*
X195900000Y-117800000D03*
X197597056Y-117097056D03*
X198300000Y-115400000D03*
D17*
X195900000Y-115400000D03*
D16*
X126197056Y-113702944D03*
X124500000Y-113000000D03*
X122802944Y-113702944D03*
X122100000Y-115400000D03*
X122802944Y-117097056D03*
X124500000Y-117800000D03*
X126197056Y-117097056D03*
X126900000Y-115400000D03*
D17*
X124500000Y-115400000D03*
D16*
X197597056Y-71502944D03*
X195900000Y-70800000D03*
X194202944Y-71502944D03*
X193500000Y-73200000D03*
X194202944Y-74897056D03*
X195900000Y-75600000D03*
X197597056Y-74897056D03*
X198300000Y-73200000D03*
D17*
X195900000Y-73200000D03*
D16*
X126197056Y-71502944D03*
X124500000Y-70800000D03*
X122802944Y-71502944D03*
X122100000Y-73200000D03*
X122802944Y-74897056D03*
X124500000Y-75600000D03*
X126197056Y-74897056D03*
X126900000Y-73200000D03*
D17*
X124500000Y-73200000D03*
D18*
X146501109Y-102300000D03*
X151951109Y-102300000D03*
D19*
X157401109Y-102300000D03*
D18*
X157401109Y-86300000D03*
X151951109Y-86300000D03*
D19*
X146501109Y-86300000D03*
D20*
X187440000Y-94300000D03*
D21*
X184900000Y-94300000D03*
D22*
X148800000Y-111100000D03*
D23*
G36*
X198645021Y-69362549D02*
G01*
X198880712Y-69433708D01*
X199098089Y-69549291D01*
X199288879Y-69704895D01*
X199445811Y-69894593D01*
X199562906Y-70111157D01*
X199635709Y-70346344D01*
X199665000Y-70625028D01*
X199665000Y-72470617D01*
X199593427Y-72100687D01*
X199307993Y-71401258D01*
X199288980Y-71365685D01*
X198847021Y-70971400D01*
X196618420Y-73200000D01*
X198847021Y-75428600D01*
X199288980Y-75034315D01*
X199581718Y-74337912D01*
X199665000Y-73930384D01*
X199665001Y-114670622D01*
X199593427Y-114300687D01*
X199307993Y-113601258D01*
X199288980Y-113565685D01*
X198847021Y-113171400D01*
X196618420Y-115400000D01*
X198847021Y-117628600D01*
X199288980Y-117234315D01*
X199581718Y-116537912D01*
X199665001Y-116130380D01*
X199665001Y-117964043D01*
X199637451Y-118245021D01*
X199566291Y-118480712D01*
X199450711Y-118698088D01*
X199295104Y-118888879D01*
X199105408Y-119045811D01*
X198888843Y-119162906D01*
X198653656Y-119235709D01*
X198374972Y-119265000D01*
X122035947Y-119265000D01*
X121754979Y-119237451D01*
X121519288Y-119166291D01*
X121301912Y-119050711D01*
X121111121Y-118895104D01*
X120954189Y-118705408D01*
X120837094Y-118488843D01*
X120793193Y-118347021D01*
X122271400Y-118347021D01*
X122665685Y-118788980D01*
X123362088Y-119081718D01*
X124102221Y-119232971D01*
X124857639Y-119236924D01*
X125599313Y-119093427D01*
X126298742Y-118807993D01*
X126334315Y-118788980D01*
X126728600Y-118347021D01*
X193671400Y-118347021D01*
X194065685Y-118788980D01*
X194762088Y-119081718D01*
X195502221Y-119232971D01*
X196257639Y-119236924D01*
X196999313Y-119093427D01*
X197698742Y-118807993D01*
X197734315Y-118788980D01*
X198128600Y-118347021D01*
X195900000Y-116118420D01*
X193671400Y-118347021D01*
X126728600Y-118347021D01*
X124500000Y-116118420D01*
X122271400Y-118347021D01*
X120793193Y-118347021D01*
X120764291Y-118253656D01*
X120735000Y-117974972D01*
X120735000Y-116129383D01*
X120806573Y-116499313D01*
X121092007Y-117198742D01*
X121111020Y-117234315D01*
X121552979Y-117628600D01*
X123781580Y-115400000D01*
X125218420Y-115400000D01*
X127447021Y-117628600D01*
X127888980Y-117234315D01*
X128181718Y-116537912D01*
X128332971Y-115797779D01*
X128335100Y-115390816D01*
X171408000Y-115390816D01*
X171408000Y-115849185D01*
X171431325Y-116086007D01*
X171523501Y-116389870D01*
X171673186Y-116669912D01*
X171874629Y-116915371D01*
X172120089Y-117116814D01*
X172400131Y-117266499D01*
X172703994Y-117358675D01*
X173020000Y-117389799D01*
X173336007Y-117358675D01*
X173639870Y-117266499D01*
X173919912Y-117116814D01*
X174165371Y-116915371D01*
X174366814Y-116669912D01*
X174516499Y-116389869D01*
X174608675Y-116086006D01*
X174632000Y-115849184D01*
X174632000Y-115390816D01*
X176488000Y-115390816D01*
X176488000Y-115849185D01*
X176511325Y-116086007D01*
X176603501Y-116389870D01*
X176753186Y-116669912D01*
X176954629Y-116915371D01*
X177200089Y-117116814D01*
X177480131Y-117266499D01*
X177783994Y-117358675D01*
X178100000Y-117389799D01*
X178416007Y-117358675D01*
X178719870Y-117266499D01*
X178999912Y-117116814D01*
X179245371Y-116915371D01*
X179446814Y-116669912D01*
X179596499Y-116389869D01*
X179688675Y-116086006D01*
X179712000Y-115849184D01*
X179712000Y-115757639D01*
X192063076Y-115757639D01*
X192206573Y-116499313D01*
X192492007Y-117198742D01*
X192511020Y-117234315D01*
X192952979Y-117628600D01*
X195181580Y-115400000D01*
X192952979Y-113171400D01*
X192511020Y-113565685D01*
X192218282Y-114262088D01*
X192067029Y-115002221D01*
X192063076Y-115757639D01*
X179712000Y-115757639D01*
X179712000Y-115390815D01*
X179688675Y-115153993D01*
X179596499Y-114850130D01*
X179446814Y-114570088D01*
X179245371Y-114324629D01*
X178999911Y-114123186D01*
X178719869Y-113973501D01*
X178416006Y-113881325D01*
X178100000Y-113850201D01*
X177783993Y-113881325D01*
X177480130Y-113973501D01*
X177200088Y-114123186D01*
X176954629Y-114324629D01*
X176753186Y-114570089D01*
X176603501Y-114850131D01*
X176511325Y-115153994D01*
X176488000Y-115390816D01*
X174632000Y-115390816D01*
X174632000Y-115390815D01*
X174608675Y-115153993D01*
X174516499Y-114850130D01*
X174366814Y-114570088D01*
X174165371Y-114324629D01*
X173919911Y-114123186D01*
X173639869Y-113973501D01*
X173336006Y-113881325D01*
X173020000Y-113850201D01*
X172703993Y-113881325D01*
X172400130Y-113973501D01*
X172120088Y-114123186D01*
X171874629Y-114324629D01*
X171673186Y-114570089D01*
X171523501Y-114850131D01*
X171431325Y-115153994D01*
X171408000Y-115390816D01*
X128335100Y-115390816D01*
X128336924Y-115042361D01*
X128193427Y-114300687D01*
X127907993Y-113601258D01*
X127888980Y-113565685D01*
X127447021Y-113171400D01*
X125218420Y-115400000D01*
X123781580Y-115400000D01*
X121552979Y-113171400D01*
X121111020Y-113565685D01*
X120818282Y-114262088D01*
X120735000Y-114669615D01*
X120735000Y-112452979D01*
X122271400Y-112452979D01*
X124500000Y-114681580D01*
X126728600Y-112452979D01*
X193671400Y-112452979D01*
X195900000Y-114681580D01*
X198128600Y-112452979D01*
X197734315Y-112011020D01*
X197037912Y-111718282D01*
X196297779Y-111567029D01*
X195542361Y-111563076D01*
X194800687Y-111706573D01*
X194101258Y-111992007D01*
X194065685Y-112011020D01*
X193671400Y-112452979D01*
X126728600Y-112452979D01*
X126334315Y-112011020D01*
X125637912Y-111718282D01*
X124897779Y-111567029D01*
X124142361Y-111563076D01*
X123400687Y-111706573D01*
X122701258Y-111992007D01*
X122665685Y-112011020D01*
X122271400Y-112452979D01*
X120735000Y-112452979D01*
X120735000Y-81653447D01*
X122715000Y-81653447D01*
X122715001Y-87896555D01*
X122725636Y-88004535D01*
X122767664Y-88143083D01*
X122835914Y-88270770D01*
X122849743Y-88287620D01*
X123104508Y-88703359D01*
X123130620Y-88739300D01*
X123155412Y-88776154D01*
X123774732Y-89556738D01*
X123774733Y-89556739D01*
X123853286Y-89641187D01*
X124587093Y-90315279D01*
X124587095Y-90315281D01*
X124677891Y-90386401D01*
X125508115Y-90937401D01*
X125608919Y-90993442D01*
X126515117Y-91407783D01*
X126623447Y-91447364D01*
X126623450Y-91447365D01*
X127583307Y-91714844D01*
X127696495Y-91736991D01*
X128686379Y-91851022D01*
X128801638Y-91855191D01*
X128801639Y-91855191D01*
X129797173Y-91812966D01*
X129797174Y-91812966D01*
X129818939Y-91810321D01*
X129911666Y-91799053D01*
X129911678Y-91799050D01*
X130888340Y-91601612D01*
X130978577Y-91575858D01*
X130999247Y-91569959D01*
X131738000Y-91294797D01*
X131738000Y-97307951D01*
X131484883Y-97192218D01*
X131376553Y-97152637D01*
X131376550Y-97152636D01*
X130416705Y-96885161D01*
X130416693Y-96885157D01*
X130303505Y-96863010D01*
X129313621Y-96748979D01*
X129198362Y-96744810D01*
X129198361Y-96744810D01*
X128202826Y-96787035D01*
X128088334Y-96800948D01*
X128088322Y-96800951D01*
X127111663Y-96998390D01*
X127111660Y-96998390D01*
X127000754Y-97030042D01*
X126066992Y-97377838D01*
X125962403Y-97426451D01*
X125094546Y-97916036D01*
X125094544Y-97916037D01*
X124998847Y-97980412D01*
X124218264Y-98599732D01*
X124218261Y-98599734D01*
X124133812Y-98678287D01*
X123459720Y-99412094D01*
X123415189Y-99468946D01*
X123388600Y-99502891D01*
X122858201Y-100302074D01*
X122835914Y-100329231D01*
X122767664Y-100456918D01*
X122725636Y-100595466D01*
X122715001Y-100703446D01*
X122715002Y-106946554D01*
X122725637Y-107054534D01*
X122767665Y-107193082D01*
X122835915Y-107320769D01*
X122849740Y-107337615D01*
X123104508Y-107753358D01*
X123130620Y-107789299D01*
X123155412Y-107826153D01*
X123774734Y-108606739D01*
X123853287Y-108691188D01*
X124587094Y-109365280D01*
X124667429Y-109428205D01*
X124677891Y-109436400D01*
X125508115Y-109987400D01*
X125608919Y-110043441D01*
X126515117Y-110457782D01*
X126623447Y-110497363D01*
X126623450Y-110497364D01*
X127583307Y-110764843D01*
X127696495Y-110786990D01*
X128686379Y-110901021D01*
X128801638Y-110905190D01*
X128801639Y-110905190D01*
X129797173Y-110862965D01*
X129797174Y-110862965D01*
X129809579Y-110861457D01*
X129911666Y-110849052D01*
X129911678Y-110849049D01*
X130888337Y-110651610D01*
X130888340Y-110651610D01*
X130999246Y-110619958D01*
X131933004Y-110272163D01*
X131933008Y-110272162D01*
X132037597Y-110223549D01*
X132533599Y-109943739D01*
X138775790Y-109943739D01*
X139084701Y-110313779D01*
X139660858Y-110536041D01*
X140269305Y-110641629D01*
X140886661Y-110626486D01*
X141489200Y-110491194D01*
X141917517Y-110313779D01*
X142226428Y-109943739D01*
X161675790Y-109943739D01*
X161984701Y-110313779D01*
X162560858Y-110536041D01*
X163169305Y-110641629D01*
X163786661Y-110626486D01*
X164389200Y-110491194D01*
X164817517Y-110313779D01*
X165126428Y-109943739D01*
X163401109Y-108218420D01*
X161675790Y-109943739D01*
X142226428Y-109943739D01*
X140501109Y-108218420D01*
X138775790Y-109943739D01*
X132533599Y-109943739D01*
X132905455Y-109733964D01*
X133001152Y-109669589D01*
X133001154Y-109669588D01*
X133781739Y-109050266D01*
X133866188Y-108971713D01*
X134540280Y-108237906D01*
X134611400Y-108147109D01*
X135162400Y-107316885D01*
X135189468Y-107268196D01*
X137359480Y-107268196D01*
X137374623Y-107885552D01*
X137509915Y-108488091D01*
X137687330Y-108916408D01*
X138057370Y-109225319D01*
X139782689Y-107500000D01*
X141219529Y-107500000D01*
X142944848Y-109225319D01*
X143314888Y-108916408D01*
X143537150Y-108340251D01*
X143642738Y-107731804D01*
X143631367Y-107268196D01*
X160259480Y-107268196D01*
X160274623Y-107885552D01*
X160409915Y-108488091D01*
X160587330Y-108916408D01*
X160957370Y-109225319D01*
X162682689Y-107500000D01*
X164119529Y-107500000D01*
X165844848Y-109225319D01*
X166214888Y-108916408D01*
X166437150Y-108340251D01*
X166528448Y-107814147D01*
X166713000Y-107814147D01*
X166713000Y-108185853D01*
X166785517Y-108550417D01*
X166927763Y-108893829D01*
X167134272Y-109202892D01*
X167397108Y-109465728D01*
X167706171Y-109672237D01*
X168049583Y-109814483D01*
X168414147Y-109887000D01*
X168785853Y-109887000D01*
X169150417Y-109814483D01*
X169493829Y-109672237D01*
X169802892Y-109465728D01*
X170065728Y-109202892D01*
X170272237Y-108893829D01*
X170414483Y-108550417D01*
X170487000Y-108185853D01*
X170487000Y-107814147D01*
X170478381Y-107770816D01*
X171408000Y-107770816D01*
X171408000Y-108229185D01*
X171431325Y-108466007D01*
X171523501Y-108769870D01*
X171673186Y-109049912D01*
X171874629Y-109295371D01*
X172120089Y-109496814D01*
X172400131Y-109646499D01*
X172703994Y-109738675D01*
X173020000Y-109769799D01*
X173336007Y-109738675D01*
X173639870Y-109646499D01*
X173919912Y-109496814D01*
X174165371Y-109295371D01*
X174290000Y-109143510D01*
X174414629Y-109295371D01*
X174660089Y-109496814D01*
X174940131Y-109646499D01*
X175243994Y-109738675D01*
X175560000Y-109769799D01*
X175876007Y-109738675D01*
X176179870Y-109646499D01*
X176459912Y-109496814D01*
X176593104Y-109387506D01*
X176613355Y-109425392D01*
X176708578Y-109541422D01*
X176824608Y-109636645D01*
X176956985Y-109707402D01*
X177100622Y-109750974D01*
X177250000Y-109765686D01*
X178950000Y-109765686D01*
X179099378Y-109750974D01*
X179243015Y-109707402D01*
X179375392Y-109636645D01*
X179491422Y-109541422D01*
X179586645Y-109425392D01*
X179657402Y-109293015D01*
X179700974Y-109149378D01*
X179715686Y-109000000D01*
X179715686Y-107000000D01*
X179700974Y-106850622D01*
X179657402Y-106706985D01*
X179586645Y-106574608D01*
X179491422Y-106458578D01*
X179375392Y-106363355D01*
X179243015Y-106292598D01*
X179099378Y-106249026D01*
X178950000Y-106234314D01*
X177250000Y-106234314D01*
X177100622Y-106249026D01*
X176956985Y-106292598D01*
X176824608Y-106363355D01*
X176708578Y-106458578D01*
X176613355Y-106574608D01*
X176593104Y-106612494D01*
X176459911Y-106503186D01*
X176179869Y-106353501D01*
X175876006Y-106261325D01*
X175560000Y-106230201D01*
X175243993Y-106261325D01*
X174940130Y-106353501D01*
X174660088Y-106503186D01*
X174414629Y-106704629D01*
X174290000Y-106856490D01*
X174165371Y-106704629D01*
X173919911Y-106503186D01*
X173639869Y-106353501D01*
X173336006Y-106261325D01*
X173020000Y-106230201D01*
X172703993Y-106261325D01*
X172400130Y-106353501D01*
X172120088Y-106503186D01*
X171874629Y-106704629D01*
X171673186Y-106950089D01*
X171523501Y-107230131D01*
X171431325Y-107533994D01*
X171408000Y-107770816D01*
X170478381Y-107770816D01*
X170414483Y-107449583D01*
X170272237Y-107106171D01*
X170065728Y-106797108D01*
X169802892Y-106534272D01*
X169493829Y-106327763D01*
X169150417Y-106185517D01*
X168785853Y-106113000D01*
X168414147Y-106113000D01*
X168049583Y-106185517D01*
X167706171Y-106327763D01*
X167397108Y-106534272D01*
X167134272Y-106797108D01*
X166927763Y-107106171D01*
X166785517Y-107449583D01*
X166713000Y-107814147D01*
X166528448Y-107814147D01*
X166542738Y-107731804D01*
X166527595Y-107114448D01*
X166392303Y-106511909D01*
X166214888Y-106083592D01*
X165844848Y-105774681D01*
X164119529Y-107500000D01*
X162682689Y-107500000D01*
X160957370Y-105774681D01*
X160587330Y-106083592D01*
X160365068Y-106659749D01*
X160259480Y-107268196D01*
X143631367Y-107268196D01*
X143627595Y-107114448D01*
X143492303Y-106511909D01*
X143314888Y-106083592D01*
X142944848Y-105774681D01*
X141219529Y-107500000D01*
X139782689Y-107500000D01*
X138057370Y-105774681D01*
X137687330Y-106083592D01*
X137465068Y-106659749D01*
X137359480Y-107268196D01*
X135189468Y-107268196D01*
X135218441Y-107216081D01*
X135632782Y-106309883D01*
X135672363Y-106201553D01*
X135672364Y-106201550D01*
X135934184Y-105262000D01*
X138981529Y-105262000D01*
X140501109Y-106781580D01*
X142020689Y-105262000D01*
X146037829Y-105262000D01*
X146106688Y-105282888D01*
X146501109Y-105321735D01*
X146895529Y-105282888D01*
X146964388Y-105262000D01*
X151487829Y-105262000D01*
X151556688Y-105282888D01*
X151951109Y-105321735D01*
X152345529Y-105282888D01*
X152414388Y-105262000D01*
X154000000Y-105262000D01*
X154148659Y-105247358D01*
X154291605Y-105203996D01*
X154423345Y-105133580D01*
X154538815Y-105038815D01*
X154633580Y-104923345D01*
X154703996Y-104791605D01*
X154747358Y-104648659D01*
X154762000Y-104500000D01*
X154762000Y-100050000D01*
X155385423Y-100050000D01*
X155385423Y-104550000D01*
X155400135Y-104699378D01*
X155443707Y-104843015D01*
X155514464Y-104975392D01*
X155609687Y-105091422D01*
X155725717Y-105186645D01*
X155858094Y-105257402D01*
X156001731Y-105300974D01*
X156151109Y-105315686D01*
X158651109Y-105315686D01*
X158800487Y-105300974D01*
X158944124Y-105257402D01*
X159076501Y-105186645D01*
X159192531Y-105091422D01*
X159221386Y-105056261D01*
X161675790Y-105056261D01*
X163401109Y-106781580D01*
X165126428Y-105056261D01*
X164817517Y-104686221D01*
X164241360Y-104463959D01*
X163632913Y-104358371D01*
X163015557Y-104373514D01*
X162413018Y-104508806D01*
X161984701Y-104686221D01*
X161675790Y-105056261D01*
X159221386Y-105056261D01*
X159287754Y-104975392D01*
X159358511Y-104843015D01*
X159402083Y-104699378D01*
X159416795Y-104550000D01*
X159416795Y-103626638D01*
X184319809Y-103626638D01*
X184362034Y-104622173D01*
X184375947Y-104736666D01*
X184375950Y-104736678D01*
X184573389Y-105713339D01*
X184605041Y-105824245D01*
X184952835Y-106758004D01*
X184952836Y-106758008D01*
X184969349Y-106793535D01*
X185001448Y-106862596D01*
X185001449Y-106862597D01*
X185491036Y-107730456D01*
X185555411Y-107826153D01*
X186174732Y-108606739D01*
X186253285Y-108691187D01*
X186987093Y-109365280D01*
X186987094Y-109365281D01*
X187077890Y-109436401D01*
X187908114Y-109987401D01*
X188008918Y-110043442D01*
X188915116Y-110457783D01*
X189023446Y-110497364D01*
X189023449Y-110497365D01*
X189983306Y-110764844D01*
X190096494Y-110786991D01*
X191086378Y-110901022D01*
X191201637Y-110905191D01*
X191201638Y-110905191D01*
X192197173Y-110862966D01*
X192197174Y-110862966D01*
X192209579Y-110861458D01*
X192311666Y-110849053D01*
X192311678Y-110849050D01*
X193288339Y-110651611D01*
X193399245Y-110619959D01*
X194333004Y-110272165D01*
X194333008Y-110272164D01*
X194409058Y-110236816D01*
X194437596Y-110223552D01*
X194437600Y-110223549D01*
X195305456Y-109733964D01*
X195401153Y-109669589D01*
X195401154Y-109669588D01*
X196181739Y-109050268D01*
X196266187Y-108971715D01*
X196266189Y-108971713D01*
X196940280Y-108237907D01*
X196982632Y-108183838D01*
X197011401Y-108147110D01*
X197541804Y-107347921D01*
X197564087Y-107320769D01*
X197632337Y-107193082D01*
X197674365Y-107054534D01*
X197685000Y-106946554D01*
X197685000Y-100703445D01*
X197674365Y-100595465D01*
X197632337Y-100456917D01*
X197564087Y-100329230D01*
X197550257Y-100312378D01*
X197295493Y-99896642D01*
X197269382Y-99860703D01*
X197244589Y-99823847D01*
X196625268Y-99043261D01*
X196546715Y-98958813D01*
X196546714Y-98958812D01*
X195812907Y-98284720D01*
X195786163Y-98263771D01*
X195722110Y-98213599D01*
X194891886Y-97662599D01*
X194791082Y-97606558D01*
X194791077Y-97606556D01*
X193884884Y-97192217D01*
X193776554Y-97152636D01*
X193776551Y-97152635D01*
X192816706Y-96885160D01*
X192816694Y-96885156D01*
X192703506Y-96863009D01*
X191713622Y-96748978D01*
X191598363Y-96744809D01*
X191598362Y-96744809D01*
X190602826Y-96787034D01*
X190488334Y-96800947D01*
X190488322Y-96800950D01*
X189511661Y-96998389D01*
X189400755Y-97030041D01*
X188466996Y-97377835D01*
X188466992Y-97377836D01*
X188423242Y-97398171D01*
X188362404Y-97426448D01*
X188362403Y-97426449D01*
X187494544Y-97916036D01*
X187398847Y-97980411D01*
X186618261Y-98599732D01*
X186554719Y-98658838D01*
X186533812Y-98678286D01*
X185859720Y-99412093D01*
X185859719Y-99412094D01*
X185788599Y-99502890D01*
X185237599Y-100333114D01*
X185181558Y-100433918D01*
X185181558Y-100433919D01*
X184767217Y-101340116D01*
X184727636Y-101448446D01*
X184727636Y-101448447D01*
X184460160Y-102408294D01*
X184460156Y-102408306D01*
X184438009Y-102521494D01*
X184323978Y-103511378D01*
X184319809Y-103626638D01*
X159416795Y-103626638D01*
X159416795Y-100050000D01*
X159402083Y-99900622D01*
X159358511Y-99756985D01*
X159287754Y-99624608D01*
X159192531Y-99508578D01*
X159076501Y-99413355D01*
X158944124Y-99342598D01*
X158800487Y-99299026D01*
X158651109Y-99284314D01*
X156151109Y-99284314D01*
X156001731Y-99299026D01*
X155858094Y-99342598D01*
X155725717Y-99413355D01*
X155609687Y-99508578D01*
X155514464Y-99624608D01*
X155443707Y-99756985D01*
X155400135Y-99900622D01*
X155385423Y-100050000D01*
X154762000Y-100050000D01*
X154762000Y-91800000D01*
X160636530Y-91800000D01*
X160636530Y-96800000D01*
X160651242Y-96949378D01*
X160694814Y-97093015D01*
X160765571Y-97225392D01*
X160860794Y-97341422D01*
X160976824Y-97436645D01*
X161109201Y-97507402D01*
X161252838Y-97550974D01*
X161402216Y-97565686D01*
X166402216Y-97565686D01*
X166551594Y-97550974D01*
X166695231Y-97507402D01*
X166827608Y-97436645D01*
X166943638Y-97341422D01*
X167038861Y-97225392D01*
X167109618Y-97093015D01*
X167153190Y-96949378D01*
X167167902Y-96800000D01*
X167167902Y-94101637D01*
X167822026Y-94101637D01*
X167864250Y-95097172D01*
X167878163Y-95211664D01*
X167878166Y-95211674D01*
X168075605Y-96188338D01*
X168107257Y-96299245D01*
X168455052Y-97233004D01*
X168455053Y-97233008D01*
X168477648Y-97281620D01*
X168503665Y-97337596D01*
X168503666Y-97337597D01*
X168993252Y-98205455D01*
X169057627Y-98301152D01*
X169676949Y-99081738D01*
X169755502Y-99166187D01*
X169755509Y-99166193D01*
X170489309Y-99840279D01*
X170580105Y-99911400D01*
X170580111Y-99911403D01*
X171410330Y-100462400D01*
X171511134Y-100518441D01*
X172417332Y-100932782D01*
X172525662Y-100972363D01*
X172525665Y-100972364D01*
X173485522Y-101239843D01*
X173598710Y-101261990D01*
X174588594Y-101376021D01*
X174703853Y-101380190D01*
X175699388Y-101337966D01*
X175699389Y-101337966D01*
X175713302Y-101336275D01*
X175813880Y-101324053D01*
X175813890Y-101324050D01*
X176790554Y-101126611D01*
X176834013Y-101114208D01*
X176901461Y-101094959D01*
X177835220Y-100747164D01*
X177835224Y-100747163D01*
X177911270Y-100711817D01*
X177939812Y-100698551D01*
X177939816Y-100698548D01*
X178807671Y-100208964D01*
X178903368Y-100144589D01*
X179683954Y-99525267D01*
X179768403Y-99446714D01*
X179768409Y-99446707D01*
X180442495Y-98712907D01*
X180445541Y-98709019D01*
X180463103Y-98686598D01*
X180513616Y-98622111D01*
X180513619Y-98622105D01*
X181044014Y-97822928D01*
X181066303Y-97795769D01*
X181134553Y-97668082D01*
X181176581Y-97529534D01*
X181187216Y-97421554D01*
X181187216Y-93450000D01*
X183284314Y-93450000D01*
X183284314Y-95150000D01*
X183299026Y-95299378D01*
X183342598Y-95443015D01*
X183413355Y-95575392D01*
X183508578Y-95691422D01*
X183624608Y-95786645D01*
X183756985Y-95857402D01*
X183900622Y-95900974D01*
X184050000Y-95915686D01*
X185750000Y-95915686D01*
X185899378Y-95900974D01*
X186043015Y-95857402D01*
X186175392Y-95786645D01*
X186291422Y-95691422D01*
X186386645Y-95575392D01*
X186403725Y-95543437D01*
X186412410Y-95552122D01*
X186676432Y-95728536D01*
X186969797Y-95850052D01*
X187281232Y-95912000D01*
X187598768Y-95912000D01*
X187910203Y-95850052D01*
X188203568Y-95728536D01*
X188467590Y-95552122D01*
X188692122Y-95327590D01*
X188868536Y-95063568D01*
X188990052Y-94770203D01*
X189052000Y-94458768D01*
X189052000Y-94141232D01*
X188990052Y-93829797D01*
X188868536Y-93536432D01*
X188692122Y-93272410D01*
X188467590Y-93047878D01*
X188203568Y-92871464D01*
X187910203Y-92749948D01*
X187598768Y-92688000D01*
X187281232Y-92688000D01*
X186969797Y-92749948D01*
X186676432Y-92871464D01*
X186412410Y-93047878D01*
X186403725Y-93056563D01*
X186386645Y-93024608D01*
X186291422Y-92908578D01*
X186175392Y-92813355D01*
X186043015Y-92742598D01*
X185899378Y-92699026D01*
X185750000Y-92684314D01*
X184050000Y-92684314D01*
X183900622Y-92699026D01*
X183756985Y-92742598D01*
X183624608Y-92813355D01*
X183508578Y-92908578D01*
X183413355Y-93024608D01*
X183342598Y-93156985D01*
X183299026Y-93300622D01*
X183284314Y-93450000D01*
X181187216Y-93450000D01*
X181187216Y-91178446D01*
X181176581Y-91070466D01*
X181134553Y-90931918D01*
X181066303Y-90804231D01*
X181052473Y-90787379D01*
X180797709Y-90371643D01*
X180771598Y-90335704D01*
X180746805Y-90298848D01*
X180127483Y-89518262D01*
X180048930Y-89433814D01*
X179315123Y-88759721D01*
X179311592Y-88756955D01*
X179224326Y-88688600D01*
X178394102Y-88137600D01*
X178293298Y-88081559D01*
X178293293Y-88081557D01*
X177387100Y-87667218D01*
X177278770Y-87627637D01*
X177278767Y-87627636D01*
X176318922Y-87360161D01*
X176318910Y-87360157D01*
X176205722Y-87338010D01*
X175215838Y-87223979D01*
X175100579Y-87219810D01*
X174105044Y-87262034D01*
X174105043Y-87262034D01*
X174091130Y-87263725D01*
X173990552Y-87275947D01*
X173990542Y-87275950D01*
X173013880Y-87473389D01*
X173013877Y-87473389D01*
X172902971Y-87505041D01*
X171969208Y-87852837D01*
X171864619Y-87901450D01*
X170996761Y-88391036D01*
X170901064Y-88455411D01*
X170120478Y-89074733D01*
X170036030Y-89153286D01*
X169361937Y-89887093D01*
X169361936Y-89887094D01*
X169290816Y-89977890D01*
X168739816Y-90808114D01*
X168683775Y-90908918D01*
X168683775Y-90908919D01*
X168269434Y-91815116D01*
X168230172Y-91922574D01*
X168229853Y-91923447D01*
X167962377Y-92883294D01*
X167962373Y-92883306D01*
X167940226Y-92996494D01*
X167826195Y-93986378D01*
X167822026Y-94101637D01*
X167167902Y-94101637D01*
X167167902Y-91800000D01*
X167153190Y-91650622D01*
X167109618Y-91506985D01*
X167038861Y-91374608D01*
X166943638Y-91258578D01*
X166827608Y-91163355D01*
X166695231Y-91092598D01*
X166551594Y-91049026D01*
X166402216Y-91034314D01*
X161402216Y-91034314D01*
X161252838Y-91049026D01*
X161109201Y-91092598D01*
X160976824Y-91163355D01*
X160860794Y-91258578D01*
X160765571Y-91374608D01*
X160694814Y-91506985D01*
X160651242Y-91650622D01*
X160636530Y-91800000D01*
X154762000Y-91800000D01*
X154762000Y-85201160D01*
X155389109Y-85201160D01*
X155389110Y-87398841D01*
X155418222Y-87694421D01*
X155533270Y-88073684D01*
X155720099Y-88423216D01*
X155971527Y-88729583D01*
X156277894Y-88981011D01*
X156627426Y-89167840D01*
X157006689Y-89282888D01*
X157401109Y-89321735D01*
X157795530Y-89282888D01*
X158174793Y-89167840D01*
X158524325Y-88981011D01*
X158830692Y-88729583D01*
X159082120Y-88423216D01*
X159268949Y-88073684D01*
X159383997Y-87694421D01*
X159413109Y-87398841D01*
X159413109Y-85201159D01*
X159383997Y-84905579D01*
X159284214Y-84576637D01*
X184319810Y-84576637D01*
X184362034Y-85572172D01*
X184375947Y-85686664D01*
X184375950Y-85686674D01*
X184573389Y-86663338D01*
X184605041Y-86774245D01*
X184952836Y-87708004D01*
X184952837Y-87708008D01*
X184975432Y-87756620D01*
X185001449Y-87812596D01*
X185001450Y-87812597D01*
X185491036Y-88680455D01*
X185555411Y-88776152D01*
X186174733Y-89556738D01*
X186253286Y-89641187D01*
X186253293Y-89641193D01*
X186987093Y-90315279D01*
X186987094Y-90315280D01*
X187006769Y-90330691D01*
X187077889Y-90386400D01*
X187077895Y-90386403D01*
X187908114Y-90937400D01*
X188008918Y-90993441D01*
X188915116Y-91407782D01*
X189023446Y-91447363D01*
X189023449Y-91447364D01*
X189983306Y-91714843D01*
X190096494Y-91736990D01*
X191086378Y-91851021D01*
X191201637Y-91855190D01*
X192197172Y-91812966D01*
X192197173Y-91812966D01*
X192218938Y-91810321D01*
X192311664Y-91799053D01*
X192311674Y-91799050D01*
X193288338Y-91601611D01*
X193331797Y-91589208D01*
X193399245Y-91569959D01*
X194333004Y-91222164D01*
X194333008Y-91222163D01*
X194381620Y-91199568D01*
X194437596Y-91173551D01*
X194437600Y-91173548D01*
X195305455Y-90683964D01*
X195401152Y-90619589D01*
X195401153Y-90619588D01*
X196181738Y-90000267D01*
X196266187Y-89921714D01*
X196266193Y-89921707D01*
X196940279Y-89187907D01*
X196943325Y-89184019D01*
X196960887Y-89161598D01*
X197011400Y-89097111D01*
X197011403Y-89097105D01*
X197541795Y-88297933D01*
X197564087Y-88270770D01*
X197632337Y-88143083D01*
X197674365Y-88004535D01*
X197685000Y-87896555D01*
X197685000Y-81653446D01*
X197674365Y-81545466D01*
X197632337Y-81406918D01*
X197564087Y-81279231D01*
X197550257Y-81262379D01*
X197295493Y-80846643D01*
X197269382Y-80810704D01*
X197244589Y-80773848D01*
X196625267Y-79993262D01*
X196546714Y-79908814D01*
X196546713Y-79908813D01*
X195812907Y-79234721D01*
X195812906Y-79234720D01*
X195722110Y-79163600D01*
X194891886Y-78612600D01*
X194791082Y-78556559D01*
X194791077Y-78556557D01*
X193884884Y-78142218D01*
X193776554Y-78102637D01*
X193776551Y-78102636D01*
X192816706Y-77835161D01*
X192816694Y-77835157D01*
X192703506Y-77813010D01*
X191713622Y-77698979D01*
X191598363Y-77694810D01*
X190602828Y-77737034D01*
X190602827Y-77737034D01*
X190588914Y-77738725D01*
X190488336Y-77750947D01*
X190488326Y-77750950D01*
X189511664Y-77948389D01*
X189511661Y-77948389D01*
X189400755Y-77980041D01*
X188466992Y-78327837D01*
X188362403Y-78376450D01*
X187494545Y-78866036D01*
X187398848Y-78930411D01*
X186618262Y-79549733D01*
X186533814Y-79628286D01*
X185859721Y-80362093D01*
X185859720Y-80362094D01*
X185788600Y-80452890D01*
X185237600Y-81283114D01*
X185181559Y-81383918D01*
X185181559Y-81383919D01*
X184767218Y-82290116D01*
X184727637Y-82398446D01*
X184727637Y-82398447D01*
X184460161Y-83358294D01*
X184460157Y-83358306D01*
X184438010Y-83471494D01*
X184323979Y-84461378D01*
X184319810Y-84576637D01*
X159284214Y-84576637D01*
X159268949Y-84526316D01*
X159082120Y-84176784D01*
X158830692Y-83870417D01*
X158524325Y-83618989D01*
X158383542Y-83543739D01*
X161675790Y-83543739D01*
X161984701Y-83913779D01*
X162560858Y-84136041D01*
X163169305Y-84241629D01*
X163786661Y-84226486D01*
X164389200Y-84091194D01*
X164817517Y-83913779D01*
X165126428Y-83543739D01*
X163401109Y-81818420D01*
X161675790Y-83543739D01*
X158383542Y-83543739D01*
X158174792Y-83432160D01*
X157795529Y-83317112D01*
X157401109Y-83278265D01*
X157006688Y-83317112D01*
X156627425Y-83432160D01*
X156277893Y-83618989D01*
X155971526Y-83870417D01*
X155720098Y-84176784D01*
X155533269Y-84526317D01*
X155418221Y-84905580D01*
X155389109Y-85201160D01*
X154762000Y-85201160D01*
X154762000Y-84000000D01*
X154747358Y-83851341D01*
X154703996Y-83708395D01*
X154633580Y-83576655D01*
X154538815Y-83461185D01*
X154423345Y-83366420D01*
X154291605Y-83296004D01*
X154148659Y-83252642D01*
X154000000Y-83238000D01*
X142817251Y-83238000D01*
X143087392Y-82967859D01*
X142944850Y-82825317D01*
X143314888Y-82516408D01*
X143537150Y-81940251D01*
X143642738Y-81331804D01*
X143631367Y-80868196D01*
X160259480Y-80868196D01*
X160274623Y-81485552D01*
X160409915Y-82088091D01*
X160587330Y-82516408D01*
X160957370Y-82825319D01*
X162682689Y-81100000D01*
X164119529Y-81100000D01*
X165844848Y-82825319D01*
X166214888Y-82516408D01*
X166437150Y-81940251D01*
X166542738Y-81331804D01*
X166527595Y-80714448D01*
X166392303Y-80111909D01*
X166214888Y-79683592D01*
X165844848Y-79374681D01*
X164119529Y-81100000D01*
X162682689Y-81100000D01*
X160957370Y-79374681D01*
X160587330Y-79683592D01*
X160365068Y-80259749D01*
X160259480Y-80868196D01*
X143631367Y-80868196D01*
X143627595Y-80714448D01*
X143492303Y-80111909D01*
X143314888Y-79683592D01*
X142944848Y-79374681D01*
X141219529Y-81100000D01*
X141233672Y-81114143D01*
X140515252Y-81832563D01*
X140501109Y-81818420D01*
X140486967Y-81832563D01*
X139768547Y-81114143D01*
X139782689Y-81100000D01*
X138057370Y-79374681D01*
X137687330Y-79683592D01*
X137465068Y-80259749D01*
X137359480Y-80868196D01*
X137374623Y-81485552D01*
X137509915Y-82088091D01*
X137687330Y-82516408D01*
X138057368Y-82825317D01*
X137914826Y-82967859D01*
X138184967Y-83238000D01*
X135897637Y-83238000D01*
X135826611Y-82886660D01*
X135826611Y-82886659D01*
X135794959Y-82775753D01*
X135447163Y-81841991D01*
X135398550Y-81737402D01*
X134908963Y-80869543D01*
X134908963Y-80869542D01*
X134844588Y-80773846D01*
X134225267Y-79993261D01*
X134146714Y-79908813D01*
X134146713Y-79908812D01*
X133412906Y-79234720D01*
X133386342Y-79213912D01*
X133322109Y-79163599D01*
X132557674Y-78656261D01*
X138775790Y-78656261D01*
X140501109Y-80381580D01*
X142226428Y-78656261D01*
X161675790Y-78656261D01*
X163401109Y-80381580D01*
X165126428Y-78656261D01*
X164817517Y-78286221D01*
X164241360Y-78063959D01*
X163632913Y-77958371D01*
X163015557Y-77973514D01*
X162413018Y-78108806D01*
X161984701Y-78286221D01*
X161675790Y-78656261D01*
X142226428Y-78656261D01*
X141917517Y-78286221D01*
X141341360Y-78063959D01*
X140732913Y-77958371D01*
X140115557Y-77973514D01*
X139513018Y-78108806D01*
X139084701Y-78286221D01*
X138775790Y-78656261D01*
X132557674Y-78656261D01*
X132491885Y-78612599D01*
X132391081Y-78556558D01*
X132391076Y-78556556D01*
X131484883Y-78142217D01*
X131376553Y-78102636D01*
X131376550Y-78102635D01*
X130416705Y-77835160D01*
X130416693Y-77835156D01*
X130303505Y-77813009D01*
X129313621Y-77698978D01*
X129198362Y-77694809D01*
X129198361Y-77694809D01*
X128202826Y-77737034D01*
X128088334Y-77750947D01*
X128088322Y-77750950D01*
X127111662Y-77948389D01*
X127111659Y-77948389D01*
X127000753Y-77980041D01*
X126066991Y-78327837D01*
X125962402Y-78376450D01*
X125094548Y-78866034D01*
X125094542Y-78866037D01*
X124998846Y-78930412D01*
X124218261Y-79549733D01*
X124218260Y-79549734D01*
X124133812Y-79628287D01*
X123459721Y-80362093D01*
X123459719Y-80362095D01*
X123388599Y-80452891D01*
X122858196Y-81252080D01*
X122835913Y-81279232D01*
X122767663Y-81406919D01*
X122725635Y-81545467D01*
X122715000Y-81653447D01*
X120735000Y-81653447D01*
X120735000Y-76147021D01*
X122271400Y-76147021D01*
X122665685Y-76588980D01*
X123362088Y-76881718D01*
X124102221Y-77032971D01*
X124857639Y-77036924D01*
X125064893Y-76996825D01*
X179320605Y-76996825D01*
X179335317Y-77146203D01*
X179378889Y-77289840D01*
X179449646Y-77422217D01*
X179544869Y-77538247D01*
X183080403Y-81073781D01*
X183196433Y-81169004D01*
X183328810Y-81239761D01*
X183472447Y-81283333D01*
X183621825Y-81298045D01*
X183771203Y-81283333D01*
X183914840Y-81239761D01*
X184047217Y-81169004D01*
X184163247Y-81073781D01*
X187698781Y-77538247D01*
X187794004Y-77422217D01*
X187864761Y-77289840D01*
X187908333Y-77146203D01*
X187923045Y-76996825D01*
X187908333Y-76847447D01*
X187864761Y-76703810D01*
X187794004Y-76571433D01*
X187698781Y-76455403D01*
X187390399Y-76147021D01*
X193671400Y-76147021D01*
X194065685Y-76588980D01*
X194762088Y-76881718D01*
X195502221Y-77032971D01*
X196257639Y-77036924D01*
X196999313Y-76893427D01*
X197698742Y-76607993D01*
X197734315Y-76588980D01*
X198128600Y-76147021D01*
X195900000Y-73918420D01*
X193671400Y-76147021D01*
X187390399Y-76147021D01*
X184801017Y-73557639D01*
X192063076Y-73557639D01*
X192206573Y-74299313D01*
X192492007Y-74998742D01*
X192511020Y-75034315D01*
X192952979Y-75428600D01*
X195181580Y-73200000D01*
X192952979Y-70971400D01*
X192511020Y-71365685D01*
X192218282Y-72062088D01*
X192067029Y-72802221D01*
X192063076Y-73557639D01*
X184801017Y-73557639D01*
X184163247Y-72919869D01*
X184047217Y-72824646D01*
X183914840Y-72753889D01*
X183771203Y-72710317D01*
X183621825Y-72695605D01*
X183472447Y-72710317D01*
X183328810Y-72753889D01*
X183196433Y-72824646D01*
X183080403Y-72919869D01*
X179544869Y-76455403D01*
X179449646Y-76571433D01*
X179378889Y-76703810D01*
X179335317Y-76847447D01*
X179320605Y-76996825D01*
X125064893Y-76996825D01*
X125599313Y-76893427D01*
X126298742Y-76607993D01*
X126334315Y-76588980D01*
X126728600Y-76147021D01*
X124500000Y-73918420D01*
X122271400Y-76147021D01*
X120735000Y-76147021D01*
X120735000Y-73929383D01*
X120806573Y-74299313D01*
X121092007Y-74998742D01*
X121111020Y-75034315D01*
X121552979Y-75428600D01*
X123781580Y-73200000D01*
X125218420Y-73200000D01*
X127447021Y-75428600D01*
X127888980Y-75034315D01*
X128181718Y-74337912D01*
X128332971Y-73597779D01*
X128336924Y-72842361D01*
X128193427Y-72100687D01*
X127907993Y-71401258D01*
X127888980Y-71365685D01*
X127447021Y-70971400D01*
X125218420Y-73200000D01*
X123781580Y-73200000D01*
X121552979Y-70971400D01*
X121111020Y-71365685D01*
X120818282Y-72062088D01*
X120735000Y-72469615D01*
X120735000Y-70635947D01*
X120762549Y-70354979D01*
X120793344Y-70252979D01*
X122271400Y-70252979D01*
X124500000Y-72481580D01*
X126728600Y-70252979D01*
X193671400Y-70252979D01*
X195900000Y-72481580D01*
X198128600Y-70252979D01*
X197734315Y-69811020D01*
X197037912Y-69518282D01*
X196297779Y-69367029D01*
X195542361Y-69363076D01*
X194800687Y-69506573D01*
X194101258Y-69792007D01*
X194065685Y-69811020D01*
X193671400Y-70252979D01*
X126728600Y-70252979D01*
X126334315Y-69811020D01*
X125637912Y-69518282D01*
X124897779Y-69367029D01*
X124142361Y-69363076D01*
X123400687Y-69506573D01*
X122701258Y-69792007D01*
X122665685Y-69811020D01*
X122271400Y-70252979D01*
X120793344Y-70252979D01*
X120833708Y-70119288D01*
X120949291Y-69901911D01*
X121104895Y-69711121D01*
X121294593Y-69554189D01*
X121511157Y-69437094D01*
X121746344Y-69364291D01*
X122025028Y-69335000D01*
X198364053Y-69335000D01*
X198645021Y-69362549D01*
G37*
X198645021Y-69362549D02*
X198880712Y-69433708D01*
X199098089Y-69549291D01*
X199288879Y-69704895D01*
X199445811Y-69894593D01*
X199562906Y-70111157D01*
X199635709Y-70346344D01*
X199665000Y-70625028D01*
X199665000Y-72470617D01*
X199593427Y-72100687D01*
X199307993Y-71401258D01*
X199288980Y-71365685D01*
X198847021Y-70971400D01*
X196618420Y-73200000D01*
X198847021Y-75428600D01*
X199288980Y-75034315D01*
X199581718Y-74337912D01*
X199665000Y-73930384D01*
X199665001Y-114670622D01*
X199593427Y-114300687D01*
X199307993Y-113601258D01*
X199288980Y-113565685D01*
X198847021Y-113171400D01*
X196618420Y-115400000D01*
X198847021Y-117628600D01*
X199288980Y-117234315D01*
X199581718Y-116537912D01*
X199665001Y-116130380D01*
X199665001Y-117964043D01*
X199637451Y-118245021D01*
X199566291Y-118480712D01*
X199450711Y-118698088D01*
X199295104Y-118888879D01*
X199105408Y-119045811D01*
X198888843Y-119162906D01*
X198653656Y-119235709D01*
X198374972Y-119265000D01*
X122035947Y-119265000D01*
X121754979Y-119237451D01*
X121519288Y-119166291D01*
X121301912Y-119050711D01*
X121111121Y-118895104D01*
X120954189Y-118705408D01*
X120837094Y-118488843D01*
X120793193Y-118347021D01*
X122271400Y-118347021D01*
X122665685Y-118788980D01*
X123362088Y-119081718D01*
X124102221Y-119232971D01*
X124857639Y-119236924D01*
X125599313Y-119093427D01*
X126298742Y-118807993D01*
X126334315Y-118788980D01*
X126728600Y-118347021D01*
X193671400Y-118347021D01*
X194065685Y-118788980D01*
X194762088Y-119081718D01*
X195502221Y-119232971D01*
X196257639Y-119236924D01*
X196999313Y-119093427D01*
X197698742Y-118807993D01*
X197734315Y-118788980D01*
X198128600Y-118347021D01*
X195900000Y-116118420D01*
X193671400Y-118347021D01*
X126728600Y-118347021D01*
X124500000Y-116118420D01*
X122271400Y-118347021D01*
X120793193Y-118347021D01*
X120764291Y-118253656D01*
X120735000Y-117974972D01*
X120735000Y-116129383D01*
X120806573Y-116499313D01*
X121092007Y-117198742D01*
X121111020Y-117234315D01*
X121552979Y-117628600D01*
X123781580Y-115400000D01*
X125218420Y-115400000D01*
X127447021Y-117628600D01*
X127888980Y-117234315D01*
X128181718Y-116537912D01*
X128332971Y-115797779D01*
X128335100Y-115390816D01*
X171408000Y-115390816D01*
X171408000Y-115849185D01*
X171431325Y-116086007D01*
X171523501Y-116389870D01*
X171673186Y-116669912D01*
X171874629Y-116915371D01*
X172120089Y-117116814D01*
X172400131Y-117266499D01*
X172703994Y-117358675D01*
X173020000Y-117389799D01*
X173336007Y-117358675D01*
X173639870Y-117266499D01*
X173919912Y-117116814D01*
X174165371Y-116915371D01*
X174366814Y-116669912D01*
X174516499Y-116389869D01*
X174608675Y-116086006D01*
X174632000Y-115849184D01*
X174632000Y-115390816D01*
X176488000Y-115390816D01*
X176488000Y-115849185D01*
X176511325Y-116086007D01*
X176603501Y-116389870D01*
X176753186Y-116669912D01*
X176954629Y-116915371D01*
X177200089Y-117116814D01*
X177480131Y-117266499D01*
X177783994Y-117358675D01*
X178100000Y-117389799D01*
X178416007Y-117358675D01*
X178719870Y-117266499D01*
X178999912Y-117116814D01*
X179245371Y-116915371D01*
X179446814Y-116669912D01*
X179596499Y-116389869D01*
X179688675Y-116086006D01*
X179712000Y-115849184D01*
X179712000Y-115757639D01*
X192063076Y-115757639D01*
X192206573Y-116499313D01*
X192492007Y-117198742D01*
X192511020Y-117234315D01*
X192952979Y-117628600D01*
X195181580Y-115400000D01*
X192952979Y-113171400D01*
X192511020Y-113565685D01*
X192218282Y-114262088D01*
X192067029Y-115002221D01*
X192063076Y-115757639D01*
X179712000Y-115757639D01*
X179712000Y-115390815D01*
X179688675Y-115153993D01*
X179596499Y-114850130D01*
X179446814Y-114570088D01*
X179245371Y-114324629D01*
X178999911Y-114123186D01*
X178719869Y-113973501D01*
X178416006Y-113881325D01*
X178100000Y-113850201D01*
X177783993Y-113881325D01*
X177480130Y-113973501D01*
X177200088Y-114123186D01*
X176954629Y-114324629D01*
X176753186Y-114570089D01*
X176603501Y-114850131D01*
X176511325Y-115153994D01*
X176488000Y-115390816D01*
X174632000Y-115390816D01*
X174632000Y-115390815D01*
X174608675Y-115153993D01*
X174516499Y-114850130D01*
X174366814Y-114570088D01*
X174165371Y-114324629D01*
X173919911Y-114123186D01*
X173639869Y-113973501D01*
X173336006Y-113881325D01*
X173020000Y-113850201D01*
X172703993Y-113881325D01*
X172400130Y-113973501D01*
X172120088Y-114123186D01*
X171874629Y-114324629D01*
X171673186Y-114570089D01*
X171523501Y-114850131D01*
X171431325Y-115153994D01*
X171408000Y-115390816D01*
X128335100Y-115390816D01*
X128336924Y-115042361D01*
X128193427Y-114300687D01*
X127907993Y-113601258D01*
X127888980Y-113565685D01*
X127447021Y-113171400D01*
X125218420Y-115400000D01*
X123781580Y-115400000D01*
X121552979Y-113171400D01*
X121111020Y-113565685D01*
X120818282Y-114262088D01*
X120735000Y-114669615D01*
X120735000Y-112452979D01*
X122271400Y-112452979D01*
X124500000Y-114681580D01*
X126728600Y-112452979D01*
X193671400Y-112452979D01*
X195900000Y-114681580D01*
X198128600Y-112452979D01*
X197734315Y-112011020D01*
X197037912Y-111718282D01*
X196297779Y-111567029D01*
X195542361Y-111563076D01*
X194800687Y-111706573D01*
X194101258Y-111992007D01*
X194065685Y-112011020D01*
X193671400Y-112452979D01*
X126728600Y-112452979D01*
X126334315Y-112011020D01*
X125637912Y-111718282D01*
X124897779Y-111567029D01*
X124142361Y-111563076D01*
X123400687Y-111706573D01*
X122701258Y-111992007D01*
X122665685Y-112011020D01*
X122271400Y-112452979D01*
X120735000Y-112452979D01*
X120735000Y-81653447D01*
X122715000Y-81653447D01*
X122715001Y-87896555D01*
X122725636Y-88004535D01*
X122767664Y-88143083D01*
X122835914Y-88270770D01*
X122849743Y-88287620D01*
X123104508Y-88703359D01*
X123130620Y-88739300D01*
X123155412Y-88776154D01*
X123774732Y-89556738D01*
X123774733Y-89556739D01*
X123853286Y-89641187D01*
X124587093Y-90315279D01*
X124587095Y-90315281D01*
X124677891Y-90386401D01*
X125508115Y-90937401D01*
X125608919Y-90993442D01*
X126515117Y-91407783D01*
X126623447Y-91447364D01*
X126623450Y-91447365D01*
X127583307Y-91714844D01*
X127696495Y-91736991D01*
X128686379Y-91851022D01*
X128801638Y-91855191D01*
X128801639Y-91855191D01*
X129797173Y-91812966D01*
X129797174Y-91812966D01*
X129818939Y-91810321D01*
X129911666Y-91799053D01*
X129911678Y-91799050D01*
X130888340Y-91601612D01*
X130978577Y-91575858D01*
X130999247Y-91569959D01*
X131738000Y-91294797D01*
X131738000Y-97307951D01*
X131484883Y-97192218D01*
X131376553Y-97152637D01*
X131376550Y-97152636D01*
X130416705Y-96885161D01*
X130416693Y-96885157D01*
X130303505Y-96863010D01*
X129313621Y-96748979D01*
X129198362Y-96744810D01*
X129198361Y-96744810D01*
X128202826Y-96787035D01*
X128088334Y-96800948D01*
X128088322Y-96800951D01*
X127111663Y-96998390D01*
X127111660Y-96998390D01*
X127000754Y-97030042D01*
X126066992Y-97377838D01*
X125962403Y-97426451D01*
X125094546Y-97916036D01*
X125094544Y-97916037D01*
X124998847Y-97980412D01*
X124218264Y-98599732D01*
X124218261Y-98599734D01*
X124133812Y-98678287D01*
X123459720Y-99412094D01*
X123415189Y-99468946D01*
X123388600Y-99502891D01*
X122858201Y-100302074D01*
X122835914Y-100329231D01*
X122767664Y-100456918D01*
X122725636Y-100595466D01*
X122715001Y-100703446D01*
X122715002Y-106946554D01*
X122725637Y-107054534D01*
X122767665Y-107193082D01*
X122835915Y-107320769D01*
X122849740Y-107337615D01*
X123104508Y-107753358D01*
X123130620Y-107789299D01*
X123155412Y-107826153D01*
X123774734Y-108606739D01*
X123853287Y-108691188D01*
X124587094Y-109365280D01*
X124667429Y-109428205D01*
X124677891Y-109436400D01*
X125508115Y-109987400D01*
X125608919Y-110043441D01*
X126515117Y-110457782D01*
X126623447Y-110497363D01*
X126623450Y-110497364D01*
X127583307Y-110764843D01*
X127696495Y-110786990D01*
X128686379Y-110901021D01*
X128801638Y-110905190D01*
X128801639Y-110905190D01*
X129797173Y-110862965D01*
X129797174Y-110862965D01*
X129809579Y-110861457D01*
X129911666Y-110849052D01*
X129911678Y-110849049D01*
X130888337Y-110651610D01*
X130888340Y-110651610D01*
X130999246Y-110619958D01*
X131933004Y-110272163D01*
X131933008Y-110272162D01*
X132037597Y-110223549D01*
X132533599Y-109943739D01*
X138775790Y-109943739D01*
X139084701Y-110313779D01*
X139660858Y-110536041D01*
X140269305Y-110641629D01*
X140886661Y-110626486D01*
X141489200Y-110491194D01*
X141917517Y-110313779D01*
X142226428Y-109943739D01*
X161675790Y-109943739D01*
X161984701Y-110313779D01*
X162560858Y-110536041D01*
X163169305Y-110641629D01*
X163786661Y-110626486D01*
X164389200Y-110491194D01*
X164817517Y-110313779D01*
X165126428Y-109943739D01*
X163401109Y-108218420D01*
X161675790Y-109943739D01*
X142226428Y-109943739D01*
X140501109Y-108218420D01*
X138775790Y-109943739D01*
X132533599Y-109943739D01*
X132905455Y-109733964D01*
X133001152Y-109669589D01*
X133001154Y-109669588D01*
X133781739Y-109050266D01*
X133866188Y-108971713D01*
X134540280Y-108237906D01*
X134611400Y-108147109D01*
X135162400Y-107316885D01*
X135189468Y-107268196D01*
X137359480Y-107268196D01*
X137374623Y-107885552D01*
X137509915Y-108488091D01*
X137687330Y-108916408D01*
X138057370Y-109225319D01*
X139782689Y-107500000D01*
X141219529Y-107500000D01*
X142944848Y-109225319D01*
X143314888Y-108916408D01*
X143537150Y-108340251D01*
X143642738Y-107731804D01*
X143631367Y-107268196D01*
X160259480Y-107268196D01*
X160274623Y-107885552D01*
X160409915Y-108488091D01*
X160587330Y-108916408D01*
X160957370Y-109225319D01*
X162682689Y-107500000D01*
X164119529Y-107500000D01*
X165844848Y-109225319D01*
X166214888Y-108916408D01*
X166437150Y-108340251D01*
X166528448Y-107814147D01*
X166713000Y-107814147D01*
X166713000Y-108185853D01*
X166785517Y-108550417D01*
X166927763Y-108893829D01*
X167134272Y-109202892D01*
X167397108Y-109465728D01*
X167706171Y-109672237D01*
X168049583Y-109814483D01*
X168414147Y-109887000D01*
X168785853Y-109887000D01*
X169150417Y-109814483D01*
X169493829Y-109672237D01*
X169802892Y-109465728D01*
X170065728Y-109202892D01*
X170272237Y-108893829D01*
X170414483Y-108550417D01*
X170487000Y-108185853D01*
X170487000Y-107814147D01*
X170478381Y-107770816D01*
X171408000Y-107770816D01*
X171408000Y-108229185D01*
X171431325Y-108466007D01*
X171523501Y-108769870D01*
X171673186Y-109049912D01*
X171874629Y-109295371D01*
X172120089Y-109496814D01*
X172400131Y-109646499D01*
X172703994Y-109738675D01*
X173020000Y-109769799D01*
X173336007Y-109738675D01*
X173639870Y-109646499D01*
X173919912Y-109496814D01*
X174165371Y-109295371D01*
X174290000Y-109143510D01*
X174414629Y-109295371D01*
X174660089Y-109496814D01*
X174940131Y-109646499D01*
X175243994Y-109738675D01*
X175560000Y-109769799D01*
X175876007Y-109738675D01*
X176179870Y-109646499D01*
X176459912Y-109496814D01*
X176593104Y-109387506D01*
X176613355Y-109425392D01*
X176708578Y-109541422D01*
X176824608Y-109636645D01*
X176956985Y-109707402D01*
X177100622Y-109750974D01*
X177250000Y-109765686D01*
X178950000Y-109765686D01*
X179099378Y-109750974D01*
X179243015Y-109707402D01*
X179375392Y-109636645D01*
X179491422Y-109541422D01*
X179586645Y-109425392D01*
X179657402Y-109293015D01*
X179700974Y-109149378D01*
X179715686Y-109000000D01*
X179715686Y-107000000D01*
X179700974Y-106850622D01*
X179657402Y-106706985D01*
X179586645Y-106574608D01*
X179491422Y-106458578D01*
X179375392Y-106363355D01*
X179243015Y-106292598D01*
X179099378Y-106249026D01*
X178950000Y-106234314D01*
X177250000Y-106234314D01*
X177100622Y-106249026D01*
X176956985Y-106292598D01*
X176824608Y-106363355D01*
X176708578Y-106458578D01*
X176613355Y-106574608D01*
X176593104Y-106612494D01*
X176459911Y-106503186D01*
X176179869Y-106353501D01*
X175876006Y-106261325D01*
X175560000Y-106230201D01*
X175243993Y-106261325D01*
X174940130Y-106353501D01*
X174660088Y-106503186D01*
X174414629Y-106704629D01*
X174290000Y-106856490D01*
X174165371Y-106704629D01*
X173919911Y-106503186D01*
X173639869Y-106353501D01*
X173336006Y-106261325D01*
X173020000Y-106230201D01*
X172703993Y-106261325D01*
X172400130Y-106353501D01*
X172120088Y-106503186D01*
X171874629Y-106704629D01*
X171673186Y-106950089D01*
X171523501Y-107230131D01*
X171431325Y-107533994D01*
X171408000Y-107770816D01*
X170478381Y-107770816D01*
X170414483Y-107449583D01*
X170272237Y-107106171D01*
X170065728Y-106797108D01*
X169802892Y-106534272D01*
X169493829Y-106327763D01*
X169150417Y-106185517D01*
X168785853Y-106113000D01*
X168414147Y-106113000D01*
X168049583Y-106185517D01*
X167706171Y-106327763D01*
X167397108Y-106534272D01*
X167134272Y-106797108D01*
X166927763Y-107106171D01*
X166785517Y-107449583D01*
X166713000Y-107814147D01*
X166528448Y-107814147D01*
X166542738Y-107731804D01*
X166527595Y-107114448D01*
X166392303Y-106511909D01*
X166214888Y-106083592D01*
X165844848Y-105774681D01*
X164119529Y-107500000D01*
X162682689Y-107500000D01*
X160957370Y-105774681D01*
X160587330Y-106083592D01*
X160365068Y-106659749D01*
X160259480Y-107268196D01*
X143631367Y-107268196D01*
X143627595Y-107114448D01*
X143492303Y-106511909D01*
X143314888Y-106083592D01*
X142944848Y-105774681D01*
X141219529Y-107500000D01*
X139782689Y-107500000D01*
X138057370Y-105774681D01*
X137687330Y-106083592D01*
X137465068Y-106659749D01*
X137359480Y-107268196D01*
X135189468Y-107268196D01*
X135218441Y-107216081D01*
X135632782Y-106309883D01*
X135672363Y-106201553D01*
X135672364Y-106201550D01*
X135934184Y-105262000D01*
X138981529Y-105262000D01*
X140501109Y-106781580D01*
X142020689Y-105262000D01*
X146037829Y-105262000D01*
X146106688Y-105282888D01*
X146501109Y-105321735D01*
X146895529Y-105282888D01*
X146964388Y-105262000D01*
X151487829Y-105262000D01*
X151556688Y-105282888D01*
X151951109Y-105321735D01*
X152345529Y-105282888D01*
X152414388Y-105262000D01*
X154000000Y-105262000D01*
X154148659Y-105247358D01*
X154291605Y-105203996D01*
X154423345Y-105133580D01*
X154538815Y-105038815D01*
X154633580Y-104923345D01*
X154703996Y-104791605D01*
X154747358Y-104648659D01*
X154762000Y-104500000D01*
X154762000Y-100050000D01*
X155385423Y-100050000D01*
X155385423Y-104550000D01*
X155400135Y-104699378D01*
X155443707Y-104843015D01*
X155514464Y-104975392D01*
X155609687Y-105091422D01*
X155725717Y-105186645D01*
X155858094Y-105257402D01*
X156001731Y-105300974D01*
X156151109Y-105315686D01*
X158651109Y-105315686D01*
X158800487Y-105300974D01*
X158944124Y-105257402D01*
X159076501Y-105186645D01*
X159192531Y-105091422D01*
X159221386Y-105056261D01*
X161675790Y-105056261D01*
X163401109Y-106781580D01*
X165126428Y-105056261D01*
X164817517Y-104686221D01*
X164241360Y-104463959D01*
X163632913Y-104358371D01*
X163015557Y-104373514D01*
X162413018Y-104508806D01*
X161984701Y-104686221D01*
X161675790Y-105056261D01*
X159221386Y-105056261D01*
X159287754Y-104975392D01*
X159358511Y-104843015D01*
X159402083Y-104699378D01*
X159416795Y-104550000D01*
X159416795Y-103626638D01*
X184319809Y-103626638D01*
X184362034Y-104622173D01*
X184375947Y-104736666D01*
X184375950Y-104736678D01*
X184573389Y-105713339D01*
X184605041Y-105824245D01*
X184952835Y-106758004D01*
X184952836Y-106758008D01*
X184969349Y-106793535D01*
X185001448Y-106862596D01*
X185001449Y-106862597D01*
X185491036Y-107730456D01*
X185555411Y-107826153D01*
X186174732Y-108606739D01*
X186253285Y-108691187D01*
X186987093Y-109365280D01*
X186987094Y-109365281D01*
X187077890Y-109436401D01*
X187908114Y-109987401D01*
X188008918Y-110043442D01*
X188915116Y-110457783D01*
X189023446Y-110497364D01*
X189023449Y-110497365D01*
X189983306Y-110764844D01*
X190096494Y-110786991D01*
X191086378Y-110901022D01*
X191201637Y-110905191D01*
X191201638Y-110905191D01*
X192197173Y-110862966D01*
X192197174Y-110862966D01*
X192209579Y-110861458D01*
X192311666Y-110849053D01*
X192311678Y-110849050D01*
X193288339Y-110651611D01*
X193399245Y-110619959D01*
X194333004Y-110272165D01*
X194333008Y-110272164D01*
X194409058Y-110236816D01*
X194437596Y-110223552D01*
X194437600Y-110223549D01*
X195305456Y-109733964D01*
X195401153Y-109669589D01*
X195401154Y-109669588D01*
X196181739Y-109050268D01*
X196266187Y-108971715D01*
X196266189Y-108971713D01*
X196940280Y-108237907D01*
X196982632Y-108183838D01*
X197011401Y-108147110D01*
X197541804Y-107347921D01*
X197564087Y-107320769D01*
X197632337Y-107193082D01*
X197674365Y-107054534D01*
X197685000Y-106946554D01*
X197685000Y-100703445D01*
X197674365Y-100595465D01*
X197632337Y-100456917D01*
X197564087Y-100329230D01*
X197550257Y-100312378D01*
X197295493Y-99896642D01*
X197269382Y-99860703D01*
X197244589Y-99823847D01*
X196625268Y-99043261D01*
X196546715Y-98958813D01*
X196546714Y-98958812D01*
X195812907Y-98284720D01*
X195786163Y-98263771D01*
X195722110Y-98213599D01*
X194891886Y-97662599D01*
X194791082Y-97606558D01*
X194791077Y-97606556D01*
X193884884Y-97192217D01*
X193776554Y-97152636D01*
X193776551Y-97152635D01*
X192816706Y-96885160D01*
X192816694Y-96885156D01*
X192703506Y-96863009D01*
X191713622Y-96748978D01*
X191598363Y-96744809D01*
X191598362Y-96744809D01*
X190602826Y-96787034D01*
X190488334Y-96800947D01*
X190488322Y-96800950D01*
X189511661Y-96998389D01*
X189400755Y-97030041D01*
X188466996Y-97377835D01*
X188466992Y-97377836D01*
X188423242Y-97398171D01*
X188362404Y-97426448D01*
X188362403Y-97426449D01*
X187494544Y-97916036D01*
X187398847Y-97980411D01*
X186618261Y-98599732D01*
X186554719Y-98658838D01*
X186533812Y-98678286D01*
X185859720Y-99412093D01*
X185859719Y-99412094D01*
X185788599Y-99502890D01*
X185237599Y-100333114D01*
X185181558Y-100433918D01*
X185181558Y-100433919D01*
X184767217Y-101340116D01*
X184727636Y-101448446D01*
X184727636Y-101448447D01*
X184460160Y-102408294D01*
X184460156Y-102408306D01*
X184438009Y-102521494D01*
X184323978Y-103511378D01*
X184319809Y-103626638D01*
X159416795Y-103626638D01*
X159416795Y-100050000D01*
X159402083Y-99900622D01*
X159358511Y-99756985D01*
X159287754Y-99624608D01*
X159192531Y-99508578D01*
X159076501Y-99413355D01*
X158944124Y-99342598D01*
X158800487Y-99299026D01*
X158651109Y-99284314D01*
X156151109Y-99284314D01*
X156001731Y-99299026D01*
X155858094Y-99342598D01*
X155725717Y-99413355D01*
X155609687Y-99508578D01*
X155514464Y-99624608D01*
X155443707Y-99756985D01*
X155400135Y-99900622D01*
X155385423Y-100050000D01*
X154762000Y-100050000D01*
X154762000Y-91800000D01*
X160636530Y-91800000D01*
X160636530Y-96800000D01*
X160651242Y-96949378D01*
X160694814Y-97093015D01*
X160765571Y-97225392D01*
X160860794Y-97341422D01*
X160976824Y-97436645D01*
X161109201Y-97507402D01*
X161252838Y-97550974D01*
X161402216Y-97565686D01*
X166402216Y-97565686D01*
X166551594Y-97550974D01*
X166695231Y-97507402D01*
X166827608Y-97436645D01*
X166943638Y-97341422D01*
X167038861Y-97225392D01*
X167109618Y-97093015D01*
X167153190Y-96949378D01*
X167167902Y-96800000D01*
X167167902Y-94101637D01*
X167822026Y-94101637D01*
X167864250Y-95097172D01*
X167878163Y-95211664D01*
X167878166Y-95211674D01*
X168075605Y-96188338D01*
X168107257Y-96299245D01*
X168455052Y-97233004D01*
X168455053Y-97233008D01*
X168477648Y-97281620D01*
X168503665Y-97337596D01*
X168503666Y-97337597D01*
X168993252Y-98205455D01*
X169057627Y-98301152D01*
X169676949Y-99081738D01*
X169755502Y-99166187D01*
X169755509Y-99166193D01*
X170489309Y-99840279D01*
X170580105Y-99911400D01*
X170580111Y-99911403D01*
X171410330Y-100462400D01*
X171511134Y-100518441D01*
X172417332Y-100932782D01*
X172525662Y-100972363D01*
X172525665Y-100972364D01*
X173485522Y-101239843D01*
X173598710Y-101261990D01*
X174588594Y-101376021D01*
X174703853Y-101380190D01*
X175699388Y-101337966D01*
X175699389Y-101337966D01*
X175713302Y-101336275D01*
X175813880Y-101324053D01*
X175813890Y-101324050D01*
X176790554Y-101126611D01*
X176834013Y-101114208D01*
X176901461Y-101094959D01*
X177835220Y-100747164D01*
X177835224Y-100747163D01*
X177911270Y-100711817D01*
X177939812Y-100698551D01*
X177939816Y-100698548D01*
X178807671Y-100208964D01*
X178903368Y-100144589D01*
X179683954Y-99525267D01*
X179768403Y-99446714D01*
X179768409Y-99446707D01*
X180442495Y-98712907D01*
X180445541Y-98709019D01*
X180463103Y-98686598D01*
X180513616Y-98622111D01*
X180513619Y-98622105D01*
X181044014Y-97822928D01*
X181066303Y-97795769D01*
X181134553Y-97668082D01*
X181176581Y-97529534D01*
X181187216Y-97421554D01*
X181187216Y-93450000D01*
X183284314Y-93450000D01*
X183284314Y-95150000D01*
X183299026Y-95299378D01*
X183342598Y-95443015D01*
X183413355Y-95575392D01*
X183508578Y-95691422D01*
X183624608Y-95786645D01*
X183756985Y-95857402D01*
X183900622Y-95900974D01*
X184050000Y-95915686D01*
X185750000Y-95915686D01*
X185899378Y-95900974D01*
X186043015Y-95857402D01*
X186175392Y-95786645D01*
X186291422Y-95691422D01*
X186386645Y-95575392D01*
X186403725Y-95543437D01*
X186412410Y-95552122D01*
X186676432Y-95728536D01*
X186969797Y-95850052D01*
X187281232Y-95912000D01*
X187598768Y-95912000D01*
X187910203Y-95850052D01*
X188203568Y-95728536D01*
X188467590Y-95552122D01*
X188692122Y-95327590D01*
X188868536Y-95063568D01*
X188990052Y-94770203D01*
X189052000Y-94458768D01*
X189052000Y-94141232D01*
X188990052Y-93829797D01*
X188868536Y-93536432D01*
X188692122Y-93272410D01*
X188467590Y-93047878D01*
X188203568Y-92871464D01*
X187910203Y-92749948D01*
X187598768Y-92688000D01*
X187281232Y-92688000D01*
X186969797Y-92749948D01*
X186676432Y-92871464D01*
X186412410Y-93047878D01*
X186403725Y-93056563D01*
X186386645Y-93024608D01*
X186291422Y-92908578D01*
X186175392Y-92813355D01*
X186043015Y-92742598D01*
X185899378Y-92699026D01*
X185750000Y-92684314D01*
X184050000Y-92684314D01*
X183900622Y-92699026D01*
X183756985Y-92742598D01*
X183624608Y-92813355D01*
X183508578Y-92908578D01*
X183413355Y-93024608D01*
X183342598Y-93156985D01*
X183299026Y-93300622D01*
X183284314Y-93450000D01*
X181187216Y-93450000D01*
X181187216Y-91178446D01*
X181176581Y-91070466D01*
X181134553Y-90931918D01*
X181066303Y-90804231D01*
X181052473Y-90787379D01*
X180797709Y-90371643D01*
X180771598Y-90335704D01*
X180746805Y-90298848D01*
X180127483Y-89518262D01*
X180048930Y-89433814D01*
X179315123Y-88759721D01*
X179311592Y-88756955D01*
X179224326Y-88688600D01*
X178394102Y-88137600D01*
X178293298Y-88081559D01*
X178293293Y-88081557D01*
X177387100Y-87667218D01*
X177278770Y-87627637D01*
X177278767Y-87627636D01*
X176318922Y-87360161D01*
X176318910Y-87360157D01*
X176205722Y-87338010D01*
X175215838Y-87223979D01*
X175100579Y-87219810D01*
X174105044Y-87262034D01*
X174105043Y-87262034D01*
X174091130Y-87263725D01*
X173990552Y-87275947D01*
X173990542Y-87275950D01*
X173013880Y-87473389D01*
X173013877Y-87473389D01*
X172902971Y-87505041D01*
X171969208Y-87852837D01*
X171864619Y-87901450D01*
X170996761Y-88391036D01*
X170901064Y-88455411D01*
X170120478Y-89074733D01*
X170036030Y-89153286D01*
X169361937Y-89887093D01*
X169361936Y-89887094D01*
X169290816Y-89977890D01*
X168739816Y-90808114D01*
X168683775Y-90908918D01*
X168683775Y-90908919D01*
X168269434Y-91815116D01*
X168230172Y-91922574D01*
X168229853Y-91923447D01*
X167962377Y-92883294D01*
X167962373Y-92883306D01*
X167940226Y-92996494D01*
X167826195Y-93986378D01*
X167822026Y-94101637D01*
X167167902Y-94101637D01*
X167167902Y-91800000D01*
X167153190Y-91650622D01*
X167109618Y-91506985D01*
X167038861Y-91374608D01*
X166943638Y-91258578D01*
X166827608Y-91163355D01*
X166695231Y-91092598D01*
X166551594Y-91049026D01*
X166402216Y-91034314D01*
X161402216Y-91034314D01*
X161252838Y-91049026D01*
X161109201Y-91092598D01*
X160976824Y-91163355D01*
X160860794Y-91258578D01*
X160765571Y-91374608D01*
X160694814Y-91506985D01*
X160651242Y-91650622D01*
X160636530Y-91800000D01*
X154762000Y-91800000D01*
X154762000Y-85201160D01*
X155389109Y-85201160D01*
X155389110Y-87398841D01*
X155418222Y-87694421D01*
X155533270Y-88073684D01*
X155720099Y-88423216D01*
X155971527Y-88729583D01*
X156277894Y-88981011D01*
X156627426Y-89167840D01*
X157006689Y-89282888D01*
X157401109Y-89321735D01*
X157795530Y-89282888D01*
X158174793Y-89167840D01*
X158524325Y-88981011D01*
X158830692Y-88729583D01*
X159082120Y-88423216D01*
X159268949Y-88073684D01*
X159383997Y-87694421D01*
X159413109Y-87398841D01*
X159413109Y-85201159D01*
X159383997Y-84905579D01*
X159284214Y-84576637D01*
X184319810Y-84576637D01*
X184362034Y-85572172D01*
X184375947Y-85686664D01*
X184375950Y-85686674D01*
X184573389Y-86663338D01*
X184605041Y-86774245D01*
X184952836Y-87708004D01*
X184952837Y-87708008D01*
X184975432Y-87756620D01*
X185001449Y-87812596D01*
X185001450Y-87812597D01*
X185491036Y-88680455D01*
X185555411Y-88776152D01*
X186174733Y-89556738D01*
X186253286Y-89641187D01*
X186253293Y-89641193D01*
X186987093Y-90315279D01*
X186987094Y-90315280D01*
X187006769Y-90330691D01*
X187077889Y-90386400D01*
X187077895Y-90386403D01*
X187908114Y-90937400D01*
X188008918Y-90993441D01*
X188915116Y-91407782D01*
X189023446Y-91447363D01*
X189023449Y-91447364D01*
X189983306Y-91714843D01*
X190096494Y-91736990D01*
X191086378Y-91851021D01*
X191201637Y-91855190D01*
X192197172Y-91812966D01*
X192197173Y-91812966D01*
X192218938Y-91810321D01*
X192311664Y-91799053D01*
X192311674Y-91799050D01*
X193288338Y-91601611D01*
X193331797Y-91589208D01*
X193399245Y-91569959D01*
X194333004Y-91222164D01*
X194333008Y-91222163D01*
X194381620Y-91199568D01*
X194437596Y-91173551D01*
X194437600Y-91173548D01*
X195305455Y-90683964D01*
X195401152Y-90619589D01*
X195401153Y-90619588D01*
X196181738Y-90000267D01*
X196266187Y-89921714D01*
X196266193Y-89921707D01*
X196940279Y-89187907D01*
X196943325Y-89184019D01*
X196960887Y-89161598D01*
X197011400Y-89097111D01*
X197011403Y-89097105D01*
X197541795Y-88297933D01*
X197564087Y-88270770D01*
X197632337Y-88143083D01*
X197674365Y-88004535D01*
X197685000Y-87896555D01*
X197685000Y-81653446D01*
X197674365Y-81545466D01*
X197632337Y-81406918D01*
X197564087Y-81279231D01*
X197550257Y-81262379D01*
X197295493Y-80846643D01*
X197269382Y-80810704D01*
X197244589Y-80773848D01*
X196625267Y-79993262D01*
X196546714Y-79908814D01*
X196546713Y-79908813D01*
X195812907Y-79234721D01*
X195812906Y-79234720D01*
X195722110Y-79163600D01*
X194891886Y-78612600D01*
X194791082Y-78556559D01*
X194791077Y-78556557D01*
X193884884Y-78142218D01*
X193776554Y-78102637D01*
X193776551Y-78102636D01*
X192816706Y-77835161D01*
X192816694Y-77835157D01*
X192703506Y-77813010D01*
X191713622Y-77698979D01*
X191598363Y-77694810D01*
X190602828Y-77737034D01*
X190602827Y-77737034D01*
X190588914Y-77738725D01*
X190488336Y-77750947D01*
X190488326Y-77750950D01*
X189511664Y-77948389D01*
X189511661Y-77948389D01*
X189400755Y-77980041D01*
X188466992Y-78327837D01*
X188362403Y-78376450D01*
X187494545Y-78866036D01*
X187398848Y-78930411D01*
X186618262Y-79549733D01*
X186533814Y-79628286D01*
X185859721Y-80362093D01*
X185859720Y-80362094D01*
X185788600Y-80452890D01*
X185237600Y-81283114D01*
X185181559Y-81383918D01*
X185181559Y-81383919D01*
X184767218Y-82290116D01*
X184727637Y-82398446D01*
X184727637Y-82398447D01*
X184460161Y-83358294D01*
X184460157Y-83358306D01*
X184438010Y-83471494D01*
X184323979Y-84461378D01*
X184319810Y-84576637D01*
X159284214Y-84576637D01*
X159268949Y-84526316D01*
X159082120Y-84176784D01*
X158830692Y-83870417D01*
X158524325Y-83618989D01*
X158383542Y-83543739D01*
X161675790Y-83543739D01*
X161984701Y-83913779D01*
X162560858Y-84136041D01*
X163169305Y-84241629D01*
X163786661Y-84226486D01*
X164389200Y-84091194D01*
X164817517Y-83913779D01*
X165126428Y-83543739D01*
X163401109Y-81818420D01*
X161675790Y-83543739D01*
X158383542Y-83543739D01*
X158174792Y-83432160D01*
X157795529Y-83317112D01*
X157401109Y-83278265D01*
X157006688Y-83317112D01*
X156627425Y-83432160D01*
X156277893Y-83618989D01*
X155971526Y-83870417D01*
X155720098Y-84176784D01*
X155533269Y-84526317D01*
X155418221Y-84905580D01*
X155389109Y-85201160D01*
X154762000Y-85201160D01*
X154762000Y-84000000D01*
X154747358Y-83851341D01*
X154703996Y-83708395D01*
X154633580Y-83576655D01*
X154538815Y-83461185D01*
X154423345Y-83366420D01*
X154291605Y-83296004D01*
X154148659Y-83252642D01*
X154000000Y-83238000D01*
X142817251Y-83238000D01*
X143087392Y-82967859D01*
X142944850Y-82825317D01*
X143314888Y-82516408D01*
X143537150Y-81940251D01*
X143642738Y-81331804D01*
X143631367Y-80868196D01*
X160259480Y-80868196D01*
X160274623Y-81485552D01*
X160409915Y-82088091D01*
X160587330Y-82516408D01*
X160957370Y-82825319D01*
X162682689Y-81100000D01*
X164119529Y-81100000D01*
X165844848Y-82825319D01*
X166214888Y-82516408D01*
X166437150Y-81940251D01*
X166542738Y-81331804D01*
X166527595Y-80714448D01*
X166392303Y-80111909D01*
X166214888Y-79683592D01*
X165844848Y-79374681D01*
X164119529Y-81100000D01*
X162682689Y-81100000D01*
X160957370Y-79374681D01*
X160587330Y-79683592D01*
X160365068Y-80259749D01*
X160259480Y-80868196D01*
X143631367Y-80868196D01*
X143627595Y-80714448D01*
X143492303Y-80111909D01*
X143314888Y-79683592D01*
X142944848Y-79374681D01*
X141219529Y-81100000D01*
X141233672Y-81114143D01*
X140515252Y-81832563D01*
X140501109Y-81818420D01*
X140486967Y-81832563D01*
X139768547Y-81114143D01*
X139782689Y-81100000D01*
X138057370Y-79374681D01*
X137687330Y-79683592D01*
X137465068Y-80259749D01*
X137359480Y-80868196D01*
X137374623Y-81485552D01*
X137509915Y-82088091D01*
X137687330Y-82516408D01*
X138057368Y-82825317D01*
X137914826Y-82967859D01*
X138184967Y-83238000D01*
X135897637Y-83238000D01*
X135826611Y-82886660D01*
X135826611Y-82886659D01*
X135794959Y-82775753D01*
X135447163Y-81841991D01*
X135398550Y-81737402D01*
X134908963Y-80869543D01*
X134908963Y-80869542D01*
X134844588Y-80773846D01*
X134225267Y-79993261D01*
X134146714Y-79908813D01*
X134146713Y-79908812D01*
X133412906Y-79234720D01*
X133386342Y-79213912D01*
X133322109Y-79163599D01*
X132557674Y-78656261D01*
X138775790Y-78656261D01*
X140501109Y-80381580D01*
X142226428Y-78656261D01*
X161675790Y-78656261D01*
X163401109Y-80381580D01*
X165126428Y-78656261D01*
X164817517Y-78286221D01*
X164241360Y-78063959D01*
X163632913Y-77958371D01*
X163015557Y-77973514D01*
X162413018Y-78108806D01*
X161984701Y-78286221D01*
X161675790Y-78656261D01*
X142226428Y-78656261D01*
X141917517Y-78286221D01*
X141341360Y-78063959D01*
X140732913Y-77958371D01*
X140115557Y-77973514D01*
X139513018Y-78108806D01*
X139084701Y-78286221D01*
X138775790Y-78656261D01*
X132557674Y-78656261D01*
X132491885Y-78612599D01*
X132391081Y-78556558D01*
X132391076Y-78556556D01*
X131484883Y-78142217D01*
X131376553Y-78102636D01*
X131376550Y-78102635D01*
X130416705Y-77835160D01*
X130416693Y-77835156D01*
X130303505Y-77813009D01*
X129313621Y-77698978D01*
X129198362Y-77694809D01*
X129198361Y-77694809D01*
X128202826Y-77737034D01*
X128088334Y-77750947D01*
X128088322Y-77750950D01*
X127111662Y-77948389D01*
X127111659Y-77948389D01*
X127000753Y-77980041D01*
X126066991Y-78327837D01*
X125962402Y-78376450D01*
X125094548Y-78866034D01*
X125094542Y-78866037D01*
X124998846Y-78930412D01*
X124218261Y-79549733D01*
X124218260Y-79549734D01*
X124133812Y-79628287D01*
X123459721Y-80362093D01*
X123459719Y-80362095D01*
X123388599Y-80452891D01*
X122858196Y-81252080D01*
X122835913Y-81279232D01*
X122767663Y-81406919D01*
X122725635Y-81545467D01*
X122715000Y-81653447D01*
X120735000Y-81653447D01*
X120735000Y-76147021D01*
X122271400Y-76147021D01*
X122665685Y-76588980D01*
X123362088Y-76881718D01*
X124102221Y-77032971D01*
X124857639Y-77036924D01*
X125064893Y-76996825D01*
X179320605Y-76996825D01*
X179335317Y-77146203D01*
X179378889Y-77289840D01*
X179449646Y-77422217D01*
X179544869Y-77538247D01*
X183080403Y-81073781D01*
X183196433Y-81169004D01*
X183328810Y-81239761D01*
X183472447Y-81283333D01*
X183621825Y-81298045D01*
X183771203Y-81283333D01*
X183914840Y-81239761D01*
X184047217Y-81169004D01*
X184163247Y-81073781D01*
X187698781Y-77538247D01*
X187794004Y-77422217D01*
X187864761Y-77289840D01*
X187908333Y-77146203D01*
X187923045Y-76996825D01*
X187908333Y-76847447D01*
X187864761Y-76703810D01*
X187794004Y-76571433D01*
X187698781Y-76455403D01*
X187390399Y-76147021D01*
X193671400Y-76147021D01*
X194065685Y-76588980D01*
X194762088Y-76881718D01*
X195502221Y-77032971D01*
X196257639Y-77036924D01*
X196999313Y-76893427D01*
X197698742Y-76607993D01*
X197734315Y-76588980D01*
X198128600Y-76147021D01*
X195900000Y-73918420D01*
X193671400Y-76147021D01*
X187390399Y-76147021D01*
X184801017Y-73557639D01*
X192063076Y-73557639D01*
X192206573Y-74299313D01*
X192492007Y-74998742D01*
X192511020Y-75034315D01*
X192952979Y-75428600D01*
X195181580Y-73200000D01*
X192952979Y-70971400D01*
X192511020Y-71365685D01*
X192218282Y-72062088D01*
X192067029Y-72802221D01*
X192063076Y-73557639D01*
X184801017Y-73557639D01*
X184163247Y-72919869D01*
X184047217Y-72824646D01*
X183914840Y-72753889D01*
X183771203Y-72710317D01*
X183621825Y-72695605D01*
X183472447Y-72710317D01*
X183328810Y-72753889D01*
X183196433Y-72824646D01*
X183080403Y-72919869D01*
X179544869Y-76455403D01*
X179449646Y-76571433D01*
X179378889Y-76703810D01*
X179335317Y-76847447D01*
X179320605Y-76996825D01*
X125064893Y-76996825D01*
X125599313Y-76893427D01*
X126298742Y-76607993D01*
X126334315Y-76588980D01*
X126728600Y-76147021D01*
X124500000Y-73918420D01*
X122271400Y-76147021D01*
X120735000Y-76147021D01*
X120735000Y-73929383D01*
X120806573Y-74299313D01*
X121092007Y-74998742D01*
X121111020Y-75034315D01*
X121552979Y-75428600D01*
X123781580Y-73200000D01*
X125218420Y-73200000D01*
X127447021Y-75428600D01*
X127888980Y-75034315D01*
X128181718Y-74337912D01*
X128332971Y-73597779D01*
X128336924Y-72842361D01*
X128193427Y-72100687D01*
X127907993Y-71401258D01*
X127888980Y-71365685D01*
X127447021Y-70971400D01*
X125218420Y-73200000D01*
X123781580Y-73200000D01*
X121552979Y-70971400D01*
X121111020Y-71365685D01*
X120818282Y-72062088D01*
X120735000Y-72469615D01*
X120735000Y-70635947D01*
X120762549Y-70354979D01*
X120793344Y-70252979D01*
X122271400Y-70252979D01*
X124500000Y-72481580D01*
X126728600Y-70252979D01*
X193671400Y-70252979D01*
X195900000Y-72481580D01*
X198128600Y-70252979D01*
X197734315Y-69811020D01*
X197037912Y-69518282D01*
X196297779Y-69367029D01*
X195542361Y-69363076D01*
X194800687Y-69506573D01*
X194101258Y-69792007D01*
X194065685Y-69811020D01*
X193671400Y-70252979D01*
X126728600Y-70252979D01*
X126334315Y-69811020D01*
X125637912Y-69518282D01*
X124897779Y-69367029D01*
X124142361Y-69363076D01*
X123400687Y-69506573D01*
X122701258Y-69792007D01*
X122665685Y-69811020D01*
X122271400Y-70252979D01*
X120793344Y-70252979D01*
X120833708Y-70119288D01*
X120949291Y-69901911D01*
X121104895Y-69711121D01*
X121294593Y-69554189D01*
X121511157Y-69437094D01*
X121746344Y-69364291D01*
X122025028Y-69335000D01*
X198364053Y-69335000D01*
X198645021Y-69362549D01*
G36*
X139549619Y-84236643D02*
G01*
X140179830Y-84362000D01*
X140822388Y-84362000D01*
X141452599Y-84236643D01*
X141717301Y-84127000D01*
X144485423Y-84127000D01*
X144485423Y-88550000D01*
X144500135Y-88699378D01*
X144543707Y-88843015D01*
X144614464Y-88975392D01*
X144709687Y-89091422D01*
X144825717Y-89186645D01*
X144958094Y-89257402D01*
X145101731Y-89300974D01*
X145251109Y-89315686D01*
X147751109Y-89315686D01*
X147900487Y-89300974D01*
X148044124Y-89257402D01*
X148176501Y-89186645D01*
X148292531Y-89091422D01*
X148387754Y-88975392D01*
X148458511Y-88843015D01*
X148502083Y-88699378D01*
X148516795Y-88550000D01*
X148516795Y-84127000D01*
X153873000Y-84127000D01*
X153873000Y-104373000D01*
X148208961Y-104373000D01*
X148368949Y-104073684D01*
X148483997Y-103694421D01*
X148513109Y-103398841D01*
X148513109Y-101201159D01*
X148483997Y-100905579D01*
X148368949Y-100526316D01*
X148182120Y-100176784D01*
X147930692Y-99870417D01*
X147624325Y-99618989D01*
X147274793Y-99432160D01*
X146895530Y-99317112D01*
X146501109Y-99278265D01*
X146106689Y-99317112D01*
X145727426Y-99432160D01*
X145377894Y-99618989D01*
X145071527Y-99870417D01*
X144820099Y-100176784D01*
X144633270Y-100526316D01*
X144518222Y-100905579D01*
X144489110Y-101201159D01*
X144489109Y-103398840D01*
X144518221Y-103694420D01*
X144633269Y-104073683D01*
X144793257Y-104373000D01*
X141475879Y-104373000D01*
X141452599Y-104363357D01*
X140822388Y-104238000D01*
X140179830Y-104238000D01*
X139549619Y-104363357D01*
X139526339Y-104373000D01*
X136049021Y-104373000D01*
X136076021Y-104138621D01*
X136080190Y-104023362D01*
X136080190Y-104023361D01*
X136037965Y-103027826D01*
X136024052Y-102913334D01*
X136024049Y-102913322D01*
X135826610Y-101936661D01*
X135794958Y-101825755D01*
X135794958Y-101825754D01*
X135447162Y-100891992D01*
X135398549Y-100787403D01*
X134908963Y-99919544D01*
X134844588Y-99823847D01*
X134225266Y-99043261D01*
X134206701Y-99023303D01*
X134146713Y-98958812D01*
X133412906Y-98284720D01*
X133322109Y-98213600D01*
X132627000Y-97752273D01*
X132627000Y-90841049D01*
X132905457Y-90683963D01*
X133001154Y-90619588D01*
X133781739Y-90000267D01*
X133866187Y-89921714D01*
X134540280Y-89187906D01*
X134571925Y-89147506D01*
X134611401Y-89097109D01*
X135162401Y-88266885D01*
X135218442Y-88166081D01*
X135632783Y-87259883D01*
X135672364Y-87151553D01*
X135672365Y-87151550D01*
X135939844Y-86191693D01*
X135961991Y-86078505D01*
X136076022Y-85088621D01*
X136080191Y-84973362D01*
X136080191Y-84973361D01*
X136044293Y-84127000D01*
X139284917Y-84127000D01*
X139549619Y-84236643D01*
G37*
X139549619Y-84236643D02*
X140179830Y-84362000D01*
X140822388Y-84362000D01*
X141452599Y-84236643D01*
X141717301Y-84127000D01*
X144485423Y-84127000D01*
X144485423Y-88550000D01*
X144500135Y-88699378D01*
X144543707Y-88843015D01*
X144614464Y-88975392D01*
X144709687Y-89091422D01*
X144825717Y-89186645D01*
X144958094Y-89257402D01*
X145101731Y-89300974D01*
X145251109Y-89315686D01*
X147751109Y-89315686D01*
X147900487Y-89300974D01*
X148044124Y-89257402D01*
X148176501Y-89186645D01*
X148292531Y-89091422D01*
X148387754Y-88975392D01*
X148458511Y-88843015D01*
X148502083Y-88699378D01*
X148516795Y-88550000D01*
X148516795Y-84127000D01*
X153873000Y-84127000D01*
X153873000Y-104373000D01*
X148208961Y-104373000D01*
X148368949Y-104073684D01*
X148483997Y-103694421D01*
X148513109Y-103398841D01*
X148513109Y-101201159D01*
X148483997Y-100905579D01*
X148368949Y-100526316D01*
X148182120Y-100176784D01*
X147930692Y-99870417D01*
X147624325Y-99618989D01*
X147274793Y-99432160D01*
X146895530Y-99317112D01*
X146501109Y-99278265D01*
X146106689Y-99317112D01*
X145727426Y-99432160D01*
X145377894Y-99618989D01*
X145071527Y-99870417D01*
X144820099Y-100176784D01*
X144633270Y-100526316D01*
X144518222Y-100905579D01*
X144489110Y-101201159D01*
X144489109Y-103398840D01*
X144518221Y-103694420D01*
X144633269Y-104073683D01*
X144793257Y-104373000D01*
X141475879Y-104373000D01*
X141452599Y-104363357D01*
X140822388Y-104238000D01*
X140179830Y-104238000D01*
X139549619Y-104363357D01*
X139526339Y-104373000D01*
X136049021Y-104373000D01*
X136076021Y-104138621D01*
X136080190Y-104023362D01*
X136080190Y-104023361D01*
X136037965Y-103027826D01*
X136024052Y-102913334D01*
X136024049Y-102913322D01*
X135826610Y-101936661D01*
X135794958Y-101825755D01*
X135794958Y-101825754D01*
X135447162Y-100891992D01*
X135398549Y-100787403D01*
X134908963Y-99919544D01*
X134844588Y-99823847D01*
X134225266Y-99043261D01*
X134206701Y-99023303D01*
X134146713Y-98958812D01*
X133412906Y-98284720D01*
X133322109Y-98213600D01*
X132627000Y-97752273D01*
X132627000Y-90841049D01*
X132905457Y-90683963D01*
X133001154Y-90619588D01*
X133781739Y-90000267D01*
X133866187Y-89921714D01*
X134540280Y-89187906D01*
X134571925Y-89147506D01*
X134611401Y-89097109D01*
X135162401Y-88266885D01*
X135218442Y-88166081D01*
X135632783Y-87259883D01*
X135672364Y-87151553D01*
X135672365Y-87151550D01*
X135939844Y-86191693D01*
X135961991Y-86078505D01*
X136076022Y-85088621D01*
X136080191Y-84973362D01*
X136080191Y-84973361D01*
X136044293Y-84127000D01*
X139284917Y-84127000D01*
X139549619Y-84236643D01*
M02*
