G04 #@! TF.GenerationSoftware,KiCad,Pcbnew,(5.1.5-1-g2528d3844)*
G04 #@! TF.CreationDate,2020-01-09T12:33:36-05:00*
G04 #@! TF.ProjectId,diode-or,64696f64-652d-46f7-922e-6b696361645f,v1.0.0*
G04 #@! TF.SameCoordinates,Original*
G04 #@! TF.FileFunction,Soldermask,Top*
G04 #@! TF.FilePolarity,Negative*
%FSLAX46Y46*%
G04 Gerber Fmt 4.6, Leading zero omitted, Abs format (unit mm)*
G04 Created by KiCad (PCBNEW (5.1.5-1-g2528d3844)) date 2020-01-09 12:33:36*
%MOMM*%
%LPD*%
G04 APERTURE LIST*
%ADD10C,2.351600*%
%ADD11O,1.801600X2.101600*%
%ADD12R,1.801600X2.101600*%
%ADD13C,0.863600*%
%ADD14C,0.100000*%
%ADD15R,5.101600X5.101600*%
%ADD16C,5.101600*%
%ADD17C,0.901600*%
%ADD18C,6.501600*%
%ADD19O,2.601600X4.601600*%
%ADD20R,2.601600X4.601600*%
%ADD21O,1.801600X1.801600*%
%ADD22R,1.801600X1.801600*%
%ADD23C,1.117600*%
G04 APERTURE END LIST*
D10*
X168600000Y-108000000D03*
D11*
X178100000Y-115620000D03*
X173020000Y-115620000D03*
X173020000Y-108000000D03*
X175560000Y-108000000D03*
D12*
X178100000Y-108000000D03*
D13*
X186326963Y-115812877D03*
X187580513Y-116269132D03*
X188833123Y-116725044D03*
X189289036Y-115472434D03*
X189745291Y-114218884D03*
X190201204Y-112966274D03*
X188948594Y-112510361D03*
X187695044Y-112054106D03*
X186442433Y-111598193D03*
X185986521Y-112850804D03*
X185530266Y-114104354D03*
X185074353Y-115356964D03*
D14*
G36*
X189162321Y-117431012D02*
G01*
X184368385Y-115686162D01*
X186113235Y-110892226D01*
X190907171Y-112637076D01*
X189162321Y-117431012D01*
G37*
D13*
X182679252Y-75110972D03*
X181735972Y-76054252D03*
X180793398Y-76996825D03*
X181735972Y-77939399D03*
X182679252Y-78882679D03*
X183621825Y-79825253D03*
X184564399Y-78882679D03*
X185507679Y-77939399D03*
X186450253Y-76996825D03*
X185507679Y-76054252D03*
X184564399Y-75110972D03*
X183621825Y-74168398D03*
D14*
G36*
X180014449Y-76996825D02*
G01*
X183621825Y-73389449D01*
X187229201Y-76996825D01*
X183621825Y-80604201D01*
X180014449Y-76996825D01*
G37*
D13*
X161902216Y-93633000D03*
X161902216Y-94967000D03*
X161902216Y-96300000D03*
X163235216Y-96300000D03*
X164569216Y-96300000D03*
X165902216Y-96300000D03*
X165902216Y-94967000D03*
X165902216Y-93633000D03*
X165902216Y-92300000D03*
X164569216Y-92300000D03*
X163235216Y-92300000D03*
X161902216Y-92300000D03*
D15*
X163902216Y-94300000D03*
D13*
X132819487Y-116269132D03*
X134073037Y-115812877D03*
X135325647Y-115356964D03*
X134869734Y-114104354D03*
X134413479Y-112850804D03*
X133957567Y-111598193D03*
X132704956Y-112054106D03*
X131451406Y-112510361D03*
X130198796Y-112966274D03*
X130654709Y-114218884D03*
X131110964Y-115472434D03*
X131566877Y-116725044D03*
D14*
G36*
X136031615Y-115686162D02*
G01*
X131237679Y-117431012D01*
X129492829Y-112637076D01*
X134286765Y-110892226D01*
X136031615Y-115686162D01*
G37*
D13*
X137720748Y-94439028D03*
X138664028Y-93495748D03*
X139606602Y-92553175D03*
X138664028Y-91610601D03*
X137720748Y-90667321D03*
X136778175Y-89724747D03*
X135835601Y-90667321D03*
X134892321Y-91610601D03*
X133949747Y-92553175D03*
X134892321Y-93495748D03*
X135835601Y-94439028D03*
X136778175Y-95381602D03*
D14*
G36*
X140385551Y-92553175D02*
G01*
X136778175Y-96160551D01*
X133170799Y-92553175D01*
X136778175Y-88945799D01*
X140385551Y-92553175D01*
G37*
D16*
X140501109Y-107500000D03*
X163401109Y-107500000D03*
X163401109Y-81100000D03*
X140501109Y-81100000D03*
D17*
X197597056Y-113702944D03*
X195900000Y-113000000D03*
X194202944Y-113702944D03*
X193500000Y-115400000D03*
X194202944Y-117097056D03*
X195900000Y-117800000D03*
X197597056Y-117097056D03*
X198300000Y-115400000D03*
D18*
X195900000Y-115400000D03*
D17*
X126197056Y-113702944D03*
X124500000Y-113000000D03*
X122802944Y-113702944D03*
X122100000Y-115400000D03*
X122802944Y-117097056D03*
X124500000Y-117800000D03*
X126197056Y-117097056D03*
X126900000Y-115400000D03*
D18*
X124500000Y-115400000D03*
D17*
X197597056Y-71502944D03*
X195900000Y-70800000D03*
X194202944Y-71502944D03*
X193500000Y-73200000D03*
X194202944Y-74897056D03*
X195900000Y-75600000D03*
X197597056Y-74897056D03*
X198300000Y-73200000D03*
D18*
X195900000Y-73200000D03*
D17*
X126197056Y-71502944D03*
X124500000Y-70800000D03*
X122802944Y-71502944D03*
X122100000Y-73200000D03*
X122802944Y-74897056D03*
X124500000Y-75600000D03*
X126197056Y-74897056D03*
X126900000Y-73200000D03*
D18*
X124500000Y-73200000D03*
D19*
X146501109Y-102300000D03*
X151951109Y-102300000D03*
D20*
X157401109Y-102300000D03*
D19*
X157401109Y-86300000D03*
X151951109Y-86300000D03*
D20*
X146501109Y-86300000D03*
D21*
X187440000Y-94300000D03*
D22*
X184900000Y-94300000D03*
D23*
X148800000Y-111100000D03*
M02*
