M48
; DRILL file {KiCad (5.1.5-1-g2528d3844)} date Thu Dec 26 13:43:05 2019
; FORMAT={3:3/ absolute / metric / keep zeros}
; #@! TF.CreationDate,2019-12-26T13:43:05-05:00
; #@! TF.GenerationSoftware,Kicad,Pcbnew,(5.1.5-1-g2528d3844)
FMAT,2
METRIC
T1C0.254
T2C0.500
T3C0.508
T4C1.000
T5C1.270
T6C1.500
T7C2.500
T8C3.200
T9C2.250
%
G90
G05
T1
X161902Y-092300
X161902Y-093300
X161902Y-094300
X161902Y-095300
X161902Y-096300
X162902Y-092300
X162902Y-096300
X163902Y-092300
X163902Y-096300
X164902Y-092300
X164902Y-096300
X165902Y-092300
X165902Y-093300
X165902Y-094300
X165902Y-095300
X165902Y-096300
X133950Y-092553
X134657Y-091846
X134657Y-093260
X135364Y-091139
X135364Y-093967
X136071Y-090432
X136071Y-094674
X136778Y-089725
X136778Y-095382
X137485Y-090432
X137485Y-094674
X138192Y-091139
X138192Y-093967
X138899Y-091846
X138899Y-093260
X139607Y-092553
X180793Y-076997
X181501Y-076290
X181501Y-077704
X182208Y-075583
X182208Y-078411
X182915Y-074876
X182915Y-079118
X183622Y-074168
X183622Y-079825
X184329Y-074876
X184329Y-079118
X185036Y-075583
X185036Y-078411
X185743Y-076290
X185743Y-077704
X186450Y-076997
X185074Y-115357
X185416Y-114417
X185758Y-113478
X186014Y-115699
X186100Y-112538
X186442Y-111598
X186954Y-116041
X187382Y-111940
X187893Y-116383
X188322Y-112282
X188833Y-116725
X189175Y-115785
X189262Y-112624
X189517Y-114846
X189859Y-113906
X190201Y-112966
X130199Y-112966
X130541Y-113906
X130883Y-114846
X131138Y-112624
X131225Y-115785
X131567Y-116725
X132078Y-112282
X132507Y-116383
X133018Y-111940
X133446Y-116041
X133958Y-111598
X134300Y-112538
X134386Y-115699
X134642Y-113478
X134984Y-114417
X135326Y-115357
T2
X193500Y-073200
X194203Y-071503
X194203Y-074897
X195900Y-070800
X195900Y-075600
X197597Y-071503
X197597Y-074897
X198300Y-073200
X122100Y-115400
X122803Y-113703
X122803Y-117097
X124500Y-113000
X124500Y-117800
X126197Y-113703
X126197Y-117097
X126900Y-115400
X193500Y-115400
X194203Y-113703
X194203Y-117097
X195900Y-113000
X195900Y-117800
X197597Y-113703
X197597Y-117097
X198300Y-115400
X122100Y-073200
X122803Y-071503
X122803Y-074897
X124500Y-070800
X124500Y-075600
X126197Y-071503
X126197Y-074897
X126900Y-073200
T3
X148800Y-111100
T4
X184900Y-094300
X187440Y-094300
X172600Y-108000
X175140Y-108000
X177680Y-108000
T5
X163902Y-094300
X136778Y-092553
X183622Y-076997
X187638Y-114162
X132762Y-114162
T6
X146501Y-086300
X151951Y-086300
X157401Y-086300
X146501Y-102300
X151951Y-102300
X157401Y-102300
T7
X140501Y-081100
X140501Y-107500
X163401Y-081100
X163401Y-107500
T8
X195900Y-073200
X124500Y-115400
X195900Y-115400
X124500Y-073200
T9
X168600Y-108000
T0
M30
