M48
; DRILL file {KiCad (5.1.5-1-g2528d3844)} date Fri Dec 27 17:07:36 2019
; FORMAT={-:-/ absolute / metric / decimal}
; #@! TF.CreationDate,2019-12-27T17:07:36-05:00
; #@! TF.GenerationSoftware,Kicad,Pcbnew,(5.1.5-1-g2528d3844)
FMAT,2
METRIC
T1C0.254
T2C0.500
T3C0.508
T4C1.000
T5C1.270
T6C1.500
T7C2.500
T8C3.200
T9C2.250
%
G90
G05
T1
X133.95Y-92.553
X134.657Y-91.846
X134.657Y-93.26
X135.364Y-91.139
X135.364Y-93.967
X136.071Y-90.432
X136.071Y-94.674
X136.778Y-89.725
X136.778Y-95.382
X137.485Y-90.432
X137.485Y-94.674
X138.192Y-91.139
X138.192Y-93.967
X138.899Y-91.846
X138.899Y-93.26
X139.607Y-92.553
X180.793Y-76.997
X181.501Y-76.29
X181.501Y-77.704
X182.208Y-75.583
X182.208Y-78.411
X182.915Y-74.876
X182.915Y-79.118
X183.622Y-74.168
X183.622Y-79.825
X184.329Y-74.876
X184.329Y-79.118
X185.036Y-75.583
X185.036Y-78.411
X185.743Y-76.29
X185.743Y-77.704
X186.45Y-76.997
X161.902Y-92.3
X161.902Y-93.3
X161.902Y-94.3
X161.902Y-95.3
X161.902Y-96.3
X162.902Y-92.3
X162.902Y-96.3
X163.902Y-92.3
X163.902Y-96.3
X164.902Y-92.3
X164.902Y-96.3
X165.902Y-92.3
X165.902Y-93.3
X165.902Y-94.3
X165.902Y-95.3
X165.902Y-96.3
X130.199Y-112.966
X130.541Y-113.906
X130.883Y-114.846
X131.138Y-112.624
X131.225Y-115.785
X131.567Y-116.725
X132.078Y-112.282
X132.507Y-116.383
X133.018Y-111.94
X133.446Y-116.041
X133.958Y-111.598
X134.3Y-112.538
X134.386Y-115.699
X134.642Y-113.478
X134.984Y-114.417
X135.326Y-115.357
X185.074Y-115.357
X185.416Y-114.417
X185.758Y-113.478
X186.014Y-115.699
X186.1Y-112.538
X186.442Y-111.598
X186.954Y-116.041
X187.382Y-111.94
X187.893Y-116.383
X188.322Y-112.282
X188.833Y-116.725
X189.175Y-115.785
X189.262Y-112.624
X189.517Y-114.846
X189.859Y-113.906
X190.201Y-112.966
T2
X193.5Y-73.2
X194.203Y-71.503
X194.203Y-74.897
X195.9Y-70.8
X195.9Y-75.6
X197.597Y-71.503
X197.597Y-74.897
X198.3Y-73.2
X122.1Y-73.2
X122.803Y-71.503
X122.803Y-74.897
X124.5Y-70.8
X124.5Y-75.6
X126.197Y-71.503
X126.197Y-74.897
X126.9Y-73.2
X122.1Y-115.4
X122.803Y-113.703
X122.803Y-117.097
X124.5Y-113.0
X124.5Y-117.8
X126.197Y-113.703
X126.197Y-117.097
X126.9Y-115.4
X193.5Y-115.4
X194.203Y-113.703
X194.203Y-117.097
X195.9Y-113.0
X195.9Y-117.8
X197.597Y-113.703
X197.597Y-117.097
X198.3Y-115.4
T3
X148.8Y-111.1
T4
X172.6Y-108.0
X175.14Y-108.0
X177.68Y-108.0
X184.9Y-94.3
X187.44Y-94.3
T5
X136.778Y-92.553
X183.622Y-76.997
X163.902Y-94.3
X132.762Y-114.162
X187.638Y-114.162
T6
X146.501Y-86.3
X151.951Y-86.3
X157.401Y-86.3
X146.501Y-102.3
X151.951Y-102.3
X157.401Y-102.3
T7
X140.501Y-81.1
X140.501Y-107.5
X163.401Y-81.1
X163.401Y-107.5
T8
X124.5Y-73.2
X124.5Y-115.4
X195.9Y-115.4
X195.9Y-73.2
T9
X168.6Y-108.0
T0
M30
